<svg width="40" height="40" viewBox="0 0 40 40" fill="none" xmlns="http://www.w3.org/2000/svg">
<path d="M33.5145 25.8022L31.6936 31.7223L28.1191 30.7823L33.5145 25.8022Z" fill="#E4761B" stroke="#E4761B" stroke-width="0.0571157"/>
<path d="M28.1191 30.7823L31.5668 26.24L33.5145 25.8022L28.1191 30.7823Z" fill="#E4761B" stroke="#E4761B" stroke-width="0.0571157"/>
<path d="M30.8359 21.3395L33.5149 25.8029L31.5673 26.2407L30.8359 21.3395ZM30.8359 21.3395L32.5598 20.1914L33.5149 25.8029L30.8359 21.3395Z" fill="#F6851B" stroke="#F6851B" stroke-width="0.0571157"/>
<path d="M28.6416 17.9665L33.5966 16.0146L33.3504 17.0839L28.6416 17.9665ZM33.1937 18.3683L28.6416 17.9665L33.3504 17.0839L33.1937 18.3683Z" fill="#763D16" stroke="#763D16" stroke-width="0.0571157"/>
<path d="M33.1937 18.3683L32.5594 20.191L28.6416 17.9665L33.1937 18.3683ZM34.1862 16.4667L33.3504 17.0839L33.5966 16.0146L34.1862 16.4667ZM33.1937 18.3683L33.3504 17.0839L34.0145 17.6149L33.1937 18.3683Z" fill="#763D16" stroke="#763D16" stroke-width="0.0571157"/>
<path d="M24.2764 29.3398L25.5151 29.7202L28.1195 30.7822L24.2764 29.3398Z" fill="#E2761B" stroke="#E2761B" stroke-width="0.0571157"/>
<path d="M32.5596 20.1918L33.1939 18.3691L33.7386 18.771L32.5596 20.1918ZM32.5596 20.1918L27.418 18.5629L28.6418 17.9673L32.5596 20.1918Z" fill="#763D16" stroke="#763D16" stroke-width="0.0571157"/>
<path d="M29.8656 12.377L28.6418 17.9669L27.418 18.5625L29.8656 12.377Z" fill="#763D16" stroke="#763D16" stroke-width="0.0571157"/>
<path d="M33.5966 16.0151L28.6416 17.9669L29.8654 12.377L33.5966 16.0151Z" fill="#763D16" stroke="#763D16" stroke-width="0.0571157"/>
<path d="M29.8652 12.3768L35.0367 11.8027L33.5964 16.015L29.8652 12.3768Z" fill="#763D16" stroke="#763D16" stroke-width="0.0571157"/>
<path d="M32.5596 20.1919L30.8358 21.34L27.418 18.563L32.5596 20.1919Z" fill="#F6851B" stroke="#F6851B" stroke-width="0.0571157"/>
<path d="M34.8128 7.77686L35.0367 11.8025L29.8652 12.3766L34.8128 7.77686Z" fill="#763D16" stroke="#763D16" stroke-width="0.0571157"/>
<path d="M34.8135 7.77686L24.4781 15.0029L24.3438 10.1018L34.8135 7.77686Z" fill="#E2761B" stroke="#E2761B" stroke-width="0.0571157"/>
<path d="M16.6572 9.51318L24.3435 10.1016L24.4778 15.0027L16.6572 9.51318Z" fill="#F6851B" stroke="#F6851B" stroke-width="0.0571157"/>
<path d="M27.4187 18.5625L24.4785 15.0033L29.8664 12.377L27.4187 18.5625Z" fill="#763D16" stroke="#763D16" stroke-width="0.0571157"/>
<path d="M27.4177 18.563L30.8354 21.34L26.0371 21.8495L27.4177 18.563Z" fill="#E4761B" stroke="#E4761B" stroke-width="0.0571157"/>
<path d="M26.0382 21.8492L24.4785 15.0034L27.4187 18.5626L26.0382 21.8492Z" fill="#E4761B" stroke="#E4761B" stroke-width="0.0571157"/>
<path d="M29.8664 12.3766L24.4785 15.0029L34.814 7.77686L29.8664 12.3766Z" fill="#763D16" stroke="#763D16" stroke-width="0.0571157"/>
<path d="M16.7243 30.6678L19.1645 33.1147L15.8438 30.2085L16.7243 30.6678Z" fill="#C0AD9E" stroke="#C0AD9E" stroke-width="0.0571157"/>
<path d="M28.1191 30.7825L29.2758 26.556L31.5668 26.2402L28.1191 30.7825Z" fill="#CD6116" stroke="#CD6116" stroke-width="0.0571157"/>
<path d="M6.8291 18.8922L11.0528 14.6226L7.37386 18.3827L6.8291 18.8922Z" fill="#E2761B" stroke="#E2761B" stroke-width="0.0571157"/>
<path d="M31.5671 26.2401L29.2762 26.5558L30.8358 21.339L31.5671 26.2401ZM24.4778 15.0027L20.366 14.8735L16.6572 9.51318L24.4778 15.0027Z" fill="#F6851B" stroke="#F6851B" stroke-width="0.0571157"/>
<path d="M30.8359 21.3394L29.2763 26.5562L29.1494 24.0088L30.8359 21.3394Z" fill="#E4751F" stroke="#E4751F" stroke-width="0.0571157"/>
<path d="M26.0371 21.8488L30.8354 21.3394L29.1489 24.0088L26.0371 21.8488Z" fill="#CD6116" stroke="#CD6116" stroke-width="0.0571157"/>
<path d="M20.3662 14.874L24.478 15.0032L26.0376 21.849L20.3662 14.874Z" fill="#F6851B" stroke="#F6851B" stroke-width="0.0571157"/>
<path d="M20.366 14.874L9.26942 5L16.6572 9.51361L20.366 14.874ZM16.6497 32.1678L7.00831 35.0381L5.08301 27.9699L16.6497 32.1678Z" fill="#E4761B" stroke="#E4761B" stroke-width="0.0571157"/>
<path d="M8.2627 20.6575L11.9044 17.9092L14.9565 18.5909L8.2627 20.6575Z" fill="#763D16" stroke="#763D16" stroke-width="0.0571157"/>
<path d="M14.9564 18.591L11.9043 17.9093L13.5386 11.4224L14.9564 18.591Z" fill="#763D16" stroke="#763D16" stroke-width="0.0571157"/>
<path d="M7.37402 18.3828L11.9037 17.9092L8.26205 20.6575L7.37402 18.3828Z" fill="#763D16" stroke="#763D16" stroke-width="0.0571157"/>
<path d="M29.1489 24.0091L27.2684 23.0977L26.0371 21.8491L29.1489 24.0091Z" fill="#CD6116" stroke="#CD6116" stroke-width="0.0571157"/>
<path d="M7.37362 18.3828L7.05273 16.7539L11.9033 17.9092L7.37362 18.3828Z" fill="#763D16" stroke="#763D16" stroke-width="0.0571157"/>
<path d="M26.8809 25.1495L27.2689 23.0972L29.1494 24.0085L26.8809 25.1495Z" fill="#233447" stroke="#233447" stroke-width="0.0571157"/>
<path d="M29.2763 26.5562L26.8809 25.1497L29.1494 24.0088L29.2763 26.5562Z" fill="#F6851B" stroke="#F6851B" stroke-width="0.0571157"/>
<path d="M11.9033 17.9093L7.05273 16.754L6.65723 15.3834L11.9033 17.9093ZM13.5376 11.4224L11.9033 17.9093L6.65723 15.3834L13.5376 11.4224ZM13.5376 11.4224L20.3657 14.874L14.9554 18.591L13.5376 11.4224Z" fill="#763D16" stroke="#763D16" stroke-width="0.0571157"/>
<path d="M14.9561 18.5911L20.3663 14.874L22.7767 21.9566L14.9561 18.5911ZM22.7767 21.9566L15.2993 21.8059L14.9561 18.5911L22.7767 21.9566Z" fill="#E4761B" stroke="#E4761B" stroke-width="0.0571157"/>
<path d="M8.2627 20.6578L14.9565 18.5911L15.2997 21.8059L8.2627 20.6578ZM26.0382 21.8489L22.7771 21.9566L20.3667 14.874L26.0382 21.8489Z" fill="#F6851B" stroke="#F6851B" stroke-width="0.0571157"/>
<path d="M27.2684 23.0977L26.8804 25.15L26.0371 21.8491L27.2684 23.0977Z" fill="#CD6116" stroke="#CD6116" stroke-width="0.0571157"/>
<path d="M9.26953 5L20.3661 14.874L13.538 11.4224L9.26953 5Z" fill="#763D16" stroke="#763D16" stroke-width="0.0571157"/>
<path d="M5.08398 27.9698L14.4418 27.5967L16.6507 32.1677L5.08398 27.9698Z" fill="#E4761B" stroke="#E4761B" stroke-width="0.0571157"/>
<path d="M16.6493 32.1676L14.4404 27.5966L19.0373 27.3813L16.6493 32.1676Z" fill="#CD6116" stroke="#CD6116" stroke-width="0.0571157"/>
<path d="M26.8817 25.1498L29.2771 26.5563L30.598 29.5486L26.8817 25.1498ZM15.3 21.8059L5.08398 27.9699L8.26297 20.6577L15.3 21.8059ZM14.4418 27.5968L5.08398 27.9699L15.3 21.8059L14.4418 27.5968ZM26.0384 21.8489L26.6504 23.9873L23.6952 24.1524L26.0384 21.8489ZM23.6952 24.1524L22.7774 21.9565L26.0384 21.8489L23.6952 24.1524Z" fill="#F6851B" stroke="#F6851B" stroke-width="0.0571157"/>
<path d="M19.1652 33.1152L16.6504 32.168L25.3963 33.5816L19.1652 33.1152Z" fill="#C0AD9E" stroke="#C0AD9E" stroke-width="0.0571157"/>
<path d="M8.26188 20.6576L6.8291 18.8923L7.37386 18.3828L8.26188 20.6576Z" fill="#763D16" stroke="#763D16" stroke-width="0.0571157"/>
<path d="M26.3888 32.5339L25.3963 33.5816L16.6504 32.168L26.3888 32.5339Z" fill="#D7C1B3" stroke="#D7C1B3" stroke-width="0.0571157"/>
<path d="M26.859 29.9647L16.6504 32.1676L19.0384 27.3813L26.859 29.9647Z" fill="#E4761B" stroke="#E4761B" stroke-width="0.0571157"/>
<path d="M16.6504 32.1678L26.859 29.9648L26.3888 32.5338L16.6504 32.1678Z" fill="#D7C1B3" stroke="#D7C1B3" stroke-width="0.0571157"/>
<path d="M6.6571 15.383L6.32129 9.86475L13.5374 11.4219L6.6571 15.383ZM7.37349 18.3825L6.38099 17.4137L7.05261 16.7536L7.37349 18.3825Z" fill="#763D16" stroke="#763D16" stroke-width="0.0571157"/>
<path d="M21.1045 23.3774L22.7761 21.9565L22.5373 25.4297L21.1045 23.3774Z" fill="#CD6116" stroke="#CD6116" stroke-width="0.0571157"/>
<path d="M22.7762 21.9565L21.1046 23.3774L18.6719 24.5901L22.7762 21.9565Z" fill="#CD6116" stroke="#CD6116" stroke-width="0.0571157"/>
<path d="M30.5971 29.5487L30.1419 29.2258L26.8809 25.1499L30.5971 29.5487Z" fill="#F6851B" stroke="#F6851B" stroke-width="0.0571157"/>
<path d="M18.6718 24.5899L15.2988 21.8057L22.7762 21.9564L18.6718 24.5899Z" fill="#CD6116" stroke="#CD6116" stroke-width="0.0571157"/>
<path d="M22.5381 25.4297L22.7769 21.9565L23.6948 24.1524L22.5381 25.4297Z" fill="#E4751F" stroke="#E4751F" stroke-width="0.0571157"/>
<path d="M6.05273 15.9287L6.65719 15.3833L7.0527 16.7539L6.05273 15.9287Z" fill="#763D16" stroke="#763D16" stroke-width="0.0571157"/>
<path d="M22.5374 25.4297L18.6719 24.5902L21.1046 23.3774L22.5374 25.4297Z" fill="#233447" stroke="#233447" stroke-width="0.0571157"/>
<path d="M13.5374 11.4224L6.32129 9.86523L9.26894 5L13.5374 11.4224Z" fill="#763D16" stroke="#763D16" stroke-width="0.0571157"/>
<path d="M25.3962 33.5817L25.8066 34.658L19.165 33.1152L25.3962 33.5817Z" fill="#C0AD9E" stroke="#C0AD9E" stroke-width="0.0571157"/>
<path d="M19.0375 27.3813L18.6719 24.5898L22.5374 25.4294L19.0375 27.3813Z" fill="#F6851B" stroke="#F6851B" stroke-width="0.0571157"/>
<path d="M15.2988 21.8057L18.6718 24.5899L19.0375 27.3813L15.2988 21.8057Z" fill="#E4751F" stroke="#E4751F" stroke-width="0.0571157"/>
<path d="M23.6938 24.1522L26.6489 23.9871L30.1413 29.2255L23.6938 24.1522ZM15.2986 21.8057L19.0373 27.3813L14.4404 27.5966L15.2986 21.8057Z" fill="#F6851B" stroke="#F6851B" stroke-width="0.0571157"/>
<path d="M23.6948 24.1519L27.3663 29.5266L22.5381 25.4292L23.6948 24.1519Z" fill="#E4751F" stroke="#E4751F" stroke-width="0.0571157"/>
<path d="M22.5381 25.4297L27.3663 29.5271L26.8588 29.9648L22.5381 25.4297Z" fill="#F6851B" stroke="#F6851B" stroke-width="0.0571157"/>
<path d="M26.8577 29.9643L19.0371 27.381L22.537 25.4292L26.8577 29.9643ZM30.1412 29.2252L27.3652 29.5266L23.6937 24.1519L30.1412 29.2252Z" fill="#F6851B" stroke="#F6851B" stroke-width="0.0571157"/>
<path d="M30.8729 31.7515L29.6789 34.0549L25.8059 34.6577L30.8729 31.7515ZM25.8059 34.6577L25.3955 33.5813L26.388 32.5336L25.8059 34.6577Z" fill="#C0AD9E" stroke="#C0AD9E" stroke-width="0.0571157"/>
<path d="M26.3887 32.5336L27.12 32.2538L25.8066 34.6577L26.3887 32.5336ZM25.8066 34.6577L27.12 32.2538L30.8736 31.7515L25.8066 34.6577Z" fill="#C0AD9E" stroke="#C0AD9E" stroke-width="0.0571157"/>
<path d="M30.1416 29.2251L31.0595 29.7633L28.2686 30.0862L30.1416 29.2251Z" fill="#161616" stroke="#161616" stroke-width="0.0571157"/>
<path d="M28.2692 30.0862L27.3662 29.5265L30.1422 29.2251L28.2692 30.0862ZM27.9483 30.5096L31.3437 30.1149L30.8735 31.751L27.9483 30.5096Z" fill="#161616" stroke="#161616" stroke-width="0.0571157"/>
<path d="M30.8726 31.7519L27.119 32.2542L27.9473 30.5104L30.8726 31.7519ZM27.119 32.2542L26.3877 32.534L26.8578 29.9651L27.119 32.2542ZM26.8578 29.9651L27.3653 29.5273L28.2682 30.0871L26.8578 29.9651ZM31.0592 29.7641L31.3427 30.1158L27.9473 30.5104L31.0592 29.7641Z" fill="#161616" stroke="#161616" stroke-width="0.0571157"/>
<path d="M27.9479 30.5104L28.2688 30.0871L31.0597 29.7642L27.9479 30.5104ZM26.8584 29.9651L27.9479 30.5104L27.1196 32.2542L26.8584 29.9651Z" fill="#161616" stroke="#161616" stroke-width="0.0571157"/>
<path d="M28.2688 30.0868L27.9479 30.5102L26.8584 29.9648L28.2688 30.0868Z" fill="#161616" stroke="#161616" stroke-width="0.0571157"/>
</svg>
