<svg width="40" height="40" viewBox="0 0 40 40" fill="none" xmlns="http://www.w3.org/2000/svg">
<path d="M8.55 32C12.3783 32 15.255 28.8 16.9717 26.2733C16.767 26.8022 16.657 27.363 16.6467 27.93C16.6467 29.405 17.53 30.4567 19.27 30.4567C21.6583 30.4567 24.2117 28.4433 25.5333 26.2733C25.4486 26.557 25.4021 26.8507 25.395 27.1467C25.395 28.175 25.9983 28.8233 27.2283 28.8233C31.1017 28.8233 35 22.225 35 16.455C35 11.9583 32.6333 8 26.6933 8C16.2533 8 5 20.2567 5 28.175C5 31.285 6.74 32 8.55 32ZM23.0983 15.9633C23.0983 14.845 23.7483 14.0617 24.6983 14.0617C25.6267 14.0617 26.2767 14.845 26.2767 15.9617C26.2767 17.0817 25.6267 17.8867 24.6983 17.8867C23.7483 17.8867 23.0983 17.0817 23.0983 15.9633ZM28.0633 15.9633C28.0633 14.845 28.7133 14.0617 29.6633 14.0617C30.5917 14.0617 31.2417 14.845 31.2417 15.9617C31.2417 17.0817 30.5917 17.8867 29.6633 17.8867C28.7133 17.8867 28.0633 17.0817 28.0633 15.9633Z" fill="#AB9FF2"/>
</svg>
