<svg width="40" height="40" viewBox="0 0 40 40" fill="none" xmlns="http://www.w3.org/2000/svg">
<path d="M36.0413 20C36.0413 10.7953 28.5794 3.33337 19.3747 3.33337C10.1699 3.33337 2.70801 10.7953 2.70801 20C2.70801 29.2048 10.1699 36.6667 19.3747 36.6667C28.5794 36.6667 36.0413 29.2048 36.0413 20Z" fill="url(#paint0_radial_478_9197)"/>
<path d="M13.7241 15.3471C16.8448 12.2917 21.9043 12.2917 25.025 15.3471L25.4005 15.7148C25.5566 15.8676 25.5566 16.1152 25.4005 16.268L24.1158 17.5259C24.0378 17.6023 23.9113 17.6023 23.8333 17.5259L23.3164 17.0199C21.1394 14.8884 17.6097 14.8884 15.4327 17.0199L14.8792 17.5618C14.8012 17.6382 14.6747 17.6382 14.5967 17.5618L13.3119 16.3039C13.1559 16.1511 13.1559 15.9034 13.3119 15.7507L13.7241 15.3471ZM27.682 17.9485L28.8254 19.068C28.9814 19.2208 28.9814 19.4685 28.8254 19.6213L23.6696 24.6694C23.5135 24.8221 23.2606 24.8221 23.1045 24.6694C23.1045 24.6694 23.1045 24.6694 23.1045 24.6694L19.4452 21.0866C19.4062 21.0484 19.343 21.0484 19.3039 21.0866C19.3039 21.0866 19.3039 21.0866 19.3039 21.0866L15.6447 24.6694C15.4887 24.8221 15.2357 24.8221 15.0797 24.6694C15.0797 24.6694 15.0797 24.6694 15.0797 24.6694L9.92366 19.6212C9.76763 19.4684 9.76763 19.2208 9.92366 19.068L11.0671 17.9485C11.2231 17.7957 11.4761 17.7957 11.6321 17.9485L15.2915 21.5313C15.3305 21.5695 15.3938 21.5695 15.4328 21.5313C15.4328 21.5313 15.4328 21.5313 15.4328 21.5313L19.092 17.9485C19.248 17.7957 19.501 17.7957 19.657 17.9484C19.657 17.9484 19.657 17.9484 19.657 17.9484L23.3164 21.5313C23.3554 21.5695 23.4186 21.5695 23.4576 21.5313L27.1169 17.9485C27.273 17.7958 27.5259 17.7958 27.682 17.9485Z" fill="white"/>
<defs>
<radialGradient id="paint0_radial_478_9197" cx="0" cy="0" r="1" gradientUnits="userSpaceOnUse" gradientTransform="translate(2.70801 20) scale(33.3333)">
<stop stop-color="#5D9DF6"/>
<stop offset="1" stop-color="#006FFF"/>
</radialGradient>
</defs>
</svg>
