<svg width="21" height="16" viewBox="0 0 21 16" fill="none" xmlns="http://www.w3.org/2000/svg">
<g clip-path="url(#clip0_1679_14432)">
<path d="M4.75755 15.9721V7.74619L2.24925 5.41232L0 4.11719V14.5204C0 15.3236 0.639852 15.9721 1.4273 15.9721H4.75755Z" fill="#4285F4"/>
<path d="M16.1758 15.972H19.506C20.2959 15.972 20.9333 15.3212 20.9333 14.5204V4.11719L18.3857 5.60061L16.1758 7.74611V15.972Z" fill="#34A853"/>
<path d="M4.75928 7.74636L4.41797 4.53226L4.75928 1.45605L10.4683 5.81093L16.1773 1.45605L16.5591 4.36618L16.1773 7.74636L10.4683 12.1012L4.75928 7.74636Z" fill="#EA4335"/>
<path d="M16.1758 1.4557V7.746L20.9333 4.117V2.18149C20.9333 0.386361 18.9185 -0.63699 17.508 0.439587L16.1758 1.4557Z" fill="#FBBC04"/>
<path d="M0 4.11703L2.18809 5.78616L4.75755 7.74604V1.45574L3.42535 0.439625C2.01236 -0.637035 0 0.386399 0 2.18144V4.11703Z" fill="#C5221F"/>
</g>
<defs>
<clipPath id="clip0_1679_14432">
<rect width="21" height="16" fill="white"/>
</clipPath>
</defs>
</svg>
