<svg width="22" height="26" viewBox="0 0 22 26" fill="none" xmlns="http://www.w3.org/2000/svg">
<path d="M18.128 13.7842C18.099 10.5612 20.767 8.9932 20.889 8.9202C19.378 6.7172 17.036 6.4162 16.213 6.3922C14.246 6.1852 12.338 7.5692 11.336 7.5692C10.314 7.5692 8.771 6.4122 7.108 6.4462C4.968 6.4792 2.966 7.7182 1.868 9.6422C-0.398004 13.5652 1.292 19.3302 3.463 22.5012C4.549 24.0542 5.818 25.7882 7.479 25.7272C9.104 25.6602 9.711 24.6912 11.672 24.6912C13.615 24.6912 14.185 25.7272 15.879 25.6882C17.623 25.6602 18.721 24.1282 19.769 22.5612C21.024 20.7812 21.528 19.0282 21.548 18.9382C21.507 18.9242 18.161 17.6472 18.128 13.7842Z" fill="white"/>
<path d="M14.928 4.3058C15.802 3.2128 16.4 1.7258 16.234 0.216797C14.969 0.272797 13.387 1.0918 12.476 2.1608C11.67 3.1028 10.95 4.6468 11.136 6.0988C12.557 6.2048 14.016 5.3818 14.928 4.3058Z" fill="white"/>
</svg>
