<svg width="250" height="247" viewBox="0 0 250 247" fill="none" xmlns="http://www.w3.org/2000/svg">
<path d="M85.43 245.23C92.53 244 99.77 243.29 106.68 241.4C116.66 238.67 126.22 238.82 135.96 242.35C150.2 247.52 164.69 248.44 179.09 243.05C202.73 234.2 211.07 210.46 197.9 188.89C194.59 183.48 190.15 178.57 185.48 174.23C176.24 165.65 168.39 156.13 162.16 145.14C153.84 130.47 141.01 122.63 124.19 122.37C107.21 122.11 93.94 129.61 85.47 144.3C79.49 154.67 72.11 163.24 62.12 169.87C53.58 175.53 47.18 183.34 43.35 193C36.65 209.88 42.33 227.01 57.75 236.61C65.56 241.48 74.85 244.09 85.3 244.36C85.35 244.65 85.4 244.94 85.45 245.23" fill="#231F20"/>
<path d="M135.36 47.0399C134.72 56.7299 135.02 66.3399 139.26 75.2199C141.48 79.8699 144.31 84.5199 147.88 88.1799C159.79 100.36 177.46 98.9699 188.41 84.9799C198.26 72.3799 201.46 58.0499 196.75 42.5599C192.47 28.4699 184.23 16.8999 172.46 8.04993C169.45 5.78993 165.95 3.96993 162.41 2.69993C155.23 0.119925 149.1 2.36992 144.78 8.68992C140.34 15.1799 138.62 22.6599 137.38 30.2299C136.46 35.7899 136.02 41.4299 135.36 47.0399Z" fill="#231F20"/>
<path d="M119.36 46.6699C118.18 37.1999 117.31 27.6699 115.64 18.2799C114.92 14.2399 112.97 10.2299 110.81 6.67995C107.36 1.00995 101.93 -0.940054 95.43 0.409946C87.54 2.04995 81.31 6.61995 75.65 12.0199C65.76 21.4599 57.97 32.3699 55.63 46.0899C53.21 60.2799 56.39 73.4699 66.09 84.4199C78.25 98.1599 96.91 96.9899 108.56 82.0899C114.38 74.6399 117.34 66.0699 118.21 56.7399C118.52 53.4299 118.44 50.0899 118.54 46.7699C118.82 46.7399 119.09 46.7099 119.36 46.6699Z" fill="#231F20"/>
<path d="M0.03002 111.06C-0.45998 128.7 5.82002 142.24 20.1 151.34C35.84 161.38 53.46 153.86 57.76 135.65C59.46 128.43 59.36 121.18 57.13 114.15C53.36 102.24 47.81 91.1899 39.42 81.8199C37.11 79.2399 34.31 76.9199 31.33 75.1599C25.3 71.5999 19.3 72.4299 14.12 77.1499C6.80002 83.8199 3.48002 92.6299 1.41002 102.01C0.69002 105.25 0.39002 108.57 0.03002 111.07" fill="#231F20"/>
<path d="M189.73 131.76C190.75 136.44 191.24 141.33 192.9 145.78C197.73 158.77 211.14 164.37 224.02 159.2C239.76 152.87 250.26 136.55 250 118.79C249.87 109.29 248.16 100.14 243.7 91.69C242.35 89.14 240.64 86.6999 238.74 84.5199C233.52 78.5699 226.97 77.4399 219.99 81.1699C218.05 82.1999 216.13 83.4299 214.56 84.9499C203.25 95.8699 195.24 108.82 191.32 124.14C190.7 126.56 190.61 129.11 190.27 131.61C190.09 131.67 189.92 131.72 189.74 131.78" fill="#231F20"/>
</svg>
