<svg width="24" height="24" viewBox="0 0 24 24" fill="none" xmlns="http://www.w3.org/2000/svg">
<path d="M20.9344 12.0953C20.9344 16.9776 16.9765 20.9356 12.0941 20.9356C7.21177 20.9356 3.25385 16.9776 3.25385 12.0953C3.25385 7.21293 7.21177 3.255 12.0941 3.255M17.0054 12.0953C17.0054 14.8077 14.8065 17.0065 12.0941 17.0065C9.38171 17.0065 7.18286 14.8077 7.18286 12.0953C7.18286 9.38287 9.38171 7.18402 12.0941 7.18402M14.8031 9.49391L18.6918 9.90233L20.7998 6.95115L18.2702 6.10796L17.427 3.57838L14.4758 5.68636L14.8031 9.49391ZM14.8031 9.49391L12.0941 12.0952" stroke="white" stroke-width="1.47338" stroke-linecap="round" stroke-linejoin="round"/>
</svg>
