<svg width="32" height="32" viewBox="0 0 32 32" fill="none" xmlns="http://www.w3.org/2000/svg">
<path opacity="0.24" d="M23.8681 6.66467C24.1426 7.3287 24.6696 7.85652 25.3332 8.13209L27.6602 9.09596C28.3242 9.37103 28.8518 9.89865 29.1269 10.5627C29.4019 11.2268 29.4019 11.973 29.1269 12.6371L28.1637 14.9624C27.8885 15.6268 27.8882 16.3737 28.1646 17.0377L29.1261 19.3624C29.2624 19.6913 29.3326 20.0439 29.3327 20.3999C29.3328 20.756 29.2627 21.1086 29.1264 21.4375C28.9902 21.7665 28.7904 22.0654 28.5386 22.3171C28.2868 22.5688 27.9879 22.7685 27.6589 22.9046L25.3336 23.8678C24.6696 24.1424 24.1418 24.6694 23.8663 25.333L22.9024 27.66C22.6274 28.3241 22.0998 28.8517 21.4357 29.1268C20.7717 29.4019 20.0255 29.4019 19.3615 29.1268L17.0362 28.1636C16.3721 27.8892 15.6263 27.8898 14.9626 28.1652L12.6357 29.1277C11.972 29.4021 11.2265 29.4019 10.563 29.127C9.89947 28.8522 9.37217 28.3252 9.09692 27.6618L8.1328 25.3341C7.85824 24.6701 7.33123 24.1423 6.66763 23.8667L4.34072 22.9028C3.67695 22.6279 3.14951 22.1006 2.87435 21.4369C2.59918 20.7732 2.59881 20.0274 2.87331 19.3634L3.83646 17.0381C4.11084 16.374 4.11028 15.6281 3.8349 14.9644L2.87313 12.6357C2.73677 12.3068 2.66656 11.9542 2.6665 11.5982C2.66645 11.2421 2.73655 10.8895 2.8728 10.5606C3.00905 10.2316 3.20879 9.93273 3.46059 9.68099C3.7124 9.42926 4.01134 9.22961 4.34032 9.09346L6.66557 8.13028C7.329 7.85595 7.85648 7.32959 8.13224 6.66673L9.09608 4.33974C9.37114 3.67565 9.89874 3.14804 10.5628 2.87296C11.2269 2.59789 11.973 2.59789 12.6371 2.87296L14.9623 3.83614C15.6264 4.11054 16.3722 4.10998 17.0359 3.83459L19.3638 2.87446C20.0278 2.59954 20.7737 2.59959 21.4377 2.87461C22.1016 3.14963 22.6291 3.67709 22.9042 4.34101L23.8684 6.6687L23.8681 6.66467Z" fill="#233E97"/>
<path d="M11.9998 16L14.6665 18.6667L20.6665 12.6667M23.8681 6.66467C24.1426 7.3287 24.6696 7.85652 25.3332 8.13209L27.6602 9.09596C28.3242 9.37103 28.8518 9.89865 29.1269 10.5627C29.4019 11.2268 29.4019 11.973 29.1269 12.6371L28.1637 14.9624C27.8885 15.6268 27.8882 16.3737 28.1646 17.0377L29.1261 19.3624C29.2624 19.6913 29.3326 20.0439 29.3327 20.3999C29.3328 20.756 29.2627 21.1086 29.1264 21.4375C28.9902 21.7665 28.7904 22.0654 28.5386 22.3171C28.2868 22.5688 27.9879 22.7685 27.6589 22.9046L25.3336 23.8678C24.6696 24.1424 24.1418 24.6694 23.8663 25.333L22.9024 27.66C22.6274 28.3241 22.0998 28.8517 21.4357 29.1268C20.7717 29.4019 20.0255 29.4019 19.3615 29.1268L17.0362 28.1636C16.3721 27.8892 15.6263 27.8898 14.9626 28.1652L12.6357 29.1277C11.972 29.4021 11.2265 29.4019 10.563 29.127C9.89947 28.8522 9.37217 28.3252 9.09692 27.6618L8.1328 25.3341C7.85824 24.6701 7.33123 24.1423 6.66763 23.8667L4.34072 22.9028C3.67695 22.6279 3.14951 22.1006 2.87435 21.4369C2.59918 20.7732 2.59881 20.0274 2.87331 19.3634L3.83646 17.0381C4.11084 16.374 4.11028 15.6281 3.8349 14.9644L2.87313 12.6357C2.73677 12.3068 2.66656 11.9542 2.6665 11.5982C2.66645 11.2421 2.73655 10.8895 2.8728 10.5606C3.00905 10.2316 3.20879 9.93273 3.46059 9.68099C3.7124 9.42926 4.01134 9.22961 4.34032 9.09346L6.66557 8.13028C7.329 7.85595 7.85648 7.32959 8.13224 6.66673L9.09608 4.33974C9.37114 3.67565 9.89874 3.14804 10.5628 2.87296C11.2269 2.59789 11.973 2.59789 12.6371 2.87296L14.9623 3.83614C15.6264 4.11054 16.3722 4.10998 17.0359 3.83459L19.3638 2.87446C20.0278 2.59954 20.7737 2.59959 21.4377 2.87461C22.1016 3.14963 22.6291 3.67709 22.9042 4.34101L23.8684 6.6687L23.8681 6.66467Z" stroke="#233E97" stroke-width="2" stroke-linecap="round" stroke-linejoin="round"/>
</svg>
