<svg width="72" height="71" viewBox="0 0 72 71" fill="none" xmlns="http://www.w3.org/2000/svg">
<path d="M65.3388 2.67212H7.09209C5.09701 2.67212 3.47968 4.28945 3.47968 6.28454V64.5313C3.47968 66.5264 5.09701 68.1437 7.09209 68.1437H65.3388C67.3339 68.1437 68.9513 66.5264 68.9513 64.5313V6.28454C68.9513 4.28945 67.3339 2.67212 65.3388 2.67212Z" fill="#3D5A98"/>
<path d="M48.6486 68.1384V42.7851H57.1569L58.4293 32.9049H48.6486V26.5983C48.6486 23.7383 49.4452 21.7855 53.5445 21.7855H58.7778V12.9342C56.2436 12.6706 53.6969 12.545 51.1491 12.558C43.6145 12.558 38.4254 17.1496 38.4254 25.6192V32.9049H29.9172V42.7851H38.4254V68.1384H48.6486Z" fill="white"/>
</svg>
