<?xml version="1.0" encoding="UTF-8"?>
<!DOCTYPE svg PUBLIC "-//W3C//DTD SVG 1.1//EN" "http://www.w3.org/Graphics/SVG/1.1/DTD/svg11.dtd">
<svg xmlns="http://www.w3.org/2000/svg" version="1.1" width="72px" height="74px" style="shape-rendering:geometricPrecision; text-rendering:geometricPrecision; image-rendering:optimizeQuality; fill-rule:evenodd; clip-rule:evenodd" xmlns:xlink="http://www.w3.org/1999/xlink">
<g><path style="opacity:1" fill="#566a7a" d="M 53.5,17.5 C 50.7823,18.1036 48.449,19.437 46.5,21.5C 46.1667,21.5 45.8333,21.5 45.5,21.5C 43.9275,20.3127 42.2608,19.3127 40.5,18.5C 42.3786,18.6068 42.7119,18.1068 41.5,17C 37.0745,16.2093 32.7411,16.5427 28.5,18C 29.448,18.4828 30.448,18.6495 31.5,18.5C 31.1667,19.1667 30.8333,19.8333 30.5,20.5C 29.8333,20.1667 29.1667,19.8333 28.5,19.5C 27.5,19.1667 26.8333,18.5 26.5,17.5C 25.6935,16.2719 24.6935,15.2719 23.5,14.5C 34.075,9.80054 44.075,10.8005 53.5,17.5 Z"/></g>
<g><path style="opacity:1" fill="#4762ab" d="M 23.5,14.5 C 24.6935,15.2719 25.6935,16.2719 26.5,17.5C 23.9884,16.0721 21.3217,15.5721 18.5,16C 15.414,19.5854 13.7474,23.752 13.5,28.5C 12.6618,28.1583 12.3284,27.4916 12.5,26.5C 12.9363,22.1278 14.603,18.2944 17.5,15C 19.4727,14.5045 21.4727,14.3379 23.5,14.5 Z"/></g>
<g><path style="opacity:1" fill="#373e43" d="M 40.5,18.5 C 37.5,18.5 34.5,18.5 31.5,18.5C 30.448,18.6495 29.448,18.4828 28.5,18C 32.7411,16.5427 37.0745,16.2093 41.5,17C 42.7119,18.1068 42.3786,18.6068 40.5,18.5 Z"/></g>
<g><path style="opacity:0.996" fill="#6175b7" d="M 53.5,17.5 C 55.1703,17.7512 56.6703,18.4178 58,19.5C 59.302,22.3751 60.1353,25.3751 60.5,28.5C 59.8333,28.8333 59.1667,29.1667 58.5,29.5C 59.4203,24.6717 57.7536,21.3384 53.5,19.5C 51.4434,19.4357 49.7767,20.1024 48.5,21.5C 47.8333,21.5 47.1667,21.5 46.5,21.5C 48.449,19.437 50.7823,18.1036 53.5,17.5 Z"/></g>
<g><path style="opacity:0.999" fill="#6677b6" d="M 28.5,19.5 C 29.1667,19.8333 29.8333,20.1667 30.5,20.5C 35.4845,21.918 40.4845,22.2513 45.5,21.5C 45.8333,21.5 46.1667,21.5 46.5,21.5C 44.7006,24.5046 44.0339,27.838 44.5,31.5C 43.0337,30.653 42.2004,29.3197 42,27.5C 41.1841,26.1772 40.0174,25.5106 38.5,25.5C 35.6085,24.5975 32.6085,24.2641 29.5,24.5C 29.6107,23.8826 29.944,23.3826 30.5,23C 29.1772,22.1841 28.5106,21.0174 28.5,19.5 Z"/></g>
<g><path style="opacity:1" fill="#3e9ccf" d="M 26.5,17.5 C 26.8333,18.5 27.5,19.1667 28.5,19.5C 28.5106,21.0174 29.1772,22.1841 30.5,23C 29.944,23.3826 29.6107,23.8826 29.5,24.5C 28.4017,25.6009 28.235,26.9343 29,28.5C 30.2635,26.393 32.0968,25.393 34.5,25.5C 35.2726,36.0783 36.606,36.0783 38.5,25.5C 40.0174,25.5106 41.1841,26.1772 42,27.5C 42.2004,29.3197 43.0337,30.653 44.5,31.5C 49.1761,34.0716 49.5095,37.2382 45.5,41C 46.8333,41.3333 48.1667,41.6667 49.5,42C 46.6288,42.1308 44.2954,43.2975 42.5,45.5C 43.0253,46.1924 43.6919,46.6924 44.5,47C 43.0161,47.6622 41.6828,48.4955 40.5,49.5C 37.3943,49.2116 35.3943,47.545 34.5,44.5C 36.8589,41.6055 35.8589,40.7721 31.5,42C 32.3805,42.7083 33.0472,43.5416 33.5,44.5C 33.5,45.5 33.5,46.5 33.5,47.5C 31.1667,47.5 28.8333,47.5 26.5,47.5C 24.0642,46.4284 21.8975,47.095 20,49.5C 19.8333,49.1667 19.6667,48.8333 19.5,48.5C 21.3603,46.4384 23.6936,45.1051 26.5,44.5C 24.9223,43.7022 23.2556,43.2022 21.5,43C 22.5,42.6667 23.5,42.3333 24.5,42C 22.5,41.6667 20.5,41.3333 18.5,41C 20.3817,40.8019 22.0484,40.3019 23.5,39.5C 27.8445,39.4742 29.1778,37.4742 27.5,33.5C 26.2322,32.5721 24.8989,32.4054 23.5,33C 23.9574,33.414 24.2907,33.914 24.5,34.5C 23.7261,35.7112 22.8928,35.7112 22,34.5C 21.5172,35.448 21.3505,36.448 21.5,37.5C 20.1667,37.5 18.8333,37.5 17.5,37.5C 18.3007,35.9582 18.634,34.2915 18.5,32.5C 19.4345,31.4324 19.7678,30.099 19.5,28.5C 21.6247,26.8785 23.6247,25.0451 25.5,23C 24.6439,20.6459 22.9772,19.1459 20.5,18.5C 18.1874,21.4369 16.8541,24.7702 16.5,28.5C 15.5,28.5 14.5,28.5 13.5,28.5C 13.7474,23.752 15.414,19.5854 18.5,16C 21.3217,15.5721 23.9884,16.0721 26.5,17.5 Z"/></g>
<g><path style="opacity:1" fill="#eb9531" d="M 19.5,28.5 C 18.5,28.5 17.5,28.5 16.5,28.5C 16.8541,24.7702 18.1874,21.4369 20.5,18.5C 22.9772,19.1459 24.6439,20.6459 25.5,23C 23.6247,25.0451 21.6247,26.8785 19.5,28.5 Z"/></g>
<g><path style="opacity:1" fill="#ee972e" d="M 54.5,30.5 C 53.8333,30.8333 53.1667,31.1667 52.5,31.5C 51.0401,29.5372 49.3734,27.7038 47.5,26C 54.3557,20.4522 56.6891,21.9522 54.5,30.5 Z"/></g>
<g><path style="opacity:1" fill="#234199" d="M 29.5,24.5 C 32.6085,24.2641 35.6085,24.5975 38.5,25.5C 36.606,36.0783 35.2726,36.0783 34.5,25.5C 32.0968,25.393 30.2635,26.393 29,28.5C 28.235,26.9343 28.4017,25.6009 29.5,24.5 Z"/></g>
<g><path style="opacity:1" fill="#34a7dd" d="M 46.5,21.5 C 47.1667,21.5 47.8333,21.5 48.5,21.5C 46.7516,23.1599 46.2516,25.1599 47,27.5C 48.7038,29.3734 50.5372,31.0401 52.5,32.5C 54.435,38.9289 55.7683,45.5956 56.5,52.5C 56.5,53.1667 56.5,53.8333 56.5,54.5C 56.1667,54.5 55.8333,54.5 55.5,54.5C 52.4291,57.2464 49.4291,59.9131 46.5,62.5C 46.1667,62.5 45.8333,62.5 45.5,62.5C 39.5087,62.4073 33.5087,62.4073 27.5,62.5C 26.5084,62.6716 25.8417,62.3382 25.5,61.5C 23.8831,59.9718 21.5497,58.4718 18.5,57C 16.2101,55.2228 14.5434,53.0562 13.5,50.5C 13.5,49.8333 13.5,49.1667 13.5,48.5C 15.0739,46.8984 15.7406,44.8984 15.5,42.5C 16.5375,41.0697 17.2041,39.403 17.5,37.5C 18.8333,37.5 20.1667,37.5 21.5,37.5C 21.8333,38.5 22.5,39.1667 23.5,39.5C 22.0484,40.3019 20.3817,40.8019 18.5,41C 20.5,41.3333 22.5,41.6667 24.5,42C 23.5,42.3333 22.5,42.6667 21.5,43C 23.2556,43.2022 24.9223,43.7022 26.5,44.5C 23.6936,45.1051 21.3603,46.4384 19.5,48.5C 19.6667,48.8333 19.8333,49.1667 20,49.5C 21.8975,47.095 24.0642,46.4284 26.5,47.5C 27.3121,48.9931 28.6455,49.6598 30.5,49.5C 33.7646,48.7653 37.0979,48.7653 40.5,49.5C 41.6828,48.4955 43.0161,47.6622 44.5,47C 43.6919,46.6924 43.0253,46.1924 42.5,45.5C 44.2954,43.2975 46.6288,42.1308 49.5,42C 48.1667,41.6667 46.8333,41.3333 45.5,41C 49.5095,37.2382 49.1761,34.0716 44.5,31.5C 44.0339,27.838 44.7006,24.5046 46.5,21.5 Z"/></g>
<g><path style="opacity:1" fill="#4883ba" d="M 58.5,29.5 C 58.1583,30.3382 57.4916,30.6716 56.5,30.5C 55.8333,30.5 55.1667,30.5 54.5,30.5C 56.6891,21.9522 54.3557,20.4522 47.5,26C 49.3734,27.7038 51.0401,29.5372 52.5,31.5C 52.5,31.8333 52.5,32.1667 52.5,32.5C 50.5372,31.0401 48.7038,29.3734 47,27.5C 46.2516,25.1599 46.7516,23.1599 48.5,21.5C 49.7767,20.1024 51.4434,19.4357 53.5,19.5C 57.7536,21.3384 59.4203,24.6717 58.5,29.5 Z"/></g>
<g><path style="opacity:0.992" fill="#4a4539" d="M 60.5,28.5 C 67.8226,33.2956 70.3226,39.9623 68,48.5C 66.9609,49.7101 65.7942,50.7101 64.5,51.5C 61.9039,52.2653 59.2372,52.5987 56.5,52.5C 55.7683,45.5956 54.435,38.9289 52.5,32.5C 52.5,32.1667 52.5,31.8333 52.5,31.5C 53.1667,31.1667 53.8333,30.8333 54.5,30.5C 55.3426,37.2082 56.5093,43.8748 58,50.5C 59.0113,51.3366 60.1779,51.67 61.5,51.5C 60.3005,44.3697 58.6339,37.3697 56.5,30.5C 57.4916,30.6716 58.1583,30.3382 58.5,29.5C 59.1667,29.1667 59.8333,28.8333 60.5,28.5 Z"/></g>
<g><path style="opacity:1" fill="#c0cdd4" d="M 54.5,30.5 C 55.1667,30.5 55.8333,30.5 56.5,30.5C 58.6339,37.3697 60.3005,44.3697 61.5,51.5C 60.1779,51.67 59.0113,51.3366 58,50.5C 56.5093,43.8748 55.3426,37.2082 54.5,30.5 Z"/></g>
<g><path style="opacity:1" fill="#f7e084" d="M 13.5,29.5 C 11.9709,32.7536 10.6376,36.087 9.5,39.5C 8.04125,39.5674 6.70792,39.2341 5.5,38.5C 6.37699,35.7423 7.54366,33.0756 9,30.5C 10.3561,29.6198 11.8561,29.2865 13.5,29.5 Z"/></g>
<g><path style="opacity:1" fill="#2a1d1d" d="M 23.5,39.5 C 22.5,39.1667 21.8333,38.5 21.5,37.5C 21.3505,36.448 21.5172,35.448 22,34.5C 22.8928,35.7112 23.7261,35.7112 24.5,34.5C 24.2907,33.914 23.9574,33.414 23.5,33C 24.8989,32.4054 26.2322,32.5721 27.5,33.5C 29.1778,37.4742 27.8445,39.4742 23.5,39.5 Z"/></g>
<g><path style="opacity:1" fill="#1c1313" d="M 41.5,34.5 C 42.9187,33.5489 44.5853,33.2155 46.5,33.5C 46.9842,36.5666 45.8175,38.5666 43,39.5C 40.0059,38.5133 39.8392,37.18 42.5,35.5C 42.3764,34.8933 42.0431,34.56 41.5,34.5 Z"/></g>
<g><path style="opacity:1" fill="#414241" d="M 12.5,26.5 C 12.3284,27.4916 12.6618,28.1583 13.5,28.5C 14.5,28.5 15.5,28.5 16.5,28.5C 17.5,28.5 18.5,28.5 19.5,28.5C 19.7678,30.099 19.4345,31.4324 18.5,32.5C 18.5,30.5 17.5,29.5 15.5,29.5C 14.8333,29.5 14.1667,29.5 13.5,29.5C 11.8561,29.2865 10.3561,29.6198 9,30.5C 7.54366,33.0756 6.37699,35.7423 5.5,38.5C 4.63137,40.717 4.29803,43.0504 4.5,45.5C 4.16667,45.5 3.83333,45.5 3.5,45.5C 1.35568,36.7867 4.35568,30.4534 12.5,26.5 Z"/></g>
<g><path style="opacity:1" fill="#504524" d="M 13.5,29.5 C 14.1667,29.5 14.8333,29.5 15.5,29.5C 13.4293,35.3799 11.7627,41.3799 10.5,47.5C 9.77765,48.5511 8.77765,49.2178 7.5,49.5C 5.16667,49.1667 3.83333,47.8333 3.5,45.5C 3.83333,45.5 4.16667,45.5 4.5,45.5C 5.15149,46.0906 5.81815,46.7573 6.5,47.5C 8.28659,45.1416 9.28659,42.475 9.5,39.5C 10.6376,36.087 11.9709,32.7536 13.5,29.5 Z"/></g>
<g><path style="opacity:1" fill="#263a45" d="M 18.5,32.5 C 18.634,34.2915 18.3007,35.9582 17.5,37.5C 17.2041,39.403 16.5375,41.0697 15.5,42.5C 15.7234,38.8379 16.7234,35.5046 18.5,32.5 Z"/></g>
<g><path style="opacity:1" fill="#f8e185" d="M 65.5,40.5 C 64.609,41.1098 63.609,41.4431 62.5,41.5C 61.365,38.6619 60.365,35.6619 59.5,32.5C 61.2592,31.246 62.7592,31.5794 64,33.5C 64.977,35.74 65.477,38.0733 65.5,40.5 Z"/></g>
<g><path style="opacity:1" fill="#c1ced4" d="M 15.5,29.5 C 17.5,29.5 18.5,30.5 18.5,32.5C 16.7234,35.5046 15.7234,38.8379 15.5,42.5C 14.2616,44.2143 13.595,46.2143 13.5,48.5C 11.8041,50.129 10.8041,49.7957 10.5,47.5C 11.7627,41.3799 13.4293,35.3799 15.5,29.5 Z"/></g>
<g><path style="opacity:1" fill="#d7853a" d="M 34.5,44.5 C 34.1667,44.5 33.8333,44.5 33.5,44.5C 33.0472,43.5416 32.3805,42.7083 31.5,42C 35.8589,40.7721 36.8589,41.6055 34.5,44.5 Z"/></g>
<g><path style="opacity:1" fill="#e8b62b" d="M 5.5,38.5 C 6.70792,39.2341 8.04125,39.5674 9.5,39.5C 9.28659,42.475 8.28659,45.1416 6.5,47.5C 5.81815,46.7573 5.15149,46.0906 4.5,45.5C 4.29803,43.0504 4.63137,40.717 5.5,38.5 Z"/></g>
<g><path style="opacity:1" fill="#f1bc2d" d="M 65.5,40.5 C 67.1333,44.091 66.6333,47.4243 64,50.5C 63.0467,47.5682 62.5467,44.5682 62.5,41.5C 63.609,41.4431 64.609,41.1098 65.5,40.5 Z"/></g>
<g><path style="opacity:1" fill="#24404f" d="M 15.5,42.5 C 15.7406,44.8984 15.0739,46.8984 13.5,48.5C 13.595,46.2143 14.2616,44.2143 15.5,42.5 Z"/></g>
<g><path style="opacity:1" fill="#0c161a" d="M 33.5,44.5 C 33.8333,44.5 34.1667,44.5 34.5,44.5C 35.3943,47.545 37.3943,49.2116 40.5,49.5C 37.0979,48.7653 33.7646,48.7653 30.5,49.5C 28.6455,49.6598 27.3121,48.9931 26.5,47.5C 28.8333,47.5 31.1667,47.5 33.5,47.5C 33.5,46.5 33.5,45.5 33.5,44.5 Z"/></g>
<g><path style="opacity:1" fill="#5f666d" d="M 10.5,47.5 C 10.8041,49.7957 11.8041,50.129 13.5,48.5C 13.5,49.1667 13.5,49.8333 13.5,50.5C 12.6618,50.8417 12.3284,51.5084 12.5,52.5C 10.6316,51.7368 8.96492,50.7368 7.5,49.5C 8.77765,49.2178 9.77765,48.5511 10.5,47.5 Z"/></g>
<g><path style="opacity:1" fill="#5871b5" d="M 13.5,50.5 C 14.5434,53.0562 16.2101,55.2228 18.5,57C 21.5497,58.4718 23.8831,59.9718 25.5,61.5C 19.7637,60.416 15.4304,57.416 12.5,52.5C 12.3284,51.5084 12.6618,50.8417 13.5,50.5 Z"/></g>
<g><path style="opacity:1" fill="#6b6d6f" d="M 64.5,51.5 C 62.1814,56.6841 58.1814,60.0174 52.5,61.5C 53.0427,58.9616 54.0427,56.6282 55.5,54.5C 55.8333,54.5 56.1667,54.5 56.5,54.5C 56.5,53.8333 56.5,53.1667 56.5,52.5C 59.2372,52.5987 61.9039,52.2653 64.5,51.5 Z"/></g>
<g><path style="opacity:1" fill="#41486b" d="M 55.5,54.5 C 54.0427,56.6282 53.0427,58.9616 52.5,61.5C 51.8658,62.9468 50.6991,63.6134 49,63.5C 47.9302,63.472 47.0968,63.1386 46.5,62.5C 49.4291,59.9131 52.4291,57.2464 55.5,54.5 Z"/></g>
<g><path style="opacity:0.996" fill="#576eb2" d="M 27.5,62.5 C 33.5087,62.4073 39.5087,62.4073 45.5,62.5C 39.5134,63.7841 33.5134,63.7841 27.5,62.5 Z"/></g>
</svg>
