<svg width="122" height="66" viewBox="0 0 122 66" fill="none" xmlns="http://www.w3.org/2000/svg">
<mask id="mask0_169_392" style="mask-type:luminance" maskUnits="userSpaceOnUse" x="0" y="4" width="46" height="47">
<path d="M46 4.46338H0V50.4634H46V4.46338Z" fill="white"/>
</mask>
<g mask="url(#mask0_169_392)">
<path d="M39.2392 43.6913C43.5767 39.3822 46.0084 33.5455 46 27.4633C45.9953 27.0879 45.8415 26.7294 45.5716 26.4656C45.3017 26.2016 44.9377 26.0538 44.5584 26.0538C44.1789 26.0538 43.8149 26.2016 43.545 26.4656C43.275 26.7294 43.1212 27.0879 43.1166 27.4633C43.1227 32.7935 40.9907 37.9083 37.189 41.6839C35.3435 43.5591 33.1372 45.0494 30.7001 46.0671C28.2632 47.0846 25.6449 47.6089 23 47.6089C20.3549 47.6089 17.7367 47.0846 15.2997 46.0671C12.8628 45.0494 10.6565 43.5591 8.8109 41.6839C5.01433 37.9046 2.88333 32.7918 2.88333 27.4625C2.88333 22.1331 5.01433 17.0203 8.8109 13.2409C10.6457 11.3802 12.8355 9.89844 15.2533 8.88157C17.6711 7.86473 20.2688 7.33296 22.8958 7.31714C23.4567 7.33453 23.9886 7.56811 24.378 7.96806C24.7674 8.36799 24.9835 8.90267 24.9801 9.45804C24.9769 10.0134 24.7546 10.5456 24.3605 10.941C23.9665 11.3364 23.4319 11.5639 22.8708 11.5748C22.8188 11.5749 22.7668 11.5777 22.7153 11.5833C18.7185 11.7107 14.9263 13.3623 12.1314 16.1926C9.17986 19.1331 7.52332 23.1096 7.52332 27.2543C7.52332 31.3991 9.17986 35.3754 12.1314 38.316C13.5734 39.7778 15.2962 40.9394 17.1984 41.7325C19.1007 42.5255 21.1441 42.934 23.2082 42.934C25.2723 42.934 27.3158 42.5255 29.2181 41.7325C31.1202 40.9394 32.8431 39.7778 34.285 38.316C37.2412 35.3786 38.8984 31.4001 38.8925 27.2543C38.8986 26.6014 38.7738 25.9534 38.5256 25.3484C38.2771 24.7434 37.9102 24.193 37.4457 23.7292C36.9811 23.2652 36.4285 22.897 35.8194 22.6457C35.2103 22.3944 34.5571 22.265 33.8971 22.265C33.2371 22.265 32.5839 22.3944 31.9748 22.6457C31.3657 22.897 30.813 23.2652 30.3485 23.7292C29.884 24.193 29.5171 24.7434 29.2686 25.3484C29.0203 25.9534 28.8956 26.6014 28.9017 27.2543C28.9017 27.2959 28.9044 27.3351 28.9078 27.3751C28.9044 27.415 28.9017 27.455 28.9017 27.4958C28.9112 28.6343 28.5785 29.7499 27.9461 30.7012C27.3139 31.6523 26.4103 32.396 25.3502 32.8382C24.29 33.2803 23.1209 33.4008 21.9916 33.1845C20.862 32.9679 19.823 32.4245 19.0062 31.6227C18.1893 30.8209 17.6316 29.7971 17.4037 28.6811C17.1758 27.5652 17.288 26.4073 17.726 25.3546C18.1641 24.3017 18.9083 23.4015 19.8642 22.7679C20.8201 22.1344 21.9447 21.7962 23.095 21.7961C23.2859 21.7984 23.4752 21.7632 23.6521 21.6925C23.8291 21.6218 23.99 21.5171 24.1257 21.3844C24.2614 21.2517 24.3694 21.0936 24.4428 20.9194C24.5164 20.7452 24.5543 20.5582 24.5543 20.3694C24.5543 20.1806 24.5164 19.9936 24.4428 19.8194C24.3694 19.6451 24.2614 19.4871 24.1257 19.3544C23.99 19.2217 23.8291 19.1169 23.6521 19.0462C23.4752 18.9756 23.2859 18.9403 23.095 18.9426C21.3878 18.952 19.7214 19.4616 18.3065 20.4072C16.8915 21.3527 15.7911 22.6919 15.1443 24.2556C14.4975 25.8193 14.3332 27.5377 14.6721 29.1938C15.011 30.8498 15.838 32.3693 17.0486 33.5609C18.2592 34.7523 19.7993 35.5622 21.4747 35.8885C23.1497 36.2145 24.8852 36.0423 26.4616 35.3936C28.0381 34.7448 29.3852 33.6486 30.3327 32.243C31.2803 30.8373 31.7859 29.1854 31.7859 27.4958C31.7859 27.4542 31.7831 27.415 31.7798 27.3751C31.7831 27.3351 31.7859 27.2951 31.7859 27.2543C31.7802 26.9763 31.8307 26.7001 31.9344 26.4415C32.0379 26.1831 32.1928 25.9476 32.3893 25.7492C32.586 25.5505 32.8208 25.3927 33.0797 25.2851C33.3387 25.1774 33.6171 25.122 33.8979 25.122C34.1788 25.122 34.4571 25.1774 34.7161 25.2851C34.9751 25.3927 35.2099 25.5505 35.4066 25.7492C35.6031 25.9476 35.758 26.1831 35.8615 26.4415C35.9652 26.7001 36.0157 26.9763 36.01 27.2543C36.0138 30.6485 34.6562 33.9053 32.2353 36.3095C31.0615 37.5029 29.658 38.4513 28.1077 39.099C26.5574 39.7468 24.8915 40.0803 23.2087 40.0803C21.526 40.0803 19.8602 39.7468 18.3099 39.099C16.7595 38.4513 15.356 37.5029 14.1823 36.3095C11.7646 33.9032 10.4076 30.6477 10.4076 27.2543C10.4076 23.8609 11.7646 20.6054 14.1823 18.1991C15.357 17.0072 16.7605 16.0597 18.3104 15.4121C19.8604 14.7646 21.5254 14.4301 23.2078 14.4283C23.3372 14.4279 23.466 14.4103 23.5907 14.3758C24.8181 14.1895 25.9325 13.5613 26.7206 12.6118C27.5087 11.6622 27.9148 10.4581 27.8609 9.23051C27.8071 8.00287 27.2969 6.83816 26.4286 5.95979C25.5603 5.08141 24.395 4.55123 23.1561 4.47094C23.1043 4.46536 23.0521 4.46251 23 4.4624C22.9709 4.4624 22.9421 4.4624 22.9131 4.4624C22.8988 4.4624 22.8849 4.4624 22.871 4.4624C22.8571 4.4624 22.8428 4.46407 22.8289 4.46448C19.8318 4.48781 16.8689 5.09804 14.1112 6.25999C11.3535 7.42193 8.85544 9.11262 6.76112 11.2346C2.43075 15.5482 0.000347137 21.3819 0.000347137 27.4625C0.000347137 33.543 2.43075 39.3766 6.76112 43.6902C8.8748 45.8337 11.4004 47.5373 14.1893 48.7001C16.9782 49.8632 19.974 50.4624 23.0004 50.4624C26.0268 50.4624 29.0225 49.8632 31.8115 48.7001C34.6004 47.5373 37.1259 45.8337 39.2396 43.6902L39.2392 43.6913Z" fill="white"/>
</g>
<path d="M56.5612 36.7954V11.1246H62.2174V21.7845L72.1885 11.1246H79.5851L68.1638 23.0536L80.5641 36.7954H72.6598L62.2174 24.6127V36.7954H56.5612ZM81.894 36.7954V19.1739H87.3328V36.7954H81.894ZM81.4589 13.6264C81.4589 11.886 82.873 10.472 84.6134 10.472C86.3538 10.472 87.7679 11.886 87.7679 13.6264C87.7679 15.3668 86.3538 16.7809 84.6134 16.7809C82.873 16.7809 81.4589 15.3668 81.4589 13.6264ZM109.732 19.1739V45.0623H104.293V34.91H104.221C102.988 36.6141 100.885 37.2305 98.6368 37.2305C93.6332 37.2305 90.5875 32.7345 90.5875 27.8396C90.5875 22.5097 94.032 18.7388 99.2532 18.7388C101.719 18.7388 103.822 20.2254 104.656 21.4945H104.728V19.1739H109.732ZM104.728 27.9847C104.728 25.3378 103.097 23.5249 100.377 23.5249C97.6578 23.5249 96.0262 25.3378 96.0262 27.9847C96.0262 30.6315 97.6578 32.4444 100.377 32.4444C103.097 32.4444 104.728 30.6315 104.728 27.9847ZM114.151 36.7954V19.1739H119.59V36.7954H114.151ZM113.716 13.6264C113.716 11.886 115.13 10.472 116.87 10.472C118.611 10.472 120.025 11.886 120.025 13.6264C120.025 15.3668 118.611 16.7809 116.87 16.7809C115.13 16.7809 113.716 15.3668 113.716 13.6264Z" fill="white"/>
</svg>
