<svg width="24" height="24" viewBox="0 0 24 24" fill="none" xmlns="http://www.w3.org/2000/svg">
<path d="M3.33729 9.14844H20.7968M7.20355 3.30451L12.067 9.1485L16.9387 3.30861M20.5989 8.68585L17.2116 3.60484C17.1263 3.47691 17.0836 3.41294 17.0273 3.36663C16.9774 3.32564 16.9199 3.29488 16.8582 3.27612C16.7884 3.25492 16.7115 3.25492 16.5577 3.25492H7.5763C7.42255 3.25492 7.34567 3.25492 7.27588 3.27612C7.21411 3.29488 7.15663 3.32564 7.10675 3.36663C7.05041 3.41294 7.00777 3.47691 6.92248 3.60484L3.53514 8.68585C3.4241 8.8524 3.36859 8.93568 3.34869 9.02527C3.33111 9.10439 3.3334 9.18664 3.35533 9.26467C3.38017 9.35301 3.44022 9.43308 3.56032 9.59322L11.4384 20.0973C11.6516 20.3816 11.7583 20.5238 11.889 20.5747C12.0035 20.6192 12.1305 20.6192 12.245 20.5747C12.3758 20.5238 12.4824 20.3816 12.6957 20.0973L20.5737 9.59322C20.6938 9.43308 20.7539 9.35301 20.7787 9.26467C20.8006 9.18664 20.8029 9.10439 20.7854 9.02527C20.7655 8.93568 20.7099 8.8524 20.5989 8.68585Z" stroke="#0C31A1" stroke-width="1.47338" stroke-linecap="round" stroke-linejoin="round"/>
</svg>
