<svg width="358" height="327" viewBox="0 0 358 327" fill="none" xmlns="http://www.w3.org/2000/svg">
<mask id="mask0_187_1278" style="mask-type:alpha" maskUnits="userSpaceOnUse" x="0" y="75" width="358" height="225">
<path fill-rule="evenodd" clip-rule="evenodd" d="M0.0419922 75.9966H357.983V297.721C357.983 298.819 357.093 299.71 355.994 299.71H2.03056C0.932306 299.71 0.0419922 298.819 0.0419922 297.721V75.9966Z" fill="white"/>
</mask>
<g mask="url(#mask0_187_1278)">
<path fill-rule="evenodd" clip-rule="evenodd" d="M0.0419922 75.9966H357.983V299.71H0.0419922V75.9966Z" fill="white"/>
</g>
<path d="M2.03027 68.292H355.994C356.955 68.292 357.734 69.0704 357.734 70.0312V297.722C357.734 298.683 356.955 299.462 355.994 299.462H2.03027C1.06945 299.462 0.291049 298.683 0.291016 297.722V70.0312C0.291163 69.0705 1.06952 68.2921 2.03027 68.292Z" stroke="#111111" stroke-width="0.49714"/>
<g clip-path="url(#clip0_187_1278)">
<path d="M2.03027 68.292H355.994C356.955 68.292 357.734 69.0704 357.734 70.0312V75.749H0.291016V70.0312C0.291166 69.0705 1.06952 68.2921 2.03027 68.292Z" fill="white" stroke="#111111" stroke-width="0.49714"/>
<path fill-rule="evenodd" clip-rule="evenodd" d="M12.9676 73.5114C13.7913 73.5114 14.459 72.8437 14.459 72.02C14.459 71.1963 13.7913 70.5286 12.9676 70.5286C12.1439 70.5286 11.4762 71.1963 11.4762 72.02C11.4762 72.8437 12.1439 73.5114 12.9676 73.5114Z" fill="#111111"/>
<path fill-rule="evenodd" clip-rule="evenodd" d="M8.4933 73.5114C9.31699 73.5114 9.98472 72.8437 9.98472 72.02C9.98472 71.1963 9.31699 70.5286 8.4933 70.5286C7.66961 70.5286 7.00188 71.1963 7.00188 72.02C7.00188 72.8437 7.66961 73.5114 8.4933 73.5114Z" fill="#111111"/>
<path fill-rule="evenodd" clip-rule="evenodd" d="M4.01904 73.5114C4.84273 73.5114 5.51046 72.8437 5.51046 72.02C5.51046 71.1963 4.84273 70.5286 4.01904 70.5286C3.19535 70.5286 2.52762 71.1963 2.52762 72.02C2.52762 72.8437 3.19535 73.5114 4.01904 73.5114Z" fill="#111111"/>
</g>
<g filter="url(#filter0_d_187_1278)">
<g clip-path="url(#clip1_187_1278)">
<rect x="64" y="32" width="230.04" height="258" rx="12.7094" fill="white"/>
<path d="M163.109 69.579C162.235 69.579 161.391 69.4468 160.577 69.1824C159.774 68.9181 159.078 68.547 158.488 68.0691L159.784 66.2542C160.73 66.9964 161.833 67.3676 163.094 67.3676C163.724 67.3676 164.223 67.2608 164.589 67.0473C164.965 66.8338 165.153 66.544 165.153 66.178C165.153 65.8323 164.98 65.5628 164.634 65.3696C164.289 65.1765 163.74 65.0392 162.987 64.9579C161.533 64.7952 160.466 64.4546 159.784 63.936C159.113 63.4175 158.778 62.6753 158.778 61.7093C158.778 61.0586 158.961 60.4842 159.327 59.986C159.693 59.4877 160.206 59.1014 160.867 58.8269C161.528 58.5523 162.291 58.4151 163.155 58.4151C163.897 58.4151 164.619 58.5218 165.321 58.7354C166.032 58.9489 166.658 59.2488 167.196 59.6352L166.022 61.3891C165.188 60.8095 164.268 60.5197 163.262 60.5197C162.641 60.5197 162.143 60.6214 161.767 60.8248C161.401 61.0281 161.218 61.3026 161.218 61.6483C161.218 61.9839 161.376 62.2431 161.691 62.4262C162.016 62.6092 162.555 62.7464 163.307 62.8379C164.751 63.0006 165.829 63.3616 166.541 63.9208C167.252 64.4698 167.608 65.2273 167.608 66.1932C167.608 66.8643 167.42 67.4591 167.044 67.9776C166.668 68.486 166.139 68.8825 165.458 69.1672C164.777 69.4417 163.994 69.579 163.109 69.579ZM174.158 69.0452C173.569 69.34 172.903 69.4875 172.161 69.4875C171.337 69.4875 170.686 69.2587 170.208 68.8012C169.73 68.3335 169.492 67.5862 169.492 66.5592V63.7073H168.21V61.8009H169.492V59.925L171.871 59.6657V61.8009H173.747V63.7073H171.871V66.5592C171.871 66.8643 171.947 67.093 172.1 67.2455C172.252 67.3879 172.46 67.4591 172.725 67.4591C173.02 67.4591 173.309 67.3879 173.594 67.2455L174.158 69.0452ZM178.885 69.5027C178.051 69.5027 177.319 69.34 176.689 69.0147C176.068 68.6792 175.591 68.2165 175.255 67.6268C174.919 67.0371 174.752 66.3508 174.752 65.5679C174.752 64.785 174.919 64.0987 175.255 63.509C175.591 62.9193 176.068 62.4617 176.689 62.1364C177.319 61.8009 178.051 61.6331 178.885 61.6331C179.719 61.6331 180.451 61.8009 181.081 62.1364C181.711 62.4617 182.194 62.9193 182.53 63.509C182.865 64.0987 183.033 64.785 183.033 65.5679C183.033 66.3508 182.865 67.0371 182.53 67.6268C182.194 68.2165 181.711 68.6792 181.081 69.0147C180.451 69.34 179.719 69.5027 178.885 69.5027ZM178.885 67.4743C179.413 67.4743 179.841 67.2964 180.166 66.9405C180.491 66.5847 180.654 66.1271 180.654 65.5679C180.654 65.0087 180.491 64.5512 180.166 64.1953C179.841 63.8394 179.413 63.6615 178.885 63.6615C178.366 63.6615 177.944 63.8394 177.619 64.1953C177.294 64.5512 177.131 65.0087 177.131 65.5679C177.131 66.1271 177.294 66.5847 177.619 66.9405C177.944 67.2964 178.366 67.4743 178.885 67.4743ZM188.149 69.5027C187.306 69.5027 186.568 69.3451 185.938 69.0299C185.318 68.7046 184.835 68.247 184.489 67.6573C184.154 67.0676 183.986 66.3762 183.986 65.5832C183.986 64.8003 184.159 64.114 184.504 63.5242C184.85 62.9244 185.333 62.4617 185.953 62.1364C186.573 61.8009 187.29 61.6331 188.104 61.6331C188.663 61.6331 189.197 61.7348 189.705 61.9381C190.213 62.1313 190.666 62.4211 191.062 62.8074L189.736 64.2563C189.309 63.8598 188.805 63.6615 188.226 63.6615C187.677 63.6615 187.229 63.8394 186.884 64.1953C186.538 64.541 186.365 64.9985 186.365 65.5679C186.365 66.1373 186.533 66.5999 186.868 66.9558C187.214 67.3015 187.666 67.4743 188.226 67.4743C188.846 67.4743 189.375 67.2557 189.812 66.8185L191.169 68.2521C190.325 69.0859 189.319 69.5027 188.149 69.5027ZM199.947 69.335H196.989L194.686 66.3457V69.335H192.307V58.6591H194.686V64.6528L196.775 61.8009H199.505L196.79 65.3696L199.947 69.335Z" fill="#3A3A3A"/>
<g filter="url(#filter1_d_187_1278)">
<rect x="84.3351" y="234.079" width="189.37" height="35.5862" rx="4.44828" fill="#0C31A1"/>
</g>
<path d="M160.352 259.72C159.394 259.72 158.551 259.526 157.823 259.136C157.102 258.746 156.543 258.2 156.145 257.496C155.755 256.793 155.56 255.984 155.56 255.069C155.56 254.154 155.759 253.345 156.158 252.641C156.564 251.93 157.128 251.383 157.848 251.002C158.568 250.612 159.39 250.417 160.314 250.417C161.627 250.417 162.754 250.879 163.694 251.803L162.411 253.086C161.843 252.544 161.161 252.273 160.365 252.273C159.831 252.273 159.356 252.391 158.941 252.629C158.534 252.857 158.217 253.184 157.988 253.607C157.768 254.031 157.657 254.518 157.657 255.069C157.657 255.62 157.768 256.107 157.988 256.53C158.217 256.954 158.534 257.284 158.941 257.522C159.356 257.75 159.831 257.865 160.365 257.865C160.788 257.865 161.195 257.789 161.585 257.636C161.974 257.484 162.313 257.263 162.601 256.975L163.821 258.335C162.864 259.259 161.707 259.72 160.352 259.72ZM171.211 253.239V259.517H169.483L169.355 258.767C168.822 259.352 168.127 259.644 167.271 259.644C166.687 259.644 166.165 259.509 165.708 259.237C165.259 258.958 164.907 258.572 164.653 258.081C164.399 257.581 164.272 257.013 164.272 256.378C164.272 255.742 164.399 255.179 164.653 254.688C164.907 254.188 165.259 253.802 165.708 253.531C166.165 253.251 166.687 253.112 167.271 253.112C167.695 253.112 168.085 253.188 168.44 253.34C168.796 253.484 169.101 253.696 169.355 253.976L169.483 253.239H171.211ZM167.741 257.967C168.182 257.967 168.542 257.823 168.822 257.534C169.101 257.238 169.241 256.852 169.241 256.378C169.241 255.903 169.101 255.522 168.822 255.234C168.542 254.937 168.182 254.789 167.741 254.789C167.301 254.789 166.941 254.937 166.661 255.234C166.39 255.531 166.254 255.912 166.254 256.378C166.254 256.844 166.39 257.225 166.661 257.522C166.941 257.818 167.301 257.967 167.741 257.967ZM176.584 253.099C177.363 253.099 177.982 253.353 178.439 253.861C178.905 254.37 179.138 255.073 179.138 255.971V259.517H177.143V256.086C177.143 255.679 177.041 255.361 176.838 255.132C176.635 254.904 176.355 254.789 175.999 254.789C175.609 254.789 175.296 254.921 175.059 255.183C174.821 255.446 174.703 255.789 174.703 256.213V259.517H172.707V253.239H174.436L174.563 253.976C174.809 253.696 175.101 253.48 175.44 253.328C175.787 253.175 176.169 253.099 176.584 253.099ZM183.678 259.657C182.975 259.657 182.36 259.526 181.835 259.263C181.318 258.992 180.916 258.61 180.628 258.119C180.348 257.628 180.208 257.051 180.208 256.391C180.208 255.738 180.352 255.166 180.64 254.675C180.928 254.175 181.331 253.789 181.848 253.518C182.364 253.239 182.962 253.099 183.64 253.099C184.106 253.099 184.55 253.184 184.974 253.353C185.398 253.514 185.775 253.756 186.105 254.077L185 255.285C184.644 254.954 184.224 254.789 183.741 254.789C183.284 254.789 182.911 254.937 182.623 255.234C182.335 255.522 182.191 255.903 182.191 256.378C182.191 256.852 182.331 257.238 182.61 257.534C182.898 257.823 183.275 257.967 183.741 257.967C184.258 257.967 184.699 257.784 185.063 257.42L186.194 258.615C185.491 259.31 184.652 259.657 183.678 259.657ZM190.006 253.099C190.692 253.099 191.285 253.23 191.785 253.493C192.285 253.747 192.666 254.111 192.929 254.586C193.2 255.052 193.335 255.598 193.335 256.225C193.335 256.429 193.314 256.679 193.272 256.975H188.658C188.718 257.297 188.891 257.56 189.179 257.763C189.467 257.958 189.836 258.056 190.285 258.056C190.599 258.056 190.904 258.009 191.2 257.916C191.497 257.823 191.751 257.691 191.963 257.522L193.005 258.64C192.649 258.971 192.225 259.225 191.734 259.403C191.251 259.581 190.734 259.67 190.183 259.67C189.455 259.67 188.824 259.538 188.29 259.276C187.756 259.004 187.345 258.623 187.057 258.132C186.769 257.64 186.625 257.06 186.625 256.391C186.625 255.747 186.765 255.175 187.044 254.675C187.332 254.175 187.731 253.789 188.239 253.518C188.747 253.239 189.336 253.099 190.006 253.099ZM190.069 254.675C189.671 254.675 189.345 254.776 189.09 254.98C188.845 255.183 188.705 255.467 188.671 255.831H191.442C191.416 255.467 191.281 255.183 191.035 254.98C190.798 254.776 190.476 254.675 190.069 254.675ZM194.44 250.621H196.435V259.517H194.44V250.621Z" fill="white"/>
<rect x="152.966" y="150.833" width="46.7931" height="34.8867" rx="6.99015" fill="#F8F8F8"/>
<path d="M168.878 169.751C169.242 169.929 169.539 170.204 169.767 170.577C169.996 170.95 170.11 171.357 170.11 171.797C170.11 172.67 169.776 173.348 169.106 173.831C168.437 174.305 167.497 174.542 166.285 174.542C165.09 174.542 164.154 174.301 163.476 173.818C162.798 173.327 162.459 172.653 162.459 171.797C162.459 171.357 162.574 170.95 162.803 170.577C163.031 170.204 163.328 169.929 163.692 169.751C163.387 169.522 163.15 169.251 162.981 168.938C162.82 168.616 162.739 168.264 162.739 167.883C162.739 167.366 162.883 166.913 163.171 166.523C163.468 166.133 163.883 165.832 164.417 165.62C164.95 165.409 165.573 165.303 166.285 165.303C167.005 165.303 167.632 165.409 168.166 165.62C168.7 165.832 169.111 166.133 169.399 166.523C169.687 166.913 169.831 167.366 169.831 167.883C169.831 168.256 169.746 168.603 169.577 168.925C169.416 169.247 169.183 169.522 168.878 169.751ZM166.285 166.968C165.827 166.968 165.459 167.065 165.179 167.26C164.9 167.455 164.76 167.713 164.76 168.035C164.76 168.349 164.9 168.603 165.179 168.798C165.459 168.993 165.827 169.09 166.285 169.09C166.743 169.09 167.111 168.993 167.391 168.798C167.67 168.603 167.81 168.349 167.81 168.035C167.81 167.713 167.67 167.455 167.391 167.26C167.111 167.065 166.743 166.968 166.285 166.968ZM166.285 172.789C166.81 172.789 167.225 172.687 167.53 172.484C167.836 172.28 167.988 172.009 167.988 171.67C167.988 171.331 167.836 171.06 167.53 170.857C167.225 170.653 166.81 170.552 166.285 170.552C165.76 170.552 165.344 170.653 165.039 170.857C164.734 171.06 164.582 171.331 164.582 171.67C164.582 172.009 164.734 172.28 165.039 172.484C165.344 172.687 165.76 172.789 166.285 172.789ZM174.982 165.328C175.736 165.328 176.401 165.455 176.977 165.709C177.553 165.964 178.002 166.319 178.324 166.777C178.646 167.226 178.807 167.747 178.807 168.34V171.454C178.807 172.073 178.651 172.611 178.337 173.068C178.024 173.526 177.579 173.882 177.003 174.136C176.426 174.381 175.761 174.504 175.007 174.504C173.838 174.504 172.927 174.271 172.275 173.805C171.631 173.339 171.305 172.678 171.296 171.823H173.38C173.397 172.111 173.55 172.339 173.838 172.509C174.135 172.678 174.516 172.763 174.982 172.763C175.465 172.763 175.867 172.64 176.189 172.395C176.52 172.14 176.685 171.81 176.685 171.403V170.59C176.126 171.013 175.414 171.225 174.55 171.225C173.88 171.225 173.296 171.111 172.796 170.882C172.296 170.645 171.91 170.31 171.639 169.878C171.368 169.438 171.233 168.929 171.233 168.353C171.233 167.751 171.385 167.222 171.69 166.764C172.004 166.307 172.444 165.955 173.012 165.709C173.58 165.455 174.236 165.328 174.982 165.328ZM175.02 169.586C175.52 169.586 175.922 169.476 176.227 169.255C176.541 169.027 176.698 168.726 176.698 168.353C176.698 167.989 176.541 167.696 176.227 167.476C175.922 167.247 175.52 167.133 175.02 167.133C174.512 167.133 174.105 167.247 173.8 167.476C173.495 167.696 173.342 167.989 173.342 168.353C173.342 168.726 173.495 169.027 173.8 169.255C174.105 169.476 174.512 169.586 175.02 169.586ZM182.079 169.484C181.444 169.484 180.927 169.293 180.529 168.912C180.131 168.531 179.932 168.035 179.932 167.425C179.932 166.815 180.131 166.324 180.529 165.951C180.927 165.57 181.444 165.379 182.079 165.379C182.732 165.379 183.253 165.565 183.643 165.938C184.041 166.311 184.24 166.807 184.24 167.425C184.24 168.044 184.041 168.544 183.643 168.925C183.244 169.298 182.723 169.484 182.079 169.484ZM186.858 165.468H188.739L182.944 174.365H181.063L186.858 165.468ZM182.079 168.137C182.291 168.137 182.461 168.073 182.588 167.946C182.723 167.811 182.791 167.637 182.791 167.425C182.791 167.213 182.723 167.044 182.588 166.917C182.461 166.781 182.291 166.713 182.079 166.713C181.868 166.713 181.698 166.781 181.571 166.917C181.444 167.044 181.38 167.213 181.38 167.425C181.38 167.637 181.444 167.811 181.571 167.946C181.698 168.073 181.868 168.137 182.079 168.137ZM187.722 174.453C187.087 174.453 186.57 174.267 186.172 173.894C185.774 173.513 185.575 173.017 185.575 172.407C185.575 171.797 185.774 171.302 186.172 170.92C186.57 170.539 187.087 170.348 187.722 170.348C188.366 170.348 188.887 170.539 189.286 170.92C189.684 171.293 189.883 171.789 189.883 172.407C189.883 173.026 189.684 173.521 189.286 173.894C188.896 174.267 188.375 174.453 187.722 174.453ZM187.722 173.119C187.934 173.119 188.104 173.055 188.231 172.928C188.366 172.793 188.434 172.619 188.434 172.407C188.434 172.195 188.366 172.026 188.231 171.899C188.104 171.763 187.934 171.696 187.722 171.696C187.511 171.696 187.341 171.763 187.214 171.899C187.087 172.026 187.023 172.195 187.023 172.407C187.023 172.619 187.087 172.793 187.214 172.928C187.341 173.055 187.511 173.119 187.722 173.119Z" fill="#3A3A3A"/>
<mask id="path-14-inside-1_187_1278" fill="white">
<path d="M262.919 181.653C262.919 170.26 260.675 158.978 256.315 148.452C251.955 137.926 245.564 128.361 237.508 120.305C229.452 112.249 219.888 105.858 209.361 101.498C198.835 97.1381 187.554 94.894 176.16 94.894C164.767 94.894 153.485 97.1381 142.959 101.498C132.433 105.858 122.869 112.249 114.812 120.305C106.756 128.361 100.366 137.926 96.0055 148.452C91.6455 158.978 89.4014 170.26 89.4014 181.653H102.186C102.186 171.939 104.099 162.319 107.817 153.344C111.535 144.369 116.983 136.214 123.853 129.345C130.722 122.476 138.877 117.027 147.852 113.31C156.827 109.592 166.446 107.679 176.16 107.679C185.875 107.679 195.494 109.592 204.469 113.31C213.444 117.027 221.599 122.476 228.468 129.345C235.337 136.214 240.786 144.369 244.504 153.344C248.221 162.319 250.134 171.939 250.134 181.653H262.919Z"/>
</mask>
<path d="M262.919 181.653C262.919 170.26 260.675 158.978 256.315 148.452C251.955 137.926 245.564 128.361 237.508 120.305C229.452 112.249 219.888 105.858 209.361 101.498C198.835 97.1381 187.554 94.894 176.16 94.894C164.767 94.894 153.485 97.1381 142.959 101.498C132.433 105.858 122.869 112.249 114.812 120.305C106.756 128.361 100.366 137.926 96.0055 148.452C91.6455 158.978 89.4014 170.26 89.4014 181.653H102.186C102.186 171.939 104.099 162.319 107.817 153.344C111.535 144.369 116.983 136.214 123.853 129.345C130.722 122.476 138.877 117.027 147.852 113.31C156.827 109.592 166.446 107.679 176.16 107.679C185.875 107.679 195.494 109.592 204.469 113.31C213.444 117.027 221.599 122.476 228.468 129.345C235.337 136.214 240.786 144.369 244.504 153.344C248.221 162.319 250.134 171.939 250.134 181.653H262.919Z" fill="#D9D9D9" stroke="#E4E4E4" stroke-width="49.5665" mask="url(#path-14-inside-1_187_1278)"/>
<mask id="path-15-inside-2_187_1278" fill="white">
<path d="M198.615 97.8502C185.791 94.4141 172.35 93.9668 159.327 96.5427C146.303 99.1186 134.044 104.649 123.494 112.708C112.944 120.767 104.384 131.14 98.4737 143.028C92.5632 154.915 89.4597 168.001 89.4021 181.277L102.187 181.332C102.236 170.013 104.882 158.855 109.922 148.719C114.961 138.583 122.26 129.739 131.255 122.868C140.25 115.996 150.703 111.281 161.807 109.084C172.912 106.888 184.372 107.27 195.306 110.199L198.615 97.8502Z"/>
</mask>
<path d="M198.615 97.8502C185.791 94.4141 172.35 93.9668 159.327 96.5427C146.303 99.1186 134.044 104.649 123.494 112.708C112.944 120.767 104.384 131.14 98.4737 143.028C92.5632 154.915 89.4597 168.001 89.4021 181.277L102.187 181.332C102.236 170.013 104.882 158.855 109.922 148.719C114.961 138.583 122.26 129.739 131.255 122.868C140.25 115.996 150.703 111.281 161.807 109.084C172.912 106.888 184.372 107.27 195.306 110.199L198.615 97.8502Z" fill="#0C31A1" stroke="#0C31A1" stroke-width="49.5665" mask="url(#path-15-inside-2_187_1278)"/>
<rect x="198.345" y="94.415" width="1.80122" height="19.0871" transform="rotate(14.9392 198.345 94.415)" fill="#0C31A1"/>
<path d="M85.0442 197.605V199.206C85.0442 203.644 91.5184 203.633 91.5184 199.206V197.605C91.5184 193.178 85.0442 193.167 85.0442 197.605ZM86.0394 199.206V197.605C86.0394 194.413 90.5232 194.436 90.5232 197.593V199.195C90.5232 202.386 86.0394 202.397 86.0394 199.206ZM94.4401 194.299C92.0495 194.299 92.0495 197.776 94.4401 197.776C96.8422 197.776 96.8422 194.299 94.4401 194.299ZM98.5236 194.379L93.342 202.409H94.4058L99.5759 194.379H98.5236ZM94.4401 195.043C95.767 195.043 95.7784 197.021 94.4515 197.021C93.1018 197.021 93.0904 195.043 94.4287 195.043H94.4401ZM98.535 199.012C96.133 199.012 96.133 202.489 98.5236 202.489C100.926 202.489 100.926 199.012 98.5236 199.012H98.535ZM98.5236 199.744C99.8505 199.744 99.8619 201.746 98.5236 201.746C97.1968 201.746 97.1853 199.744 98.5236 199.744Z" fill="#8C8B8B"/>
<path d="M239.349 201.574V202.409H243.284V201.574H241.831V194.402L239.429 195.111V196.026L240.836 195.649V201.574H239.349ZM244.289 197.605V199.206C244.289 203.644 250.763 203.633 250.763 199.206V197.605C250.763 193.178 244.289 193.167 244.289 197.605ZM245.284 199.206V197.605C245.284 194.413 249.768 194.436 249.768 197.593V199.195C249.768 202.386 245.284 202.397 245.284 199.206ZM252.186 197.605V199.206C252.186 203.644 258.66 203.633 258.66 199.206V197.605C258.66 193.178 252.186 193.167 252.186 197.605ZM253.181 199.206V197.605C253.181 194.413 257.665 194.436 257.665 197.593V199.195C257.665 202.386 253.181 202.397 253.181 199.206ZM261.582 194.299C259.191 194.299 259.191 197.776 261.582 197.776C263.984 197.776 263.984 194.299 261.582 194.299ZM265.665 194.379L260.484 202.409H261.548L266.718 194.379H265.665ZM261.582 195.043C262.909 195.043 262.92 197.021 261.593 197.021C260.244 197.021 260.232 195.043 261.571 195.043H261.582ZM265.677 199.012C263.275 199.012 263.275 202.489 265.665 202.489C268.068 202.489 268.068 199.012 265.665 199.012H265.677ZM265.665 199.744C266.992 199.744 267.004 201.746 265.665 201.746C264.339 201.746 264.327 199.744 265.665 199.744Z" fill="#8C8B8B"/>
</g>
</g>
<defs>
<filter id="filter0_d_187_1278" x="30.3202" y="0.86207" width="297.399" height="325.36" filterUnits="userSpaceOnUse" color-interpolation-filters="sRGB">
<feFlood flood-opacity="0" result="BackgroundImageFix"/>
<feColorMatrix in="SourceAlpha" type="matrix" values="0 0 0 0 0 0 0 0 0 0 0 0 0 0 0 0 0 0 127 0" result="hardAlpha"/>
<feOffset dy="2.54187"/>
<feGaussianBlur stdDeviation="16.8399"/>
<feComposite in2="hardAlpha" operator="out"/>
<feColorMatrix type="matrix" values="0 0 0 0 0 0 0 0 0 0 0 0 0 0 0 0 0 0 0.1 0"/>
<feBlend mode="normal" in2="BackgroundImageFix" result="effect1_dropShadow_187_1278"/>
<feBlend mode="normal" in="SourceGraphic" in2="effect1_dropShadow_187_1278" result="shape"/>
</filter>
<filter id="filter1_d_187_1278" x="69.7193" y="222.005" width="218.601" height="64.8177" filterUnits="userSpaceOnUse" color-interpolation-filters="sRGB">
<feFlood flood-opacity="0" result="BackgroundImageFix"/>
<feColorMatrix in="SourceAlpha" type="matrix" values="0 0 0 0 0 0 0 0 0 0 0 0 0 0 0 0 0 0 127 0" result="hardAlpha"/>
<feOffset dy="2.54187"/>
<feGaussianBlur stdDeviation="7.30788"/>
<feComposite in2="hardAlpha" operator="out"/>
<feColorMatrix type="matrix" values="0 0 0 0 0 0 0 0 0 0 0 0 0 0 0 0 0 0 0.2 0"/>
<feBlend mode="normal" in2="BackgroundImageFix" result="effect1_dropShadow_187_1278"/>
<feBlend mode="normal" in="SourceGraphic" in2="effect1_dropShadow_187_1278" result="shape"/>
</filter>
<clipPath id="clip0_187_1278">
<rect width="357.941" height="7.95424" fill="white" transform="translate(0.0419922 68.043)"/>
</clipPath>
<clipPath id="clip1_187_1278">
<rect x="64" y="32" width="230.04" height="258" rx="12.7094" fill="white"/>
</clipPath>
</defs>
</svg>
