<svg width="495" height="328" viewBox="0 0 495 328" fill="none" xmlns="http://www.w3.org/2000/svg">
<mask id="mask0_187_1260" style="mask-type:alpha" maskUnits="userSpaceOnUse" x="73" y="9" width="359" height="225">
<path fill-rule="evenodd" clip-rule="evenodd" d="M73.521 9.99658H431.462V231.721C431.462 232.819 430.572 233.71 429.473 233.71H75.5096C74.4113 233.71 73.521 232.819 73.521 231.721V9.99658Z" fill="white"/>
</mask>
<g mask="url(#mask0_187_1260)">
<path fill-rule="evenodd" clip-rule="evenodd" d="M73.521 9.99658H431.462V233.71H73.521V9.99658Z" fill="white"/>
</g>
<path d="M75.5093 2.29199H429.473C430.434 2.29199 431.213 3.07041 431.213 4.03125V231.722C431.213 232.683 430.434 233.462 429.473 233.462H75.5093C74.5485 233.462 73.7701 232.683 73.77 231.722V4.03125C73.7702 3.0705 74.5485 2.29214 75.5093 2.29199Z" stroke="#111111" stroke-width="0.49714"/>
<g clip-path="url(#clip0_187_1260)">
<path d="M75.5093 2.29199H429.473C430.434 2.29199 431.213 3.07041 431.213 4.03125V9.74902H73.77V4.03125C73.7702 3.0705 74.5485 2.29214 75.5093 2.29199Z" fill="white" stroke="#111111" stroke-width="0.49714"/>
<path fill-rule="evenodd" clip-rule="evenodd" d="M86.4466 7.5114C87.2703 7.5114 87.938 6.84367 87.938 6.01998C87.938 5.1963 87.2703 4.52856 86.4466 4.52856C85.6229 4.52856 84.9552 5.1963 84.9552 6.01998C84.9552 6.84367 85.6229 7.5114 86.4466 7.5114Z" fill="#111111"/>
<path fill-rule="evenodd" clip-rule="evenodd" d="M81.9723 7.5114C82.796 7.5114 83.4637 6.84367 83.4637 6.01998C83.4637 5.1963 82.796 4.52856 81.9723 4.52856C81.1486 4.52856 80.4809 5.1963 80.4809 6.01998C80.4809 6.84367 81.1486 7.5114 81.9723 7.5114Z" fill="#111111"/>
<path fill-rule="evenodd" clip-rule="evenodd" d="M77.498 7.5114C78.3217 7.5114 78.9895 6.84367 78.9895 6.01998C78.9895 5.1963 78.3217 4.52856 77.498 4.52856C76.6744 4.52856 76.0066 5.1963 76.0066 6.01998C76.0066 6.84367 76.6744 7.5114 77.498 7.5114Z" fill="#111111"/>
</g>
<g filter="url(#filter0_d_187_1260)">
<g clip-path="url(#clip1_187_1260)">
<rect x="50" y="83" width="188.509" height="190.394" rx="18.8509" fill="white"/>
<g filter="url(#filter1_d_187_1260)">
<path d="M81.1042 117.851L119.101 117.851C121.541 117.851 123.519 119.601 123.519 121.759L123.519 141.3C123.519 143.458 121.541 145.208 119.101 145.208L102.311 145.208L85.5224 145.208C83.0823 145.208 81.1042 143.458 81.1042 141.3L81.1042 117.851Z" fill="#0C31A1"/>
<path d="M81.1042 123.713L81.1042 139.737C81.1042 141.895 83.0823 143.645 85.5224 143.645L119.101 143.645C121.541 143.645 123.519 141.895 123.519 139.737L123.519 123.322C123.519 121.164 121.541 119.414 119.101 119.414L100.544 119.414L100.544 121.368C100.544 122.663 99.3573 123.713 97.8933 123.713L81.1042 123.713Z" fill="url(#paint0_linear_187_1260)"/>
<path d="M81.1042 116.288C81.1042 114.561 82.6867 113.161 84.6387 113.161L97.0096 113.161C98.9617 113.161 100.544 114.561 100.544 116.288L100.544 117.851L81.1042 117.851L81.1042 116.288Z" fill="#0C31A1"/>
</g>
<circle cx="209.012" cy="115.711" r="2.54916" fill="#3C3C3C"/>
<circle cx="209.012" cy="123.058" r="2.54916" fill="#3C3C3C"/>
<circle cx="209.012" cy="130.406" r="2.54916" fill="#3C3C3C"/>
<path d="M83.6905 163.964H86.3146C87.4305 163.964 88.0036 164.718 88.0036 165.563C88.0036 166.407 87.4456 167.146 86.3146 167.146H83.6905V163.964ZM86.3146 169.303C88.9989 169.272 90.3562 167.629 90.3562 165.517C90.3562 163.481 89.014 161.732 86.3146 161.732C84.6406 161.732 83.027 161.732 81.3379 161.732V172.289H83.6905V169.303H86.3146ZM91.6263 161.732V172.289H93.7979V168.518C93.7979 167.327 94.5519 166.694 95.4568 166.694C96.3164 166.694 96.8744 167.267 96.8744 168.307V172.289H99.046V168.292C99.046 165.638 97.8245 164.718 96.0751 164.718C95.3211 164.718 94.4313 164.959 93.813 165.759V161.732H91.6263ZM104.421 172.454C106.955 172.454 108.508 170.826 108.508 168.579C108.508 166.332 106.909 164.673 104.421 164.673C101.948 164.673 100.349 166.332 100.349 168.579C100.349 170.826 101.903 172.454 104.421 172.454ZM104.421 170.524C103.109 170.524 102.551 169.514 102.551 168.579C102.551 167.644 103.124 166.618 104.421 166.618C105.733 166.618 106.306 167.644 106.306 168.579C106.306 169.559 105.748 170.524 104.421 170.524ZM110.613 163.044V164.884H109.286V166.694H110.613V169.499C110.613 171.821 111.835 172.53 113.449 172.454C114.037 172.424 114.474 172.334 115.017 172.123L114.519 170.313C114.278 170.434 113.871 170.494 113.614 170.494C113.207 170.494 112.77 170.283 112.77 169.499V166.694H114.67V164.884H112.785V162.803L110.613 163.044ZM119.782 172.454C122.315 172.454 123.869 170.826 123.869 168.579C123.869 166.332 122.27 164.673 119.782 164.673C117.308 164.673 115.71 166.332 115.71 168.579C115.71 170.826 117.263 172.454 119.782 172.454ZM119.782 170.524C118.47 170.524 117.912 169.514 117.912 168.579C117.912 167.644 118.485 166.618 119.782 166.618C121.094 166.618 121.667 167.644 121.667 168.579C121.667 169.559 121.109 170.524 119.782 170.524ZM131.039 165.593C130.255 164.914 129.335 164.628 128.189 164.628C126.575 164.628 124.976 165.336 124.976 167.025C124.976 168.775 126.711 169.348 128.098 169.408C129.109 169.438 129.365 169.725 129.365 170.072C129.38 170.464 128.882 170.72 128.249 170.705C127.465 170.69 126.575 170.524 125.655 169.77L124.72 171.308C125.987 172.364 127.118 172.575 128.219 172.575C130.587 172.575 131.491 171.278 131.476 170.072C131.461 168.021 129.697 167.719 128.234 167.674C127.51 167.659 127.133 167.433 127.133 167.025C127.133 166.663 127.495 166.407 128.204 166.407C128.882 166.407 129.41 166.558 129.968 166.95L131.039 165.593Z" fill="#3A3A3A"/>
<path d="M81.2644 193.831C81.2776 192.564 82.6368 192.168 83.7716 192.168C84.946 192.194 86.1996 192.59 86.1996 193.936C86.1996 195.269 84.6821 195.612 83.7056 195.612C81.9506 195.612 80.0504 196.193 80.0504 198.278V200.508H87.2948V199.412H81.2116V198.278C81.2116 196.958 82.6368 196.694 83.7188 196.681C85.5002 196.681 87.3344 196.021 87.3344 193.923C87.3344 191.864 85.487 191.165 83.7716 191.165C82.0694 191.165 80.1956 191.772 80.1164 193.831H81.2644ZM89.4171 200.547L89.0872 201.735H89.8129C90.0768 200.89 90.3803 200.085 90.3803 199.967C90.3803 199.043 88.9684 199.016 88.9684 199.94C88.9684 200.257 89.1663 200.455 89.4303 200.521L89.4171 200.547ZM97.0745 198.568V200.508H98.2358V198.568H99.3574V197.499H98.2358V191.271H96.3884L91.5852 197.301L91.7435 198.568H97.0745ZM97.0745 197.499H92.7992L97.0745 192.142V197.499ZM104.506 194.715H102.065V192.326H107.488V191.271H100.943V195.797H104.506C106.063 195.797 106.868 196.536 106.868 197.618C106.868 198.792 105.865 199.505 104.4 199.505C103.331 199.505 101.919 199.201 101.919 197.855H100.771C100.785 199.953 102.592 200.587 104.427 200.587C106.604 200.587 108.016 199.386 108.016 197.605C108.016 195.836 106.749 194.715 104.506 194.715ZM110.763 195.889V193.91C110.763 192.749 112.004 192.102 113.284 192.102C114.564 192.102 115.725 192.617 115.764 193.633H116.912C116.846 191.904 115.184 191.125 113.27 191.125C111.449 191.125 109.628 192.01 109.628 193.897V197.671C109.628 199.755 111.555 200.653 113.376 200.653C115.171 200.653 117.084 199.782 117.084 197.71C117.084 195.559 115.184 194.767 113.389 194.767C112.439 194.767 111.37 195.058 110.763 195.889ZM113.376 199.597C112.149 199.597 110.79 199.082 110.79 197.71C110.79 196.404 112.149 195.797 113.402 195.797C114.656 195.797 115.936 196.338 115.936 197.71C115.936 199.096 114.603 199.584 113.376 199.597Z" fill="#8C8B8B"/>
<path d="M80.9081 220.925H81.8808C81.8808 219.862 83.1024 219.647 83.9507 219.647C85.3871 219.647 85.9866 220.337 85.9753 220.993C85.9639 221.739 85.1496 222.305 83.928 222.305H82.7178V223.131H83.9959C85.5228 223.131 86.1223 223.877 86.1223 224.544C86.1223 225.461 85.2061 225.97 83.9507 225.97C83.1024 225.97 81.7677 225.811 81.7564 224.624H80.7724C80.7724 226.377 82.5029 226.874 83.928 226.874C85.7038 226.874 87.1063 226.071 87.1063 224.511C87.1063 223.628 86.3937 222.904 85.5341 222.69C86.3598 222.497 86.948 221.796 86.948 220.982C86.9367 219.579 85.6473 218.742 83.9394 218.742C82.5482 218.742 80.8968 219.24 80.8855 220.914L80.9081 220.925ZM88.4511 222.034V223.617C88.4511 228.005 94.8529 227.994 94.8529 223.617V222.034C94.8529 217.656 88.4511 217.645 88.4511 222.034ZM89.4351 223.617V222.034C89.4351 218.878 93.8689 218.9 93.8689 222.022V223.606C93.8689 226.761 89.4351 226.773 89.4351 223.617ZM97.7419 218.765C95.378 218.765 95.378 222.203 97.7419 222.203C100.117 222.203 100.117 218.765 97.7419 218.765ZM101.78 218.844L96.6561 226.784H97.708L102.82 218.844H101.78ZM97.7419 219.5C99.054 219.5 99.0653 221.457 97.7532 221.457C96.4186 221.457 96.4073 219.5 97.7306 219.5H97.7419ZM101.791 223.425C99.4159 223.425 99.4159 226.863 101.78 226.863C104.155 226.863 104.155 223.425 101.78 223.425H101.791ZM101.78 224.149C103.092 224.149 103.103 226.128 101.78 226.128C100.468 226.128 100.456 224.149 101.78 224.149Z" fill="#3A3A3A"/>
<path d="M181.376 224.499C181.376 225.495 180.279 226.015 179.216 226.015C178.119 226.015 177.112 225.574 177.078 224.737H176.094C176.15 226.218 177.587 226.886 179.227 226.886C180.788 226.886 182.349 226.128 182.349 224.511V221.276C182.349 219.489 180.697 218.72 179.136 218.72C177.598 218.72 175.958 219.466 175.958 221.242C175.958 223.085 177.587 223.764 179.125 223.764C179.951 223.764 180.867 223.515 181.376 222.769V224.499ZM179.136 219.613C180.2 219.613 181.353 220.065 181.353 221.242C181.353 222.362 180.2 222.882 179.125 222.882C178.062 222.882 176.954 222.407 176.954 221.242C176.954 220.054 178.107 219.624 179.136 219.613ZM183.869 222.034V223.617C183.869 228.005 190.271 227.994 190.271 223.617V222.034C190.271 217.656 183.869 217.645 183.869 222.034ZM184.853 223.617V222.034C184.853 218.878 189.287 218.9 189.287 222.022V223.606C189.287 226.761 184.853 226.773 184.853 223.617ZM191.678 222.034V223.617C191.678 228.005 198.08 227.994 198.08 223.617V222.034C198.08 217.656 191.678 217.645 191.678 222.034ZM192.662 223.617V222.034C192.662 218.878 197.096 218.9 197.096 222.022V223.606C197.096 226.761 192.662 226.773 192.662 223.617ZM199.487 222.034V223.617C199.487 228.005 205.889 227.994 205.889 223.617V222.034C205.889 217.656 199.487 217.645 199.487 222.034ZM200.471 223.617V222.034C200.471 218.878 204.905 218.9 204.905 222.022V223.606C204.905 226.761 200.471 226.773 200.471 223.617Z" fill="#3A3A3A"/>
<rect x="80.1616" y="234.75" width="128.186" height="8.48291" rx="4.24145" fill="#E4E4E4"/>
<rect x="80.1616" y="234.75" width="56.5527" height="8.48291" rx="4.24145" fill="#0C31A1"/>
<g filter="url(#filter2_d_187_1260)">
<circle cx="132.944" cy="239.463" r="9.42545" fill="white"/>
</g>
<g filter="url(#filter3_d_187_1260)">
<circle cx="132.944" cy="239.462" r="4.71273" fill="#0C31A1"/>
</g>
</g>
</g>
<g filter="url(#filter4_d_187_1260)">
<g clip-path="url(#clip2_187_1260)">
<rect x="175" y="25" width="293" height="134.966" rx="9.81575" fill="white"/>
<path d="M200.575 59.8152H205.5V61.5762H198.546V52.6438H205.36V54.392H200.575V56.204H205.105V57.8884H200.575V59.8152ZM213.313 55.2725V61.5762H211.578L211.45 60.8233C210.914 61.4103 210.217 61.7038 209.357 61.7038C208.77 61.7038 208.247 61.5677 207.788 61.2954C207.337 61.0147 206.984 60.6276 206.729 60.1342C206.473 59.6323 206.346 59.0624 206.346 58.4243C206.346 57.7863 206.473 57.2206 206.729 56.7272C206.984 56.2253 207.337 55.8382 207.788 55.566C208.247 55.2853 208.77 55.1449 209.357 55.1449C209.783 55.1449 210.174 55.2215 210.531 55.3746C210.889 55.5192 211.195 55.7319 211.45 56.0126L211.578 55.2725H213.313ZM209.829 60.0194C210.272 60.0194 210.633 59.8748 210.914 59.5855C211.195 59.2878 211.335 58.9007 211.335 58.4243C211.335 57.9479 211.195 57.5651 210.914 57.2759C210.633 56.9781 210.272 56.8293 209.829 56.8293C209.387 56.8293 209.026 56.9781 208.745 57.2759C208.473 57.5736 208.336 57.9565 208.336 58.4243C208.336 58.8922 208.473 59.275 208.745 59.5728C209.026 59.8705 209.387 60.0194 209.829 60.0194ZM218.401 55.1321C218.69 55.1321 218.98 55.1874 219.269 55.298C219.558 55.4001 219.809 55.5532 220.022 55.7574L219.18 57.2249C219.001 57.1143 218.835 57.0334 218.682 56.9824C218.529 56.9314 218.367 56.9058 218.197 56.9058C217.772 56.9058 217.436 57.042 217.189 57.3142C216.942 57.5864 216.819 57.9862 216.819 58.5137V61.5762H214.816V55.2725H216.564L216.717 56.0636C217.125 55.4426 217.687 55.1321 218.401 55.1321ZM224.589 55.1321C225.372 55.1321 225.993 55.3873 226.452 55.8978C226.92 56.4082 227.154 57.1143 227.154 58.016V61.5762H225.151V58.1308C225.151 57.7225 225.049 57.4035 224.844 57.1738C224.64 56.9441 224.36 56.8293 224.002 56.8293C223.611 56.8293 223.296 56.9611 223.058 57.2249C222.82 57.4886 222.701 57.8331 222.701 58.2584V61.5762H220.697V55.2725H222.433L222.56 56.0126C222.807 55.7319 223.101 55.5149 223.441 55.3618C223.79 55.2087 224.172 55.1321 224.589 55.1321ZM229.593 54.6472C229.245 54.6472 228.96 54.5452 228.738 54.341C228.526 54.1368 228.419 53.8774 228.419 53.5626C228.419 53.2393 228.53 52.9756 228.751 52.7714C228.972 52.5673 229.253 52.4652 229.593 52.4652C229.934 52.4652 230.214 52.5673 230.436 52.7714C230.657 52.9756 230.767 53.2393 230.767 53.5626C230.767 53.8774 230.657 54.1368 230.436 54.341C230.223 54.5452 229.942 54.6472 229.593 54.6472ZM228.585 55.2725H230.589V61.5762H228.585V55.2725ZM235.991 55.1321C236.774 55.1321 237.395 55.3873 237.854 55.8978C238.322 56.4082 238.556 57.1143 238.556 58.016V61.5762H236.553V58.1308C236.553 57.7225 236.451 57.4035 236.247 57.1738C236.042 56.9441 235.762 56.8293 235.404 56.8293C235.013 56.8293 234.698 56.9611 234.46 57.2249C234.222 57.4886 234.103 57.8331 234.103 58.2584V61.5762H232.099V55.2725H233.835L233.962 56.0126C234.209 55.7319 234.503 55.5149 234.843 55.3618C235.192 55.2087 235.575 55.1321 235.991 55.1321ZM245.232 60.5426C245.657 60.7382 245.985 61.0105 246.215 61.3592C246.453 61.6995 246.572 62.0951 246.572 62.546C246.572 63.0734 246.427 63.537 246.138 63.9369C245.849 64.3452 245.441 64.6557 244.913 64.8684C244.386 65.0896 243.773 65.2001 243.076 65.2001C242.395 65.2001 241.8 65.0896 241.289 64.8684C240.779 64.6472 240.383 64.3324 240.102 63.9241C239.83 63.5158 239.694 63.0436 239.694 62.5077C239.694 62.3716 239.698 62.2695 239.707 62.2014H241.634C241.617 62.6183 241.731 62.9415 241.978 63.1712C242.233 63.4009 242.599 63.5158 243.076 63.5158C243.501 63.5158 243.845 63.4179 244.109 63.2223C244.373 63.0351 244.505 62.7842 244.505 62.4694C244.505 62.1461 244.381 61.8952 244.135 61.7165C243.896 61.5464 243.552 61.4613 243.101 61.4613C242.404 61.4613 241.791 61.3295 241.264 61.0658C240.745 60.802 240.341 60.432 240.051 59.9556C239.771 59.4707 239.63 58.9092 239.63 58.2712C239.63 57.6587 239.775 57.1143 240.064 56.6379C240.362 56.153 240.77 55.7787 241.289 55.5149C241.817 55.2427 242.416 55.1066 243.088 55.1066C243.607 55.1066 244.084 55.2087 244.517 55.4129L245.258 54.4941L246.725 55.5532L245.883 56.5358C246.308 57.0207 246.521 57.5992 246.521 58.2712C246.521 58.7391 246.406 59.173 246.176 59.5728C245.955 59.9641 245.64 60.2874 245.232 60.5426ZM243.088 59.7642C243.531 59.7642 243.888 59.6281 244.16 59.3559C244.432 59.0836 244.569 58.7221 244.569 58.2712C244.569 57.8203 244.432 57.463 244.16 57.1993C243.896 56.9271 243.539 56.791 243.088 56.791C242.646 56.791 242.289 56.9271 242.016 57.1993C241.744 57.463 241.608 57.8203 241.608 58.2712C241.608 58.7136 241.744 59.0751 242.016 59.3559C242.289 59.6281 242.646 59.7642 243.088 59.7642ZM250.276 61.7421C249.161 61.7421 248.192 61.4613 247.366 60.8999L248.132 59.5217C248.438 59.7089 248.791 59.8535 249.191 59.9556C249.599 60.0577 250.004 60.1087 250.403 60.1087C250.956 60.1087 251.233 59.9598 251.233 59.6621C251.233 59.509 251.156 59.3941 251.003 59.3176C250.85 59.241 250.595 59.19 250.237 59.1644C249.438 59.1219 248.8 58.922 248.323 58.5647C247.856 58.2074 247.622 57.7395 247.622 57.161C247.622 56.5315 247.877 56.0339 248.387 55.6681C248.898 55.2938 249.587 55.1066 250.454 55.1066C250.948 55.1066 251.416 55.1662 251.858 55.2853C252.309 55.4044 252.696 55.5702 253.019 55.7829L252.241 57.1228C251.764 56.8505 251.199 56.7144 250.544 56.7144C249.897 56.7144 249.574 56.8676 249.574 57.1738C249.574 57.3014 249.638 57.3992 249.765 57.4673C249.901 57.5354 250.127 57.5864 250.442 57.6204C251.343 57.6885 252.028 57.8926 252.496 58.2329C252.972 58.5732 253.211 59.0496 253.211 59.6621C253.211 60.3086 252.951 60.8191 252.432 61.1934C251.913 61.5592 251.195 61.7421 250.276 61.7421Z" fill="#3C3C3C"/>
<path d="M199.838 73.9707V79.4656H200.598V73.9707H202.709V73.2817H197.726V73.9707H199.838ZM202.209 77.2924C202.209 78.6175 203.163 79.5451 204.471 79.5451C205.787 79.5451 206.741 78.6175 206.741 77.2924C206.741 75.9407 205.805 75.0043 204.471 75.0043C203.172 75.0043 202.209 75.9407 202.209 77.2924ZM206.026 77.2924C206.017 78.2111 205.372 78.8649 204.471 78.8649C203.579 78.8649 202.934 78.2111 202.934 77.2924C202.934 76.3206 203.587 75.6669 204.48 75.6669C205.354 75.6669 206.026 76.3206 206.026 77.2924ZM208.913 73.8294L208.189 73.9089V75.1103H207.314V75.7287H208.189V78.0344C208.189 78.9974 208.631 79.5451 209.567 79.5274C209.859 79.5186 210.124 79.4479 210.415 79.3154L210.203 78.7147C210.009 78.8118 209.788 78.8737 209.594 78.8737C209.072 78.8737 208.905 78.5468 208.905 78.0344V75.7287H210.265V75.1103H208.913V73.8294ZM214.801 79.4656H215.499V75.1015H214.792L214.783 75.8966C214.465 75.3312 213.82 75.0308 213.167 75.0308C211.921 75.022 210.923 75.8701 210.923 77.2835C210.923 78.7058 211.903 79.5716 213.158 79.5716C213.759 79.5716 214.421 79.2889 214.766 78.6882L214.783 79.4832L214.801 79.4656ZM213.202 75.7111C215.296 75.7111 215.296 78.909 213.193 78.909C212.327 78.909 211.63 78.2818 211.63 77.31C211.63 76.3383 212.327 75.7199 213.193 75.7199L213.202 75.7111ZM217.599 73.2817H216.875V79.4656H217.599V73.2817ZM221.398 79.4656H225.885V78.7323H222.157V76.6386H225.594V75.9231H222.157V73.9884H225.744V73.2817H221.398V79.4656ZM226.472 79.4479V79.4656H227.276L228.512 77.6987L229.74 79.4656H230.571V79.4479L228.972 77.2305L230.456 75.128V75.1015H229.626L228.512 76.7535L227.382 75.1015H226.578V75.128L228.044 77.2305L226.472 79.4479ZM231.367 81.5239H232.074V78.6793C232.418 79.2977 233.107 79.5628 233.726 79.5628C235.033 79.5628 235.943 78.6705 235.943 77.2924C235.943 75.9496 235.024 75.0662 233.77 75.0397C233.081 75.0397 232.436 75.3754 232.091 75.9584L232.056 75.1192H231.367V81.5239ZM233.681 78.8825C232.798 78.8737 232.153 78.2023 232.153 77.31C232.153 76.4178 232.772 75.7464 233.681 75.7464C234.574 75.7464 235.219 76.3294 235.219 77.31C235.219 78.2906 234.556 78.8825 233.681 78.8825ZM240.905 78.7677L240.419 78.326C240.128 78.6793 239.527 78.8737 239.032 78.8737C238.193 78.8737 237.531 78.3701 237.451 77.5662H241.162C241.329 75.8259 240.313 75.0043 238.979 75.0043C237.663 75.0043 236.718 75.9496 236.718 77.2659C236.718 78.6528 237.663 79.5451 239.015 79.5451C239.695 79.5451 240.455 79.2889 240.897 78.7677H240.905ZM240.472 76.9567H237.451C237.575 76.1174 238.237 75.658 238.997 75.658C239.854 75.658 240.437 76.1174 240.472 76.9655V76.9567ZM242.168 75.1015V79.4656H242.884V77.1245C242.884 76.3383 243.431 75.7111 244.226 75.7022C245.057 75.7022 245.552 76.2234 245.552 77.0627V79.4656H246.276V77.0538C246.276 75.7729 245.463 75.0308 244.359 75.0308C243.776 75.0308 243.246 75.2693 242.866 75.7906L242.831 75.0927H242.168V75.1015ZM250.352 76.0644L250.767 75.5874C250.299 75.1633 249.76 75.0043 249.106 75.0043C248.267 74.9955 247.331 75.3577 247.34 76.2853C247.34 77.2129 248.241 77.4337 249.08 77.5397C249.751 77.6192 250.264 77.7606 250.255 78.2376C250.237 78.7677 249.628 78.9179 249.151 78.9179C248.612 78.9179 247.984 78.7235 247.596 78.2465L247.181 78.75C247.675 79.3684 248.4 79.5716 249.133 79.5716C250.114 79.5716 250.944 79.1387 250.962 78.2641C250.979 77.1864 249.919 77.0273 249.124 76.9302C248.576 76.8683 248.046 76.7358 248.037 76.2853C248.029 75.8524 248.515 75.6404 249.115 75.6492C249.566 75.6492 249.963 75.7287 250.343 76.0733L250.352 76.0644ZM255.865 78.7677L255.379 78.326C255.087 78.6793 254.487 78.8737 253.992 78.8737C253.153 78.8737 252.49 78.3701 252.411 77.5662H256.121C256.289 75.8259 255.273 75.0043 253.939 75.0043C252.623 75.0043 251.677 75.9496 251.677 77.2659C251.677 78.6528 252.623 79.5451 253.974 79.5451C254.654 79.5451 255.414 79.2889 255.856 78.7677H255.865ZM255.432 76.9567H252.411C252.534 76.1174 253.197 75.658 253.957 75.658C254.813 75.658 255.397 76.1174 255.432 76.9655V76.9567Z" fill="#8C8B8B"/>
<path d="M205.615 110.339C205.615 111.062 205.356 111.671 204.837 112.164C204.318 112.658 203.62 112.972 202.744 113.108V114.333H201.009V113.121C200.43 113.053 199.882 112.917 199.363 112.713C198.844 112.5 198.384 112.232 197.985 111.909L199.069 110.39C199.86 111.011 200.783 111.322 201.838 111.322C202.366 111.322 202.782 111.233 203.089 111.054C203.403 110.875 203.561 110.633 203.561 110.327C203.561 110.037 203.416 109.812 203.127 109.65C202.838 109.489 202.378 109.374 201.749 109.306C200.532 109.17 199.639 108.885 199.069 108.451C198.508 108.017 198.227 107.396 198.227 106.588C198.227 105.907 198.465 105.329 198.942 104.852C199.418 104.376 200.06 104.065 200.868 103.921V102.658H202.604V103.87C203.106 103.929 203.582 104.044 204.033 104.214C204.492 104.376 204.905 104.589 205.271 104.852L204.288 106.32C203.591 105.835 202.821 105.592 201.979 105.592C201.46 105.592 201.043 105.678 200.728 105.848C200.422 106.018 200.269 106.248 200.269 106.537C200.269 106.817 200.401 107.034 200.664 107.188C200.936 107.341 201.387 107.455 202.017 107.532C203.225 107.668 204.127 107.97 204.722 108.438C205.318 108.897 205.615 109.531 205.615 110.339ZM210.275 103.895C211.032 103.895 211.7 104.023 212.279 104.278C212.857 104.533 213.308 104.891 213.631 105.35C213.954 105.801 214.116 106.324 214.116 106.92V110.046C214.116 110.667 213.959 111.207 213.644 111.666C213.329 112.126 212.883 112.483 212.304 112.738C211.726 112.985 211.058 113.108 210.301 113.108C209.127 113.108 208.212 112.874 207.557 112.407C206.911 111.939 206.583 111.275 206.575 110.416H208.667C208.684 110.705 208.837 110.935 209.127 111.105C209.424 111.275 209.807 111.36 210.275 111.36C210.76 111.36 211.164 111.237 211.487 110.99C211.819 110.735 211.985 110.403 211.985 109.995V109.178C211.424 109.604 210.709 109.816 209.841 109.816C209.169 109.816 208.582 109.701 208.08 109.472C207.578 109.233 207.191 108.897 206.919 108.464C206.647 108.021 206.511 107.511 206.511 106.932C206.511 106.328 206.664 105.797 206.97 105.337C207.285 104.878 207.727 104.525 208.297 104.278C208.867 104.023 209.527 103.895 210.275 103.895ZM210.313 108.17C210.815 108.17 211.219 108.059 211.526 107.838C211.84 107.609 211.998 107.307 211.998 106.932C211.998 106.567 211.84 106.273 211.526 106.052C211.219 105.822 210.815 105.707 210.313 105.707C209.803 105.707 209.395 105.822 209.088 106.052C208.782 106.273 208.629 106.567 208.629 106.932C208.629 107.307 208.782 107.609 209.088 107.838C209.395 108.059 209.803 108.17 210.313 108.17ZM219.073 107.175C220.281 107.175 221.191 107.426 221.804 107.928C222.425 108.43 222.735 109.165 222.735 110.135C222.735 110.722 222.582 111.241 222.276 111.692C221.978 112.143 221.553 112.492 221 112.738C220.455 112.985 219.826 113.108 219.111 113.108C217.92 113.108 217.006 112.853 216.368 112.343C215.73 111.832 215.411 111.101 215.411 110.148H217.529C217.529 110.505 217.669 110.79 217.95 111.003C218.231 111.207 218.609 111.309 219.086 111.309C219.554 111.309 219.924 111.203 220.196 110.99C220.468 110.769 220.604 110.475 220.604 110.11C220.604 109.735 220.472 109.446 220.209 109.242C219.945 109.038 219.566 108.936 219.073 108.936H215.653V104.036H222.25V105.86H217.682V107.175H219.073ZM230.266 108.336C230.631 108.515 230.929 108.791 231.159 109.165C231.388 109.54 231.503 109.948 231.503 110.39C231.503 111.267 231.167 111.947 230.495 112.432C229.823 112.908 228.879 113.147 227.662 113.147C226.463 113.147 225.523 112.904 224.842 112.419C224.162 111.926 223.822 111.25 223.822 110.39C223.822 109.948 223.936 109.54 224.166 109.165C224.396 108.791 224.693 108.515 225.059 108.336C224.753 108.106 224.515 107.834 224.345 107.519C224.183 107.196 224.102 106.843 224.102 106.46C224.102 105.941 224.247 105.486 224.536 105.095C224.834 104.703 225.251 104.401 225.787 104.189C226.323 103.976 226.948 103.87 227.662 103.87C228.386 103.87 229.015 103.976 229.551 104.189C230.087 104.401 230.499 104.703 230.789 105.095C231.078 105.486 231.223 105.941 231.223 106.46C231.223 106.834 231.138 107.183 230.967 107.507C230.806 107.83 230.572 108.106 230.266 108.336ZM227.662 105.541C227.203 105.541 226.833 105.639 226.552 105.835C226.272 106.031 226.131 106.29 226.131 106.613C226.131 106.928 226.272 107.183 226.552 107.379C226.833 107.575 227.203 107.672 227.662 107.672C228.122 107.672 228.492 107.575 228.773 107.379C229.053 107.183 229.194 106.928 229.194 106.613C229.194 106.29 229.053 106.031 228.773 105.835C228.492 105.639 228.122 105.541 227.662 105.541ZM227.662 111.386C228.19 111.386 228.607 111.284 228.913 111.079C229.219 110.875 229.372 110.603 229.372 110.263C229.372 109.923 229.219 109.65 228.913 109.446C228.607 109.242 228.19 109.14 227.662 109.14C227.135 109.14 226.718 109.242 226.412 109.446C226.106 109.65 225.953 109.923 225.953 110.263C225.953 110.603 226.106 110.875 226.412 111.079C226.718 111.284 227.135 111.386 227.662 111.386ZM236.394 103.895C237.151 103.895 237.819 104.023 238.398 104.278C238.976 104.533 239.427 104.891 239.75 105.35C240.074 105.801 240.235 106.324 240.235 106.92V110.046C240.235 110.667 240.078 111.207 239.763 111.666C239.448 112.126 239.002 112.483 238.423 112.738C237.845 112.985 237.177 113.108 236.42 113.108C235.246 113.108 234.331 112.874 233.676 112.407C233.03 111.939 232.702 111.275 232.694 110.416H234.786C234.803 110.705 234.957 110.935 235.246 111.105C235.544 111.275 235.926 111.36 236.394 111.36C236.879 111.36 237.283 111.237 237.607 110.99C237.938 110.735 238.104 110.403 238.104 109.995V109.178C237.543 109.604 236.828 109.816 235.96 109.816C235.288 109.816 234.701 109.701 234.199 109.472C233.698 109.233 233.31 108.897 233.038 108.464C232.766 108.021 232.63 107.511 232.63 106.932C232.63 106.328 232.783 105.797 233.089 105.337C233.404 104.878 233.846 104.525 234.416 104.278C234.986 104.023 235.646 103.895 236.394 103.895ZM236.433 108.17C236.934 108.17 237.339 108.059 237.645 107.838C237.96 107.609 238.117 107.307 238.117 106.932C238.117 106.567 237.96 106.273 237.645 106.052C237.339 105.822 236.934 105.707 236.433 105.707C235.922 105.707 235.514 105.822 235.208 106.052C234.901 106.273 234.748 106.567 234.748 106.932C234.748 107.307 234.901 107.609 235.208 107.838C235.514 108.059 235.922 108.17 236.433 108.17ZM242.365 113.096C242.025 113.096 241.744 112.994 241.523 112.789C241.31 112.585 241.204 112.326 241.204 112.011C241.204 111.696 241.31 111.437 241.523 111.233C241.744 111.028 242.025 110.926 242.365 110.926C242.697 110.926 242.969 111.028 243.182 111.233C243.403 111.437 243.514 111.696 243.514 112.011C243.514 112.326 243.403 112.585 243.182 112.789C242.969 112.994 242.697 113.096 242.365 113.096ZM248.345 107.175C249.553 107.175 250.463 107.426 251.075 107.928C251.696 108.43 252.007 109.165 252.007 110.135C252.007 110.722 251.854 111.241 251.548 111.692C251.25 112.143 250.825 112.492 250.272 112.738C249.727 112.985 249.098 113.108 248.383 113.108C247.192 113.108 246.278 112.853 245.64 112.343C245.001 111.832 244.682 111.101 244.682 110.148H246.801C246.801 110.505 246.941 110.79 247.222 111.003C247.503 111.207 247.881 111.309 248.357 111.309C248.825 111.309 249.195 111.203 249.468 110.99C249.74 110.769 249.876 110.475 249.876 110.11C249.876 109.735 249.744 109.446 249.48 109.242C249.217 109.038 248.838 108.936 248.345 108.936H244.925V104.036H251.522V105.86H246.954V107.175H248.345ZM256.781 103.895C257.538 103.895 258.206 104.023 258.784 104.278C259.363 104.533 259.814 104.891 260.137 105.35C260.46 105.801 260.622 106.324 260.622 106.92V110.046C260.622 110.667 260.465 111.207 260.15 111.666C259.835 112.126 259.388 112.483 258.81 112.738C258.232 112.985 257.564 113.108 256.807 113.108C255.633 113.108 254.718 112.874 254.063 112.407C253.417 111.939 253.089 111.275 253.081 110.416H255.173C255.19 110.705 255.343 110.935 255.633 111.105C255.93 111.275 256.313 111.36 256.781 111.36C257.266 111.36 257.67 111.237 257.993 110.99C258.325 110.735 258.491 110.403 258.491 109.995V109.178C257.93 109.604 257.215 109.816 256.347 109.816C255.675 109.816 255.088 109.701 254.586 109.472C254.084 109.233 253.697 108.897 253.425 108.464C253.153 108.021 253.017 107.511 253.017 106.932C253.017 106.328 253.17 105.797 253.476 105.337C253.791 104.878 254.233 104.525 254.803 104.278C255.373 104.023 256.032 103.895 256.781 103.895ZM256.819 108.17C257.321 108.17 257.725 108.059 258.032 107.838C258.346 107.609 258.504 107.307 258.504 106.932C258.504 106.567 258.346 106.273 258.032 106.052C257.725 105.822 257.321 105.707 256.819 105.707C256.309 105.707 255.901 105.822 255.594 106.052C255.288 106.273 255.135 106.567 255.135 106.932C255.135 107.307 255.288 107.609 255.594 107.838C255.901 108.059 256.309 108.17 256.819 108.17Z" fill="#3C3C3C"/>
<path d="M199.158 128.861H201.207C204.052 128.852 204.052 124.674 201.207 124.674H198.398V130.857H199.158V128.861ZM201.207 128.145H199.158V125.389H201.207C203.027 125.389 203.027 128.145 201.207 128.145ZM204.906 126.493H204.235V130.857H204.959V128.428C204.959 127.624 205.542 127.129 206.24 127.121C206.54 127.121 206.77 127.2 207 127.359L207.327 126.741C207.062 126.538 206.691 126.405 206.311 126.414C205.807 126.414 205.268 126.573 204.968 127.138L204.915 126.485L204.906 126.493ZM207.593 128.684C207.593 130.009 208.547 130.937 209.854 130.937C211.17 130.937 212.125 130.009 212.125 128.684C212.125 127.333 211.188 126.396 209.854 126.396C208.556 126.396 207.593 127.333 207.593 128.684ZM211.409 128.684C211.4 129.603 210.755 130.257 209.854 130.257C208.962 130.257 208.317 129.603 208.317 128.684C208.317 127.712 208.971 127.059 209.863 127.059C210.738 127.059 211.409 127.712 211.409 128.684ZM213.572 130.857H214.296V127.182H215.665V126.546H214.296V126.202C214.296 125.548 214.596 125.257 215.065 125.257C215.312 125.257 215.498 125.336 215.736 125.477L216.036 124.939C215.736 124.735 215.4 124.62 215.047 124.62C214.128 124.62 213.581 125.204 213.581 126.202V126.546H212.724V127.182H213.581V130.866L213.572 130.857ZM216.362 125.159C216.362 125.795 217.316 125.795 217.316 125.168C217.316 124.532 216.362 124.532 216.362 125.159ZM216.468 126.476H217.192V130.857H216.468V126.476ZM219.749 125.221L219.025 125.301V126.502H218.15V127.121H219.025V129.426C219.025 130.389 219.466 130.937 220.403 130.919C220.694 130.91 220.959 130.84 221.251 130.707L221.039 130.107C220.845 130.204 220.624 130.266 220.429 130.266C219.908 130.266 219.74 129.939 219.74 129.426V127.121H221.101V126.502H219.749V125.221ZM224.187 125.159C224.187 125.795 225.141 125.795 225.141 125.168C225.141 124.532 224.187 124.532 224.187 125.159ZM224.293 126.476H225.017V130.857H224.293V126.476ZM229.155 127.456L229.57 126.979C229.102 126.555 228.563 126.396 227.91 126.396C227.07 126.387 226.134 126.75 226.143 127.677C226.143 128.605 227.044 128.826 227.883 128.932C228.554 129.011 229.067 129.152 229.058 129.629C229.04 130.16 228.431 130.31 227.954 130.31C227.415 130.31 226.788 130.115 226.399 129.638L225.984 130.142C226.478 130.76 227.203 130.963 227.936 130.963C228.917 130.963 229.747 130.531 229.765 129.656C229.782 128.578 228.722 128.419 227.927 128.322C227.38 128.26 226.849 128.128 226.841 127.677C226.832 127.244 227.318 127.032 227.918 127.041C228.369 127.041 228.766 127.121 229.146 127.465L229.155 127.456ZM233.774 127.765V126.44C233.774 125.663 234.605 125.23 235.462 125.23C236.319 125.23 237.096 125.575 237.123 126.255H237.891C237.847 125.098 236.734 124.576 235.453 124.576C234.234 124.576 233.015 125.168 233.015 126.432V128.958C233.015 130.354 234.304 130.955 235.524 130.955C236.725 130.955 238.006 130.372 238.006 128.985C238.006 127.545 236.734 127.015 235.532 127.015C234.896 127.015 234.181 127.209 233.774 127.765ZM235.524 130.248C234.702 130.248 233.792 129.903 233.792 128.985C233.792 128.11 234.702 127.704 235.541 127.704C236.381 127.704 237.237 128.066 237.237 128.985C237.237 129.912 236.345 130.239 235.524 130.248ZM238.972 129.108C238.963 130.592 240.342 130.99 241.57 130.99C242.815 130.999 244.184 130.584 244.176 129.126C244.167 128.455 243.646 127.845 242.965 127.651C243.61 127.43 244.061 126.935 244.061 126.317C244.052 125.036 242.753 124.55 241.57 124.55C240.377 124.55 239.105 125.045 239.105 126.317C239.105 127.006 239.529 127.412 240.165 127.659C239.476 127.854 238.972 128.428 238.972 129.108ZM243.283 126.299C243.283 127.059 242.294 127.35 241.57 127.35C240.854 127.35 239.882 127.059 239.873 126.299C239.865 125.548 240.757 125.195 241.561 125.195C242.329 125.195 243.292 125.522 243.283 126.299ZM241.57 127.96C242.312 127.96 243.407 128.269 243.407 129.108C243.407 129.965 242.382 130.283 241.561 130.283C240.73 130.283 239.741 129.956 239.741 129.099C239.741 128.243 240.819 127.942 241.57 127.96ZM246.385 124.594C244.539 124.594 244.539 127.28 246.385 127.28C248.24 127.28 248.24 124.594 246.385 124.594ZM249.539 124.656L245.537 130.857H246.359L250.352 124.656H249.539ZM246.385 125.168C247.41 125.168 247.419 126.697 246.394 126.697C245.352 126.697 245.343 125.168 246.376 125.168H246.385ZM249.548 128.234C247.693 128.234 247.693 130.919 249.539 130.919C251.394 130.919 251.394 128.234 249.539 128.234H249.548ZM249.539 128.799C250.564 128.799 250.573 130.345 249.539 130.345C248.514 130.345 248.505 128.799 249.539 128.799ZM259.743 125.787V130.857H260.502V124.674H259.584L257.428 127.854L255.255 124.674H254.336V130.857H255.096V125.769L257.34 128.914H257.499L259.743 125.787ZM261.598 128.684C261.598 130.009 262.552 130.937 263.86 130.937C265.176 130.937 266.13 130.009 266.13 128.684C266.13 127.333 265.194 126.396 263.86 126.396C262.561 126.396 261.598 127.333 261.598 128.684ZM265.415 128.684C265.406 129.603 264.761 130.257 263.86 130.257C262.968 130.257 262.323 129.603 262.323 128.684C262.323 127.712 262.976 127.059 263.869 127.059C264.743 127.059 265.415 127.712 265.415 128.684ZM267.841 126.493H267.169V130.857H267.894V128.428C267.894 127.624 268.477 127.129 269.175 127.121C269.475 127.121 269.705 127.2 269.935 127.359L270.261 126.741C269.996 126.538 269.625 126.405 269.245 126.414C268.742 126.414 268.203 126.573 267.903 127.138L267.85 126.485L267.841 126.493ZM274.724 130.16L274.238 129.718C273.946 130.071 273.346 130.266 272.851 130.266C272.012 130.266 271.349 129.762 271.269 128.958H274.98C275.148 127.218 274.132 126.396 272.798 126.396C271.482 126.396 270.536 127.341 270.536 128.658C270.536 130.045 271.482 130.937 272.833 130.937C273.513 130.937 274.273 130.681 274.715 130.16H274.724ZM274.291 128.349H271.269C271.393 127.509 272.056 127.05 272.815 127.05C273.672 127.05 274.255 127.509 274.291 128.357V128.349ZM279.311 125.221L278.586 125.301V126.502H277.712V127.121H278.586V129.426C278.586 130.389 279.028 130.937 279.964 130.919C280.256 130.91 280.521 130.84 280.813 130.707L280.601 130.107C280.406 130.204 280.185 130.266 279.991 130.266C279.47 130.266 279.302 129.939 279.302 129.426V127.121H280.662V126.502H279.311V125.221ZM282.31 124.674H281.594V130.857H282.318V128.543C282.318 127.748 282.901 127.121 283.697 127.121C284.492 127.121 284.933 127.606 284.933 128.463V130.857H285.649V128.455C285.649 127.253 285.048 126.44 283.82 126.44C283.264 126.449 282.681 126.644 282.31 127.218V124.682V124.674ZM290.513 130.857H291.211V126.493H290.504L290.495 127.288C290.177 126.723 289.532 126.423 288.878 126.423C287.633 126.414 286.634 127.262 286.634 128.675C286.634 130.098 287.615 130.963 288.87 130.963C289.47 130.963 290.133 130.681 290.477 130.08L290.495 130.875L290.513 130.857ZM288.914 127.103C291.007 127.103 291.007 130.301 288.905 130.301C288.039 130.301 287.341 129.674 287.341 128.702C287.341 127.73 288.039 127.112 288.905 127.112L288.914 127.103ZM292.533 126.493V130.857H293.249V128.516C293.249 127.73 293.796 127.103 294.592 127.094C295.422 127.094 295.917 127.615 295.917 128.455V130.857H296.641V128.446C296.641 127.165 295.828 126.423 294.724 126.423C294.141 126.423 293.611 126.661 293.231 127.182L293.196 126.485H292.533V126.493ZM199.016 135.674H198.292V141.857H199.016V135.674ZM204 141.857H204.698V137.493H203.991L203.982 138.288C203.664 137.723 203.019 137.423 202.366 137.423C201.12 137.414 200.122 138.262 200.122 139.675C200.122 141.098 201.102 141.963 202.357 141.963C202.957 141.963 203.62 141.681 203.965 141.08L203.982 141.875L204 141.857ZM202.401 138.103C204.495 138.103 204.495 141.301 202.392 141.301C201.526 141.301 200.828 140.674 200.828 139.702C200.828 138.73 201.526 138.112 202.392 138.112L202.401 138.103ZM208.83 138.456L209.245 137.979C208.777 137.555 208.238 137.396 207.584 137.396C206.745 137.387 205.808 137.75 205.817 138.677C205.817 139.605 206.718 139.826 207.558 139.932C208.229 140.011 208.741 140.152 208.733 140.629C208.715 141.16 208.105 141.31 207.628 141.31C207.089 141.31 206.462 141.115 206.073 140.638L205.658 141.142C206.153 141.76 206.877 141.963 207.611 141.963C208.591 141.963 209.422 141.531 209.439 140.656C209.457 139.578 208.397 139.419 207.602 139.322C207.054 139.26 206.524 139.128 206.515 138.677C206.506 138.244 206.992 138.032 207.593 138.041C208.043 138.041 208.441 138.121 208.821 138.465L208.83 138.456ZM211.657 136.221L210.932 136.301V137.502H210.058V138.121H210.932V140.426C210.932 141.389 211.374 141.937 212.311 141.919C212.602 141.91 212.867 141.84 213.159 141.707L212.947 141.107C212.752 141.204 212.531 141.266 212.337 141.266C211.816 141.266 211.648 140.939 211.648 140.426V138.121H213.008V137.502H211.657V136.221ZM221.766 136.787V141.857H222.526V135.674H221.607L219.451 138.854L217.278 135.674H216.359V141.857H217.119V136.769L219.363 139.914H219.522L221.766 136.787ZM223.622 139.684C223.622 141.009 224.576 141.937 225.883 141.937C227.2 141.937 228.154 141.009 228.154 139.684C228.154 138.333 227.217 137.396 225.883 137.396C224.585 137.396 223.622 138.333 223.622 139.684ZM227.438 139.684C227.429 140.603 226.784 141.257 225.883 141.257C224.991 141.257 224.346 140.603 224.346 139.684C224.346 138.712 225 138.059 225.892 138.059C226.767 138.059 227.438 138.712 227.438 139.684ZM229.193 137.493V141.857H229.908V139.516C229.908 138.73 230.456 138.103 231.251 138.094C232.082 138.094 232.576 138.615 232.576 139.455V141.857H233.301V139.446C233.301 138.165 232.488 137.423 231.384 137.423C230.801 137.423 230.271 137.661 229.891 138.182L229.855 137.485H229.193V137.493ZM235.683 136.221L234.959 136.301V137.502H234.084V138.121H234.959V140.426C234.959 141.389 235.401 141.937 236.337 141.919C236.629 141.91 236.894 141.84 237.185 141.707L236.973 141.107C236.779 141.204 236.558 141.266 236.364 141.266C235.842 141.266 235.675 140.939 235.675 140.426V138.121H237.035V137.502H235.683V136.221ZM238.682 135.674H237.967V141.857H238.691V139.543C238.691 138.748 239.274 138.121 240.069 138.121C240.864 138.121 241.306 138.606 241.306 139.463V141.857H242.022V139.455C242.022 138.253 241.421 137.44 240.193 137.44C239.636 137.449 239.053 137.644 238.682 138.218V135.682V135.674Z" fill="#8C8B8B"/>
<circle cx="391.55" cy="93.3321" r="54.232" transform="rotate(-43.6852 391.55 93.3321)" fill="url(#paint1_linear_187_1260)"/>
<path d="M426.019 92.5752C426.019 113.269 409.244 130.044 388.551 130.044C367.857 130.044 351.082 113.269 351.082 92.5752C351.082 71.8818 367.857 55.1064 388.551 55.1064C409.244 55.1064 426.019 71.8818 426.019 92.5752ZM364.85 92.5752C364.85 105.664 375.461 116.275 388.551 116.275C401.64 116.275 412.251 105.664 412.251 92.5752C412.251 79.4859 401.64 68.8749 388.551 68.8749C375.461 68.8749 364.85 79.4859 364.85 92.5752Z" fill="#E4E4E4"/>
<path d="M388.767 49.4267C395.666 49.4539 402.458 51.1349 408.573 54.3286C414.688 57.5222 419.949 62.1356 423.913 67.7817C427.878 73.4278 430.431 79.9422 431.358 86.7786C432.286 93.615 431.561 100.574 429.244 107.072C426.927 113.571 423.085 119.419 418.042 124.126C412.999 128.834 406.9 132.264 400.258 134.128C393.616 135.992 386.623 136.237 379.867 134.841C373.11 133.446 366.787 130.45 361.427 126.107L373.733 110.921C376.665 113.298 380.124 114.936 383.821 115.7C387.517 116.463 391.342 116.329 394.976 115.309C398.61 114.29 401.946 112.413 404.705 109.838C407.464 107.263 409.566 104.063 410.833 100.508C412.101 96.9532 412.497 93.1461 411.99 89.4062C411.483 85.6662 410.086 82.1024 407.917 79.0136C405.748 75.9247 402.87 73.4009 399.525 71.6538C396.179 69.9066 392.464 68.987 388.69 68.9721L388.767 49.4267Z" fill="#A4BFFF"/>
<path d="M440.8 92.8227C440.752 104.941 436.498 116.667 428.765 125.997C421.031 135.327 410.298 141.682 398.399 143.977L393.032 116.153C398.485 115.101 403.403 112.188 406.947 107.913C410.491 103.637 412.441 98.264 412.463 92.7107L440.8 92.8227Z" fill="#0C31A1"/>
<path d="M382.858 96.649C383.326 96.8192 383.679 97.0786 383.917 97.4274C384.164 97.7677 384.287 98.176 384.287 98.6524C384.287 99.1884 384.126 99.6648 383.802 100.082C383.488 100.49 383.045 100.809 382.475 101.039C381.905 101.26 381.246 101.37 380.497 101.37C379.749 101.37 379.094 101.247 378.532 101C377.971 100.754 377.533 100.409 377.218 99.9668C376.912 99.5159 376.759 98.997 376.759 98.41H378.851C378.851 98.7588 379.009 99.0395 379.324 99.2522C379.638 99.4648 380.055 99.5712 380.574 99.5712C381.05 99.5712 381.433 99.4734 381.722 99.2777C382.012 99.082 382.156 98.8183 382.156 98.4865C382.156 98.1548 382.024 97.8996 381.761 97.7209C381.497 97.5423 381.123 97.4529 380.638 97.4529H379.03V95.8579H380.497C380.991 95.8579 381.369 95.7771 381.633 95.6154C381.897 95.4538 382.029 95.2241 382.029 94.9264C382.029 94.6286 381.893 94.3904 381.62 94.2118C381.348 94.0246 380.978 93.9311 380.51 93.9311C380.034 93.9311 379.651 94.0289 379.362 94.2245C379.081 94.4117 378.941 94.6627 378.941 94.9774H376.899C376.899 94.4074 377.048 93.9098 377.346 93.4844C377.652 93.0591 378.073 92.7316 378.609 92.5019C379.153 92.2637 379.787 92.1446 380.51 92.1446C381.208 92.1446 381.825 92.2594 382.361 92.4891C382.896 92.7103 383.313 93.0251 383.611 93.4334C383.917 93.8332 384.07 94.2926 384.07 94.8115C384.07 95.2284 383.96 95.6027 383.739 95.9345C383.517 96.2662 383.224 96.5044 382.858 96.649ZM389.146 95.424C390.354 95.424 391.264 95.675 391.877 96.1769C392.498 96.6788 392.808 97.4147 392.808 98.3845C392.808 98.9714 392.655 99.4904 392.349 99.9412C392.051 100.392 391.626 100.741 391.073 100.988C390.528 101.234 389.899 101.358 389.184 101.358C387.993 101.358 387.079 101.102 386.441 100.592C385.803 100.082 385.484 99.35 385.484 98.3972H387.602C387.602 98.7545 387.742 99.0395 388.023 99.2522C388.304 99.4563 388.682 99.5584 389.159 99.5584C389.627 99.5584 389.997 99.4521 390.269 99.2394C390.541 99.0182 390.677 98.7247 390.677 98.3589C390.677 97.9846 390.545 97.6954 390.282 97.4912C390.018 97.2871 389.639 97.185 389.146 97.185H385.726V92.285H392.323V94.1097H387.755V95.424H389.146ZM395.911 96.3173C395.273 96.3173 394.754 96.1259 394.354 95.743C393.954 95.3602 393.754 94.8626 393.754 94.2501C393.754 93.6376 393.954 93.1442 394.354 92.7699C394.754 92.387 395.273 92.1956 395.911 92.1956C396.566 92.1956 397.089 92.3828 397.48 92.7571C397.88 93.1314 398.08 93.6291 398.08 94.2501C398.08 94.8711 397.88 95.373 397.48 95.7558C397.08 96.1301 396.557 96.3173 395.911 96.3173ZM400.709 92.285H402.597L396.778 101.217H394.89L400.709 92.285ZM395.911 94.9647C396.123 94.9647 396.294 94.9009 396.421 94.7732C396.557 94.6371 396.625 94.4627 396.625 94.2501C396.625 94.0374 396.557 93.8673 396.421 93.7396C396.294 93.6035 396.123 93.5355 395.911 93.5355C395.698 93.5355 395.528 93.6035 395.4 93.7396C395.273 93.8673 395.209 94.0374 395.209 94.2501C395.209 94.4627 395.273 94.6371 395.4 94.7732C395.528 94.9009 395.698 94.9647 395.911 94.9647ZM401.576 101.307C400.938 101.307 400.419 101.119 400.02 100.745C399.62 100.362 399.42 99.8647 399.42 99.2522C399.42 98.6397 399.62 98.142 400.02 97.7592C400.419 97.3764 400.938 97.185 401.576 97.185C402.223 97.185 402.746 97.3764 403.146 97.7592C403.546 98.1335 403.746 98.6312 403.746 99.2522C403.746 99.8732 403.546 100.371 403.146 100.745C402.755 101.119 402.231 101.307 401.576 101.307ZM401.576 99.9668C401.789 99.9668 401.959 99.903 402.087 99.7754C402.223 99.6392 402.291 99.4648 402.291 99.2522C402.291 99.0395 402.223 98.8694 402.087 98.7418C401.959 98.6056 401.789 98.5376 401.576 98.5376C401.364 98.5376 401.194 98.6056 401.066 98.7418C400.938 98.8694 400.875 99.0395 400.875 99.2522C400.875 99.4648 400.938 99.6392 401.066 99.7754C401.194 99.903 401.364 99.9668 401.576 99.9668Z" fill="#3C3C3C"/>
</g>
</g>
<defs>
<filter id="filter0_d_187_1260" x="0.0450935" y="36.8153" width="288.419" height="290.304" filterUnits="userSpaceOnUse" color-interpolation-filters="sRGB">
<feFlood flood-opacity="0" result="BackgroundImageFix"/>
<feColorMatrix in="SourceAlpha" type="matrix" values="0 0 0 0 0 0 0 0 0 0 0 0 0 0 0 0 0 0 127 0" result="hardAlpha"/>
<feOffset dy="3.77018"/>
<feGaussianBlur stdDeviation="24.9775"/>
<feComposite in2="hardAlpha" operator="out"/>
<feColorMatrix type="matrix" values="0 0 0 0 0 0 0 0 0 0 0 0 0 0 0 0 0 0 0.1 0"/>
<feBlend mode="normal" in2="BackgroundImageFix" result="effect1_dropShadow_187_1260"/>
<feBlend mode="normal" in="SourceGraphic" in2="effect1_dropShadow_187_1260" result="shape"/>
</filter>
<filter id="filter1_d_187_1260" x="28.3216" y="64.149" width="147.98" height="137.612" filterUnits="userSpaceOnUse" color-interpolation-filters="sRGB">
<feFlood flood-opacity="0" result="BackgroundImageFix"/>
<feColorMatrix in="SourceAlpha" type="matrix" values="0 0 0 0 0 0 0 0 0 0 0 0 0 0 0 0 0 0 127 0" result="hardAlpha"/>
<feOffset dy="3.77018"/>
<feGaussianBlur stdDeviation="26.3913"/>
<feComposite in2="hardAlpha" operator="out"/>
<feColorMatrix type="matrix" values="0 0 0 0 0 0 0 0 0 0 0 0 0 0 0 0 0 0 0.17 0"/>
<feBlend mode="normal" in2="BackgroundImageFix" result="effect1_dropShadow_187_1260"/>
<feBlend mode="normal" in="SourceGraphic" in2="effect1_dropShadow_187_1260" result="shape"/>
</filter>
<filter id="filter2_d_187_1260" x="94.2998" y="204.588" width="77.2887" height="77.2886" filterUnits="userSpaceOnUse" color-interpolation-filters="sRGB">
<feFlood flood-opacity="0" result="BackgroundImageFix"/>
<feColorMatrix in="SourceAlpha" type="matrix" values="0 0 0 0 0 0 0 0 0 0 0 0 0 0 0 0 0 0 127 0" result="hardAlpha"/>
<feOffset dy="3.77018"/>
<feGaussianBlur stdDeviation="14.6095"/>
<feComposite in2="hardAlpha" operator="out"/>
<feColorMatrix type="matrix" values="0 0 0 0 0 0 0 0 0 0 0 0 0 0 0 0 0 0 0.25 0"/>
<feBlend mode="normal" in2="BackgroundImageFix" result="effect1_dropShadow_187_1260"/>
<feBlend mode="normal" in="SourceGraphic" in2="effect1_dropShadow_187_1260" result="shape"/>
</filter>
<filter id="filter3_d_187_1260" x="99.0127" y="209.301" width="67.8633" height="67.8634" filterUnits="userSpaceOnUse" color-interpolation-filters="sRGB">
<feFlood flood-opacity="0" result="BackgroundImageFix"/>
<feColorMatrix in="SourceAlpha" type="matrix" values="0 0 0 0 0 0 0 0 0 0 0 0 0 0 0 0 0 0 127 0" result="hardAlpha"/>
<feOffset dy="3.77018"/>
<feGaussianBlur stdDeviation="14.6095"/>
<feComposite in2="hardAlpha" operator="out"/>
<feColorMatrix type="matrix" values="0 0 0 0 0 0 0 0 0 0 0 0 0 0 0 0 0 0 0.25 0"/>
<feBlend mode="normal" in2="BackgroundImageFix" result="effect1_dropShadow_187_1260"/>
<feBlend mode="normal" in="SourceGraphic" in2="effect1_dropShadow_187_1260" result="shape"/>
</filter>
<filter id="filter4_d_187_1260" x="148.988" y="0.951425" width="345.023" height="186.99" filterUnits="userSpaceOnUse" color-interpolation-filters="sRGB">
<feFlood flood-opacity="0" result="BackgroundImageFix"/>
<feColorMatrix in="SourceAlpha" type="matrix" values="0 0 0 0 0 0 0 0 0 0 0 0 0 0 0 0 0 0 127 0" result="hardAlpha"/>
<feOffset dy="1.96315"/>
<feGaussianBlur stdDeviation="13.0059"/>
<feComposite in2="hardAlpha" operator="out"/>
<feColorMatrix type="matrix" values="0 0 0 0 0 0 0 0 0 0 0 0 0 0 0 0 0 0 0.1 0"/>
<feBlend mode="normal" in2="BackgroundImageFix" result="effect1_dropShadow_187_1260"/>
<feBlend mode="normal" in="SourceGraphic" in2="effect1_dropShadow_187_1260" result="shape"/>
</filter>
<linearGradient id="paint0_linear_187_1260" x1="81.1042" y1="113.161" x2="133.367" y2="148.563" gradientUnits="userSpaceOnUse">
<stop stop-color="#81A7FF"/>
<stop offset="1" stop-color="#0C31A1"/>
</linearGradient>
<linearGradient id="paint1_linear_187_1260" x1="425.169" y1="124.497" x2="364.311" y2="44.9895" gradientUnits="userSpaceOnUse">
<stop stop-color="white"/>
<stop offset="1" stop-color="#F5F5F5"/>
</linearGradient>
<clipPath id="clip0_187_1260">
<rect width="357.941" height="7.95424" fill="white" transform="translate(73.521 2.04297)"/>
</clipPath>
<clipPath id="clip1_187_1260">
<rect x="50" y="83" width="188.509" height="190.394" rx="18.8509" fill="white"/>
</clipPath>
<clipPath id="clip2_187_1260">
<rect x="175" y="25" width="293" height="134.966" rx="9.81575" fill="white"/>
</clipPath>
</defs>
</svg>
