<svg width="365" height="326" viewBox="0 0 365 326" fill="none" xmlns="http://www.w3.org/2000/svg">
<mask id="mask0_159_360" style="mask-type:alpha" maskUnits="userSpaceOnUse" x="5" y="31" width="355" height="223">
<path fill-rule="evenodd" clip-rule="evenodd" d="M5 31.9304H359.958V251.807C359.958 252.896 359.075 253.779 357.986 253.779H6.97199C5.88289 253.779 5 252.896 5 251.807V31.9304Z" fill="white"/>
</mask>
<g mask="url(#mask0_159_360)">
<path fill-rule="evenodd" clip-rule="evenodd" d="M5 31.9304H359.958V253.779H5V31.9304Z" fill="white"/>
</g>
<path d="M6.97168 24.2891H357.986C358.939 24.2892 359.712 25.0619 359.712 26.0146V251.808C359.712 252.76 358.939 253.533 357.986 253.533H6.97168C6.01886 253.533 5.24609 252.76 5.24609 251.808V26.0146C5.24626 25.0619 6.01896 24.2892 6.97168 24.2891Z" stroke="#111111" stroke-width="0.492997"/>
<g clip-path="url(#clip0_159_360)">
<path d="M6.97168 24.2891H357.986C358.939 24.2892 359.712 25.0619 359.712 26.0146V31.6846H5.24609V26.0146C5.24626 25.0619 6.01896 24.2892 6.97168 24.2891Z" fill="white" stroke="#111111" stroke-width="0.492997"/>
<path fill-rule="evenodd" clip-rule="evenodd" d="M17.8179 29.4658C18.6347 29.4658 19.2969 28.8036 19.2969 27.9868C19.2969 27.17 18.6347 26.5078 17.8179 26.5078C17.001 26.5078 16.3389 27.17 16.3389 27.9868C16.3389 28.8036 17.001 29.4658 17.8179 29.4658Z" fill="#111111"/>
<path fill-rule="evenodd" clip-rule="evenodd" d="M13.3808 29.4658C14.1977 29.4658 14.8598 28.8036 14.8598 27.9868C14.8598 27.17 14.1977 26.5078 13.3808 26.5078C12.564 26.5078 11.9019 27.17 11.9019 27.9868C11.9019 28.8036 12.564 29.4658 13.3808 29.4658Z" fill="#111111"/>
<path fill-rule="evenodd" clip-rule="evenodd" d="M8.9439 29.4658C9.76072 29.4658 10.4229 28.8036 10.4229 27.9868C10.4229 27.17 9.76072 26.5078 8.9439 26.5078C8.12707 26.5078 7.4649 27.17 7.4649 27.9868C7.4649 28.8036 8.12707 29.4658 8.9439 29.4658Z" fill="#111111"/>
</g>
<g filter="url(#filter0_d_159_360)">
<g clip-path="url(#clip1_159_360)">
<rect x="50" y="47" width="264.855" height="224.326" rx="18.8509" fill="white"/>
<path d="M89.1156 161.36C71.0187 150.804 53.9272 180.839 47.6436 197.177H37.7469V278.707H328.051V200.947C319.882 219.641 294.308 247.509 257.36 209.43C211.175 161.831 185.727 183.039 178.186 187.751C170.646 192.464 145.197 226.867 122.576 209.43C99.9549 191.993 111.737 174.556 89.1156 161.36Z" fill="url(#paint0_linear_159_360)" stroke="#1B223C" stroke-width="1.88509" stroke-linecap="round"/>
<path d="M88.371 104.553C86.966 104.553 85.61 104.341 84.303 103.916C83.0123 103.492 81.8932 102.895 80.9456 102.127L83.0287 99.2111C84.548 100.404 86.3207 101 88.3465 101C89.3594 101 90.16 100.829 90.7481 100.485C91.3526 100.142 91.6548 99.6767 91.6548 99.0886C91.6548 98.5331 91.3771 98.1002 90.8216 97.7898C90.2662 97.4794 89.3839 97.2588 88.175 97.1281C85.8387 96.8667 84.1233 96.3194 83.0287 95.4862C81.9504 94.653 81.4113 93.4603 81.4113 91.9083C81.4113 90.8627 81.7053 89.9396 82.2935 89.1391C82.8816 88.3386 83.7067 87.7177 84.7686 87.2766C85.8305 86.8355 87.0558 86.615 88.4445 86.615C89.6372 86.615 90.7971 86.7865 91.9244 87.1296C93.068 87.4727 94.0728 87.9546 94.9387 88.5754L93.0517 91.3937C91.712 90.4624 90.2335 89.9968 88.6161 89.9968C87.6195 89.9968 86.819 90.1602 86.2145 90.4869C85.6263 90.8137 85.3322 91.2548 85.3322 91.8103C85.3322 92.3494 85.5855 92.766 86.0919 93.0601C86.6147 93.3542 87.4806 93.5747 88.6896 93.7217C91.0095 93.9831 92.7413 94.5631 93.8849 95.4617C95.0285 96.3439 95.6003 97.561 95.6003 99.1131C95.6003 100.191 95.2981 101.147 94.6936 101.98C94.0891 102.797 93.2396 103.434 92.145 103.892C91.0504 104.333 89.7924 104.553 88.371 104.553ZM110.455 92.0553V104.161H107.123L106.878 102.716C105.848 103.843 104.509 104.406 102.859 104.406C101.731 104.406 100.727 104.145 99.8443 103.622C98.9784 103.083 98.3004 102.34 97.8103 101.392C97.3202 100.428 97.0751 99.3337 97.0751 98.1084C97.0751 96.883 97.3202 95.7966 97.8103 94.849C98.3004 93.8851 98.9784 93.1418 99.8443 92.619C100.727 92.0798 101.731 91.8103 102.859 91.8103C103.675 91.8103 104.427 91.9573 105.113 92.2514C105.799 92.5291 106.387 92.9375 106.878 93.4767L107.123 92.0553H110.455ZM103.765 101.172C104.615 101.172 105.309 100.894 105.848 100.338C106.387 99.7666 106.657 99.0232 106.657 98.1084C106.657 97.1935 106.387 96.4583 105.848 95.9028C105.309 95.331 104.615 95.0451 103.765 95.0451C102.916 95.0451 102.221 95.331 101.682 95.9028C101.159 96.4746 100.898 97.2098 100.898 98.1084C100.898 99.0069 101.159 99.7421 101.682 100.314C102.221 100.886 102.916 101.172 103.765 101.172ZM113.341 87.007H117.188V104.161H113.341V87.007ZM125.922 91.7858C127.245 91.7858 128.389 92.039 129.353 92.5454C130.317 93.0356 131.052 93.7381 131.559 94.653C132.081 95.5515 132.343 96.6053 132.343 97.8143C132.343 98.2064 132.302 98.6883 132.22 99.2601H123.324C123.439 99.881 123.774 100.387 124.329 100.78C124.885 101.155 125.595 101.343 126.461 101.343C127.066 101.343 127.654 101.253 128.226 101.074C128.798 100.894 129.288 100.641 129.696 100.314L131.706 102.47C131.019 103.108 130.203 103.598 129.255 103.941C128.324 104.284 127.327 104.455 126.265 104.455C124.86 104.455 123.643 104.202 122.614 103.696C121.585 103.173 120.792 102.438 120.237 101.49C119.681 100.543 119.403 99.4235 119.403 98.1329C119.403 96.8912 119.673 95.7884 120.212 94.8245C120.768 93.8606 121.536 93.1173 122.516 92.5945C123.496 92.0553 124.631 91.7858 125.922 91.7858ZM126.045 94.8245C125.277 94.8245 124.648 95.0206 124.158 95.4127C123.684 95.8048 123.414 96.3521 123.349 97.0546H128.691C128.642 96.3521 128.381 95.8048 127.907 95.4127C127.45 95.0206 126.829 94.8245 126.045 94.8245ZM139.178 104.48C137.038 104.48 135.175 103.941 133.59 102.863L135.061 100.216C135.649 100.575 136.327 100.853 137.095 101.049C137.879 101.245 138.655 101.343 139.423 101.343C140.485 101.343 141.016 101.057 141.016 100.485C141.016 100.191 140.869 99.9708 140.575 99.8238C140.281 99.6767 139.791 99.5787 139.104 99.5297C137.569 99.448 136.343 99.0641 135.428 98.3779C134.53 97.6917 134.081 96.7932 134.081 95.6822C134.081 94.4733 134.571 93.5175 135.551 92.815C136.531 92.0962 137.855 91.7367 139.521 91.7367C140.469 91.7367 141.367 91.8511 142.217 92.0798C143.083 92.3086 143.826 92.6271 144.447 93.0356L142.952 95.6087C142.037 95.0859 140.95 94.8245 139.693 94.8245C138.451 94.8245 137.83 95.1186 137.83 95.7067C137.83 95.9518 137.953 96.1397 138.198 96.2704C138.459 96.4011 138.892 96.4991 139.496 96.5645C141.228 96.6952 142.543 97.0873 143.442 97.7408C144.357 98.3943 144.814 99.3092 144.814 100.485C144.814 101.727 144.316 102.707 143.319 103.426C142.323 104.129 140.942 104.48 139.178 104.48Z" fill="#3A3A3A"/>
<path d="M80.9456 126.705V127.806H86.1334V126.705H84.2182V117.249L81.0512 118.184V119.391L82.9061 118.893V126.705H80.9456ZM91.7265 121.185H88.9365V118.456H95.1347V117.249H87.6547V122.422H91.7265C93.506 122.422 94.4259 123.266 94.4259 124.503C94.4259 125.845 93.2798 126.66 91.6058 126.66C90.3843 126.66 88.7706 126.313 88.7706 124.774H87.4586C87.4737 127.172 89.5398 127.896 91.636 127.896C94.1243 127.896 95.7379 126.524 95.7379 124.488C95.7379 122.467 94.2902 121.185 91.7265 121.185ZM97.43 127.127C97.43 128.213 99.0588 128.213 99.0588 127.142C99.0588 126.056 97.43 126.056 97.43 127.127ZM102.381 120.175C102.396 118.727 103.949 118.275 105.246 118.275C106.588 118.305 108.021 118.757 108.021 120.295C108.021 121.819 106.287 122.211 105.171 122.211C103.165 122.211 100.993 122.874 100.993 125.257V127.806H109.273V126.554H102.32V125.257C102.32 123.749 103.949 123.447 105.186 123.432C107.222 123.432 109.318 122.678 109.318 120.28C109.318 117.928 107.207 117.129 105.246 117.129C103.301 117.129 101.159 117.822 101.069 120.175H102.381ZM111.608 127.806H112.905V122.844L118.047 127.806H119.676V127.715L114.156 122.331L119.223 117.325V117.249H117.58L112.905 121.909V117.249H111.608V127.806Z" fill="#8C8B8B"/>
<path d="M245.816 122.03V123.191H248.259V125.679H249.465V123.191H251.938V122.03H249.465V119.602H248.259V122.03H245.816ZM254.985 120.175C255 118.727 256.553 118.275 257.85 118.275C259.192 118.305 260.625 118.757 260.625 120.295C260.625 121.819 258.891 122.211 257.775 122.211C255.769 122.211 253.597 122.874 253.597 125.257V127.806H261.877V126.554H254.924V125.257C254.924 123.749 256.553 123.447 257.79 123.432C259.826 123.432 261.922 122.678 261.922 120.28C261.922 117.928 259.811 117.129 257.85 117.129C255.905 117.129 253.763 117.822 253.673 120.175H254.985ZM265.147 120.175C265.162 118.727 266.715 118.275 268.012 118.275C269.354 118.305 270.787 118.757 270.787 120.295C270.787 121.819 269.052 122.211 267.937 122.211C265.931 122.211 263.759 122.874 263.759 125.257V127.806H272.038V126.554H265.086V125.257C265.086 123.749 266.715 123.447 267.952 123.432C269.987 123.432 272.084 122.678 272.084 120.28C272.084 117.928 269.972 117.129 268.012 117.129C266.066 117.129 263.925 117.822 263.835 120.175H265.147ZM275.881 117.113C272.73 117.113 272.73 121.698 275.881 121.698C279.048 121.698 279.048 117.113 275.881 117.113ZM281.265 117.219L274.434 127.806H275.836L282.653 117.219H281.265ZM275.881 118.094C277.631 118.094 277.646 120.703 275.897 120.703C274.117 120.703 274.102 118.094 275.866 118.094H275.881ZM281.28 123.327C278.113 123.327 278.113 127.911 281.265 127.911C284.432 127.911 284.432 123.327 281.265 123.327H281.28ZM281.265 124.292C283.015 124.292 283.03 126.931 281.265 126.931C279.516 126.931 279.501 124.292 281.265 124.292Z" fill="#0C31A1"/>
<circle cx="207.405" cy="179.899" r="6.12655" fill="white" stroke="#0C31A1" stroke-width="2.82764"/>
<path d="M207.405 187.91V270.854" stroke="url(#paint1_linear_159_360)" stroke-width="1.88509" stroke-linecap="round"/>
</g>
</g>
<defs>
<filter id="filter0_d_159_360" x="0.0450935" y="0.815275" width="364.765" height="324.236" filterUnits="userSpaceOnUse" color-interpolation-filters="sRGB">
<feFlood flood-opacity="0" result="BackgroundImageFix"/>
<feColorMatrix in="SourceAlpha" type="matrix" values="0 0 0 0 0 0 0 0 0 0 0 0 0 0 0 0 0 0 127 0" result="hardAlpha"/>
<feOffset dy="3.77018"/>
<feGaussianBlur stdDeviation="24.9775"/>
<feComposite in2="hardAlpha" operator="out"/>
<feColorMatrix type="matrix" values="0 0 0 0 0 0 0 0 0 0 0 0 0 0 0 0 0 0 0.1 0"/>
<feBlend mode="normal" in2="BackgroundImageFix" result="effect1_dropShadow_159_360"/>
<feBlend mode="normal" in="SourceGraphic" in2="effect1_dropShadow_159_360" result="shape"/>
</filter>
<linearGradient id="paint0_linear_159_360" x1="182.899" y1="159.163" x2="182.899" y2="278.707" gradientUnits="userSpaceOnUse">
<stop stop-color="#0C31A1"/>
<stop offset="1" stop-color="white" stop-opacity="0"/>
</linearGradient>
<linearGradient id="paint1_linear_159_360" x1="207.905" y1="187.91" x2="207.905" y2="270.854" gradientUnits="userSpaceOnUse">
<stop stop-color="#0C31A1"/>
<stop offset="1" stop-color="#2869FE" stop-opacity="0"/>
</linearGradient>
<clipPath id="clip0_159_360">
<rect width="354.958" height="7.88796" fill="white" transform="translate(5 24.043)"/>
</clipPath>
<clipPath id="clip1_159_360">
<rect x="50" y="47" width="264.855" height="224.326" rx="18.8509" fill="white"/>
</clipPath>
</defs>
</svg>
