<svg width="570" height="561" viewBox="0 0 570 561" fill="none" xmlns="http://www.w3.org/2000/svg">
<g clip-path="url(#clip0_136_703)">
<rect x="0.649414" width="569.35" height="560.651" rx="28.9992" fill="url(#paint0_radial_136_703)"/>
<g style="mix-blend-mode:overlay">
<g style="mix-blend-mode:overlay">
<path d="M54.54 813.98L49.19 804.34L-24.37 671.99L-95.03 532.03L-108.41 417.59L-110 395.29" stroke="#515459" stroke-opacity="0.4" stroke-linecap="round" stroke-linejoin="round"/>
</g>
<g style="mix-blend-mode:overlay">
<path d="M90.03 813.98L22.74 692.26L-48.72 550.55L-65.49 441.24L-76.34 342.27L-80.56 329.94L-110 244.02" stroke="#515459" stroke-opacity="0.4" stroke-linecap="round" stroke-linejoin="round"/>
</g>
<g style="mix-blend-mode:overlay">
<path d="M177.56 813.98L167.62 794.03L117.78 694.06L109.27 675.36L51.97 549.42L45.2 532.82L-3.09 414.54L-7.92001 400.95L-47.88 288.49L-52.75 208.61L-53.88 135.24L-52.03 67.54L-47.45 5.01L-50.75 -28" stroke="#515459" stroke-opacity="0.4" stroke-linecap="round" stroke-linejoin="round"/>
</g>
<g style="mix-blend-mode:overlay">
<path d="M206.54 813.98L199.33 796.52L170.63 727.72L167.79 720.64L167.55 719.46L158.09 696.59L154.46 685.55L141.81 650.86L130.37 620.47L128.87 616.4L120.42 591.37L107.21 552.18L103.4 540.91L102.46 537.95L99.94 530.64L85.87 490.22L80.29 472.4L75.37 450L75.35 446.67L64.76 412.04L62.08 402.42L56.04 377.5L47.93 344.08L46.86 336.8L44.11 323.23L44.04 320.88L44.09 319.28L43.75 317.72L43.48 316.49L42.41 313.18L41.07 308.89L40.61 305.36L40.12 302.38L38.67 296.36L37.25 288.8L36.43 284.48L35.66 280.27L33.81 270.94L31.46 261.4L28.73 251.38L26.23 239.59L23.55 226.93L20.48 212.49L17.28 185L13.76 154.85L12.21 136.59L9.75 107.4L9.16999 100.6L7.98999 78.45L8.21999 74.91L8.59999 73.93L7.71 60.53L6.43 49.38L5.7 18.88L5.87999 17.95L5.95 13.05L5.75999 3.98L5.68999 1.59L5.77 -7.81L5.84 -21.03L5.91999 -23.69L5.96 -27.77L5.96999 -28" stroke="#515459" stroke-opacity="0.4" stroke-linecap="round" stroke-linejoin="round"/>
</g>
<g style="mix-blend-mode:overlay">
<path d="M56.51 813.98L22.74 692.26L-4.65001 576.19L-11.23 561.6L-65.49 441.24L-71.09 427.13L-110 329.05" stroke="#515459" stroke-opacity="0.4" stroke-linecap="round" stroke-linejoin="round"/>
</g>
<g style="mix-blend-mode:overlay">
<path d="M203.4 813.98L199.78 805.97L172.83 746.35L158.22 714.05L146.01 684.58L140.93 672.3L118.31 617.72L96.59 565.28L88.98 544.75L65.44 481.23L45.5 427.42L30.56 351.64L19.26 281.28L10.95 215.68L5.35 154.44L2.03 97.05L0.809998 43.2L1.36 -7.5L2.33 -28" stroke="#515459" stroke-opacity="0.4" stroke-linecap="round" stroke-linejoin="round"/>
</g>
<g style="mix-blend-mode:overlay">
<path d="M119.4 813.98L67.93 720.32L59.07 702.73L-4.65001 576.19L-24.68 471.17L-38.88 375.63L-47.88 288.49L-51.72 275.7L-83.32 170.32L-109.74 59.46L-100.92 -11.18L-102.92 -28" stroke="#515459" stroke-opacity="0.4" stroke-linecap="round" stroke-linejoin="round"/>
</g>
<g style="mix-blend-mode:overlay">
<path d="M346.09 813.98L324.67 710.53L316.19 611.75L319.26 520L300.43 481.14L318.45 398.47L306.23 362.19L295.5 327.13L285.98 294.04L277.41 262.63L269.39 233.59L261.67 206.68L253.78 182.52L245.48 160.91L236.31 142.42L226.04 126.9L214.27 114.87L200.84 106.24L185.44 101.5L168.03 100.63L167.12 100.79" stroke="#515459" stroke-opacity="0.4" stroke-linecap="round" stroke-linejoin="round"/>
</g>
<g style="mix-blend-mode:overlay">
<path d="M97.15 813.98L67.93 720.32L37.58 608.69L14.38 507.23L-38.88 375.63L-43.35 362.82L-81.9 252.39L-85.5 240.06L-110 155.96" stroke="#515459" stroke-opacity="0.4" stroke-linecap="round" stroke-linejoin="round"/>
</g>
<g style="mix-blend-mode:overlay">
<path d="M23.09 208.32L68.01 124.83L119.07 48.08L174.81 -21.03L181.58 -28" stroke="#515459" stroke-opacity="0.4" stroke-linecap="round" stroke-linejoin="round"/>
</g>
<g style="mix-blend-mode:overlay">
<path d="M477.38 813.98L450.48 723.45L435.42 636.61L431.43 555.81L436.92 481.05L450.74 413.25L440.58 374.76L432.42 337.59L426.03 301.25L421.16 266.39L417.64 232.55L415.13 200.33L413.5 169.33L412.34 140.12L411.49 112.36L410.5 86.55L409.2 62.42L407.1 40.39L404.02 20.29L399.48 2.47L393.3 -13.18L385.04 -26.33L383.41 -28" stroke="#515459" stroke-opacity="0.4" stroke-linecap="round" stroke-linejoin="round"/>
</g>
<g style="mix-blend-mode:overlay">
<path d="M141.81 650.86L145.65 556.99L161.88 454.83L145.48 426.61L129.85 401.79L114.63 380.21L149.09 290.98L190.17 211.74L236.31 142.42L286.3 82.1L338.91 30.53L393.3 -13.18L415.87 -28" stroke="#515459" stroke-opacity="0.4" stroke-linecap="round" stroke-linejoin="round"/>
</g>
<g style="mix-blend-mode:overlay">
<path d="M38.92 295.79L74.52 215.64L119.57 135.56L140.4 105.56L144.62 99.46L169.64 63.42L183.84 46.59L224.1 -1.11L251.51 -28" stroke="#515459" stroke-opacity="0.4" stroke-linecap="round" stroke-linejoin="round"/>
</g>
<g style="mix-blend-mode:overlay">
<path d="M75.39 446.56L99.47 362.62L135.91 273.86L178.57 195.59L226.04 126.9L276.94 67.54L330.3 16.59L385.04 -26.33L387.63 -28" stroke="#515459" stroke-opacity="0.4" stroke-linecap="round" stroke-linejoin="round"/>
</g>
<g style="mix-blend-mode:overlay">
<path d="M8.59999 73.93L57.55 3.22L74.75 -5.12L75.8 -6.35L94.25 -28" stroke="#515459" stroke-opacity="0.4" stroke-linecap="round" stroke-linejoin="round"/>
</g>
<g style="mix-blend-mode:overlay">
<path d="M427.2 813.98L404.64 734L390.07 641.41L386.9 554.8L393.89 475.29L378.59 435.91L365.43 397.72L354.13 360.28L344.5 324.33L336.31 289.49L329.26 256.47L323.13 224.92L317.52 195.5L312.21 167.94L306.74 142.81L300.87 119.89L294.13 99.72L286.3 82.1L276.94 67.54L265.88 55.91L252.75 47.66L237.46 42.77L219.77 41.67L215.08 42.32" stroke="#515459" stroke-opacity="0.4" stroke-linecap="round" stroke-linejoin="round"/>
</g>
<g style="mix-blend-mode:overlay">
<path d="M230.72 24.2L232.4 22.26L233.32 21.54L234.21 20.2L234.84 17.37L235.28 15.83L234.79 12.36L233.86 9.76L232.3 7.15L230.18 4.43999L227.42 1.7L224.1 -1.11L220.15 -3.91L215.63 -6.77L210.46 -9.53L204.7 -12.29L198.24 -14.82L191.16 -17.25L183.32 -19.26L174.81 -21.03L165.44 -22.13L109.7 47.5L109.28 48.14L59.06 124.41L58.55 125.19L21.34 194.82" stroke="#515459" stroke-opacity="0.4" stroke-linecap="round" stroke-linejoin="round"/>
</g>
<g style="mix-blend-mode:overlay">
<path d="M37.34 288.62L70.22 214.27L115.34 133.69L165.55 61.04L176.9 47.55L220.15 -3.91L244.59 -28" stroke="#515459" stroke-opacity="0.4" stroke-linecap="round" stroke-linejoin="round"/>
</g>
<g style="mix-blend-mode:overlay">
<path d="M292.2 813.98L276.17 736.32L266.88 630.48L241.85 591.95L219.04 554.54L198.34 519.15L179.37 485.62L161.88 454.83L187.74 362.34L221.52 279.88L261.67 206.68L306.74 142.81L355.62 87.43L407.1 40.39L460.42 0.879999L508.9 -28" stroke="#515459" stroke-opacity="0.4" stroke-linecap="round" stroke-linejoin="round"/>
</g>
<g style="mix-blend-mode:overlay">
<path d="M209.24 813.98L196.46 736.16L167.54 701.43L167.43 588.92L145.65 556.99L125.48 528.15L145.48 426.61L174.66 335.5L211.29 254.1L253.78 182.52L300.87 119.89L351.25 66.1L404.02 20.29L458.15 -17.83L476.03 -28" stroke="#515459" stroke-opacity="0.4" stroke-linecap="round" stroke-linejoin="round"/>
</g>
<g style="mix-blend-mode:overlay">
<path d="M189.42 813.98L156.28 747.1L146.23 725L88.36 597.8L80.7 579.18L31.29 459.02L25.93 444.19L-15.45 329.64L-23.69 251.51L-28.23 179.48L-29.77 112.78L-28.59 50.93L-25.18 -6.65L-26.61 -28" stroke="#515459" stroke-opacity="0.4" stroke-linecap="round" stroke-linejoin="round"/>
</g>
<g style="mix-blend-mode:overlay">
<path d="M35.66 280.27L65.27 212.99L110.5 131.85L160.83 58.73L169.32 48.58L215.63 -6.77L237.08 -28" stroke="#515459" stroke-opacity="0.4" stroke-linecap="round" stroke-linejoin="round"/>
</g>
<g style="mix-blend-mode:overlay">
<path d="M6.71999 30.63L50.31 -28" stroke="#515459" stroke-opacity="0.4" stroke-linecap="round" stroke-linejoin="round"/>
</g>
<g style="mix-blend-mode:overlay">
<path d="M12.55 119.71L50.4 58.17L51.66 56.48L105.68 -16.16L119.49 -19.32L127.38 -28" stroke="#515459" stroke-opacity="0.4" stroke-linecap="round" stroke-linejoin="round"/>
</g>
<g style="mix-blend-mode:overlay">
<path d="M181.77 813.98L156.28 747.1L123.72 652.58L117.2 631.61L96.59 565.28L83.21 516.81L74.28 484.44L67.35 463.37L57.87 434.58L47.68 403.62L30.56 351.64L26.19 335.93L9.89 277.51L-3.88 228.1L-6.93 214.53L-29.77 112.78L-47.45 5.01L-43.6 -28" stroke="#515459" stroke-opacity="0.4" stroke-linecap="round" stroke-linejoin="round"/>
</g>
<g style="mix-blend-mode:overlay">
<path d="M143.23 813.98L111.56 755.95L102.07 737.04L37.58 608.69L30.6 593.28L-24.68 471.17L-30.52 456.59L-76.34 342.27L-81.9 252.39L-83.32 170.32L-80.98 95.26L-75.69 26.25L-68.85 -28" stroke="#515459" stroke-opacity="0.4" stroke-linecap="round" stroke-linejoin="round"/>
</g>
<g style="mix-blend-mode:overlay">
<path d="M374.68 813.98L357.74 751.34L342.95 652.16L316.19 611.75L291.86 571.67L269.99 532.79L250.22 494.87L232.43 458.78L255.27 371.77L285.98 294.04L323.13 224.92L365.32 164.62L411.49 112.36L460.46 68.14L461.22 67.6L511.48 31.18L512.26 30.73L563.57 1.29L564.7 0.789999L616.2 -22.22L617.32 -28" stroke="#515459" stroke-opacity="0.4" stroke-linecap="round" stroke-linejoin="round"/>
</g>
<g style="mix-blend-mode:overlay">
<path d="M33.93 270.68L59.7 211.8L105.03 130.14L155.51 56.43L210.46 -9.53L229.02 -28" stroke="#515459" stroke-opacity="0.4" stroke-linecap="round" stroke-linejoin="round"/>
</g>
<g style="mix-blend-mode:overlay">
<path d="M120.44 591.2L125.48 528.15L106.52 502.29L129.85 401.79L161.9 311.47L149.09 290.98L135.91 273.86L122.02 260.78L107.18 251.6L91.13 246.95L78.02 246.8" stroke="#515459" stroke-opacity="0.4" stroke-linecap="round" stroke-linejoin="round"/>
</g>
<g style="mix-blend-mode:overlay">
<path d="M65.66 409.12L84.07 348.89L122.02 260.78L165.93 182.84L214.27 114.87L265.88 55.91L319.58 5.57L362.93 -28" stroke="#515459" stroke-opacity="0.4" stroke-linecap="round" stroke-linejoin="round"/>
</g>
<g style="mix-blend-mode:overlay">
<path d="M19.53 180.74L48.4 126.04L49.75 123.98L99.5 47.79L100.2 46.91L155.35 -22.82L165.44 -22.13L171.08 -28" stroke="#515459" stroke-opacity="0.4" stroke-linecap="round" stroke-linejoin="round"/>
</g>
<g style="mix-blend-mode:overlay">
<path d="M131.69 813.98L111.56 755.95L78.29 647.98L70.71 631.29L14.38 507.23L-3.09 414.54L-15.45 329.64L-19.63 316.09L-52.75 208.61L-80.98 95.26L-100.92 -11.18L-97.93 -28" stroke="#515459" stroke-opacity="0.4" stroke-linecap="round" stroke-linejoin="round"/>
</g>
<g style="mix-blend-mode:overlay">
<path d="M551.19 813.98L529.65 759.86L507.91 679.45L496.99 603.98L495.39 533.6L502.11 469.27L515.81 410.73L535.51 358.65L531.57 321.11L529.66 285.25L529.5 250.56L530.75 217.51L533.26 185.61L536.66 155.31L540.86 126.16L545.43 98.55L550.33 72.13L555.09 47.21L559.66 23.51L563.57 1.29L566.7 -19.64L586.95 -28" stroke="#515459" stroke-opacity="0.4" stroke-linecap="round" stroke-linejoin="round"/>
</g>
<g style="mix-blend-mode:overlay">
<path d="M8 60.11L39.41 13.08L57.55 3.22L59.65 0.68L83.33 -28" stroke="#515459" stroke-opacity="0.4" stroke-linecap="round" stroke-linejoin="round"/>
</g>
<g style="mix-blend-mode:overlay">
<path d="M597.19 813.98L574.7 762.12L552.21 687.81L539.59 617.52L535.97 552.29L540 492.09L550.79 437.67L567.16 388.68L588.24 345.66L587.35 308.24L588.67 272.79L591.87 238.79L596.55 206.66L602.52 175.89L609.35 146.83L616.95 119.02L624.88 92.74L633.12 67.63L641.21 43.9L649.13 21.26L656.44 -0.120001L663.07 -20.47L665.25 -28" stroke="#515459" stroke-opacity="0.4" stroke-linecap="round" stroke-linejoin="round"/>
</g>
<g style="mix-blend-mode:overlay">
<path d="M32.01 260.12L53.49 210.82L98.93 128.5L149.54 54.29L204.7 -12.29L220.4 -28" stroke="#515459" stroke-opacity="0.4" stroke-linecap="round" stroke-linejoin="round"/>
</g>
<g style="mix-blend-mode:overlay">
<path d="M503.54 813.98L484.91 764.05L463.88 677.9L454 596.68L454.25 521.55L463.08 452.42L479.41 390.12L471.52 352.03L465.61 315.36L461.45 279.62L458.75 245.38L457.36 212.18L456.94 180.55L457.36 150.1L458.22 121.31L459.41 93.85L460.46 68.14L461.25 43.93L461.29 21.57L460.42 0.879999L458.15 -17.83L455.84 -28" stroke="#515459" stroke-opacity="0.4" stroke-linecap="round" stroke-linejoin="round"/>
</g>
<g style="mix-blend-mode:overlay">
<path d="M830.74 813.98L793.5 784.75L746.57 740.71L706.16 695.55L671.62 649.65L642.89 603.97L619.22 558.6L600.38 514.32L585.68 470.97L574.8 429.21L567.16 388.68L562.41 349.94L587.35 308.24L613.31 275.66L615.72 272.63L646.76 242.5L679.66 218.07L713.87 198.68L748.64 184.45L783.64 174.74L818.19 169.53L852.09 168.25L884.76 170.79L904.6 153.58L924.25 137.92L943.64 123.43L962.32 109.92L980.25 97.1L997.11 84.76L1012.81 72.68L1027.14 60.66L1039.94 48.55L1051.11 36.19L1060.38 23.46L1067.76 10.28L1072.84 -3.46L1075.77 -17.75L1075.91 -28" stroke="#515459" stroke-opacity="0.4" stroke-linecap="round" stroke-linejoin="round"/>
</g>
<g style="mix-blend-mode:overlay">
<path d="M17.62 165.95L37.46 128L40.33 123.54L88.57 48.65L91.35 45.09L144.29 -22.52L155.35 -22.82L160.28 -28" stroke="#515459" stroke-opacity="0.4" stroke-linecap="round" stroke-linejoin="round"/>
</g>
<g style="mix-blend-mode:overlay">
<path d="M236.84 813.98L227.88 772.5L216.95 659.42L219.04 554.54L232.43 458.78L216.28 424.27L201.5 392.2L187.74 362.34L174.66 335.5L161.9 311.47L200.93 231.46L245.48 160.91L294.13 99.72L345.84 46.99L399.48 2.47L444.45 -28" stroke="#515459" stroke-opacity="0.4" stroke-linecap="round" stroke-linejoin="round"/>
</g>
<g style="mix-blend-mode:overlay">
<path d="M29.93 248.62L46.65 210L92.18 127.14L142.95 52.24L198.24 -14.82L211.33 -28" stroke="#515459" stroke-opacity="0.4" stroke-linecap="round" stroke-linejoin="round"/>
</g>
<g style="mix-blend-mode:overlay">
<path d="M453.57 813.98L439.79 774.86L418.8 682.33L409.89 595.7L411.39 515.11L422.11 441.56L409.48 402.63L398.9 364.94L390.13 328.02L382.95 292.57L377.16 258.16L372.45 225.45L368.64 194.07L365.32 164.62L362.31 136.8L359.14 111.16L355.62 87.43L351.25 66.1L345.84 46.99L338.91 30.53L330.3 16.59L319.58 5.57L306.65 -2.56L291.21 -7.43L273.2 -8.97L238.8 23.64L219.77 41.67L184.38 82L169.93 98.46L168.03 100.63L133.4 148.72L131.64 151.18L130.51 152.75L129 154.85" stroke="#515459" stroke-opacity="0.4" stroke-linecap="round" stroke-linejoin="round"/>
</g>
<g style="mix-blend-mode:overlay">
<path d="M798.36 -28L757.19 -24.23L707.19 -14.88L656.44 -0.120001L605.61 20.36L605.46 20.43L555.09 47.21L554.92 47.32L505.85 80.56L505.77 80.61L458.29 121.26L458.22 121.31L413.5 169.33L372.45 225.45L336.31 289.49L306.23 362.19L283.61 443.11L269.99 532.79L266.88 630.48L294.5 670.31L324.67 710.53L357.74 751.34L393.51 791.86L401.01 813.98" stroke="#515459" stroke-opacity="0.4" stroke-linecap="round" stroke-linejoin="round"/>
</g>
<g style="mix-blend-mode:overlay">
<path d="M319.99 813.98L309.84 775.98L294.5 670.31L291.86 571.67L300.43 481.14L283.61 443.11L268.66 406.75L255.27 371.77L243.17 338.97L232.04 308.09L221.52 279.88L211.29 254.1L200.93 231.46L190.17 211.74L178.57 195.59L165.93 182.84L151.87 174.09L136.29 169.24L120.89 168.88" stroke="#515459" stroke-opacity="0.4" stroke-linecap="round" stroke-linejoin="round"/>
</g>
<g style="mix-blend-mode:overlay">
<path d="M799.64 813.98L769.15 789.18L723.59 745.34L684.16 700.62L650.22 655.32L621.66 610.3L597.78 565.59L578.38 521.91L562.8 479.06L550.79 437.67L541.78 397.34L535.51 358.65L560.11 312.52L586.57 275.7L588.67 272.79L618.02 241.31L620.34 238.82L654.25 210.88L689.82 188.31L726.23 171.21L763.1 158.94L799.7 151.48L835.82 148.25L870.82 149.12L904.6 153.58L936.65 161.4L966.94 172.15L995.1 185.55L1021.15 201.23L1042.53 192.19L1063.25 183.79L1083.01 175.66L1101.71 167.54L1119.15 159.14L1135.2 150.21L1149.76 140.56L1162.58 129.97L1173.68 118.36L1182.66 105.53L1189.68 91.51L1194.16 76.15L1196.36 59.6L1195.6 41.72L1192.24 22.81L1185.46 2.78L1175.78 -17.96L1169.46 -28" stroke="#515459" stroke-opacity="0.4" stroke-linecap="round" stroke-linejoin="round"/>
</g>
<g style="mix-blend-mode:overlay">
<path d="M701.15 813.98L673.21 788L633.44 745.77L598.02 702.96L566.94 660.25L539.59 617.52L515.92 575.4L495.39 533.6L477.92 492.75L463.08 452.42L450.74 413.25L471.52 352.03L498.13 297.99L529.5 250.56L564.56 210.08L600.81 177.43L602.52 175.89L642.42 148.15L683.71 126.16L725.52 109.95L767.51 98.88L808.93 92.82L849.57 91.21L888.82 93.81L926.55 100.15L962.32 109.92L996.06 122.7L1027.45 138.15L1056.5 155.93L1075.07 146.79L1092.45 137.59L1108.44 128.05L1122.9 117.98L1135.76 107.21L1146.72 95.56L1155.84 82.98L1162.68 69.3L1167.42 54.58L1169.45 38.69L1169.09 21.81L1165.58 3.83L1159.37 -14.93L1152.86 -28" stroke="#515459" stroke-opacity="0.4" stroke-linecap="round" stroke-linejoin="round"/>
</g>
<g style="mix-blend-mode:overlay">
<path d="M56.81 375.09L68.13 339.72L107.18 251.6L151.87 174.09L200.84 106.24L252.75 47.66L306.65 -2.56L339.63 -28" stroke="#515459" stroke-opacity="0.4" stroke-linecap="round" stroke-linejoin="round"/>
</g>
<g style="mix-blend-mode:overlay">
<path d="M102.48 537.82L106.52 502.29L88.48 480.25L114.63 380.21L99.47 362.62L84.07 348.89L68.13 339.72L51.47 335L47.58 335.08" stroke="#515459" stroke-opacity="0.4" stroke-linecap="round" stroke-linejoin="round"/>
</g>
<g style="mix-blend-mode:overlay">
<path d="M206.05 813.98L191.97 782.64L171.19 732.45L167.56 723.67L149.25 679.47L141.41 660.53L127.77 627.6L119.57 602L102.06 547.28L85.87 490.22L80.29 472.4L76.75 460.31L74.25 450.52L64.76 412.04L62.08 402.42L56.04 377.5L48.83 343.06L48.84 340.82L47.58 335.08L44.33 322.6L42.96 318L42.13 313.99L41.07 308.89L40.52 305.49L40.48 305.3L40.12 302.38L38.66 296.37L37.01 289.32L35.49 280.67L34.37 275.15L33.81 270.94L31.93 260.3L29.85 248.8L27.94 237.63L27.69 236.19L25.37 222.65L23.6 212.27L23.24 209.87L23.09 208.32L21.34 194.82L19.53 180.74L17.62 165.95L15.62 150.49L14.42 141.2L13.85 134.71L13.8 134.06L12.17 120.32L9.99999 106.99L9.16999 100.6L8.24999 78.3L8.21999 74.91L6.42999 49.38L5.69999 18.88L5.42999 0.990011L5.76999 -7.80999L5.95999 -21.2L5.91999 -23.69L5.95999 -27.77" stroke="#515459" stroke-opacity="0.4" stroke-linecap="round" stroke-linejoin="round"/>
</g>
<g style="mix-blend-mode:overlay">
<path d="M205.21 813.98L191.97 782.64L177.42 745.69L170.63 727.72L167.79 720.64L158.09 696.59L153.64 684.56L141.74 652.38L136.58 639.28L120.1 595.37L102.06 547.28L91.75 516.42L84.61 495.04L74.94 466.08L72.17 457.78L55.97 409.28L44.69 355.68L41.24 339.27L35.02 304.57L29.5 273.8L24.92 242.64L20.48 212.49L20.35 211.69L16.36 186.73L11.77 157.97L9.14 141.52L7.07 128.61L2.03 97.05L0.389999 80.86L-8.83 -10.34L-9.5 -28" stroke="#515459" stroke-opacity="0.4" stroke-linecap="round" stroke-linejoin="round"/>
</g>
<g style="mix-blend-mode:overlay">
<path d="M692.24 -28L663.07 -20.47L611.26 -1.5L560.29 23.2L559.66 23.51L559.62 23.53L509.33 54.86L508.74 55.23L459.63 93.68L459.41 93.85L412.34 140.12L368.64 194.07L329.26 256.47L295.5 327.13L268.66 406.75L250.22 494.87L241.85 591.95L245.19 697.15L276.17 736.32L309.84 775.98L344.5 813.98" stroke="#515459" stroke-opacity="0.4" stroke-linecap="round" stroke-linejoin="round"/>
</g>
<g style="mix-blend-mode:overlay">
<path d="M27.69 236.19L39.16 209.58L84.81 125.95L135.67 50.53L191.16 -17.25L201.78 -28" stroke="#515459" stroke-opacity="0.4" stroke-linecap="round" stroke-linejoin="round"/>
</g>
<g style="mix-blend-mode:overlay">
<path d="M767.91 813.98L748.41 797.85L703.68 754.53L664.68 710.48L630.77 665.92L601.86 621.64L577.28 577.61L556.86 534.51L540 492.09L526.49 450.96L515.81 410.73L507.76 371.98L531.57 321.11L559.92 276.92L589.84 241.22L591.87 238.79L624.43 208.92L626.51 207.01L663.18 180.9L701.01 160.58L739.57 145.42L778.1 135.38L816.33 129.87L853.59 128.75L889.75 131.51L924.25 137.92L957.06 147.51L987.75 160L1016.33 175L1042.53 192.19L1066.41 211.26L1087.81 231.85L1108.63 225.85L1128.49 219.78L1147.28 213.36L1164.87 206.27L1181.08 198.26L1195.86 189.13L1208.92 178.64L1220.29 166.75L1229.54 153.21L1236.8 138.14L1241.48 121.32L1243.84 103.03L1243.12 83.07L1239.7 61.87L1232.72 39.27L1222.7 15.85L1208.69 -8.48L1194.95 -28" stroke="#515459" stroke-opacity="0.4" stroke-linecap="round" stroke-linejoin="round"/>
</g>
<g style="mix-blend-mode:overlay">
<path d="M7.34999 45.2L19.98 25.67L39.41 13.08L40.81 11.33L72.37 -28" stroke="#515459" stroke-opacity="0.4" stroke-linecap="round" stroke-linejoin="round"/>
</g>
<g style="mix-blend-mode:overlay">
<path d="M15.62 150.49L25.79 130.7L30.64 123.09L76.71 50.73L81.85 44.07L132.43 -21.6L144.29 -22.52L149.43 -28" stroke="#515459" stroke-opacity="0.4" stroke-linecap="round" stroke-linejoin="round"/>
</g>
<g style="mix-blend-mode:overlay">
<path d="M105.29 -28L90.68 -11.23L39.17 59.34L35.9 63.82L20.33 71.56L8.91 77.93" stroke="#515459" stroke-opacity="0.4" stroke-linecap="round" stroke-linejoin="round"/>
</g>
<g style="mix-blend-mode:overlay">
<path d="M9.89999 89.32L20.33 71.56L27.02 62.13L74.75 -5.12L90.68 -11.23L105.68 -16.16L116.26 -28" stroke="#515459" stroke-opacity="0.4" stroke-linecap="round" stroke-linejoin="round"/>
</g>
<g style="mix-blend-mode:overlay">
<path d="M1344.78 732.68L1335.32 716.78L1326.83 698.77L1319.88 679.88L1314.22 660.31L1309.66 640.03L1305.97 619.16L1302.95 597.66L1300.37 575.64L1298.05 553.03L1295.79 529.94L1293.36 506.29L1290.59 482.18L1287.25 457.55L1283.18 432.51L1278.14 407L1271.99 381.18L1264.45 355.02L1255.42 328.69L1244.63 302.2L1232 275.79L1217.25 249.51L1200.37 223.61L1181.08 198.26L1159.43 173.72L1135.2 150.21L1108.44 128.05L1079.08 107.52L1047.2 88.94L1012.81 72.68L976.02 59.07L937.03 48.5L895.95 41.36L853.15 38.01L808.79 38.92L763.39 44.4L717.2 54.98L670.91 70.88L624.88 92.74L623.97 93.31L579.95 120.65L578.8 121.57L536.66 155.31L535.56 156.42L496 196.64L494.78 198.24L458.75 245.38L426.03 301.25L398.9 364.94L378.59 435.91L366.5 514.67L363.9 600.38L372.48 693.19L393.51 791.86L414.76 813.98" stroke="#515459" stroke-opacity="0.4" stroke-linecap="round" stroke-linejoin="round"/>
</g>
<g style="mix-blend-mode:overlay">
<path d="M162.03 813.98L153.97 799.09L117.78 694.06L88.36 597.8L64.46 509.19L45.5 427.42L40.02 410.46L4.03999 299.13L0.409996 285.69L-28.23 179.48L-30.82 167.31L-52.03 67.54L-66.3 -28" stroke="#515459" stroke-opacity="0.4" stroke-linecap="round" stroke-linejoin="round"/>
</g>
<g style="mix-blend-mode:overlay">
<path d="M6.91 34.98L19.98 25.67L25.2 18.9L61.36 -28" stroke="#515459" stroke-opacity="0.4" stroke-linecap="round" stroke-linejoin="round"/>
</g>
<g style="mix-blend-mode:overlay">
<path d="M625.23 813.98L613.55 803L574.7 762.12L539.67 721L507.91 679.45L479.52 638.12L454 596.68L431.43 555.81L411.39 515.11L393.89 475.29L409.48 402.63L432.42 337.59L461.45 279.62L495.38 229.18L531.9 187.18L533.26 185.61L572.78 150.23L574.01 149.12L615.66 119.91L616.95 119.02L661.11 95.32L706.04 77.38L750.92 65.06L795.45 57.79L838.96 55.32L881.26 57.13L921.84 62.93L960.57 72.26L997.11 84.76L1031.37 100.06L1047.2 88.94L1061.59 77.71L1074.42 66.17L1085.47 54.18L1094.72 41.64L1101.79 28.41L1106.81 14.49L1109.24 -0.220001L1109.34 -15.64L1107.12 -28" stroke="#515459" stroke-opacity="0.4" stroke-linecap="round" stroke-linejoin="round"/>
</g>
<g style="mix-blend-mode:overlay">
<path d="M159.65 813.98L153.97 799.09L143.46 778.1L78.29 647.98L51.97 549.42L31.29 459.02L15.62 375.9L10.95 361.09L-23.69 251.51L-26.85 239.37L-53.88 135.24L-75.69 26.25L-82.98 -28" stroke="#515459" stroke-opacity="0.4" stroke-linecap="round" stroke-linejoin="round"/>
</g>
<g style="mix-blend-mode:overlay">
<path d="M573.93 813.98L567.27 800.17L539.67 721L522.85 645.68L515.92 575.4L517.45 510.22L526.49 450.96L541.78 397.34L562.41 349.94L560.11 312.52L559.92 276.92L561.52 242.63L564.56 210.08L568.86 178.78L574.01 149.12L579.95 120.65L586.24 93.71L592.85 67.93L599.32 43.57L605.61 20.36L611.26 -1.5L616.2 -22.22L633.56 -28" stroke="#515459" stroke-opacity="0.4" stroke-linecap="round" stroke-linejoin="round"/>
</g>
<g style="mix-blend-mode:overlay">
<path d="M25.37 222.65L31.02 209.43L76.73 125.23L127.75 49.02L183.32 -19.26L191.88 -28" stroke="#515459" stroke-opacity="0.4" stroke-linecap="round" stroke-linejoin="round"/>
</g>
<g style="mix-blend-mode:overlay">
<path d="M1387.74 660.52L1381.27 648.09L1373.43 629.94L1366.63 610.87L1360.62 591.09L1355.27 570.53L1350.38 549.38L1345.76 527.53L1341.24 505.16L1336.64 482.14L1331.78 458.68L1326.46 434.6L1320.55 410.15L1313.79 385.15L1306.09 359.86L1297.14 334.13L1286.91 308.24L1275.03 282.09L1261.54 255.98L1246.05 229.87L1228.64 204.08L1208.92 178.64L1187.01 153.9L1162.58 129.97L1135.76 107.21L1106.33 85.83L1074.42 66.17L1039.94 48.55L1003.03 33.32L963.73 20.83L922.21 11.47L878.68 5.64L833.34 3.75L786.57 6.18L738.62 13.43L690.06 25.81L641.21 43.9L640.84 44.09L592.85 67.93L592.16 68.37L545.43 98.55L544.75 99.11L499.9 135.85L498.98 136.81L456.94 180.55L417.64 232.55L382.95 292.57L354.13 360.28L332.44 436.3L319.26 520L340.41 560.03L363.9 600.38L390.07 641.41L418.8 682.33L450.48 723.45L484.91 764.05L522.54 804.42L532.35 813.98" stroke="#515459" stroke-opacity="0.4" stroke-linecap="round" stroke-linejoin="round"/>
</g>
<g style="mix-blend-mode:overlay">
<path d="M1387.74 728.2L1378.81 717.79L1367.73 701.69L1358.34 684.46L1350.38 666.36L1343.68 647.37L1338.02 627.67L1333.24 607.21L1329.1 586.17L1325.43 564.44L1322.03 542.2L1318.69 519.33L1315.25 495.98L1311.49 472.04L1307.24 447.68L1302.28 422.77L1296.47 397.51L1289.55 371.8L1281.43 345.84L1271.78 319.57L1260.57 293.23L1247.47 266.81L1232.47 240.57L1215.25 214.58L1195.86 189.13L1174.01 164.35L1149.76 140.56L1122.9 117.98L1093.55 96.93L1061.59 77.71L1027.14 60.66L990.24 46.15L951.02 34.53L909.7 26.18L866.41 21.52L821.54 20.92L775.28 24.85L728.21 33.63L680.57 47.82L633.12 67.63L632.33 68.07L586.24 93.71L585.46 94.28L540.86 126.16L539.82 127.1L497.54 165.67L496.57 166.8L457.36 212.18L421.16 266.39L390.13 328.02L365.43 397.72L348.36 474.91L340.41 560.03L342.95 652.16L372.48 693.19L404.64 734L439.79 774.86L476.7 813.98" stroke="#515459" stroke-opacity="0.4" stroke-linecap="round" stroke-linejoin="round"/>
</g>
<g style="mix-blend-mode:overlay">
<path d="M619.28 813.98L613.55 803L585.06 729.73L566.94 660.25L557.82 594.87L556.86 534.51L562.8 479.06L574.8 429.21L591.76 384.56L612.89 345.6L613.12 308.06L615.72 272.63L620.34 238.82L626.51 207.01L634.03 176.68L642.42 148.15L651.6 120.94L661.11 95.32L670.91 70.88L680.57 47.82L690.06 25.81L698.94 4.98L707.19 -14.88L712.2 -28" stroke="#515459" stroke-opacity="0.4" stroke-linecap="round" stroke-linejoin="round"/>
</g>
<g style="mix-blend-mode:overlay">
<path d="M526.84 813.98L522.54 804.42L495.13 718.88L479.52 638.12L474.12 562.38L477.92 492.75L489.48 429.04L507.76 371.98L501.95 334.21L498.13 297.99L496.04 262.81L495.38 229.18L496 196.64L497.54 165.67L499.9 135.85L502.67 107.62L505.77 80.61L508.74 55.23L511.48 31.18L513.52 8.78L514.71 -12.16L514.62 -28" stroke="#515459" stroke-opacity="0.4" stroke-linecap="round" stroke-linejoin="round"/>
</g>
<g style="mix-blend-mode:overlay">
<path d="M44.09 319.28L47.64 310.46L77.24 246.79L82.33 235.63L83.59 232.86L87.64 225.31L120.89 168.88L129 154.85L130.41 152.4L131.01 151.35L131.78 149.26L131.93 147.21L131.42 145.22L154.83 112.08L163.09 100.39L181.04 74.98L196.07 57.46L210.85 41.67L216.42 36.62L224.1 27.69L235.28 15.83L260.9 -7.68999L263.13 -9.82999L283 -27.62L283.98 -27.26" stroke="#515459" stroke-opacity="0.4" stroke-linecap="round" stroke-linejoin="round"/>
</g>
<g style="mix-blend-mode:overlay">
<path d="M43.48 316.49L46.83 309.05L75.06 246.76L86.05 222.52L114.41 174.89L118.69 168.83L122.73 163.19L123.3 162.21L127.21 156.3L128.67 154.65L131.78 149.26L132.75 148.49L167.12 100.79L167.18 100.59L178.51 84.66L180.07 82.85L181.16 81.29L183.46 78.63L196.97 63.28L214.63 41.82L220.45 34.07L222.1 32.15L227 26.46L234.84 17.37L235.14 14.85L258.28 -7.41L260.98 -10.02L279.66 -28" stroke="#515459" stroke-opacity="0.4" stroke-linecap="round" stroke-linejoin="round"/>
</g>
<g style="mix-blend-mode:overlay">
<path d="M49.13 342.13L51.47 335L91.13 246.95L136.29 169.24L185.44 101.5L237.46 42.77L291.21 -7.43L317.65 -28" stroke="#515459" stroke-opacity="0.4" stroke-linecap="round" stroke-linejoin="round"/>
</g>
<g style="mix-blend-mode:overlay">
<path d="M197.26 813.98L194 807.35L167.58 749.15L123.72 652.58L114.56 630.4L96.83 587.51L64.46 509.19L58.29 492.34L15.62 375.9L4.04 299.13L-3.88 228.1L-8.8 162.09L-11 100.68L-10.95 43.3L-8.83 -10.34L-7.48 -28" stroke="#515459" stroke-opacity="0.4" stroke-linecap="round" stroke-linejoin="round"/>
</g>
<g style="mix-blend-mode:overlay">
<path d="M196.77 813.98L194 807.35L173.81 754.69L158.22 714.05L143.5 672.25L141.2 665.72L127.77 627.6L117.09 599.02L96.72 544.49L84.09 510.7L74.28 484.44L55.97 409.28L37.08 343.43L19.26 281.28L15.46 265.16L0.029995 199.59L-8.8 162.09L-28.59 50.93L-37.77 -28" stroke="#515459" stroke-opacity="0.4" stroke-linecap="round" stroke-linejoin="round"/>
</g>
<g style="mix-blend-mode:overlay">
<path d="M42.62 312.57L45.37 307.76L75.06 246.76L77.14 246.39L85.97 229.32L87.02 226.91L87.13 225.08L86.05 222.52L103.18 190.7L115.72 168.76L130.3 143.26L140.88 128.23L159.21 102.2L160.58 100.26L179.97 72.73L180.56 72.04L204.79 43.72L207.21 40.9L233.86 9.76L250.82 -6.64L272.9 -28" stroke="#515459" stroke-opacity="0.4" stroke-linecap="round" stroke-linejoin="round"/>
</g>
<g style="mix-blend-mode:overlay">
<path d="M265.62 813.98L262.24 810.47L227.88 772.5L196.46 736.16L191.06 623.03L198.34 519.15L216.28 424.27L243.17 338.97L277.41 262.63L317.52 195.5L362.31 136.8L410.5 86.55L461.25 43.93L462.2 43.29L513.52 8.78L514.83 8.08L566.7 -19.64L567.51 -28" stroke="#515459" stroke-opacity="0.4" stroke-linecap="round" stroke-linejoin="round"/>
</g>
<g style="mix-blend-mode:overlay">
<path d="M734.67 813.98L731.3 811.2L686.86 768.66L647.74 725.46L613.33 681.74L583.57 638.24L557.82 594.87L535.97 552.29L517.45 510.22L502.11 469.27L489.48 429.04L479.41 390.12L501.95 334.21L529.66 285.25L559.74 245.02L561.52 242.63L594.73 208.53L596.55 206.66L634.03 176.68L673.03 152.81L713.08 134.41L753.36 121.45L793.55 113.33L832.96 109.9L871.42 110.64L908.34 115.3L943.64 123.43L976.88 134.71L1008.04 148.76L1036.83 165.23L1063.25 183.79L1087.16 204.08L1107.02 197.06L1125.77 189.82L1143.27 182.13L1159.43 173.72L1174.01 164.35L1187.01 153.9L1198.08 142.13L1207.31 129.06L1214.21 114.48L1218.96 98.53L1220.94 81.03L1220.44 62.28L1216.68 42.13L1210.11 21L1199.83 -1.2L1186.46 -23.93L1183.4 -28" stroke="#515459" stroke-opacity="0.4" stroke-linecap="round" stroke-linejoin="round"/>
</g>
<g style="mix-blend-mode:overlay">
<path d="M263.19 813.98L262.24 810.47L245.19 697.15L216.95 659.42L191.06 623.03L167.43 588.92L179.37 485.62L201.5 392.2L232.04 308.09L269.39 233.59L312.21 167.94L359.14 111.16L409.2 62.42L461.29 21.57L514.71 -12.16L546.41 -28" stroke="#515459" stroke-opacity="0.4" stroke-linecap="round" stroke-linejoin="round"/>
</g>
<g style="mix-blend-mode:overlay">
<path d="M179.02 84.07L180.46 81.79L181.29 79.49L181.46 77.25L181.04 74.98L179.97 72.73L178.31 70.42L176.02 68.12L173.14 65.77L169.64 63.42L165.55 61.04L160.83 58.73L155.51 56.43L149.54 54.29L142.95 52.24L135.67 50.53L127.75 49.02L119.07 48.08L109.7 47.5L99.5 47.79L88.57 48.65L76.71 50.73L64.06 53.63L50.4 58.17L35.9 63.82L11.26 104.89" stroke="#515459" stroke-opacity="0.4" stroke-linecap="round" stroke-linejoin="round"/>
</g>
<g style="mix-blend-mode:overlay">
<path d="M131.42 145.22L130.3 143.26L128.54 141.32L126.18 139.39L123.18 137.47L119.57 135.56L115.34 133.69L110.5 131.85L105.03 130.14L98.93 128.5L92.18 127.14L84.81 125.95L76.73 125.23L68.01 124.83L58.55 125.19L48.4 126.04L37.46 128L25.79 130.7L13.85 134.71" stroke="#515459" stroke-opacity="0.4" stroke-linecap="round" stroke-linejoin="round"/>
</g>
<g style="mix-blend-mode:overlay">
<path d="M86.63 223.35L85.47 221.69L83.69 220.11L81.26 218.57L78.21 217.08L74.52 215.64L70.22 214.27L65.27 212.99L59.7 211.8L53.49 210.82L46.65 210L39.16 209.58L31.02 209.43L23.29 209.87" stroke="#515459" stroke-opacity="0.4" stroke-linecap="round" stroke-linejoin="round"/>
</g>
<g style="mix-blend-mode:overlay">
<path d="M664.26 813.98L662.88 812.74L621.96 771.59L585.06 729.73L552.21 687.81L522.85 645.68L496.99 603.98L474.12 562.38L454.25 521.55L436.92 481.05L422.11 441.56L440.58 374.76L465.61 315.36L496.04 262.81L529.35 219.33L530.75 217.51L568.86 178.78L607.94 147.93L609.35 146.83L651.6 120.94L694.72 101.15L738.3 86.8L781.55 77.78L824.22 73.49L865.67 73.71L905.76 77.95L943.98 85.89L980.25 97.1L1014.25 111.23L1045.91 127.92L1063.17 117.78L1079.08 107.52L1093.55 96.93L1106.33 85.83L1117.41 74.09L1126.44 61.56L1133.54 48.21L1138.19 33.9L1140.61 18.72L1140.18 2.56L1137.23 -14.39L1132.46 -28" stroke="#515459" stroke-opacity="0.4" stroke-linecap="round" stroke-linejoin="round"/>
</g>
<g style="mix-blend-mode:overlay">
<path d="M41.52 307.59L42.05 306.02L68.65 246.69L81.26 218.57L109.59 168.62L126.18 139.39L151.18 103.63L153.78 99.92L176.02 68.12L195.71 44.97L230.18 4.44L263.5 -28" stroke="#515459" stroke-opacity="0.4" stroke-linecap="round" stroke-linejoin="round"/>
</g>
<g style="mix-blend-mode:overlay">
<path d="M1387.74 570.99L1387.49 570.31L1380.83 550.57L1374.65 530.01L1368.74 508.89L1362.94 487.04L1357.11 464.7L1351.03 441.7L1344.6 418.28L1337.58 394.26L1329.86 369.9L1321.17 345.01L1311.46 319.9L1300.4 294.39L1287.98 268.8L1273.84 243.02L1258.02 217.39L1240.14 191.84L1220.29 166.75L1198.08 142.13L1173.68 118.36L1146.72 95.56L1117.41 74.09L1085.47 54.18L1051.11 36.19L1014.2 20.44L974.94 7.27999L933.37 -2.9L889.69 -9.72L844.12 -12.77L796.88 -11.62L748.41 -5.87L698.94 4.98L649.13 21.26L599.32 43.57L599.05 43.73L550.33 72.13L549.74 72.57L502.67 107.62L457.36 150.1L456.54 151.07L415.13 200.33L377.16 258.16L344.5 324.33L318.45 398.47L332.44 436.3L348.36 474.91L366.5 514.67L386.9 554.8L409.89 595.7L435.42 636.61L463.88 677.9L495.13 718.88L529.65 759.86L567.27 800.17L581.54 813.98" stroke="#515459" stroke-opacity="0.4" stroke-linecap="round" stroke-linejoin="round"/>
</g>
<g style="mix-blend-mode:overlay">
<path d="M153.52 684.41L141.74 652.38L130.37 620.47L120.44 591.2L107.21 552.18" stroke="#515459" stroke-opacity="0.4" stroke-linecap="round" stroke-linejoin="round"/>
</g>
<g style="mix-blend-mode:overlay">
<path d="M103.4 540.91L102.46 537.95L87.44 487.42L87 485.92L83.86 475.43L76.31 450.11L75.35 446.67L65.66 409.12L56.81 375.09L55.2 368.91L54.07 364.55L48.88 342.88L46.86 336.8L43.2 324.04L39.54 313.42L37.08 303.73L36.47 301.31L32.79 286.8L29.5 273.8L25.09 252L18.12 217.55L10.45 179.65L5.35 154.44L2.96 138.16L-10.95 43.3L-17 -28" stroke="#515459" stroke-opacity="0.4" stroke-linecap="round" stroke-linejoin="round"/>
</g>
<g style="mix-blend-mode:overlay">
<path d="M44.47 307.13L71.69 246.72L83.69 220.11L112.95 168.69L128.54 141.32L155.54 102.86L157.47 100.11L178.31 70.42L200.6 44.3L203.69 40.68L232.3 7.15L245.99 -6.13L268.53 -28" stroke="#515459" stroke-opacity="0.4" stroke-linecap="round" stroke-linejoin="round"/>
</g>
<g style="mix-blend-mode:overlay">
<path d="M13.8 134.06L18.39 126.71L64.06 53.63L72.13 43.02L119.49 -19.32L132.43 -21.6L138.36 -28" stroke="#515459" stroke-opacity="0.4" stroke-linecap="round" stroke-linejoin="round"/>
</g>
<g style="mix-blend-mode:overlay">
<path d="M40.29 302.01L65.01 246.65L78.21 217.08L105.64 168.52L123.18 137.47L146.13 104.54L149.49 99.71L173.14 65.77L190.12 45.74L227.42 1.7L257.82 -28" stroke="#515459" stroke-opacity="0.4" stroke-linecap="round" stroke-linejoin="round"/>
</g>
<g style="mix-blend-mode:overlay">
<path d="M74.06 451.16L70.84 440.18L63.65 415.67L52.03 376.06L45.41 353.49L41.24 339.27L35.96 317.73L27.84 284.59L20.22 253.54L10.95 215.68L8 200.28L-11 100.68L-25.18 -6.65L-23.02 -28" stroke="#515459" stroke-opacity="0.4" stroke-linecap="round" stroke-linejoin="round"/>
</g>
<g style="mix-blend-mode:overlay">
<path d="M239.25 16.02L264.11 -8.02001L265.6 -9.62001L283.97 -27.26" stroke="#515459" stroke-opacity="0.4" stroke-linecap="round" stroke-linejoin="round"/>
</g>
<g style="mix-blend-mode:overlay">
<path d="M44.48 321.04L46.09 316.4L48.01 311.57L77.14 246.39L86.88 224.22L118.69 168.83L131.67 146.22L164.46 101.27L165.02 100.48L165.79 99.39L168.15 96.06L173.46 89.55L175.97 87L181.29 79.49L181.78 78.93L187.65 72.12L214.63 41.82L215.58 41.41L227.37 27.42L229.88 24.84L231.87 23.1L232.81 22.03L234.23 20.01L237.31 17.05L263.54 -7.96L265.93 -9.59L285.09 -28" stroke="#515459" stroke-opacity="0.4" stroke-linecap="round" stroke-linejoin="round"/>
</g>
<g style="mix-blend-mode:overlay">
<path d="M44.63 321.73L47.59 313.21L47.73 312.82L48.02 311.6L78.02 246.8L85.97 229.32L87 227.25L87.8 225.85L120.48 168.87L127.21 156.3L132.1 147.89L166.04 100.99L166.64 100.69L167.18 100.59L178.51 84.66L180.46 81.79L181.16 81.29L183.46 78.63L193.99 66.11L214.44 42.4L215.58 41.41L229.88 24.84L234.21 20.2L238.66 16.41L263.34 -7.94L264.67 -9.7L283.85 -27.62L284.74 -28" stroke="#515459" stroke-opacity="0.4" stroke-linecap="round" stroke-linejoin="round"/>
</g>
<g style="mix-blend-mode:overlay">
<path d="M130.41 152.4L130.87 151.75L131.68 150.61L133.21 148.37L166.64 100.69L173.46 89.55L181.46 77.25L209.94 44.15L210.85 41.67L234.79 12.36L254.92 -7.06L258.23 -10.25L276.61 -28" stroke="#515459" stroke-opacity="0.4" stroke-linecap="round" stroke-linejoin="round"/>
</g>
</g>
<g clip-path="url(#clip1_136_703)">
<path d="M52 152H518.761V408.365H52V152Z" fill="#788191" fill-opacity="0.15"/>
<path d="M52 152V151.558H51.558V152H52ZM518.761 152H519.203V151.558H518.761V152ZM518.761 408.365V408.807H519.203V408.365H518.761ZM52 408.365H51.558V408.807H52V408.365ZM52 152.442H518.761V151.558H52V152.442ZM518.319 152V408.365H519.203V152H518.319ZM518.761 407.923H52V408.807H518.761V407.923ZM52.442 408.365V152H51.558V408.365H52.442Z" fill="white"/>
<path d="M168.69 159.072H511.689V401.293H168.69V159.072Z" fill="#788191" fill-opacity="0.15"/>
<path d="M168.69 159.072V158.63H168.248V159.072H168.69ZM511.689 159.072H512.131V158.63H511.689V159.072ZM511.689 401.293V401.735H512.131V401.293H511.689ZM168.69 401.293H168.248V401.735H168.69V401.293ZM168.69 159.514H511.689V158.63H168.69V159.514ZM511.247 159.072V401.293H512.131V159.072H511.247ZM511.689 400.851H168.69V401.735H511.689V400.851ZM169.132 401.293V159.072H168.248V401.293H169.132Z" fill="white"/>
<path d="M435.664 325.267H497.545V387.149H435.664V325.267Z" fill="#788191" fill-opacity="0.15"/>
<path d="M435.664 325.267V324.825H435.222V325.267H435.664ZM497.545 325.267H497.987V324.825H497.545V325.267ZM497.545 387.149V387.591H497.987V387.149H497.545ZM435.664 387.149H435.222V387.591H435.664V387.149ZM435.664 325.709H497.545V324.825H435.664V325.709ZM497.103 325.267V387.149H497.987V325.267H497.103ZM497.545 386.707H435.664V387.591H497.545V386.707ZM436.106 387.149V325.267H435.222V387.149H436.106Z" fill="white"/>
<path d="M444.504 378.309H444.062V378.751H444.504V378.309ZM489.017 378.621C489.19 378.448 489.19 378.169 489.017 377.996L486.204 375.183C486.032 375.01 485.752 375.01 485.579 375.183C485.407 375.356 485.407 375.636 485.579 375.808L488.08 378.309L485.579 380.809C485.407 380.982 485.407 381.261 485.579 381.434C485.752 381.607 486.032 381.607 486.204 381.434L489.017 378.621ZM444.062 334.108V378.309H444.946V334.108H444.062ZM444.504 378.751H488.705V377.867H444.504V378.751Z" fill="#A7A7A7"/>
<path d="M446.893 356.99C446.893 356.99 449.695 356.362 451.311 357.272C453.705 358.618 453.139 364.377 455.692 364.563C457.68 364.709 458.554 362.586 460.072 360.656C462.321 357.795 461.503 351.499 464.452 351.43C466.49 351.382 466.818 355.224 468.833 355.681C470.546 356.069 471.479 353.777 473.175 354.31C475.869 355.157 475.16 360.552 477.554 362.589C479.099 363.904 480.163 364.603 481.935 364.422C483.811 364.231 486.316 361.421 486.316 361.421" stroke="#B9A3FA" stroke-width="1.76804" stroke-linejoin="round"/>
<path d="M464.394 351.051L464.394 338.896" stroke="#A7A7A7" stroke-width="0.884018" stroke-dasharray="5.3 1.77"/>
<path d="M464.394 338.896H482.811V344.053H464.394V338.896Z" fill="#788191" fill-opacity="0.15"/>
<path d="M464.394 338.896V338.454H463.952V338.896H464.394ZM482.811 338.896H483.253V338.454H482.811V338.896ZM482.811 344.053V344.495H483.253V344.053H482.811ZM464.394 344.053H463.952V344.495H464.394V344.053ZM464.394 339.338H482.811V338.454H464.394V339.338ZM482.369 338.896V344.053H483.253V338.896H482.369ZM482.811 343.611H464.394V344.495H482.811V343.611ZM464.836 344.053V338.896H463.952V344.053H464.836Z" fill="white"/>
<path d="M471.466 341.548H475.887" stroke="#A7A7A7" stroke-width="0.884018"/>
<circle cx="464.394" cy="350.867" r="2.21004" fill="#E6E8EB"/>
<circle cx="464.394" cy="350.867" r="1.65753" fill="#1F75FF"/>
<path d="M446.893 364.826C446.893 364.826 449.326 361.513 451.311 361.009C453.012 360.577 454.019 362.48 455.692 361.871C458.233 360.945 457.463 354.982 460.072 354.605C463.546 354.103 460.977 365.246 464.452 365.73C466.261 365.981 467.288 364.857 468.833 363.493C471.033 361.549 470.622 356.955 473.175 356.349C474.936 355.931 475.815 357.643 477.554 358.217C479.244 358.775 480.245 359.823 481.935 359.264C484.995 358.253 486.316 349.638 486.316 349.638" stroke="#1F75FF" stroke-width="1.76804" stroke-linejoin="round"/>
<path d="M435.664 173.216H497.545V235.098H435.664V173.216Z" fill="#788191" fill-opacity="0.15"/>
<path d="M435.664 173.216V172.774H435.222V173.216H435.664ZM497.545 173.216H497.987V172.774H497.545V173.216ZM497.545 235.098V235.54H497.987V235.098H497.545ZM435.664 235.098H435.222V235.54H435.664V235.098ZM435.664 173.658H497.545V172.774H435.664V173.658ZM497.103 173.216V235.098H497.987V173.216H497.103ZM497.545 234.656H435.664V235.54H497.545V234.656ZM436.106 235.098V173.216H435.222V235.098H436.106Z" fill="white"/>
<path d="M488.705 204.157C488.705 208.824 487.227 213.372 484.484 217.147C481.741 220.923 477.872 223.734 473.434 225.176C468.995 226.618 464.214 226.618 459.775 225.176C455.336 223.734 451.468 220.923 448.725 217.147L466.604 204.157H488.705Z" fill="#FFC352" stroke="white" stroke-width="0.884018"/>
<path d="M457.043 224.082C453.687 222.472 450.792 220.04 448.627 217.012L466.604 204.157L457.043 224.082Z" fill="#B9A3FA" stroke="white" stroke-width="0.884018"/>
<path d="M466.604 182.057C469.507 182.057 472.38 182.628 475.062 183.739C477.743 184.85 480.179 186.477 482.232 188.53C484.284 190.582 485.912 193.018 487.022 195.7C488.133 198.381 488.705 201.255 488.705 204.157L466.604 204.157V182.057Z" fill="#81E4DF" stroke="white" stroke-width="0.884018"/>
<path d="M448.78 217.223C446.37 213.936 444.917 210.047 444.58 205.985C444.242 201.924 445.035 197.849 446.869 194.209C448.704 190.57 451.509 187.509 454.974 185.364C458.439 183.22 462.43 182.075 466.506 182.057L466.604 204.157L448.78 217.223Z" fill="#1F75FF" stroke="white" stroke-width="0.884018"/>
<path d="M182.835 226.257H421.519V387.149H182.835V226.257Z" fill="#E6E8EB"/>
<path d="M182.835 226.257V225.815H182.393V226.257H182.835ZM421.519 226.257H421.961V225.815H421.519V226.257ZM421.519 387.149V387.591H421.961V387.149H421.519ZM182.835 387.149H182.393V387.591H182.835V387.149ZM182.835 226.7H421.519V225.815H182.835V226.7ZM421.077 226.257V387.149H421.961V226.257H421.077ZM421.519 386.707H182.835V387.591H421.519V386.707ZM183.277 387.149V226.257H182.393V387.149H183.277Z" fill="white"/>
<path d="M204.051 334.108H230.572V387.149H204.051V334.108Z" fill="#788191" fill-opacity="0.5"/>
<path d="M204.051 334.108V333.666H203.609V334.108H204.051ZM230.572 334.108H231.014V333.666H230.572V334.108ZM230.572 387.149V387.591H231.014V387.149H230.572ZM204.051 387.149H203.609V387.591H204.051V387.149ZM204.051 334.55H230.572V333.666H204.051V334.55ZM230.13 334.108V387.149H231.014V334.108H230.13ZM230.572 386.707H204.051V387.591H230.572V386.707ZM204.493 387.149V334.108H203.609V387.149H204.493Z" fill="white"/>
<path d="M246.484 319.963H273.004V387.149H246.484V319.963Z" fill="#788191" fill-opacity="0.5"/>
<path d="M246.484 319.963V319.521H246.042V319.963H246.484ZM273.004 319.963H273.446V319.521H273.004V319.963ZM273.004 387.149V387.591H273.446V387.149H273.004ZM246.484 387.149H246.042V387.591H246.484V387.149ZM246.484 320.405H273.004V319.521H246.484V320.405ZM272.562 319.963V387.149H273.446V319.963H272.562ZM273.004 386.707H246.484V387.591H273.004V386.707ZM246.926 387.149V319.963H246.042V387.149H246.926Z" fill="white"/>
<path d="M288.917 319.963H315.437V387.149H288.917V319.963Z" fill="#788191" fill-opacity="0.5"/>
<path d="M288.917 319.963V319.521H288.475V319.963H288.917ZM315.437 319.963H315.879V319.521H315.437V319.963ZM315.437 387.149V387.591H315.879V387.149H315.437ZM288.917 387.149H288.475V387.591H288.917V387.149ZM288.917 320.405H315.437V319.521H288.917V320.405ZM314.995 319.963V387.149H315.879V319.963H314.995ZM315.437 386.707H288.917V387.591H315.437V386.707ZM289.359 387.149V319.963H288.475V387.149H289.359Z" fill="white"/>
<path d="M331.35 298.747H357.87V387.149H331.35V298.747Z" fill="#1F75FF"/>
<path d="M331.35 298.747V298.305H330.908V298.747H331.35ZM357.87 298.747H358.312V298.305H357.87V298.747ZM357.87 387.149V387.591H358.312V387.149H357.87ZM331.35 387.149H330.908V387.591H331.35V387.149ZM331.35 299.189H357.87V298.305H331.35V299.189ZM357.428 298.747V387.149H358.312V298.747H357.428ZM357.87 386.707H331.35V387.591H357.87V386.707ZM331.792 387.149V298.747H330.908V387.149H331.792Z" fill="white"/>
<path d="M373.782 284.603H400.303V387.149H373.782V284.603Z" fill="#788191" fill-opacity="0.5"/>
<path d="M373.782 284.603V284.161H373.34V284.603H373.782ZM400.303 284.603H400.745V284.161H400.303V284.603ZM400.303 387.149V387.591H400.745V387.149H400.303ZM373.782 387.149H373.34V387.591H373.782V387.149ZM373.782 285.045H400.303V284.161H373.782V285.045ZM399.861 284.603V387.149H400.745V284.603H399.861ZM400.303 386.707H373.782V387.591H400.303V386.707ZM374.224 387.149V284.603H373.34V387.149H374.224Z" fill="white"/>
<path d="M182.384 305.819V291.675L192.992 298.747L182.384 305.819Z" fill="#B9A3FA" stroke="white" stroke-width="0.884018"/>
<path d="M192.992 298.747L421.069 298.747" stroke="#A7A7A7" stroke-width="0.884018" stroke-dasharray="5.3 2.65"/>
<path d="M200.515 248.358C200.515 245.917 202.494 243.938 204.935 243.938H224.383C226.825 243.938 228.804 245.917 228.804 248.358C228.804 250.799 226.825 252.778 224.383 252.778H204.935C202.494 252.778 200.515 250.799 200.515 248.358Z" fill="#1F75FF"/>
<path d="M204.935 244.38H224.383V243.496H204.935V244.38ZM224.383 252.336H204.935V253.22H224.383V252.336ZM204.935 252.336C202.738 252.336 200.957 250.555 200.957 248.358H200.073C200.073 251.043 202.25 253.22 204.935 253.22V252.336ZM228.362 248.358C228.362 250.555 226.58 252.336 224.383 252.336V253.22C227.069 253.22 229.246 251.043 229.246 248.358H228.362ZM224.383 244.38C226.58 244.38 228.362 246.161 228.362 248.358H229.246C229.246 245.673 227.069 243.496 224.383 243.496V244.38ZM204.935 243.496C202.25 243.496 200.073 245.673 200.073 248.358H200.957C200.957 246.161 202.738 244.38 204.935 244.38V243.496Z" fill="white"/>
<path d="M200.515 265.154H262.396" stroke="#A7A7A7" stroke-width="0.884018"/>
<path d="M200.515 277.531H297.757" stroke="#A7A7A7" stroke-width="0.884018"/>
<path d="M344.61 300.515L344.61 284.603" stroke="#A7A7A7" stroke-width="0.884018" stroke-dasharray="5.3 1.77"/>
<circle cx="344.61" cy="298.747" r="5.30411" fill="#E6E8EB"/>
<circle cx="344.61" cy="298.747" r="3.97808" fill="#1F75FF"/>
<g filter="url(#filter0_d_136_703)">
<circle cx="344.61" cy="262.502" r="22.1004" fill="#FFC352"/>
<circle cx="344.61" cy="262.502" r="22.1004" stroke="white" stroke-width="0.884018"/>
</g>
<path d="M349.444 274.878C345.383 274.878 342.061 271.651 341.908 267.627H338.97C338.809 267.627 338.68 267.497 338.68 267.337V256.862C338.68 256.702 338.809 256.572 338.97 256.572H342.998C343.076 256.572 343.149 256.603 343.203 256.656C343.258 256.711 343.288 256.785 343.288 256.862V262.982C343.788 262.272 344.411 261.651 345.126 261.156V250.415C345.126 250.255 345.255 250.125 345.416 250.125H349.444C349.522 250.125 349.596 250.156 349.65 250.21C349.704 250.265 349.734 250.339 349.734 250.416L349.734 259.801C353.758 259.953 356.986 263.275 356.986 267.337C356.986 271.495 353.603 274.878 349.444 274.878ZM349.444 260.375C348.059 260.375 346.723 260.781 345.577 261.551C344.594 262.202 343.792 263.102 343.257 264.157C342.75 265.131 342.483 266.23 342.483 267.337C342.483 271.175 345.606 274.298 349.444 274.298C353.283 274.298 356.406 271.175 356.406 267.337C356.406 263.498 353.283 260.375 349.444 260.375ZM339.26 267.047H341.908C341.95 265.971 342.224 264.91 342.708 263.957V257.152H339.26V267.047ZM345.706 250.706L345.705 260.788C345.773 260.75 345.842 260.711 345.912 260.674C346.408 260.41 346.93 260.203 347.469 260.057C348.017 259.908 348.581 259.822 349.153 259.801L349.154 250.706H345.706ZM349.734 271.365H349.154V270.044H347.027V269.464H350.653C351.16 269.464 351.572 269.052 351.572 268.545C351.572 268.038 351.16 267.627 350.653 267.627H348.235C347.409 267.627 346.737 266.954 346.737 266.128C346.737 265.302 347.409 264.629 348.235 264.629H349.154V263.308H349.735V264.629H351.862V265.21H348.235C347.729 265.21 347.317 265.622 347.317 266.129C347.317 266.636 347.729 267.047 348.235 267.047H350.653C351.479 267.047 352.152 267.72 352.152 268.546C352.152 269.372 351.479 270.045 350.653 270.045H349.734V271.365ZM336.552 267.627H332.524C332.363 267.627 332.234 267.497 332.234 267.337V261.696C332.234 261.536 332.363 261.406 332.524 261.406H336.552C336.713 261.406 336.843 261.536 336.843 261.696V267.337C336.843 267.497 336.713 267.627 336.552 267.627ZM332.814 267.047H336.262V261.986H332.814V267.047Z" fill="#1F75FF"/>
<path d="M60.8402 238.634H168.69V330.572H60.8402V238.634Z" fill="#E6E8EB"/>
<path d="M60.8402 238.634V238.192H60.3982V238.634H60.8402ZM168.69 238.634H169.132V238.192H168.69V238.634ZM168.69 330.572V331.014H169.132V330.572H168.69ZM60.8402 330.572H60.3982V331.014H60.8402V330.572ZM60.8402 239.076H168.69V238.192H60.8402V239.076ZM168.248 238.634V330.572H169.132V238.634H168.248ZM168.69 330.13H60.8402V331.014H168.69V330.13ZM61.2822 330.572V238.634H60.3982V330.572H61.2822Z" fill="white"/>
<path d="M74.9845 309.355L154.546 309.355" stroke="#A7A7A7" stroke-width="0.884018"/>
<path d="M74.9845 252.778H110.345V288.139H74.9845V252.778Z" fill="#1F75FF"/>
<path d="M74.9845 252.778V252.336H74.5425V252.778H74.9845ZM110.345 252.778H110.787V252.336H110.345V252.778ZM110.345 288.139V288.581H110.787V288.139H110.345ZM74.9845 288.139H74.5425V288.581H74.9845V288.139ZM74.9845 253.22H110.345V252.336H74.9845V253.22ZM109.903 252.778V288.139H110.787V252.778H109.903ZM110.345 287.697H74.9845V288.581H110.345V287.697ZM75.4265 288.139V252.778H74.5425V288.139H75.4265Z" fill="white"/>
<circle cx="92.6648" cy="270.458" r="7.07214" fill="#E6E8EB" stroke="white" stroke-width="0.884018"/>
<path d="M74.9845 270.458H82.0566M92.6648 259.85V252.778M103.273 270.458H110.345M92.6648 281.067V288.139" stroke="white" stroke-width="0.884018"/>
<path d="M74.9845 217.417H110.345" stroke="white" stroke-width="0.884018"/>
<path d="M74.9845 351.788H110.345" stroke="white" stroke-width="0.884018"/>
<path d="M74.9845 373.004H110.345" stroke="white" stroke-width="0.884018"/>
<path d="M74.9845 196.201H110.345" stroke="white" stroke-width="0.884018"/>
<circle cx="198.747" cy="189.129" r="5.30411" fill="#00C164" stroke="white" stroke-width="0.884018"/>
<path d="M212.891 189.129H253.994" stroke="#A7A7A7" stroke-width="0.884018"/>
<path d="M191.675 203.273H253.994" stroke="#A7A7A7" stroke-width="0.884018"/>
<path d="M278.309 182.941L271.236 194.433H285.381L278.309 182.941Z" fill="#F5A213" stroke="white" stroke-width="0.884018" stroke-linejoin="round"/>
<path d="M292.453 189.129H333.556" stroke="#A7A7A7" stroke-width="0.884018"/>
<path d="M271.236 203.273H333.556" stroke="#A7A7A7" stroke-width="0.884018"/>
<path d="M360.25 195.317H355.49L351.682 191.509V186.749L355.49 182.941H360.25L364.058 186.749V191.509L360.25 195.317Z" fill="#F13C3C" stroke="#A7A7A7" stroke-width="0.884018" stroke-linecap="round" stroke-linejoin="round"/>
<path d="M372.014 189.129H413.118" stroke="#A7A7A7" stroke-width="0.884018"/>
<path d="M350.798 203.273H413.118" stroke="#A7A7A7" stroke-width="0.884018"/>
<path d="M435.664 247.474H456.88V268.69H435.664V247.474Z" fill="#E6E8EB"/>
<path d="M435.664 247.474V247.032H435.222V247.474H435.664ZM456.88 247.474H457.322V247.032H456.88V247.474ZM456.88 268.69V269.132H457.322V268.69H456.88ZM435.664 268.69H435.222V269.132H435.664V268.69ZM435.664 247.916H456.88V247.032H435.664V247.916ZM456.438 247.474V268.69H457.322V247.474H456.438ZM456.88 268.248H435.664V269.132H456.88V268.248ZM436.106 268.69V247.474H435.222V268.69H436.106Z" fill="white"/>
<path d="M440.084 258.082L444.504 262.502L453.344 253.662" stroke="#A7A7A7" stroke-width="0.884018" stroke-linejoin="round"/>
<path d="M456.88 247.474H497.746V268.69H456.88V247.474Z" fill="#E6E8EB"/>
<path d="M456.88 247.474V247.032H456.438V247.474H456.88ZM497.746 247.474H498.188V247.032H497.746V247.474ZM497.746 268.69V269.132H498.188V268.69H497.746ZM456.88 268.69H456.438V269.132H456.88V268.69ZM456.88 247.916H497.746V247.032H456.88V247.916ZM497.304 247.474V268.69H498.188V247.474H497.304ZM497.746 268.248H456.88V269.132H497.746V268.248ZM457.322 268.69V247.474H456.438V268.69H457.322Z" fill="white"/>
<path d="M464.836 258.082H489.79" stroke="#A7A7A7" stroke-width="0.884018"/>
<path d="M435.664 272.226H456.88V282.835H435.664V272.226Z" fill="#788191" fill-opacity="0.15"/>
<path d="M435.664 272.226V271.784H435.222V272.226H435.664ZM456.88 272.226H457.322V271.784H456.88V272.226ZM456.88 282.835V283.277H457.322V282.835H456.88ZM435.664 282.835H435.222V283.277H435.664V282.835ZM435.664 272.668H456.88V271.784H435.664V272.668ZM456.438 272.226V282.835H457.322V272.226H456.438ZM456.88 282.393H435.664V283.277H456.88V282.393ZM436.106 282.835V272.226H435.222V282.835H436.106Z" fill="white"/>
<path d="M442.736 277.226H449.592" stroke="#A7A7A7" stroke-width="0.884018"/>
<path d="M435.664 286.371H456.88V296.979H435.664V286.371Z" fill="#788191" fill-opacity="0.15"/>
<path d="M435.664 286.371V285.929H435.222V286.371H435.664ZM456.88 286.371H457.322V285.929H456.88V286.371ZM456.88 296.979V297.421H457.322V296.979H456.88ZM435.664 296.979H435.222V297.421H435.664V296.979ZM435.664 286.813H456.88V285.929H435.664V286.813ZM456.438 286.371V296.979H457.322V286.371H456.438ZM456.88 296.537H435.664V297.421H456.88V296.537ZM436.106 296.979V286.371H435.222V296.979H436.106Z" fill="white"/>
<path d="M442.736 291.371H449.592" stroke="#A7A7A7" stroke-width="0.884018"/>
<path d="M435.664 300.515H456.88V311.123H435.664V300.515Z" fill="#788191" fill-opacity="0.15"/>
<path d="M435.664 300.515V300.073H435.222V300.515H435.664ZM456.88 300.515H457.322V300.073H456.88V300.515ZM456.88 311.123V311.565H457.322V311.123H456.88ZM435.664 311.123H435.222V311.565H435.664V311.123ZM435.664 300.957H456.88V300.073H435.664V300.957ZM456.438 300.515V311.123H457.322V300.515H456.438ZM456.88 310.681H435.664V311.565H456.88V310.681ZM436.106 311.123V300.515H435.222V311.123H436.106Z" fill="white"/>
<path d="M442.736 305.515H449.592" stroke="#A7A7A7" stroke-width="0.884018"/>
<path d="M456.88 272.226H497.545V282.835H456.88V272.226Z" fill="#788191" fill-opacity="0.15"/>
<path d="M456.88 272.226V271.784H456.438V272.226H456.88ZM497.545 272.226H497.987V271.784H497.545V272.226ZM497.545 282.835V283.277H497.987V282.835H497.545ZM456.88 282.835H456.438V283.277H456.88V282.835ZM456.88 272.668H497.545V271.784H456.88V272.668ZM497.103 272.226V282.835H497.987V272.226H497.103ZM497.545 282.393H456.88V283.277H497.545V282.393ZM457.322 282.835V272.226H456.438V282.835H457.322Z" fill="white"/>
<path d="M463.952 277.226H490.808" stroke="#A7A7A7" stroke-width="0.884018"/>
<path d="M456.88 286.371H497.545V296.979H456.88V286.371Z" fill="#788191" fill-opacity="0.15"/>
<path d="M456.88 286.371V285.929H456.438V286.371H456.88ZM497.545 286.371H497.987V285.929H497.545V286.371ZM497.545 296.979V297.421H497.987V296.979H497.545ZM456.88 296.979H456.438V297.421H456.88V296.979ZM456.88 286.813H497.545V285.929H456.88V286.813ZM497.103 286.371V296.979H497.987V286.371H497.103ZM497.545 296.537H456.88V297.421H497.545V296.537ZM457.322 296.979V286.371H456.438V296.979H457.322Z" fill="white"/>
<path d="M463.952 291.371H490.808" stroke="#A7A7A7" stroke-width="0.884018"/>
<path d="M456.88 300.515H497.545V311.123H456.88V300.515Z" fill="#788191" fill-opacity="0.15"/>
<path d="M456.88 300.515V300.073H456.438V300.515H456.88ZM497.545 300.515H497.987V300.073H497.545V300.515ZM497.545 311.123V311.565H497.987V311.123H497.545ZM456.88 311.123H456.438V311.565H456.88V311.123ZM456.88 300.957H497.545V300.073H456.88V300.957ZM497.103 300.515V311.123H497.987V300.515H497.103ZM497.545 310.681H456.88V311.565H497.545V310.681ZM457.322 311.123V300.515H456.438V311.123H457.322Z" fill="white"/>
<path d="M463.952 305.515H490.808" stroke="#A7A7A7" stroke-width="0.884018"/>
</g>
<path d="M149.421 461.356C149.407 461.378 149.394 461.397 149.384 461.421C149.395 461.402 149.405 461.384 149.416 461.366C149.418 461.363 149.419 461.359 149.421 461.356Z" fill="white"/>
<path fill-rule="evenodd" clip-rule="evenodd" d="M168.703 436.614C169.065 436.043 169.364 435.472 169.224 434.769C169.215 434.728 169.206 434.686 169.196 434.646C169.187 434.611 169.178 434.577 169.167 434.545C168.91 433.809 168.175 433.314 167.376 433.36C166.983 433.383 166.584 433.534 166.205 433.678C166.094 433.72 165.984 433.761 165.877 433.799C165.579 433.903 165.283 434.004 164.988 434.104C164.692 434.205 164.396 434.306 164.098 434.41C162.411 434.978 160.708 435.499 158.991 435.982C158.303 436.167 157.612 436.329 156.921 436.49C156.163 436.668 155.405 436.846 154.652 437.053C153.833 437.274 153.022 437.526 152.209 437.778C151.561 437.978 150.913 438.179 150.259 438.366C150.013 438.42 149.78 438.48 149.547 438.54C149.105 438.65 148.655 438.737 148.205 438.825C147.812 438.902 147.419 438.979 147.031 439.07C146.129 439.279 145.225 439.51 144.32 439.741C142.543 440.203 140.753 440.627 138.952 440.992C137.962 441.189 136.975 441.396 135.978 441.575C135.815 441.604 135.648 441.627 135.481 441.649C135.208 441.686 134.935 441.723 134.675 441.787C134.013 441.955 133.482 442.405 133.264 443.053C133.049 443.711 133.267 444.334 133.484 444.957C133.639 445.401 133.798 445.854 133.934 446.304C134.004 446.566 134.052 446.824 134.094 447.096C134.15 447.575 134.19 448.054 134.23 448.532C134.292 449.282 134.354 450.029 134.479 450.775C134.657 451.86 134.962 452.901 135.268 453.948C135.318 454.119 135.368 454.29 135.417 454.462C135.752 455.607 136.142 456.734 136.532 457.861C136.904 458.936 137.275 460.011 137.6 461.103C137.84 462.035 138.044 462.977 138.249 463.918C138.398 464.606 138.547 465.295 138.711 465.98C138.972 467.085 139.296 468.173 139.619 469.263C139.791 469.842 139.964 470.421 140.127 471.004C140.225 471.377 140.323 471.751 140.419 472.124C140.511 472.479 140.601 472.835 140.69 473.191C140.847 473.824 141.008 474.467 141.106 475.111C141.113 475.164 141.12 475.219 141.126 475.274C141.143 475.417 141.16 475.564 141.188 475.707C141.21 475.978 141.231 476.246 141.252 476.514C141.286 476.959 141.32 477.401 141.364 477.849C141.398 478.218 141.437 478.575 141.481 478.941L141.486 478.991C141.557 479.608 141.631 480.262 142.066 480.739C142.863 481.626 144.303 481.472 144.941 480.476C145.169 480.1 145.277 479.712 145.341 479.288C145.341 479.319 145.329 479.345 145.33 479.376C145.341 479.319 145.35 479.253 145.362 479.196C145.461 478.843 145.595 478.5 145.733 478.166C145.917 477.719 146.117 477.277 146.318 476.834C146.675 476.048 147.032 475.258 147.302 474.44C147.488 473.871 147.659 473.297 147.829 472.724C148.07 471.91 148.312 471.097 148.599 470.3C149.269 468.763 150.032 467.278 150.846 465.818C150.868 465.789 150.877 465.754 150.899 465.726L150.908 465.722C151.205 465.237 151.492 464.756 151.792 464.28L151.91 464.092C152.184 463.654 152.459 463.217 152.665 462.746C152.79 462.573 152.884 462.377 152.942 462.17C153.152 462.439 153.434 462.639 153.747 462.75C154.224 462.954 154.714 463.129 155.202 463.302C155.465 463.396 155.728 463.489 155.988 463.587C156.098 463.632 156.21 463.677 156.322 463.721L156.33 463.724C156.442 463.769 156.555 463.813 156.666 463.859C157.763 464.302 158.846 464.792 159.919 465.286L160.185 465.405L160.187 465.406C161.03 465.784 161.886 466.167 162.705 466.59C162.891 466.79 163.108 466.957 163.373 467.109C164.017 467.466 164.935 467.304 165.462 466.813C165.846 466.456 166.16 466.05 166.47 465.635C166.522 465.566 166.575 465.498 166.627 465.43C166.748 465.273 166.868 465.117 166.986 464.958C167.029 464.9 167.072 464.841 167.115 464.781C167.17 464.704 167.224 464.626 167.277 464.548C167.785 463.788 168.27 463.025 168.695 462.209C169.101 461.432 169.495 460.648 169.914 459.877C169.974 459.773 170.034 459.668 170.094 459.563C170.265 459.266 170.437 458.968 170.618 458.677C170.637 458.646 170.656 458.614 170.676 458.583C170.723 458.51 170.772 458.437 170.821 458.365C170.918 458.222 171.015 458.079 171.097 457.927C171.378 457.427 171.54 456.83 171.342 456.295C171.309 456.2 171.27 456.119 171.218 456.031C171.089 455.812 170.957 455.646 170.793 455.512C170.564 455.158 170.215 454.888 169.83 454.726C169.633 454.64 169.435 454.556 169.238 454.473C169.133 454.429 169.028 454.385 168.923 454.341C168.7 454.246 168.478 454.149 168.258 454.046C167.341 453.604 166.433 453.159 165.504 452.742C165.013 452.526 164.523 452.309 164.033 452.095C163.572 451.892 163.112 451.691 162.652 451.493L162.493 451.425L162.267 451.329C161.756 451.113 161.246 450.897 160.751 450.657C161.05 450.45 161.282 450.154 161.378 449.787C161.42 449.635 161.462 449.482 161.517 449.336C161.603 449.126 161.704 448.932 161.806 448.738C161.982 448.441 162.172 448.15 162.362 447.86C162.488 447.667 162.615 447.474 162.737 447.279C163.019 446.836 163.288 446.378 163.557 445.921C163.628 445.801 163.698 445.682 163.769 445.562C164.235 444.766 164.637 443.942 165.038 443.119C165.248 442.689 165.457 442.26 165.676 441.835C165.656 441.869 165.638 441.901 165.62 441.934C165.602 441.967 165.585 441.999 165.565 442.032C165.618 441.932 165.671 441.832 165.725 441.733C165.735 441.715 165.745 441.696 165.755 441.678C165.782 441.63 165.809 441.582 165.836 441.535C165.826 441.552 165.815 441.57 165.805 441.587L165.919 441.379C166.082 441.099 166.252 440.825 166.423 440.55C166.64 440.199 166.858 439.849 167.059 439.487C167.389 438.885 167.725 438.27 168.06 437.654C168.128 437.544 168.195 437.434 168.262 437.325C168.408 437.086 168.553 436.848 168.703 436.614ZM157.945 449.133C157.954 448.981 157.982 448.827 158.023 448.672C158.266 447.76 158.744 446.947 159.255 446.165C159.861 445.233 160.429 444.282 160.985 443.325C161.252 442.831 161.495 442.325 161.738 441.818C161.998 441.278 162.257 440.737 162.547 440.208C162.538 440.225 162.529 440.241 162.519 440.258C162.558 440.185 162.598 440.115 162.637 440.045C162.676 439.977 162.715 439.908 162.753 439.837L162.741 439.862C162.956 439.475 163.186 439.098 163.416 438.722C163.505 438.576 163.595 438.43 163.683 438.283L162.757 438.575C161.438 438.983 160.122 439.369 158.785 439.698C158.358 439.803 157.93 439.905 157.502 440.007C156.785 440.176 156.069 440.346 155.36 440.535C154.808 440.696 154.259 440.864 153.712 441.032C152.609 441.37 151.51 441.707 150.39 441.985C149.866 442.118 149.329 442.227 148.794 442.335C148.534 442.388 148.274 442.441 148.016 442.496C147.215 442.66 146.418 442.864 145.62 443.069C143.922 443.514 142.214 443.93 140.486 444.29L140.458 444.296C139.629 444.471 138.799 444.645 137.967 444.811C137.842 444.833 137.718 444.858 137.595 444.882C137.471 444.907 137.347 444.932 137.222 444.954C137.292 445.184 137.362 445.414 137.422 445.647C137.653 446.533 137.718 447.457 137.783 448.378C137.814 448.82 137.845 449.262 137.895 449.698C137.945 450.022 137.999 450.348 138.059 450.671C138.111 450.949 138.166 451.226 138.227 451.499C138.581 452.752 138.937 454.016 139.35 455.259C139.575 455.932 139.813 456.612 140.047 457.282L140.624 458.934C141.054 460.225 141.338 461.555 141.623 462.886C141.907 464.153 142.181 465.424 142.516 466.684C143.107 468.649 143.692 470.627 144.176 472.619C144.282 472.317 144.367 472.012 144.46 471.704C144.519 471.503 144.575 471.301 144.632 471.098C144.841 470.35 145.051 469.598 145.362 468.889C146.097 467.17 146.958 465.513 147.884 463.887C147.877 463.889 147.873 463.896 147.87 463.9C148.143 463.42 148.44 462.946 148.737 462.471C148.936 462.154 149.135 461.836 149.328 461.515C149.326 461.517 149.325 461.518 149.323 461.52C149.336 461.494 149.348 461.469 149.364 461.453C149.371 461.442 149.377 461.431 149.384 461.421C149.38 461.43 149.376 461.439 149.373 461.45C149.384 461.428 149.395 461.407 149.405 461.386C149.409 461.38 149.413 461.373 149.416 461.366C149.423 461.355 149.43 461.343 149.438 461.331L149.428 461.345C149.426 461.349 149.423 461.352 149.421 461.356C149.436 461.328 149.449 461.3 149.459 461.271C149.659 460.693 150.045 460.251 150.659 460.036C151.383 459.784 152.184 460.044 152.641 460.625C152.792 460.084 153.194 459.617 153.759 459.419C154.274 459.239 154.72 459.336 155.201 459.523C155.159 459.506 155.118 459.488 155.074 459.471C155.381 459.588 155.69 459.701 155.999 459.814C156.471 459.987 156.944 460.161 157.409 460.347C158.904 460.958 160.394 461.614 161.868 462.285C162.536 462.592 163.196 462.902 163.855 463.212L164.18 462.78C164.315 462.576 164.45 462.375 164.584 462.176L164.708 461.991C164.767 461.903 164.825 461.816 164.883 461.729C164.977 461.589 165.065 461.44 165.151 461.291C165.25 461.117 165.345 460.942 165.439 460.773C165.534 460.589 165.628 460.405 165.722 460.221L165.725 460.216C166.101 459.483 166.477 458.749 166.886 458.032L167.219 457.439L166.808 457.265C166.353 457.053 165.895 456.832 165.449 456.617C164.446 456.141 163.436 455.678 162.424 455.237C161.45 454.815 160.477 454.392 159.5 453.96C159.121 453.786 158.742 453.611 158.388 453.385C158.021 453.153 157.785 452.843 157.593 452.476C157.565 452.454 157.549 452.439 157.52 452.417C156.682 451.989 156.341 450.922 156.746 450.081C156.99 449.586 157.441 449.252 157.945 449.133Z" fill="white"/>
<path d="M203.461 474.847C203.564 474.648 203.667 474.449 203.77 474.25C203.907 473.982 204.043 473.714 204.176 473.445C204.508 472.789 204.689 472.154 204.432 471.417C204.254 470.907 203.788 470.392 203.279 470.178C202.932 470.035 202.589 469.932 202.206 469.928C202.07 469.933 201.934 469.938 201.808 469.94C201.537 469.82 201.268 469.698 200.998 469.576C200.6 469.396 200.203 469.213 199.806 469.031C199.027 468.673 198.248 468.316 197.466 467.972C196.372 467.491 195.277 467.021 194.181 466.551C193.771 466.375 193.36 466.199 192.95 466.022C190.143 464.81 187.389 463.506 184.714 462.036L184.43 461.875L184.429 461.874C183.574 461.39 182.72 460.906 181.821 460.515C181.49 460.372 181.152 460.237 180.814 460.101C180.196 459.854 179.577 459.606 178.995 459.31C178.647 459.103 178.309 458.892 177.952 458.689C177.885 458.649 177.818 458.609 177.751 458.568C177.524 458.43 177.297 458.292 177.059 458.196C176.302 457.878 175.355 457.594 174.564 457.998C173.999 458.283 173.662 458.858 173.346 459.396L173.267 459.531L173.226 459.603C172.938 460.108 172.656 460.601 172.389 461.109C172.105 461.625 171.831 462.147 171.557 462.668L171.379 463.007C171.217 463.313 171.056 463.618 170.892 463.92C170.608 464.419 170.317 464.914 170.025 465.41L170.017 465.424C169.632 466.08 169.246 466.736 168.877 467.399C168.535 468.027 168.393 468.744 168.732 469.41C168.995 469.921 169.497 470.297 170.065 470.406C170.325 470.453 170.565 470.443 170.796 470.405C172.427 471.498 174.103 472.533 175.83 473.476C176.803 474.016 177.778 474.533 178.775 475.021C178.906 475.085 179.037 475.148 179.169 475.21L179.398 475.32L179.399 475.32C180.163 475.685 180.929 476.05 181.67 476.457C183.09 477.338 184.525 478.171 185.976 478.988C186.131 479.076 186.288 479.163 186.446 479.25L186.464 479.26C186.946 479.526 187.433 479.795 187.883 480.112C188.079 480.27 188.271 480.432 188.461 480.597C188.551 480.674 188.639 480.751 188.728 480.828C189.179 481.22 189.63 481.612 190.117 481.958C190.858 482.484 191.664 482.861 192.473 483.24C192.603 483.301 192.734 483.363 192.865 483.424C193.731 483.842 194.798 483.469 195.225 482.6C195.642 481.734 195.266 480.657 194.4 480.24C194.233 480.159 194.064 480.079 193.895 479.999C193.471 479.797 193.043 479.594 192.626 479.376C192.578 479.343 192.53 479.31 192.483 479.279C192.444 479.253 192.405 479.227 192.366 479.202L192.308 479.163C192.235 479.115 192.161 479.066 192.087 479.014C191.648 478.669 191.222 478.299 190.787 477.932C190.689 477.851 190.593 477.766 190.497 477.681C190.285 477.492 190.072 477.303 189.837 477.152C189.026 476.626 188.178 476.156 187.332 475.687L186.953 475.477L186.793 475.387C186.027 474.957 185.268 474.517 184.529 474.059C183.719 473.559 182.908 473.058 182.046 472.65C180.374 471.867 178.736 471.031 177.127 470.152C175.972 469.486 174.837 468.813 173.726 468.089C173.451 467.909 173.167 467.733 172.889 467.544C173.287 466.865 173.686 466.186 174.058 465.494C174.38 464.9 174.696 464.301 175.014 463.7L175.022 463.683C175.338 463.085 175.654 462.486 175.977 461.889L176.097 461.688C176.317 461.814 176.533 461.945 176.752 462.077L176.763 462.084C176.884 462.157 177.005 462.23 177.128 462.303C177.563 462.561 178.042 462.755 178.513 462.946L178.704 463.023C179.833 463.497 180.928 463.994 182.005 464.561C183.657 465.498 185.324 466.388 187.034 467.221C188.616 467.998 190.224 468.693 191.837 469.39L191.839 469.391L191.843 469.393L192.2 469.547C193.957 470.3 195.714 471.052 197.448 471.834L197.713 471.956L198.061 472.119C198.667 472.4 199.275 472.683 199.884 472.953C200.037 473.027 200.199 473.097 200.349 473.162C200.196 473.446 200.044 473.73 199.896 474.016C199.813 474.175 199.73 474.336 199.65 474.497C199.376 475.023 199.139 475.57 198.902 476.116C198.842 476.254 198.782 476.392 198.722 476.53C198.639 476.718 198.556 476.906 198.47 477.091C197.617 478.957 196.755 480.826 195.776 482.63C195.288 483.446 195.483 484.522 196.304 485.051C197.111 485.574 198.228 485.343 198.75 484.535C198.757 484.522 198.766 484.519 198.772 484.506C198.906 484.343 199.011 484.158 199.081 483.964C199.548 483.129 199.964 482.246 200.375 481.372L200.377 481.369L200.53 481.044L200.639 480.814C200.825 480.428 201.005 480.04 201.181 479.652C201.34 479.304 201.496 478.956 201.652 478.608C201.781 478.318 201.911 478.028 202.042 477.739C202.134 477.537 202.226 477.336 202.319 477.134C202.672 476.371 203.059 475.625 203.445 474.88L203.461 474.847Z" fill="white"/>
<path fill-rule="evenodd" clip-rule="evenodd" d="M225.704 486.007C225.453 486.443 225.187 486.872 224.92 487.302C224.683 487.684 224.446 488.066 224.218 488.454C224.011 488.859 223.812 489.268 223.614 489.677L223.613 489.679C223.304 490.315 222.996 490.949 222.656 491.564C222.043 492.689 221.417 493.808 220.788 494.918C220.594 495.271 220.39 495.629 220.212 495.998C220.156 496.114 220.097 496.229 220.037 496.344C219.99 496.434 219.942 496.523 219.893 496.613L219.822 496.743L219.821 496.745L219.818 496.75C219.581 497.161 219.119 497.418 218.672 497.532C217.764 497.754 216.814 497.185 216.51 496.317C216.434 496.1 216.406 495.866 216.415 495.651C216.168 495.642 215.915 495.582 215.676 495.475C214.979 495.362 214.289 495.196 213.602 495.031L213.338 494.968C212.348 494.742 211.382 494.465 210.416 494.124C209.475 493.796 208.58 493.357 207.713 492.876C206.681 492.309 205.752 491.624 204.812 490.932L204.765 490.897C204.209 490.488 203.706 490.017 203.228 489.528L203.226 489.527C203.17 489.516 203.113 489.504 203.063 489.48C202.357 489.249 201.835 488.574 201.809 487.831C201.785 487.309 201.985 486.88 202.209 486.43C202.387 486.061 202.547 485.698 202.702 485.326C202.823 484.979 202.94 484.623 203.049 484.269C203.045 484.28 203.042 484.291 203.04 484.302L203.031 484.339C203.267 483.441 203.539 482.581 203.929 481.741C204.339 480.824 204.788 479.926 205.237 479.028C205.287 478.926 205.337 478.824 205.386 478.722L205.502 478.483L205.656 478.164L205.658 478.159C205.765 477.936 205.873 477.712 205.982 477.489C206.106 477.235 206.232 476.981 206.361 476.728C206.734 476.005 207.138 475.281 207.998 475.107C208.434 475.019 208.824 475.105 209.206 475.289C209.238 475.305 209.268 475.321 209.297 475.337L209.299 475.338C209.328 475.354 209.357 475.37 209.388 475.385L209.374 475.376C209.343 475.354 209.317 475.337 209.282 475.324L209.279 475.317C210.065 475.625 210.826 475.984 211.584 476.365C212.202 476.679 212.795 477.043 213.389 477.408C213.67 477.575 213.935 477.789 214.204 477.982C214.721 478.341 215.239 478.7 215.784 479.018C216.72 479.516 217.699 479.923 218.67 480.328L218.673 480.329L219.088 480.503L219.028 480.48L219.177 480.54L219.164 480.533C219.184 480.541 219.203 480.55 219.222 480.558C220.591 481.108 221.959 481.658 223.319 482.211L223.539 482.298C224.081 482.511 224.634 482.729 225.081 483.1C225.438 483.304 225.732 483.54 225.931 483.926C225.966 483.999 226.002 484.071 226.029 484.146C226.231 484.785 226.041 485.424 225.704 486.007Z" fill="white"/>
<path fill-rule="evenodd" clip-rule="evenodd" d="M238.189 493.636C238.034 493.958 237.807 494.246 237.582 494.531C237.523 494.607 237.463 494.682 237.405 494.758C237.126 495.141 236.822 495.512 236.53 495.89C235.514 497.198 234.489 498.509 233.493 499.843C233.332 500.081 233.17 500.32 233.007 500.56C232.78 500.892 232.553 501.226 232.326 501.564C232.149 501.816 232.001 502.09 231.841 502.358C231.78 502.46 231.721 502.566 231.662 502.671C231.48 502.996 231.294 503.327 231.043 503.591C230.6 504.052 230.003 504.314 229.353 504.181C228.944 504.102 228.618 503.898 228.38 503.61C228.225 503.622 228.073 503.611 227.915 503.582C226.763 503.331 225.752 502.709 224.756 502.095L224.73 502.08C224.605 502.002 224.479 501.925 224.354 501.849C224.071 501.676 223.795 501.487 223.516 501.297C223.437 501.243 223.358 501.188 223.278 501.134C222.623 500.685 221.977 500.169 221.807 499.35C221.612 498.405 222.169 497.777 222.721 497.155C222.775 497.094 222.829 497.033 222.883 496.972C222.924 496.576 223.02 496.182 223.151 495.798C223.366 495.171 223.651 494.563 223.982 493.992C224.307 493.432 224.697 492.914 225.086 492.397L225.246 492.184C225.655 491.628 226.046 491.047 226.398 490.447C226.595 490.071 226.782 489.698 226.944 489.313C227.019 489.11 227.085 488.91 227.15 488.71L227.152 488.706L227.154 488.7C227.121 488.182 227.363 487.631 227.741 487.288C228.337 486.751 229.181 486.71 229.869 487.073C230.254 487.279 230.625 487.503 230.998 487.729C231.079 487.778 231.16 487.827 231.241 487.876C232.28 488.487 233.32 489.099 234.375 489.694C235.105 490.085 235.832 490.467 236.592 490.794C236.91 490.916 237.21 491.045 237.462 491.221C237.491 491.236 237.519 491.252 237.547 491.269C237.587 491.293 237.626 491.319 237.665 491.346L237.692 491.367C237.717 491.386 237.742 491.405 237.766 491.426C237.823 491.474 237.877 491.528 237.929 491.588C238.096 491.762 238.21 491.966 238.285 492.183C238.45 492.655 238.41 493.178 238.189 493.636Z" fill="white"/>
<path d="M283.294 499.567C283.006 499.567 282.772 499.468 282.592 499.27C282.412 499.072 282.322 498.721 282.322 498.217C282.322 497.839 282.439 497.227 282.673 496.381C282.925 495.517 283.258 494.509 283.672 493.357C284.104 492.205 284.581 490.99 285.103 489.712C285.643 488.416 286.201 487.129 286.777 485.851C287.353 484.573 287.92 483.394 288.478 482.314C289.036 481.216 289.549 480.289 290.017 479.533C290.485 478.777 290.881 478.282 291.205 478.048C291.583 477.778 291.934 477.643 292.258 477.643C292.438 477.643 292.618 477.661 292.798 477.697C292.978 477.733 293.131 477.796 293.257 477.886C293.581 478.084 293.86 478.525 294.094 479.209C294.346 479.875 294.562 480.694 294.742 481.666C294.922 482.62 295.066 483.646 295.174 484.744C295.3 485.824 295.408 486.895 295.498 487.957C296.038 487.885 296.488 487.831 296.848 487.795C297.208 487.759 297.469 487.741 297.631 487.741C298.243 487.741 298.63 487.822 298.792 487.984C298.954 488.146 299.044 488.335 299.062 488.551C299.098 488.875 299.008 489.163 298.792 489.415C298.576 489.667 298.27 489.856 297.874 489.982C297.748 490.018 297.478 490.081 297.064 490.171C296.668 490.243 296.191 490.333 295.633 490.441C295.651 490.981 295.66 491.485 295.66 491.953C295.678 492.403 295.687 492.79 295.687 493.114C295.687 494.752 295.588 495.985 295.39 496.813C295.192 497.623 294.949 498.172 294.661 498.46C294.373 498.748 294.094 498.892 293.824 498.892C293.5 498.892 293.275 498.802 293.149 498.622C293.023 498.424 292.96 498.145 292.96 497.785V495.868C292.96 495.202 292.951 494.446 292.933 493.6C292.933 492.736 292.924 491.827 292.906 490.873C291.844 491.053 290.764 491.224 289.666 491.386C288.586 491.548 287.65 491.692 286.858 491.818C286.462 492.844 286.12 493.771 285.832 494.599C285.544 495.409 285.346 496.03 285.238 496.462C284.968 497.362 284.725 498.037 284.509 498.487C284.293 498.919 284.086 499.207 283.888 499.351C283.708 499.495 283.51 499.567 283.294 499.567ZM287.776 489.415C288.712 489.199 289.603 489.001 290.449 488.821C291.313 488.641 292.105 488.488 292.825 488.362C292.771 486.742 292.672 485.194 292.528 483.718C292.402 482.224 292.213 481.045 291.961 480.181C291.619 480.775 291.214 481.567 290.746 482.557C290.278 483.547 289.783 484.645 289.261 485.851C288.757 487.039 288.262 488.227 287.776 489.415ZM311.63 499.648C311.324 499.648 311.063 499.513 310.847 499.243C310.631 498.973 310.523 498.577 310.523 498.055C310.523 497.443 310.613 496.57 310.793 495.436C310.991 494.302 311.279 492.799 311.657 490.927C311.171 492.079 310.631 493.168 310.037 494.194C309.461 495.22 308.849 496.057 308.201 496.705C307.553 497.353 306.887 497.677 306.203 497.677C305.537 497.677 304.943 497.416 304.421 496.894C303.917 496.372 303.665 495.454 303.665 494.14C303.665 493.402 303.728 492.574 303.854 491.656C303.98 490.72 304.142 489.793 304.34 488.875C304.538 487.957 304.736 487.138 304.934 486.418C305.132 485.68 305.312 485.14 305.474 484.798C305.6 484.51 305.726 484.321 305.852 484.231C305.978 484.123 306.149 484.069 306.365 484.069C306.617 484.069 306.887 484.177 307.175 484.393C307.463 484.609 307.607 484.969 307.607 485.473C307.607 485.599 307.544 485.896 307.418 486.364C307.31 486.814 307.166 487.372 306.986 488.038C306.824 488.686 306.653 489.388 306.473 490.144C306.293 490.9 306.14 491.656 306.014 492.412C305.906 493.168 305.852 493.861 305.852 494.491C305.852 494.833 305.888 495.112 305.96 495.328C306.032 495.544 306.212 495.652 306.5 495.652C306.752 495.652 307.067 495.4 307.445 494.896C307.841 494.392 308.264 493.726 308.714 492.898C309.182 492.052 309.659 491.116 310.145 490.09C310.649 489.064 311.135 488.011 311.603 486.931C312.089 485.851 312.53 484.825 312.926 483.853C313.07 483.529 313.223 483.331 313.385 483.259C313.547 483.169 313.727 483.124 313.925 483.124C314.249 483.124 314.537 483.259 314.789 483.529C315.059 483.781 315.194 484.114 315.194 484.528C315.194 484.798 315.14 485.266 315.032 485.932C314.942 486.598 314.807 487.381 314.627 488.281C314.465 489.163 314.276 490.099 314.06 491.089C313.862 492.079 313.664 493.06 313.466 494.032C313.268 494.986 313.079 495.859 312.899 496.651C312.737 497.443 312.602 498.082 312.494 498.568C312.404 499.018 312.278 499.306 312.116 499.432C311.972 499.576 311.81 499.648 311.63 499.648ZM319.962 506.128C318.576 506.128 317.559 505.993 316.911 505.723C316.263 505.453 315.939 505.093 315.939 504.643C315.939 504.355 316.029 504.121 316.209 503.941C316.407 503.761 316.65 503.671 316.938 503.671C317.244 503.671 317.685 503.716 318.261 503.806C318.837 503.914 319.404 503.968 319.962 503.968C321.816 503.968 323.337 503.419 324.525 502.321C325.713 501.223 326.622 499.54 327.252 497.272C327.882 494.986 328.305 492.07 328.521 488.524C327.981 489.622 327.369 490.72 326.685 491.818C326.019 492.898 325.299 493.888 324.525 494.788C323.769 495.67 322.986 496.381 322.176 496.921C321.366 497.461 320.565 497.731 319.773 497.731C319.017 497.731 318.459 497.542 318.099 497.164C317.757 496.786 317.586 496.165 317.586 495.301C317.586 494.527 317.802 493.708 318.234 492.844C318.666 491.962 319.242 491.08 319.962 490.198C320.682 489.316 321.474 488.479 322.338 487.687C323.202 486.877 324.066 486.166 324.93 485.554C325.812 484.924 326.631 484.429 327.387 484.069C328.143 483.709 328.755 483.529 329.223 483.529C329.691 483.529 330.051 483.691 330.303 484.015C330.555 484.339 330.681 484.951 330.681 485.851C330.681 487.957 330.609 490.009 330.465 492.007C330.339 493.987 330.078 495.832 329.682 497.542C329.286 499.252 328.692 500.746 327.9 502.024C327.126 503.32 326.091 504.328 324.795 505.048C323.499 505.768 321.888 506.128 319.962 506.128ZM328.035 485.878C327.135 486.454 326.208 487.102 325.254 487.822C324.3 488.542 323.409 489.307 322.581 490.117C321.771 490.927 321.114 491.764 320.61 492.628C320.106 493.492 319.854 494.356 319.854 495.22C319.854 495.49 320.025 495.625 320.367 495.625C320.637 495.625 321.006 495.418 321.474 495.004C321.96 494.572 322.5 494.005 323.094 493.303C323.688 492.583 324.291 491.8 324.903 490.954C325.533 490.09 326.118 489.217 326.658 488.335C327.198 487.453 327.657 486.634 328.035 485.878ZM343.719 499.648C343.413 499.648 343.152 499.513 342.936 499.243C342.72 498.973 342.612 498.577 342.612 498.055C342.612 497.443 342.702 496.57 342.882 495.436C343.08 494.302 343.368 492.799 343.746 490.927C343.26 492.079 342.72 493.168 342.126 494.194C341.55 495.22 340.938 496.057 340.29 496.705C339.642 497.353 338.976 497.677 338.292 497.677C337.626 497.677 337.032 497.416 336.51 496.894C336.006 496.372 335.754 495.454 335.754 494.14C335.754 493.402 335.817 492.574 335.943 491.656C336.069 490.72 336.231 489.793 336.429 488.875C336.627 487.957 336.825 487.138 337.023 486.418C337.221 485.68 337.401 485.14 337.563 484.798C337.689 484.51 337.815 484.321 337.941 484.231C338.067 484.123 338.238 484.069 338.454 484.069C338.706 484.069 338.976 484.177 339.264 484.393C339.552 484.609 339.696 484.969 339.696 485.473C339.696 485.599 339.633 485.896 339.507 486.364C339.399 486.814 339.255 487.372 339.075 488.038C338.913 488.686 338.742 489.388 338.562 490.144C338.382 490.9 338.229 491.656 338.103 492.412C337.995 493.168 337.941 493.861 337.941 494.491C337.941 494.833 337.977 495.112 338.049 495.328C338.121 495.544 338.301 495.652 338.589 495.652C338.841 495.652 339.156 495.4 339.534 494.896C339.93 494.392 340.353 493.726 340.803 492.898C341.271 492.052 341.748 491.116 342.234 490.09C342.738 489.064 343.224 488.011 343.692 486.931C344.178 485.851 344.619 484.825 345.015 483.853C345.159 483.529 345.312 483.331 345.474 483.259C345.636 483.169 345.816 483.124 346.014 483.124C346.338 483.124 346.626 483.259 346.878 483.529C347.148 483.781 347.283 484.114 347.283 484.528C347.283 484.798 347.229 485.266 347.121 485.932C347.031 486.598 346.896 487.381 346.716 488.281C346.554 489.163 346.365 490.099 346.149 491.089C345.951 492.079 345.753 493.06 345.555 494.032C345.357 494.986 345.168 495.859 344.988 496.651C344.826 497.443 344.691 498.082 344.583 498.568C344.493 499.018 344.367 499.306 344.205 499.432C344.061 499.576 343.899 499.648 343.719 499.648ZM361.42 487.363C361.42 487.939 361.24 488.506 360.88 489.064C360.52 489.604 360.043 490.126 359.449 490.63C358.855 491.116 358.198 491.575 357.478 492.007C356.758 492.439 356.038 492.817 355.318 493.141C354.598 493.465 353.941 493.726 353.347 493.924C353.203 494.626 353.131 495.247 353.131 495.787C353.131 496.129 353.212 496.372 353.374 496.516C353.536 496.66 353.788 496.732 354.13 496.732C354.886 496.732 355.687 496.597 356.533 496.327C357.379 496.057 358.243 495.706 359.125 495.274C360.007 494.842 360.853 494.383 361.663 493.897C362.473 493.411 363.211 492.952 363.877 492.52C364.561 492.088 365.128 491.737 365.578 491.467C366.028 491.197 366.325 491.062 366.469 491.062C366.685 491.062 366.847 491.134 366.955 491.278C367.081 491.404 367.144 491.557 367.144 491.737C367.144 491.881 366.919 492.16 366.469 492.574C366.037 492.988 365.452 493.474 364.714 494.032C363.976 494.572 363.148 495.13 362.23 495.706C361.312 496.282 360.358 496.822 359.368 497.326C358.396 497.83 357.451 498.235 356.533 498.541C355.633 498.847 354.823 499 354.103 499C353.167 499 352.438 498.649 351.916 497.947C351.394 497.245 351.133 496.156 351.133 494.68C351.133 493.69 351.259 492.691 351.511 491.683C351.781 490.675 352.141 489.712 352.591 488.794C353.059 487.858 353.572 487.03 354.13 486.31C354.706 485.572 355.309 484.996 355.939 484.582C356.569 484.15 357.181 483.934 357.775 483.934C358.909 483.934 359.8 484.249 360.448 484.879C361.096 485.509 361.42 486.337 361.42 487.363ZM353.914 491.845C354.472 491.503 355.048 491.143 355.642 490.765C356.236 490.387 356.785 490 357.289 489.604C357.793 489.208 358.198 488.794 358.504 488.362C358.828 487.912 358.99 487.453 358.99 486.985C358.99 486.319 358.63 485.986 357.91 485.986C357.46 485.986 356.983 486.274 356.479 486.85C355.993 487.408 355.525 488.137 355.075 489.037C354.625 489.937 354.238 490.873 353.914 491.845ZM380.955 499.27C379.893 499.27 379.056 498.865 378.444 498.055C377.832 497.245 377.526 496.192 377.526 494.896C377.526 494.428 377.589 493.933 377.715 493.411C377.859 492.871 378.039 492.385 378.255 491.953C378.129 491.827 378.03 491.656 377.958 491.44C377.886 491.206 377.85 490.918 377.85 490.576C377.85 489.514 378.03 488.542 378.39 487.66C378.75 486.778 379.227 486.013 379.821 485.365C380.415 484.699 381.072 484.186 381.792 483.826C382.53 483.466 383.277 483.286 384.033 483.286C385.275 483.286 386.283 483.736 387.057 484.636C387.831 485.518 388.218 486.868 388.218 488.686C388.218 489.64 388.074 490.612 387.786 491.602C387.516 492.592 387.138 493.546 386.652 494.464C386.184 495.382 385.635 496.201 385.005 496.921C384.393 497.641 383.736 498.217 383.034 498.649C382.35 499.063 381.657 499.27 380.955 499.27ZM380.037 491.035C380.145 491.179 380.199 491.368 380.199 491.602C380.199 491.872 380.145 492.142 380.037 492.412C379.947 492.682 379.848 493.051 379.74 493.519C379.632 493.987 379.578 494.653 379.578 495.517C379.578 496.381 379.92 496.813 380.604 496.813C381.36 496.813 382.062 496.516 382.71 495.922C383.358 495.31 383.934 494.527 384.438 493.573C384.942 492.619 385.329 491.602 385.599 490.522C385.887 489.424 386.031 488.389 386.031 487.417C386.031 486.787 385.914 486.346 385.68 486.094C385.446 485.824 385.023 485.689 384.411 485.689C383.781 485.689 383.124 485.905 382.44 486.337C381.774 486.751 381.216 487.318 380.766 488.038C380.316 488.758 380.091 489.568 380.091 490.468C380.091 490.666 380.073 490.855 380.037 491.035ZM401.716 485.419C402.202 484.249 402.661 483.043 403.093 481.801C403.543 480.559 403.948 479.29 404.308 477.994C404.416 477.634 404.578 477.346 404.794 477.13C405.028 476.896 405.298 476.779 405.604 476.779C405.82 476.779 406 476.86 406.144 477.022C406.306 477.184 406.387 477.4 406.387 477.67C406.387 478.012 406.252 478.606 405.982 479.452C405.73 480.298 405.406 481.369 405.01 482.665C404.632 483.961 404.245 485.455 403.849 487.147C403.471 488.821 403.147 490.675 402.877 492.709C402.625 494.743 402.499 496.912 402.499 499.216C402.499 499.72 402.391 500.134 402.175 500.458C401.959 500.8 401.698 500.971 401.392 500.971C401.212 500.971 401.041 500.926 400.879 500.836C400.717 500.746 400.573 500.53 400.447 500.188C400.339 499.864 400.249 499.351 400.177 498.649C400.105 497.929 400.069 496.957 400.069 495.733C400.069 494.797 400.123 493.78 400.231 492.682C399.403 494.176 398.503 495.481 397.531 496.597C396.577 497.695 395.65 498.541 394.75 499.135C393.868 499.729 393.112 500.026 392.482 500.026C391.708 500.026 391.078 499.765 390.592 499.243C390.124 498.739 389.89 497.983 389.89 496.975C389.89 496.093 390.097 495.184 390.511 494.248C390.925 493.312 391.474 492.394 392.158 491.494C392.842 490.576 393.598 489.712 394.426 488.902C395.254 488.092 396.082 487.381 396.91 486.769C397.756 486.139 398.539 485.653 399.259 485.311C399.979 484.951 400.564 484.771 401.014 484.771C401.194 484.771 401.356 484.834 401.5 484.96C401.644 485.086 401.716 485.239 401.716 485.419ZM401.365 486.256C401.239 486.382 401.086 486.508 400.906 486.634C400.726 486.76 400.528 486.895 400.312 487.039C399.52 487.597 398.647 488.245 397.693 488.983C396.757 489.703 395.857 490.495 394.993 491.359C394.147 492.205 393.454 493.096 392.914 494.032C392.374 494.968 392.104 495.931 392.104 496.921C392.104 497.353 392.32 497.569 392.752 497.569C393.346 497.569 393.994 497.29 394.696 496.732C395.416 496.156 396.154 495.364 396.91 494.356C397.666 493.33 398.422 492.133 399.178 490.765C399.934 489.379 400.663 487.876 401.365 486.256ZM409.183 499.135C408.841 499.135 408.535 499.009 408.265 498.757C407.995 498.487 407.86 498.073 407.86 497.515C407.86 497.119 407.914 496.57 408.022 495.868C408.13 495.148 408.274 494.365 408.454 493.519C408.634 492.673 408.823 491.836 409.021 491.008C409.237 490.162 409.453 489.406 409.669 488.74C409.885 488.074 410.074 487.579 410.236 487.255C410.38 487.003 410.515 486.841 410.641 486.769C410.785 486.697 410.92 486.661 411.046 486.661C411.298 486.661 411.514 486.742 411.694 486.904C411.892 487.066 411.991 487.381 411.991 487.849C411.991 488.119 411.937 488.569 411.829 489.199C411.739 489.811 411.613 490.531 411.451 491.359C411.307 492.169 411.145 493.006 410.965 493.87C410.803 494.716 410.641 495.526 410.479 496.3C410.317 497.074 410.191 497.722 410.101 498.244C410.029 498.532 409.903 498.757 409.723 498.919C409.561 499.063 409.381 499.135 409.183 499.135ZM411.829 484.204C411.415 484.204 411.019 484.078 410.641 483.826C410.281 483.574 410.101 483.169 410.101 482.611C410.101 482.143 410.209 481.765 410.425 481.477C410.659 481.189 410.929 480.982 411.235 480.856C411.559 480.712 411.838 480.64 412.072 480.64C412.306 480.64 412.567 480.694 412.855 480.802C413.161 480.892 413.422 481.072 413.638 481.342C413.854 481.594 413.962 481.972 413.962 482.476C413.962 482.818 413.845 483.124 413.611 483.394C413.377 483.646 413.089 483.844 412.747 483.988C412.423 484.132 412.117 484.204 411.829 484.204ZM419.583 499.27C418.521 499.27 417.684 498.865 417.072 498.055C416.46 497.245 416.154 496.192 416.154 494.896C416.154 494.428 416.217 493.933 416.343 493.411C416.487 492.871 416.667 492.385 416.883 491.953C416.757 491.827 416.658 491.656 416.586 491.44C416.514 491.206 416.478 490.918 416.478 490.576C416.478 489.514 416.658 488.542 417.018 487.66C417.378 486.778 417.855 486.013 418.449 485.365C419.043 484.699 419.7 484.186 420.42 483.826C421.158 483.466 421.905 483.286 422.661 483.286C423.903 483.286 424.911 483.736 425.685 484.636C426.459 485.518 426.846 486.868 426.846 488.686C426.846 489.64 426.702 490.612 426.414 491.602C426.144 492.592 425.766 493.546 425.28 494.464C424.812 495.382 424.263 496.201 423.633 496.921C423.021 497.641 422.364 498.217 421.662 498.649C420.978 499.063 420.285 499.27 419.583 499.27ZM418.665 491.035C418.773 491.179 418.827 491.368 418.827 491.602C418.827 491.872 418.773 492.142 418.665 492.412C418.575 492.682 418.476 493.051 418.368 493.519C418.26 493.987 418.206 494.653 418.206 495.517C418.206 496.381 418.548 496.813 419.232 496.813C419.988 496.813 420.69 496.516 421.338 495.922C421.986 495.31 422.562 494.527 423.066 493.573C423.57 492.619 423.957 491.602 424.227 490.522C424.515 489.424 424.659 488.389 424.659 487.417C424.659 486.787 424.542 486.346 424.308 486.094C424.074 485.824 423.651 485.689 423.039 485.689C422.409 485.689 421.752 485.905 421.068 486.337C420.402 486.751 419.844 487.318 419.394 488.038C418.944 488.758 418.719 489.568 418.719 490.468C418.719 490.666 418.701 490.855 418.665 491.035Z" fill="white"/>
</g>
<defs>
<filter id="filter0_d_136_703" x="314.067" y="239.96" width="53.0849" height="53.0849" filterUnits="userSpaceOnUse" color-interpolation-filters="sRGB">
<feFlood flood-opacity="0" result="BackgroundImageFix"/>
<feColorMatrix in="SourceAlpha" type="matrix" values="0 0 0 0 0 0 0 0 0 0 0 0 0 0 0 0 0 0 127 0" result="hardAlpha"/>
<feOffset dx="-8" dy="8"/>
<feComposite in2="hardAlpha" operator="out"/>
<feColorMatrix type="matrix" values="0 0 0 0 0.0862745 0 0 0 0 0.0862745 0 0 0 0 0.0862745 0 0 0 0.5 0"/>
<feBlend mode="normal" in2="BackgroundImageFix" result="effect1_dropShadow_136_703"/>
<feBlend mode="normal" in="SourceGraphic" in2="effect1_dropShadow_136_703" result="shape"/>
</filter>
<radialGradient id="paint0_radial_136_703" cx="0" cy="0" r="1" gradientUnits="userSpaceOnUse" gradientTransform="translate(14 -11) rotate(64.6094) scale(632.773 642.592)">
<stop stop-color="#B5C2FB"/>
<stop offset="1" stop-color="#0C31A1"/>
</radialGradient>
<clipPath id="clip0_136_703">
<rect x="0.649414" width="569.35" height="560.651" rx="28.9992" fill="white"/>
</clipPath>
<clipPath id="clip1_136_703">
<rect width="466.761" height="256.365" fill="white" transform="translate(52 152)"/>
</clipPath>
</defs>
</svg>
