<svg width="571" height="561" viewBox="0 0 571 561" fill="none" xmlns="http://www.w3.org/2000/svg">
<g clip-path="url(#clip0_136_705)">
<rect width="570.317" height="560.651" rx="28.9992" fill="url(#paint0_radial_136_705)"/>
<g style="mix-blend-mode:overlay">
<g style="mix-blend-mode:overlay">
<path d="M164.67 841.99L159.32 832.35L85.7599 700L15.0999 560.04L1.71988 445.6L0.129883 423.3" stroke="#515459" stroke-opacity="0.4" stroke-linecap="round" stroke-linejoin="round"/>
</g>
<g style="mix-blend-mode:overlay">
<path d="M200.16 841.99L132.87 720.27L61.4099 578.56L44.6399 469.25L33.7899 370.28L29.5699 357.95L0.129883 272.03" stroke="#515459" stroke-opacity="0.4" stroke-linecap="round" stroke-linejoin="round"/>
</g>
<g style="mix-blend-mode:overlay">
<path d="M287.69 841.99L277.75 822.04L227.91 722.07L219.4 703.37L162.1 577.43L155.33 560.83L107.04 442.55L102.21 428.96L62.2499 316.5L57.3799 236.62L56.2499 163.25L58.0999 95.55L62.6799 33.02L59.3799 0.0100098" stroke="#515459" stroke-opacity="0.4" stroke-linecap="round" stroke-linejoin="round"/>
</g>
<g style="mix-blend-mode:overlay">
<path d="M316.67 841.99L309.46 824.53L280.76 755.73L277.92 748.65L277.68 747.47L268.22 724.6L264.59 713.56L251.94 678.87L240.5 648.48L239 644.41L230.55 619.38L217.34 580.19L213.53 568.92L212.59 565.96L210.07 558.65L196 518.23L190.42 500.41L185.5 478.01L185.48 474.68L174.89 440.05L172.21 430.43L166.17 405.51L158.06 372.09L156.99 364.81L154.24 351.24L154.17 348.89L154.22 347.29L153.88 345.73L153.61 344.5L152.54 341.19L151.2 336.9L150.74 333.37L150.25 330.39L148.8 324.37L147.38 316.81L146.56 312.49L145.79 308.28L143.94 298.95L141.59 289.41L138.86 279.39L136.36 267.6L133.68 254.94L130.61 240.5L127.41 213.01L123.89 182.86L122.34 164.6L119.88 135.41L119.3 128.61L118.12 106.46L118.35 102.92L118.73 101.94L117.84 88.54L116.56 77.39L115.83 46.89L116.01 45.96L116.08 41.06L115.89 31.99L115.82 29.6L115.9 20.2L115.97 6.98001L116.05 4.32001L116.09 0.240009L116.1 0.0100098" stroke="#515459" stroke-opacity="0.4" stroke-linecap="round" stroke-linejoin="round"/>
</g>
<g style="mix-blend-mode:overlay">
<path d="M166.64 841.99L132.87 720.27L105.48 604.2L98.8999 589.61L44.6399 469.25L39.0399 455.14L0.129883 357.06" stroke="#515459" stroke-opacity="0.4" stroke-linecap="round" stroke-linejoin="round"/>
</g>
<g style="mix-blend-mode:overlay">
<path d="M313.53 841.99L309.91 833.98L282.96 774.36L268.35 742.06L256.14 712.59L251.06 700.31L228.44 645.73L206.72 593.29L199.11 572.76L175.57 509.24L155.63 455.43L140.69 379.65L129.39 309.29L121.08 243.69L115.48 182.45L112.16 125.06L110.94 71.21L111.49 20.51L112.46 0.0100098" stroke="#515459" stroke-opacity="0.4" stroke-linecap="round" stroke-linejoin="round"/>
</g>
<g style="mix-blend-mode:overlay">
<path d="M229.53 841.99L178.06 748.33L169.2 730.74L105.48 604.2L85.4499 499.18L71.2499 403.64L62.2499 316.5L58.4099 303.71L26.8099 198.33L0.389893 87.47L9.2099 16.83L7.2099 0.0100098" stroke="#515459" stroke-opacity="0.4" stroke-linecap="round" stroke-linejoin="round"/>
</g>
<g style="mix-blend-mode:overlay">
<path d="M456.22 841.99L434.8 738.54L426.32 639.76L429.39 548.01L410.56 509.15L428.58 426.48L416.36 390.2L405.63 355.14L396.11 322.05L387.54 290.64L379.52 261.6L371.8 234.69L363.91 210.53L355.61 188.92L346.44 170.43L336.17 154.91L324.4 142.88L310.97 134.25L295.57 129.51L278.16 128.64L277.25 128.8" stroke="#515459" stroke-opacity="0.4" stroke-linecap="round" stroke-linejoin="round"/>
</g>
<g style="mix-blend-mode:overlay">
<path d="M207.28 841.99L178.06 748.33L147.71 636.7L124.51 535.24L71.2499 403.64L66.7799 390.83L28.2299 280.4L24.6299 268.07L0.129883 183.97" stroke="#515459" stroke-opacity="0.4" stroke-linecap="round" stroke-linejoin="round"/>
</g>
<g style="mix-blend-mode:overlay">
<path d="M133.22 236.33L178.14 152.84L229.2 76.09L284.94 6.98001L291.71 0.0100098" stroke="#515459" stroke-opacity="0.4" stroke-linecap="round" stroke-linejoin="round"/>
</g>
<g style="mix-blend-mode:overlay">
<path d="M587.51 841.99L560.61 751.46L545.55 664.62L541.56 583.82L547.05 509.06L560.87 441.26L550.71 402.77L542.55 365.6L536.16 329.26L531.29 294.4L527.77 260.56L525.26 228.34L523.63 197.34L522.47 168.13L521.62 140.37L520.63 114.56L519.33 90.43L517.23 68.4L514.15 48.3L509.61 30.48L503.43 14.83L495.17 1.68001L493.54 0.0100098" stroke="#515459" stroke-opacity="0.4" stroke-linecap="round" stroke-linejoin="round"/>
</g>
<g style="mix-blend-mode:overlay">
<path d="M251.94 678.87L255.78 585L272.01 482.84L255.61 454.62L239.98 429.8L224.76 408.22L259.22 318.99L300.3 239.75L346.44 170.43L396.43 110.11L449.04 58.54L503.43 14.83L526 0.0100098" stroke="#515459" stroke-opacity="0.4" stroke-linecap="round" stroke-linejoin="round"/>
</g>
<g style="mix-blend-mode:overlay">
<path d="M149.05 323.8L184.65 243.65L229.7 163.57L250.53 133.57L254.75 127.47L279.77 91.43L293.97 74.6L334.23 26.9L361.64 0.0100098" stroke="#515459" stroke-opacity="0.4" stroke-linecap="round" stroke-linejoin="round"/>
</g>
<g style="mix-blend-mode:overlay">
<path d="M185.52 474.57L209.6 390.63L246.04 301.87L288.7 223.6L336.17 154.91L387.07 95.55L440.43 44.6L495.17 1.68001L497.76 0.0100098" stroke="#515459" stroke-opacity="0.4" stroke-linecap="round" stroke-linejoin="round"/>
</g>
<g style="mix-blend-mode:overlay">
<path d="M118.73 101.94L167.68 31.23L184.88 22.89L185.93 21.66L204.38 0.0100098" stroke="#515459" stroke-opacity="0.4" stroke-linecap="round" stroke-linejoin="round"/>
</g>
<g style="mix-blend-mode:overlay">
<path d="M537.33 841.99L514.77 762.01L500.2 669.42L497.03 582.81L504.02 503.3L488.72 463.92L475.56 425.73L464.26 388.29L454.63 352.34L446.44 317.5L439.39 284.48L433.26 252.93L427.65 223.51L422.34 195.95L416.87 170.82L411 147.9L404.26 127.73L396.43 110.11L387.07 95.55L376.01 83.92L362.88 75.67L347.59 70.78L329.9 69.68L325.21 70.33" stroke="#515459" stroke-opacity="0.4" stroke-linecap="round" stroke-linejoin="round"/>
</g>
<g style="mix-blend-mode:overlay">
<path d="M340.85 52.21L342.53 50.27L343.45 49.55L344.34 48.21L344.97 45.38L345.41 43.84L344.92 40.37L343.99 37.77L342.43 35.16L340.31 32.45L337.55 29.71L334.23 26.9L330.28 24.1L325.76 21.24L320.59 18.48L314.83 15.72L308.37 13.19L301.29 10.76L293.45 8.75001L284.94 6.98001L275.57 5.88L219.83 75.51L219.41 76.15L169.19 152.42L168.68 153.2L131.47 222.83" stroke="#515459" stroke-opacity="0.4" stroke-linecap="round" stroke-linejoin="round"/>
</g>
<g style="mix-blend-mode:overlay">
<path d="M147.47 316.63L180.35 242.28L225.47 161.7L275.68 89.05L287.03 75.56L330.28 24.1L354.72 0.0100098" stroke="#515459" stroke-opacity="0.4" stroke-linecap="round" stroke-linejoin="round"/>
</g>
<g style="mix-blend-mode:overlay">
<path d="M402.33 841.99L386.3 764.33L377.01 658.49L351.98 619.96L329.17 582.55L308.47 547.16L289.5 513.63L272.01 482.84L297.87 390.35L331.65 307.89L371.8 234.69L416.87 170.82L465.75 115.44L517.23 68.4L570.55 28.89L619.03 0.0100098" stroke="#515459" stroke-opacity="0.4" stroke-linecap="round" stroke-linejoin="round"/>
</g>
<g style="mix-blend-mode:overlay">
<path d="M319.37 841.99L306.59 764.17L277.67 729.44L277.56 616.93L255.78 585L235.61 556.16L255.61 454.62L284.79 363.51L321.42 282.11L363.91 210.53L411 147.9L461.38 94.11L514.15 48.3L568.28 10.18L586.16 0.0100098" stroke="#515459" stroke-opacity="0.4" stroke-linecap="round" stroke-linejoin="round"/>
</g>
<g style="mix-blend-mode:overlay">
<path d="M299.55 841.99L266.41 775.11L256.36 753.01L198.49 625.81L190.83 607.19L141.42 487.03L136.06 472.2L94.6799 357.65L86.4399 279.52L81.8999 207.49L80.3599 140.79L81.5399 78.94L84.9499 21.36L83.5199 0.0100098" stroke="#515459" stroke-opacity="0.4" stroke-linecap="round" stroke-linejoin="round"/>
</g>
<g style="mix-blend-mode:overlay">
<path d="M145.79 308.28L175.4 241L220.63 159.86L270.96 86.74L279.45 76.59L325.76 21.24L347.21 0.0100098" stroke="#515459" stroke-opacity="0.4" stroke-linecap="round" stroke-linejoin="round"/>
</g>
<g style="mix-blend-mode:overlay">
<path d="M116.85 58.64L160.44 0.0100098" stroke="#515459" stroke-opacity="0.4" stroke-linecap="round" stroke-linejoin="round"/>
</g>
<g style="mix-blend-mode:overlay">
<path d="M122.68 147.72L160.53 86.18L161.79 84.49L215.81 11.85L229.62 8.69001L237.51 0.0100098" stroke="#515459" stroke-opacity="0.4" stroke-linecap="round" stroke-linejoin="round"/>
</g>
<g style="mix-blend-mode:overlay">
<path d="M291.9 841.99L266.41 775.11L233.85 680.59L227.33 659.62L206.72 593.29L193.34 544.82L184.41 512.45L177.48 491.38L168 462.59L157.81 431.63L140.69 379.65L136.32 363.94L120.02 305.52L106.25 256.11L103.2 242.54L80.3599 140.79L62.6799 33.02L66.5299 0.0100098" stroke="#515459" stroke-opacity="0.4" stroke-linecap="round" stroke-linejoin="round"/>
</g>
<g style="mix-blend-mode:overlay">
<path d="M253.36 841.99L221.69 783.96L212.2 765.05L147.71 636.7L140.73 621.29L85.4499 499.18L79.6099 484.6L33.7899 370.28L28.2299 280.4L26.8099 198.33L29.1499 123.27L34.4399 54.26L41.2799 0.0100098" stroke="#515459" stroke-opacity="0.4" stroke-linecap="round" stroke-linejoin="round"/>
</g>
<g style="mix-blend-mode:overlay">
<path d="M484.81 841.99L467.87 779.35L453.08 680.17L426.32 639.76L401.99 599.68L380.12 560.8L360.35 522.88L342.56 486.79L365.4 399.78L396.11 322.05L433.26 252.93L475.45 192.63L521.62 140.37L570.59 96.15L571.35 95.61L621.61 59.19L622.39 58.74L673.7 29.3L674.83 28.8L726.33 5.79001L727.45 0.0100098" stroke="#515459" stroke-opacity="0.4" stroke-linecap="round" stroke-linejoin="round"/>
</g>
<g style="mix-blend-mode:overlay">
<path d="M144.06 298.69L169.83 239.81L215.16 158.15L265.64 84.44L320.59 18.48L339.15 0.0100098" stroke="#515459" stroke-opacity="0.4" stroke-linecap="round" stroke-linejoin="round"/>
</g>
<g style="mix-blend-mode:overlay">
<path d="M230.57 619.21L235.61 556.16L216.65 530.3L239.98 429.8L272.03 339.48L259.22 318.99L246.04 301.87L232.15 288.79L217.31 279.61L201.26 274.96L188.15 274.81" stroke="#515459" stroke-opacity="0.4" stroke-linecap="round" stroke-linejoin="round"/>
</g>
<g style="mix-blend-mode:overlay">
<path d="M175.79 437.13L194.2 376.9L232.15 288.79L276.06 210.85L324.4 142.88L376.01 83.92L429.71 33.58L473.06 0.0100098" stroke="#515459" stroke-opacity="0.4" stroke-linecap="round" stroke-linejoin="round"/>
</g>
<g style="mix-blend-mode:overlay">
<path d="M129.66 208.75L158.53 154.05L159.88 151.99L209.63 75.8L210.33 74.92L265.48 5.19001L275.57 5.88001L281.21 0.0100098" stroke="#515459" stroke-opacity="0.4" stroke-linecap="round" stroke-linejoin="round"/>
</g>
<g style="mix-blend-mode:overlay">
<path d="M241.82 841.99L221.69 783.96L188.42 675.99L180.84 659.3L124.51 535.24L107.04 442.55L94.6799 357.65L90.4999 344.1L57.3799 236.62L29.1499 123.27L9.2099 16.83L12.1999 0.0100098" stroke="#515459" stroke-opacity="0.4" stroke-linecap="round" stroke-linejoin="round"/>
</g>
<g style="mix-blend-mode:overlay">
<path d="M118.13 88.12L149.54 41.09L167.68 31.23L169.78 28.69L193.46 0.0100098" stroke="#515459" stroke-opacity="0.4" stroke-linecap="round" stroke-linejoin="round"/>
</g>
<g style="mix-blend-mode:overlay">
<path d="M142.14 288.13L163.62 238.83L209.06 156.51L259.67 82.3L314.83 15.72L330.53 0.0100098" stroke="#515459" stroke-opacity="0.4" stroke-linecap="round" stroke-linejoin="round"/>
</g>
<g style="mix-blend-mode:overlay">
<path d="M613.67 841.99L595.04 792.06L574.01 705.91L564.13 624.69L564.38 549.56L573.21 480.43L589.54 418.13L581.65 380.04L575.74 343.37L571.58 307.63L568.88 273.39L567.49 240.19L567.07 208.56L567.49 178.11L568.35 149.32L569.54 121.86L570.59 96.15L571.38 71.94L571.42 49.58L570.55 28.89L568.28 10.18L565.97 0.0100098" stroke="#515459" stroke-opacity="0.4" stroke-linecap="round" stroke-linejoin="round"/>
</g>
<g style="mix-blend-mode:overlay">
<path d="M127.75 193.96L147.59 156.01L150.46 151.55L198.7 76.66L201.48 73.1L254.42 5.49001L265.48 5.19001L270.41 0.0100098" stroke="#515459" stroke-opacity="0.4" stroke-linecap="round" stroke-linejoin="round"/>
</g>
<g style="mix-blend-mode:overlay">
<path d="M346.97 841.99L338.01 800.51L327.08 687.43L329.17 582.55L342.56 486.79L326.41 452.28L311.63 420.21L297.87 390.35L284.79 363.51L272.03 339.48L311.06 259.47L355.61 188.92L404.26 127.73L455.97 75L509.61 30.48L554.58 0.0100098" stroke="#515459" stroke-opacity="0.4" stroke-linecap="round" stroke-linejoin="round"/>
</g>
<g style="mix-blend-mode:overlay">
<path d="M140.06 276.63L156.78 238.01L202.31 155.15L253.08 80.25L308.37 13.19L321.46 0.0100098" stroke="#515459" stroke-opacity="0.4" stroke-linecap="round" stroke-linejoin="round"/>
</g>
<g style="mix-blend-mode:overlay">
<path d="M563.7 841.99L549.92 802.87L528.93 710.34L520.02 623.71L521.52 543.12L532.24 469.57L519.61 430.64L509.03 392.95L500.26 356.03L493.08 320.58L487.29 286.17L482.58 253.46L478.77 222.08L475.45 192.63L472.44 164.81L469.27 139.17L465.75 115.44L461.38 94.11L455.97 75L449.04 58.54L440.43 44.6L429.71 33.58L416.78 25.45L401.34 20.58L383.33 19.04L348.93 51.65L329.9 69.68L294.51 110.01L280.06 126.47L278.16 128.64L243.53 176.73L241.77 179.19L240.64 180.76L239.13 182.86" stroke="#515459" stroke-opacity="0.4" stroke-linecap="round" stroke-linejoin="round"/>
</g>
<g style="mix-blend-mode:overlay">
<path d="M908.49 0.0100098L867.32 3.78001L817.32 13.13L766.57 27.89L715.74 48.37L715.59 48.44L665.22 75.22L665.05 75.33L615.98 108.57L615.9 108.62L568.42 149.27L568.35 149.32L523.63 197.34L482.58 253.46L446.44 317.5L416.36 390.2L393.74 471.12L380.12 560.8L377.01 658.49L404.63 698.32L434.8 738.54L467.87 779.35L503.64 819.87L511.14 841.99" stroke="#515459" stroke-opacity="0.4" stroke-linecap="round" stroke-linejoin="round"/>
</g>
<g style="mix-blend-mode:overlay">
<path d="M430.12 841.99L419.97 803.99L404.63 698.32L401.99 599.68L410.56 509.15L393.74 471.12L378.79 434.76L365.4 399.78L353.3 366.98L342.17 336.1L331.65 307.89L321.42 282.11L311.06 259.47L300.3 239.75L288.7 223.6L276.06 210.85L262 202.1L246.42 197.25L231.02 196.89" stroke="#515459" stroke-opacity="0.4" stroke-linecap="round" stroke-linejoin="round"/>
</g>
<g style="mix-blend-mode:overlay">
<path d="M811.28 841.99L783.34 816.01L743.57 773.78L708.15 730.97L677.07 688.26L649.72 645.53L626.05 603.41L605.52 561.61L588.05 520.76L573.21 480.43L560.87 441.26L581.65 380.04L608.26 326L639.63 278.57L674.69 238.09L710.94 205.44L712.65 203.9L752.55 176.16L793.84 154.17L835.65 137.96L877.64 126.89L919.06 120.83L959.7 119.22L998.95 121.82L1036.68 128.16L1072.45 137.93L1106.19 150.71L1137.58 166.16L1166.63 183.94L1185.2 174.8L1202.58 165.6L1218.57 156.06L1233.03 145.99L1245.89 135.22L1256.85 123.57L1265.97 110.99L1272.81 97.31L1277.55 82.59L1279.58 66.7L1279.22 49.82L1275.71 31.84L1269.5 13.08L1262.99 0.0100098" stroke="#515459" stroke-opacity="0.4" stroke-linecap="round" stroke-linejoin="round"/>
</g>
<g style="mix-blend-mode:overlay">
<path d="M166.94 403.1L178.26 367.73L217.31 279.61L262 202.1L310.97 134.25L362.88 75.67L416.78 25.45L449.76 0.0100098" stroke="#515459" stroke-opacity="0.4" stroke-linecap="round" stroke-linejoin="round"/>
</g>
<g style="mix-blend-mode:overlay">
<path d="M212.61 565.83L216.65 530.3L198.61 508.26L224.76 408.22L209.6 390.63L194.2 376.9L178.26 367.73L161.6 363.01L157.71 363.09" stroke="#515459" stroke-opacity="0.4" stroke-linecap="round" stroke-linejoin="round"/>
</g>
<g style="mix-blend-mode:overlay">
<path d="M316.18 841.99L302.1 810.65L281.32 760.46L277.69 751.68L259.38 707.48L251.54 688.54L237.9 655.61L229.7 630.01L212.19 575.29L196 518.23L190.42 500.41L186.88 488.32L184.38 478.53L174.89 440.05L172.21 430.43L166.17 405.51L158.96 371.07L158.97 368.83L157.71 363.09L154.46 350.61L153.09 346.01L152.26 342L151.2 336.9L150.65 333.5L150.61 333.31L150.25 330.39L148.79 324.38L147.14 317.33L145.62 308.68L144.5 303.16L143.94 298.95L142.06 288.31L139.98 276.81L138.07 265.64L137.82 264.2L135.5 250.66L133.73 240.28L133.37 237.88L133.22 236.33L131.47 222.83L129.66 208.75L127.75 193.96L125.75 178.5L124.55 169.21L123.98 162.72L123.93 162.07L122.3 148.33L120.13 135L119.3 128.61L118.38 106.31L118.35 102.92L116.56 77.39L115.83 46.89L115.56 29L115.9 20.2L116.09 6.80999L116.05 4.31999L116.09 0.23999" stroke="#515459" stroke-opacity="0.4" stroke-linecap="round" stroke-linejoin="round"/>
</g>
<g style="mix-blend-mode:overlay">
<path d="M315.34 841.99L302.1 810.65L287.55 773.7L280.76 755.73L277.92 748.65L268.22 724.6L263.77 712.57L251.87 680.39L246.71 667.29L230.23 623.38L212.19 575.29L201.88 544.43L194.74 523.05L185.07 494.09L182.3 485.79L166.1 437.29L154.82 383.69L151.37 367.28L145.15 332.58L139.63 301.81L135.05 270.65L130.61 240.5L130.48 239.7L126.49 214.74L121.9 185.98L119.27 169.53L117.2 156.62L112.16 125.06L110.52 108.87L101.3 17.67L100.63 0.0100098" stroke="#515459" stroke-opacity="0.4" stroke-linecap="round" stroke-linejoin="round"/>
</g>
<g style="mix-blend-mode:overlay">
<path d="M802.37 0.0100098L773.2 7.54001L721.39 26.51L670.42 51.21L669.79 51.52L669.75 51.54L619.46 82.87L618.87 83.24L569.76 121.69L569.54 121.86L522.47 168.13L478.77 222.08L439.39 284.48L405.63 355.14L378.79 434.76L360.35 522.88L351.98 619.96L355.32 725.16L386.3 764.33L419.97 803.99L454.63 841.99" stroke="#515459" stroke-opacity="0.4" stroke-linecap="round" stroke-linejoin="round"/>
</g>
<g style="mix-blend-mode:overlay">
<path d="M137.82 264.2L149.29 237.59L194.94 153.96L245.8 78.54L301.29 10.76L311.91 0.0100098" stroke="#515459" stroke-opacity="0.4" stroke-linecap="round" stroke-linejoin="round"/>
</g>
<g style="mix-blend-mode:overlay">
<path d="M117.48 73.21L130.11 53.68L149.54 41.09L150.94 39.34L182.5 0.0100098" stroke="#515459" stroke-opacity="0.4" stroke-linecap="round" stroke-linejoin="round"/>
</g>
<g style="mix-blend-mode:overlay">
<path d="M125.75 178.5L135.92 158.71L140.77 151.1L186.84 78.74L191.98 72.08L242.56 6.41001L254.42 5.49001L259.56 0.0100098" stroke="#515459" stroke-opacity="0.4" stroke-linecap="round" stroke-linejoin="round"/>
</g>
<g style="mix-blend-mode:overlay">
<path d="M215.42 0.0100098L200.81 16.78L149.3 87.35L146.03 91.83L130.46 99.57L119.04 105.94" stroke="#515459" stroke-opacity="0.4" stroke-linecap="round" stroke-linejoin="round"/>
</g>
<g style="mix-blend-mode:overlay">
<path d="M120.03 117.33L130.46 99.57L137.15 90.14L184.88 22.89L200.81 16.78L215.81 11.85L226.39 0.0100098" stroke="#515459" stroke-opacity="0.4" stroke-linecap="round" stroke-linejoin="round"/>
</g>
<g style="mix-blend-mode:overlay">
<path d="M1454.91 760.69L1445.45 744.79L1436.96 726.78L1430.01 707.89L1424.35 688.32L1419.79 668.04L1416.1 647.17L1413.08 625.67L1410.5 603.65L1408.18 581.04L1405.92 557.95L1403.49 534.3L1400.72 510.19L1397.38 485.56L1393.31 460.52L1388.27 435.01L1382.12 409.19L1374.58 383.03L1365.55 356.7L1354.76 330.21L1342.13 303.8L1327.38 277.52L1310.5 251.62L1291.21 226.27L1269.56 201.73L1245.33 178.22L1218.57 156.06L1189.21 135.53L1157.33 116.95L1122.94 100.69L1086.15 87.08L1047.16 76.51L1006.08 69.37L963.28 66.02L918.92 66.93L873.52 72.41L827.33 82.99L781.04 98.89L735.01 120.75L734.1 121.32L690.08 148.66L688.93 149.58L646.79 183.32L645.69 184.43L606.13 224.65L604.91 226.25L568.88 273.39L536.16 329.26L509.03 392.95L488.72 463.92L476.63 542.68L474.03 628.39L482.61 721.2L503.64 819.87L524.89 841.99" stroke="#515459" stroke-opacity="0.4" stroke-linecap="round" stroke-linejoin="round"/>
</g>
<g style="mix-blend-mode:overlay">
<path d="M272.16 841.99L264.1 827.1L227.91 722.07L198.49 625.81L174.59 537.2L155.63 455.43L150.15 438.47L114.17 327.14L110.54 313.7L81.8999 207.49L79.3099 195.32L58.0999 95.55L43.8299 0.0100098" stroke="#515459" stroke-opacity="0.4" stroke-linecap="round" stroke-linejoin="round"/>
</g>
<g style="mix-blend-mode:overlay">
<path d="M117.04 62.99L130.11 53.68L135.33 46.91L171.49 0.0100098" stroke="#515459" stroke-opacity="0.4" stroke-linecap="round" stroke-linejoin="round"/>
</g>
<g style="mix-blend-mode:overlay">
<path d="M735.36 841.99L723.68 831.01L684.83 790.13L649.8 749.01L618.04 707.46L589.65 666.13L564.13 624.69L541.56 583.82L521.52 543.12L504.02 503.3L519.61 430.64L542.55 365.6L571.58 307.63L605.51 257.19L642.03 215.19L643.39 213.62L682.91 178.24L684.14 177.13L725.79 147.92L727.08 147.03L771.24 123.33L816.17 105.39L861.05 93.07L905.58 85.8L949.09 83.33L991.39 85.14L1031.97 90.94L1070.7 100.27L1107.24 112.77L1141.5 128.07L1157.33 116.95L1171.72 105.72L1184.55 94.18L1195.6 82.19L1204.85 69.65L1211.92 56.42L1216.94 42.5L1219.37 27.79L1219.47 12.37L1217.25 0.0100098" stroke="#515459" stroke-opacity="0.4" stroke-linecap="round" stroke-linejoin="round"/>
</g>
<g style="mix-blend-mode:overlay">
<path d="M269.78 841.99L264.1 827.1L253.59 806.11L188.42 675.99L162.1 577.43L141.42 487.03L125.75 403.91L121.08 389.1L86.4399 279.52L83.2799 267.38L56.2499 163.25L34.4399 54.26L27.1499 0.0100098" stroke="#515459" stroke-opacity="0.4" stroke-linecap="round" stroke-linejoin="round"/>
</g>
<g style="mix-blend-mode:overlay">
<path d="M135.5 250.66L141.15 237.44L186.86 153.24L237.88 77.03L293.45 8.75001L302.01 0.0100098" stroke="#515459" stroke-opacity="0.4" stroke-linecap="round" stroke-linejoin="round"/>
</g>
<g style="mix-blend-mode:overlay">
<path d="M1497.87 688.53L1491.4 676.1L1483.56 657.95L1476.76 638.88L1470.75 619.1L1465.4 598.54L1460.51 577.39L1455.89 555.54L1451.37 533.17L1446.77 510.15L1441.91 486.69L1436.59 462.61L1430.68 438.16L1423.92 413.16L1416.22 387.87L1407.27 362.14L1397.04 336.25L1385.16 310.1L1371.67 283.99L1356.18 257.88L1338.77 232.09L1319.05 206.65L1297.14 181.91L1272.71 157.98L1245.89 135.22L1216.46 113.84L1184.55 94.18L1150.07 76.56L1113.16 61.33L1073.86 48.84L1032.34 39.48L988.81 33.65L943.47 31.76L896.7 34.19L848.75 41.44L800.19 53.82L751.34 71.91L750.97 72.1L702.98 95.94L702.29 96.38L655.56 126.56L654.88 127.12L610.03 163.86L609.11 164.82L567.07 208.56L527.77 260.56L493.08 320.58L464.26 388.29L442.57 464.31L429.39 548.01L450.54 588.04L474.03 628.39L500.2 669.42L528.93 710.34L560.61 751.46L595.04 792.06L632.67 832.43L642.48 841.99" stroke="#515459" stroke-opacity="0.4" stroke-linecap="round" stroke-linejoin="round"/>
</g>
<g style="mix-blend-mode:overlay">
<path d="M1497.87 756.21L1488.94 745.8L1477.86 729.7L1468.47 712.47L1460.51 694.37L1453.81 675.38L1448.15 655.68L1443.37 635.22L1439.23 614.18L1435.56 592.45L1432.16 570.21L1428.82 547.34L1425.38 523.99L1421.62 500.05L1417.37 475.69L1412.41 450.78L1406.6 425.52L1399.68 399.81L1391.56 373.85L1381.91 347.58L1370.7 321.24L1357.6 294.82L1342.6 268.58L1325.38 242.59L1305.99 217.14L1284.14 192.36L1259.89 168.57L1233.03 145.99L1203.68 124.94L1171.72 105.72L1137.27 88.67L1100.37 74.16L1061.15 62.54L1019.83 54.19L976.54 49.53L931.67 48.93L885.41 52.86L838.34 61.64L790.7 75.83L743.25 95.64L742.46 96.08L696.37 121.72L695.59 122.29L650.99 154.17L649.95 155.11L607.67 193.68L606.7 194.81L567.49 240.19L531.29 294.4L500.26 356.03L475.56 425.73L458.49 502.92L450.54 588.04L453.08 680.17L482.61 721.2L514.77 762.01L549.92 802.87L586.83 841.99" stroke="#515459" stroke-opacity="0.4" stroke-linecap="round" stroke-linejoin="round"/>
</g>
<g style="mix-blend-mode:overlay">
<path d="M154.22 347.29L157.77 338.47L187.37 274.8L192.46 263.64L193.72 260.87L197.77 253.32L231.02 196.89L239.13 182.86L240.54 180.41L241.14 179.36L241.91 177.27L242.06 175.22L241.55 173.23L264.96 140.09L273.22 128.4L291.17 102.99L306.2 85.47L320.98 69.68L326.55 64.63L334.23 55.7L345.41 43.84L371.03 20.32L373.26 18.18L393.13 0.390015L394.11 0.750015" stroke="#515459" stroke-opacity="0.4" stroke-linecap="round" stroke-linejoin="round"/>
</g>
<g style="mix-blend-mode:overlay">
<path d="M153.61 344.5L156.96 337.06L185.19 274.77L196.18 250.53L224.54 202.9L228.82 196.84L232.86 191.2L233.43 190.22L237.34 184.31L238.8 182.66L241.91 177.27L242.88 176.5L277.25 128.8L277.31 128.6L288.64 112.67L290.2 110.86L291.29 109.3L293.59 106.64L307.1 91.29L324.76 69.83L330.58 62.08L332.23 60.16L337.13 54.47L344.97 45.38L345.27 42.86L368.41 20.6L371.11 17.99L389.79 0.0100098" stroke="#515459" stroke-opacity="0.4" stroke-linecap="round" stroke-linejoin="round"/>
</g>
<g style="mix-blend-mode:overlay">
<path d="M159.26 370.14L161.6 363.01L201.26 274.96L246.42 197.25L295.57 129.51L347.59 70.78L401.34 20.58L427.78 0.0100098" stroke="#515459" stroke-opacity="0.4" stroke-linecap="round" stroke-linejoin="round"/>
</g>
<g style="mix-blend-mode:overlay">
<path d="M307.39 841.99L304.13 835.36L277.71 777.16L233.85 680.59L224.69 658.41L206.96 615.52L174.59 537.2L168.42 520.35L125.75 403.91L114.17 327.14L106.25 256.11L101.33 190.1L99.1299 128.69L99.1799 71.31L101.3 17.67L102.65 0.0100098" stroke="#515459" stroke-opacity="0.4" stroke-linecap="round" stroke-linejoin="round"/>
</g>
<g style="mix-blend-mode:overlay">
<path d="M306.9 841.99L304.13 835.36L283.94 782.7L268.35 742.06L253.63 700.26L251.33 693.73L237.9 655.61L227.22 627.03L206.85 572.5L194.22 538.71L184.41 512.45L166.1 437.29L147.21 371.44L129.39 309.29L125.59 293.17L110.16 227.6L101.33 190.1L81.5399 78.94L72.3599 0.0100098" stroke="#515459" stroke-opacity="0.4" stroke-linecap="round" stroke-linejoin="round"/>
</g>
<g style="mix-blend-mode:overlay">
<path d="M152.75 340.58L155.5 335.77L185.19 274.77L187.27 274.4L196.1 257.33L197.15 254.92L197.26 253.09L196.18 250.53L213.31 218.71L225.85 196.77L240.43 171.27L251.01 156.24L269.34 130.21L270.71 128.27L290.1 100.74L290.69 100.05L314.92 71.73L317.34 68.91L343.99 37.77L360.95 21.37L383.03 0.0100098" stroke="#515459" stroke-opacity="0.4" stroke-linecap="round" stroke-linejoin="round"/>
</g>
<g style="mix-blend-mode:overlay">
<path d="M375.75 841.99L372.37 838.48L338.01 800.51L306.59 764.17L301.19 651.04L308.47 547.16L326.41 452.28L353.3 366.98L387.54 290.64L427.65 223.51L472.44 164.81L520.63 114.56L571.38 71.94L572.33 71.3L623.65 36.79L624.96 36.09L676.83 8.37001L677.64 0.0100098" stroke="#515459" stroke-opacity="0.4" stroke-linecap="round" stroke-linejoin="round"/>
</g>
<g style="mix-blend-mode:overlay">
<path d="M373.32 841.99L372.37 838.48L355.32 725.16L327.08 687.43L301.19 651.04L277.56 616.93L289.5 513.63L311.63 420.21L342.17 336.1L379.52 261.6L422.34 195.95L469.27 139.17L519.33 90.43L571.42 49.58L624.84 15.85L656.54 0.0100098" stroke="#515459" stroke-opacity="0.4" stroke-linecap="round" stroke-linejoin="round"/>
</g>
<g style="mix-blend-mode:overlay">
<path d="M289.15 112.08L290.59 109.8L291.42 107.5L291.59 105.26L291.17 102.99L290.1 100.74L288.44 98.43L286.15 96.13L283.27 93.78L279.77 91.43L275.68 89.05L270.96 86.74L265.64 84.44L259.67 82.3L253.08 80.25L245.8 78.54L237.88 77.03L229.2 76.09L219.83 75.51L209.63 75.8L198.7 76.66L186.84 78.74L174.19 81.64L160.53 86.18L146.03 91.83L121.39 132.9" stroke="#515459" stroke-opacity="0.4" stroke-linecap="round" stroke-linejoin="round"/>
</g>
<g style="mix-blend-mode:overlay">
<path d="M241.55 173.23L240.43 171.27L238.67 169.33L236.31 167.4L233.31 165.48L229.7 163.57L225.47 161.7L220.63 159.86L215.16 158.15L209.06 156.51L202.31 155.15L194.94 153.96L186.86 153.24L178.14 152.84L168.68 153.2L158.53 154.05L147.59 156.01L135.92 158.71L123.98 162.72" stroke="#515459" stroke-opacity="0.4" stroke-linecap="round" stroke-linejoin="round"/>
</g>
<g style="mix-blend-mode:overlay">
<path d="M196.76 251.36L195.6 249.7L193.82 248.12L191.39 246.58L188.34 245.09L184.65 243.65L180.35 242.28L175.4 241L169.83 239.81L163.62 238.83L156.78 238.01L149.29 237.59L141.15 237.44L133.42 237.88" stroke="#515459" stroke-opacity="0.4" stroke-linecap="round" stroke-linejoin="round"/>
</g>
<g style="mix-blend-mode:overlay">
<path d="M774.39 841.99L773.01 840.75L732.09 799.6L695.19 757.74L662.34 715.82L632.98 673.69L607.12 631.99L584.25 590.39L564.38 549.56L547.05 509.06L532.24 469.57L550.71 402.77L575.74 343.37L606.17 290.82L639.48 247.34L640.88 245.52L678.99 206.79L718.07 175.94L719.48 174.84L761.73 148.95L804.85 129.16L848.43 114.81L891.68 105.79L934.35 101.5L975.8 101.72L1015.89 105.96L1054.11 113.9L1090.38 125.11L1124.38 139.24L1156.04 155.93L1173.3 145.79L1189.21 135.53L1203.68 124.94L1216.46 113.84L1227.54 102.1L1236.57 89.57L1243.67 76.22L1248.32 61.91L1250.74 46.73L1250.31 30.57L1247.36 13.62L1242.59 0.0100098" stroke="#515459" stroke-opacity="0.4" stroke-linecap="round" stroke-linejoin="round"/>
</g>
<g style="mix-blend-mode:overlay">
<path d="M151.65 335.6L152.18 334.03L178.78 274.7L191.39 246.58L219.72 196.63L236.31 167.4L261.31 131.64L263.91 127.93L286.15 96.13L305.84 72.98L340.31 32.45L373.63 0.0100098" stroke="#515459" stroke-opacity="0.4" stroke-linecap="round" stroke-linejoin="round"/>
</g>
<g style="mix-blend-mode:overlay">
<path d="M1497.87 599L1497.62 598.32L1490.96 578.58L1484.78 558.02L1478.87 536.9L1473.07 515.05L1467.24 492.71L1461.16 469.71L1454.73 446.29L1447.71 422.27L1439.99 397.91L1431.3 373.02L1421.59 347.91L1410.53 322.4L1398.11 296.81L1383.97 271.03L1368.15 245.4L1350.27 219.85L1330.42 194.76L1308.21 170.14L1283.81 146.37L1256.85 123.57L1227.54 102.1L1195.6 82.19L1161.24 64.2L1124.33 48.45L1085.07 35.29L1043.5 25.11L999.82 18.29L954.25 15.24L907.01 16.39L858.54 22.14L809.07 32.99L759.26 49.27L709.45 71.58L709.18 71.74L660.46 100.14L659.87 100.58L612.8 135.63L567.49 178.11L566.67 179.08L525.26 228.34L487.29 286.17L454.63 352.34L428.58 426.48L442.57 464.31L458.49 502.92L476.63 542.68L497.03 582.81L520.02 623.71L545.55 664.62L574.01 705.91L605.26 746.89L639.78 787.87L677.4 828.18L691.67 841.99" stroke="#515459" stroke-opacity="0.4" stroke-linecap="round" stroke-linejoin="round"/>
</g>
<g style="mix-blend-mode:overlay">
<path d="M213.53 568.92L212.59 565.96L197.57 515.43L197.13 513.93L193.99 503.44L186.44 478.12L185.48 474.68L175.79 437.13L166.94 403.1L165.33 396.92L164.2 392.56L159.01 370.89L156.99 364.81L153.33 352.05L149.67 341.43L147.21 331.74L146.6 329.32L142.92 314.81L139.63 301.81L135.22 280.01L128.25 245.56L120.58 207.66L115.48 182.45L113.09 166.17L99.1799 71.31L93.1299 0.0100098" stroke="#515459" stroke-opacity="0.4" stroke-linecap="round" stroke-linejoin="round"/>
</g>
<g style="mix-blend-mode:overlay">
<path d="M154.6 335.14L181.82 274.73L193.82 248.12L223.08 196.7L238.67 169.33L265.67 130.87L267.6 128.12L288.44 98.43L310.73 72.31L313.82 68.69L342.43 35.16L356.12 21.88L378.66 0.0100098" stroke="#515459" stroke-opacity="0.4" stroke-linecap="round" stroke-linejoin="round"/>
</g>
<g style="mix-blend-mode:overlay">
<path d="M123.93 162.07L128.52 154.72L174.19 81.64L182.26 71.03L229.62 8.69001L242.56 6.41001L248.49 0.0100098" stroke="#515459" stroke-opacity="0.4" stroke-linecap="round" stroke-linejoin="round"/>
</g>
<g style="mix-blend-mode:overlay">
<path d="M150.42 330.02L175.14 274.66L188.34 245.09L215.77 196.53L233.31 165.48L256.26 132.55L259.62 127.72L283.27 93.78L300.25 73.75L337.55 29.71L367.95 0.0100098" stroke="#515459" stroke-opacity="0.4" stroke-linecap="round" stroke-linejoin="round"/>
</g>
<g style="mix-blend-mode:overlay">
<path d="M184.19 479.17L180.97 468.19L173.78 443.68L162.16 404.07L155.54 381.5L151.37 367.28L146.09 345.74L137.97 312.6L130.35 281.55L121.08 243.69L118.13 228.29L99.1299 128.69L84.9499 21.36L87.1099 0.0100098" stroke="#515459" stroke-opacity="0.4" stroke-linecap="round" stroke-linejoin="round"/>
</g>
<g style="mix-blend-mode:overlay">
<path d="M349.38 44.03L374.24 19.99L375.73 18.39L394.1 0.75" stroke="#515459" stroke-opacity="0.4" stroke-linecap="round" stroke-linejoin="round"/>
</g>
<g style="mix-blend-mode:overlay">
<path d="M154.61 349.05L156.22 344.41L158.14 339.58L187.27 274.4L197.01 252.23L228.82 196.84L241.8 174.23L274.59 129.28L275.15 128.49L275.92 127.4L278.28 124.07L283.59 117.56L286.1 115.01L291.42 107.5L291.91 106.94L297.78 100.13L324.76 69.83L325.71 69.42L337.5 55.43L340.01 52.85L342 51.11L342.94 50.04L344.36 48.02L347.44 45.06L373.67 20.05L376.06 18.42L395.22 0.0100098" stroke="#515459" stroke-opacity="0.4" stroke-linecap="round" stroke-linejoin="round"/>
</g>
<g style="mix-blend-mode:overlay">
<path d="M154.76 349.74L157.72 341.22L157.86 340.83L158.15 339.61L188.15 274.81L196.1 257.33L197.13 255.26L197.93 253.86L230.61 196.88L237.34 184.31L242.23 175.9L276.17 129L276.77 128.7L277.31 128.6L288.64 112.67L290.59 109.8L291.29 109.3L293.59 106.64L304.12 94.12L324.57 70.41L325.71 69.42L340.01 52.85L344.34 48.21L348.79 44.42L373.47 20.07L374.8 18.31L393.98 0.390009L394.87 0.0100098" stroke="#515459" stroke-opacity="0.4" stroke-linecap="round" stroke-linejoin="round"/>
</g>
<g style="mix-blend-mode:overlay">
<path d="M240.54 180.41L241 179.76L241.81 178.62L243.34 176.38L276.77 128.7L283.59 117.56L291.59 105.26L320.07 72.16L320.98 69.68L344.92 40.37L365.05 20.95L368.36 17.76L386.74 0.0100098" stroke="#515459" stroke-opacity="0.4" stroke-linecap="round" stroke-linejoin="round"/>
</g>
</g>
<path d="M49 171.455H426.242V409.242H49V171.455Z" fill="#788191" fill-opacity="0.15"/>
<path d="M49 171.455V171.008H48.553V171.455H49ZM426.242 171.455H426.689V171.008H426.242V171.455ZM426.242 409.242V409.689H426.689V409.242H426.242ZM49 409.242H48.553V409.689H49V409.242ZM49 171.902H426.242V171.008H49V171.902ZM425.795 171.455V409.242H426.689V171.455H425.795ZM426.242 408.795H49V409.689H426.242V408.795ZM49.447 409.242V171.455H48.553V409.242H49.447Z" fill="white"/>
<path d="M66.8788 189.333H106.212" stroke="white" stroke-width="0.893939"/>
<path d="M80.2879 355.606H106.212" stroke="white" stroke-width="0.893939"/>
<path d="M80.2879 373.485H106.212" stroke="white" stroke-width="0.893939"/>
<path d="M80.2879 391.364H106.212" stroke="white" stroke-width="0.893939"/>
<path d="M141.97 189.333L408.364 189.333" stroke="white" stroke-width="0.893939"/>
<path d="M141.97 373.485L408.364 373.485" stroke="white" stroke-width="0.893939"/>
<path d="M141.97 355.606L408.364 355.606" stroke="white" stroke-width="0.893939"/>
<path d="M141.97 391.364L408.364 391.364" stroke="white" stroke-width="0.893939"/>
<path d="M49 207.212H428.03V328.788H49V207.212Z" fill="#788191" fill-opacity="0.15"/>
<path d="M49 207.212V206.765H48.553V207.212H49ZM428.03 207.212H428.477V206.765H428.03V207.212ZM428.03 328.788V329.235H428.477V328.788H428.03ZM49 328.788H48.553V329.235H49V328.788ZM49 207.659H428.03V206.765H49V207.659ZM427.583 207.212V328.788H428.477V207.212H427.583ZM428.03 328.341H49V329.235H428.03V328.341ZM49.447 328.788V207.212H48.553V328.788H49.447Z" fill="white"/>
<path d="M49 150H426.242V171.455H49V150Z" fill="white"/>
<path d="M49 150V149.553H48.553V150H49ZM426.242 150H426.689V149.553H426.242V150ZM426.242 171.455V171.902H426.689V171.455H426.242ZM49 171.455H48.553V171.902H49V171.455ZM49 150.447H426.242V149.553H49V150.447ZM425.795 150V171.455H426.689V150H425.795ZM426.242 171.008H49V171.902H426.242V171.008ZM49.447 171.455V150H48.553V171.455H49.447Z" fill="white"/>
<path d="M336.848 160.727L408.364 160.727" stroke="white" stroke-width="0.893939"/>
<path d="M73.3065 376.613H67.6024L70.454 370.908L73.3065 376.613Z" fill="#F5A213" stroke="white" stroke-width="0.893939"/>
<circle cx="70.4545" cy="355.606" r="3.12879" fill="#00C164" stroke="white" stroke-width="0.893939"/>
<mask id="path-102-inside-1_136_705" fill="white">
<path d="M66.8788 391.364C66.8788 389.389 68.4797 387.788 70.4545 387.788C72.4294 387.788 74.0303 389.389 74.0303 391.364C74.0303 393.338 72.4294 394.939 70.4545 394.939C68.4797 394.939 66.8788 393.338 66.8788 391.364Z"/>
</mask>
<path d="M66.8788 391.364C66.8788 389.389 68.4797 387.788 70.4545 387.788C72.4294 387.788 74.0303 389.389 74.0303 391.364C74.0303 393.338 72.4294 394.939 70.4545 394.939C68.4797 394.939 66.8788 393.338 66.8788 391.364Z" fill="#F13C3C"/>
<path d="M70.4545 394.045C68.9734 394.045 67.7727 392.845 67.7727 391.364H65.9848C65.9848 393.832 67.986 395.833 70.4545 395.833V394.045ZM73.1364 391.364C73.1364 392.845 71.9357 394.045 70.4545 394.045V395.833C72.9231 395.833 74.9242 393.832 74.9242 391.364H73.1364ZM70.4545 388.682C71.9357 388.682 73.1364 389.883 73.1364 391.364H74.9242C74.9242 388.895 72.9231 386.894 70.4545 386.894V388.682ZM70.4545 386.894C67.986 386.894 65.9848 388.895 65.9848 391.364H67.7727C67.7727 389.883 68.9734 388.682 70.4545 388.682V386.894Z" fill="white" mask="url(#path-102-inside-1_136_705)"/>
<g filter="url(#filter0_d_136_705)">
<path fill-rule="evenodd" clip-rule="evenodd" d="M363.667 180.394L372.606 167.879L381.545 180.394H363.667ZM521 339.515V180.394H224.212V339.515H521Z" fill="#E6E8EB"/>
<path d="M372.606 167.879L372.97 167.619L372.606 167.11L372.242 167.619L372.606 167.879ZM363.667 180.394L363.303 180.134L362.798 180.841H363.667V180.394ZM381.545 180.394V180.841H382.414L381.909 180.134L381.545 180.394ZM521 180.394H521.447V179.947H521V180.394ZM521 339.515V339.962H521.447V339.515H521ZM224.212 180.394V179.947H223.765V180.394H224.212ZM224.212 339.515H223.765V339.962H224.212V339.515ZM372.242 167.619L363.303 180.134L364.03 180.654L372.97 168.139L372.242 167.619ZM381.909 180.134L372.97 167.619L372.242 168.139L381.182 180.654L381.909 180.134ZM363.667 180.841H381.545V179.947H363.667V180.841ZM520.553 180.394V339.515H521.447V180.394H520.553ZM224.212 180.841H521V179.947H224.212V180.841ZM224.659 339.515V180.394H223.765V339.515H224.659ZM521 339.068H224.212V339.962H521V339.068Z" fill="#A7A7A7"/>
</g>
<path d="M242.091 198.273H377.97" stroke="#A7A7A7" stroke-width="0.893939"/>
<mask id="path-107-inside-2_136_705" fill="white">
<path d="M242.091 214.364H503.121V250.667H242.091V214.364Z"/>
</mask>
<path d="M242.091 214.364H503.121V250.667H242.091V214.364Z" fill="#788191" fill-opacity="0.15"/>
<path d="M242.091 214.364V213.47H241.197V214.364H242.091ZM503.121 214.364H504.015V213.47H503.121V214.364ZM503.121 250.667V251.561H504.015V250.667H503.121ZM242.091 250.667H241.197V251.561H242.091V250.667ZM242.091 215.258H503.121V213.47H242.091V215.258ZM502.227 214.364V250.667H504.015V214.364H502.227ZM503.121 249.773H242.091V251.561H503.121V249.773ZM242.985 250.667V214.364H241.197V250.667H242.985Z" fill="#1F75FF" mask="url(#path-107-inside-2_136_705)"/>
<path d="M257.736 227.645H257.629L254.697 234.492L251.765 227.645H251.658V238.515H250.674V226.036H252.069L254.679 232.204H254.768L257.361 226.036H258.72V238.515H257.736V227.645ZM263.451 238.515V237.585H267.169V226.822H267.08L263.647 229.88L263.039 229.2L266.597 226.036H268.224V237.585H271.711V238.515H263.451ZM283.164 226.965H277.514L277.121 232.204L277.228 232.222C277.55 231.781 277.919 231.453 278.337 231.238C278.766 231.012 279.314 230.899 279.981 230.899C280.53 230.899 281.03 230.988 281.483 231.167C281.948 231.334 282.341 231.584 282.663 231.918C282.985 232.24 283.235 232.639 283.414 233.116C283.593 233.581 283.682 234.111 283.682 234.707C283.682 235.315 283.587 235.869 283.396 236.37C283.218 236.858 282.949 237.282 282.592 237.639C282.246 237.985 281.823 238.253 281.322 238.444C280.822 238.634 280.262 238.73 279.642 238.73C279.153 238.73 278.706 238.676 278.301 238.569C277.908 238.473 277.55 238.336 277.228 238.158C276.918 237.967 276.638 237.746 276.388 237.496C276.138 237.246 275.917 236.978 275.726 236.692L276.549 236.084C276.894 236.62 277.3 237.043 277.764 237.353C278.241 237.651 278.873 237.8 279.66 237.8C280.589 237.8 281.304 237.538 281.805 237.013C282.318 236.489 282.574 235.798 282.574 234.939V234.653C282.574 233.783 282.324 233.092 281.823 232.579C281.334 232.067 280.625 231.811 279.695 231.811C279.362 231.811 279.07 231.84 278.819 231.9C278.569 231.948 278.343 232.025 278.14 232.132C277.949 232.228 277.77 232.347 277.604 232.49C277.437 232.621 277.276 232.776 277.121 232.955L276.191 232.812L276.638 226.036H283.164V226.965ZM292.758 226.965V238.515H291.685V226.965H287.412V226.036H297.031V226.965H292.758ZM300.975 238.515V237.585H304.694V226.822H304.604L301.172 229.88L300.564 229.2L304.122 226.036H305.749V237.585H309.235V238.515H300.975ZM316.773 231.507C317.655 231.507 318.34 231.298 318.829 230.881C319.318 230.452 319.562 229.898 319.562 229.218V228.986C319.562 228.271 319.324 227.722 318.847 227.341C318.382 226.948 317.774 226.751 317.023 226.751C316.284 226.751 315.694 226.906 315.253 227.216C314.812 227.514 314.461 227.913 314.198 228.414L313.394 227.842C313.537 227.579 313.716 227.329 313.93 227.091C314.157 226.84 314.413 226.62 314.699 226.429C314.997 226.238 315.337 226.089 315.718 225.982C316.111 225.875 316.552 225.821 317.041 225.821C317.566 225.821 318.048 225.893 318.489 226.036C318.942 226.179 319.33 226.387 319.651 226.662C319.973 226.924 320.224 227.252 320.402 227.645C320.593 228.026 320.688 228.461 320.688 228.95C320.688 229.367 320.623 229.743 320.492 230.076C320.373 230.41 320.2 230.696 319.973 230.935C319.759 231.173 319.496 231.376 319.187 231.542C318.889 231.697 318.567 231.817 318.221 231.9V231.972C318.591 232.031 318.942 232.144 319.276 232.311C319.61 232.466 319.896 232.675 320.134 232.937C320.384 233.199 320.581 233.515 320.724 233.885C320.867 234.254 320.939 234.671 320.939 235.136C320.939 235.672 320.843 236.167 320.653 236.62C320.462 237.061 320.188 237.436 319.83 237.746C319.473 238.056 319.044 238.301 318.543 238.479C318.042 238.646 317.482 238.73 316.862 238.73C316.362 238.73 315.909 238.676 315.504 238.569C315.098 238.473 314.735 238.336 314.413 238.158C314.091 237.967 313.805 237.746 313.555 237.496C313.304 237.246 313.084 236.978 312.893 236.692L313.698 236.084C314.043 236.62 314.461 237.043 314.949 237.353C315.438 237.651 316.076 237.8 316.862 237.8C317.78 237.8 318.501 237.574 319.026 237.121C319.55 236.656 319.812 236.03 319.812 235.243V234.957C319.812 234.171 319.556 233.557 319.044 233.116C318.543 232.663 317.81 232.436 316.844 232.436H315.271V231.507H316.773ZM325.991 238.515V237.585H329.71V226.822H329.621L326.188 229.88L325.58 229.2L329.138 226.036H330.765V237.585H334.251V238.515H325.991ZM341.664 232.079L339.644 234.403V238.515H338.571V226.036H339.644V232.991H339.68L341.646 230.666L345.633 226.036H346.92L342.397 231.292L347.01 238.515H345.758L341.664 232.079ZM351.008 238.515V237.585H354.726V226.822H354.637L351.204 229.88L350.596 229.2L354.154 226.036H355.781V237.585H359.268V238.515H351.008ZM367.288 238.73C366.621 238.73 366.031 238.622 365.518 238.408C365.018 238.181 364.595 237.872 364.249 237.478C363.903 237.073 363.641 236.59 363.462 236.03C363.295 235.458 363.212 234.832 363.212 234.153C363.212 233.187 363.343 232.293 363.605 231.471C363.879 230.637 364.231 229.88 364.66 229.2C365.101 228.521 365.602 227.919 366.162 227.395C366.722 226.858 367.294 226.405 367.878 226.036H369.273C368.57 226.513 367.944 226.989 367.396 227.466C366.859 227.943 366.388 228.449 365.983 228.986C365.578 229.51 365.238 230.076 364.964 230.684C364.702 231.292 364.493 231.96 364.338 232.687L364.41 232.705C364.72 232.144 365.131 231.703 365.643 231.382C366.156 231.048 366.794 230.881 367.556 230.881C368.117 230.881 368.623 230.97 369.076 231.149C369.541 231.328 369.94 231.584 370.274 231.918C370.608 232.24 370.864 232.639 371.043 233.116C371.222 233.581 371.311 234.105 371.311 234.689C371.311 235.297 371.216 235.851 371.025 236.352C370.834 236.84 370.566 237.264 370.22 237.621C369.875 237.967 369.452 238.241 368.951 238.444C368.45 238.634 367.896 238.73 367.288 238.73ZM367.27 237.818C368.2 237.818 368.921 237.562 369.434 237.049C369.958 236.525 370.22 235.827 370.22 234.957V234.635C370.22 233.765 369.958 233.074 369.434 232.562C368.921 232.037 368.2 231.775 367.27 231.775C366.329 231.775 365.596 232.037 365.071 232.562C364.559 233.074 364.303 233.765 364.303 234.635V234.957C364.303 235.827 364.559 236.525 365.071 237.049C365.596 237.562 366.329 237.818 367.27 237.818ZM377.043 226.036V233.563C377.043 234.29 377.073 234.922 377.133 235.458C377.192 235.982 377.317 236.423 377.508 236.781C377.699 237.127 377.973 237.383 378.33 237.55C378.688 237.717 379.171 237.8 379.779 237.8C380.386 237.8 380.869 237.717 381.227 237.55C381.584 237.383 381.858 237.127 382.049 236.781C382.24 236.423 382.365 235.982 382.425 235.458C382.484 234.922 382.514 234.29 382.514 233.563V226.036H383.587V233.348C383.587 234.302 383.533 235.118 383.426 235.798C383.331 236.465 383.14 237.019 382.854 237.46C382.58 237.901 382.192 238.223 381.692 238.426C381.203 238.628 380.565 238.73 379.779 238.73C378.992 238.73 378.348 238.628 377.848 238.426C377.359 238.223 376.972 237.901 376.686 237.46C376.411 237.019 376.221 236.465 376.113 235.798C376.018 235.118 375.97 234.302 375.97 233.348V226.036H377.043ZM389.551 227.412H389.462V238.515H388.479V226.036H389.998L395.022 237.067H395.112V226.036H396.095V238.515H394.575L389.551 227.412ZM404.813 238.73C404.145 238.73 403.555 238.622 403.043 238.408C402.542 238.181 402.119 237.872 401.773 237.478C401.428 237.073 401.166 236.59 400.987 236.03C400.82 235.458 400.736 234.832 400.736 234.153C400.736 233.187 400.868 232.293 401.13 231.471C401.404 230.637 401.756 229.88 402.185 229.2C402.626 228.521 403.126 227.919 403.686 227.395C404.247 226.858 404.819 226.405 405.403 226.036H406.797C406.094 226.513 405.468 226.989 404.92 227.466C404.384 227.943 403.913 228.449 403.508 228.986C403.102 229.51 402.763 230.076 402.489 230.684C402.226 231.292 402.018 231.96 401.863 232.687L401.934 232.705C402.244 232.144 402.655 231.703 403.168 231.382C403.68 231.048 404.318 230.881 405.081 230.881C405.641 230.881 406.148 230.97 406.601 231.149C407.066 231.328 407.465 231.584 407.799 231.918C408.132 232.24 408.389 232.639 408.567 233.116C408.746 233.581 408.836 234.105 408.836 234.689C408.836 235.297 408.74 235.851 408.549 236.352C408.359 236.84 408.091 237.264 407.745 237.621C407.399 237.967 406.976 238.241 406.476 238.444C405.975 238.634 405.421 238.73 404.813 238.73ZM404.795 237.818C405.725 237.818 406.446 237.562 406.958 237.049C407.483 236.525 407.745 235.827 407.745 234.957V234.635C407.745 233.765 407.483 233.074 406.958 232.562C406.446 232.037 405.725 231.775 404.795 231.775C403.853 231.775 403.12 232.037 402.596 232.562C402.083 233.074 401.827 233.765 401.827 234.635V234.957C401.827 235.827 402.083 236.525 402.596 237.049C403.12 237.562 403.853 237.818 404.795 237.818Z" fill="#1F75FF"/>
<path d="M242.091 284.091H406.576V321.636H242.091V284.091Z" fill="#1F75FF"/>
<path d="M242.091 284.091V283.644H241.644V284.091H242.091ZM406.576 284.091H407.023V283.644H406.576V284.091ZM406.576 321.636V322.083H407.023V321.636H406.576ZM242.091 321.636H241.644V322.083H242.091V321.636ZM242.091 284.538H406.576V283.644H242.091V284.538ZM406.129 284.091V321.636H407.023V284.091H406.129ZM406.576 321.189H242.091V322.083H406.576V321.189ZM242.538 321.636V284.091H241.644V321.636H242.538Z" fill="#A7A7A7"/>
<path d="M259.97 301.97H302.879" stroke="white" stroke-width="0.893939"/>
<g filter="url(#filter1_d_136_705)">
<path d="M379.758 305.545V327.894L385.389 322.786L389.814 332.364L393.234 331.023L388.809 321.062L395.848 320.87L379.758 305.545Z" fill="#E6E8EB"/>
<path d="M379.758 305.545V327.894L385.389 322.786L389.814 332.364L393.234 331.023L388.809 321.062L395.848 320.87L379.758 305.545Z" stroke="#A7A7A7" stroke-width="0.893939"/>
</g>
<path d="M367.242 305.545H374.841M372.383 296.383L376.517 300.517M381.545 291.242V298.841" stroke="#A7A7A7" stroke-width="0.893939"/>
<path fill-rule="evenodd" clip-rule="evenodd" d="M199.617 457.53C199.727 456.63 199.687 455.78 199.537 454.89C199.48 454.563 199.403 454.231 199.328 453.905C199.297 453.772 199.266 453.64 199.237 453.51C199.108 452.934 198.962 452.363 198.817 451.79L198.815 451.785C198.759 451.564 198.703 451.342 198.647 451.12C198.603 450.952 198.558 450.784 198.513 450.616C198.47 450.455 198.427 450.295 198.384 450.135L198.372 450.09C198.065 448.946 197.758 447.801 197.487 446.646C199.734 448.993 202.05 451.277 204.367 453.56C204.769 453.957 205.171 454.354 205.574 454.751C205.85 455.023 206.128 455.296 206.405 455.569L207.316 456.465C209.044 458.165 210.774 459.866 212.487 461.58C216.613 465.705 220.697 469.866 224.785 474.03L224.789 474.034L224.859 474.105C225.676 474.938 226.494 475.771 227.312 476.603C228.12 477.426 228.928 478.248 229.737 479.07C231.853 481.226 233.983 483.37 236.114 485.516L236.232 485.634C236.72 486.126 237.209 486.618 237.697 487.11C238.9 488.322 240.085 489.551 241.269 490.781L241.27 490.782C242.664 492.229 244.06 493.678 245.487 495.1C245.667 495.41 245.947 495.67 246.307 495.8L246.374 495.822C246.471 495.855 246.563 495.886 246.657 495.909C246.713 495.923 246.769 495.933 246.827 495.94C246.897 495.95 246.967 495.95 247.047 495.95C247.667 495.95 248.257 495.64 248.587 495.08C248.997 494.38 248.867 493.51 248.307 492.94C247.608 492.215 246.901 491.498 246.194 490.781C245.486 490.063 244.778 489.345 244.077 488.62C243.611 488.139 243.148 487.656 242.684 487.173L242.676 487.164C241.859 486.313 241.041 485.46 240.207 484.62C239.221 483.623 238.234 482.628 237.247 481.634L237.232 481.619L237.225 481.612C235.586 479.962 233.948 478.312 232.317 476.65C230.639 474.946 228.965 473.239 227.29 471.532C223.227 467.391 219.165 463.25 215.057 459.15C213.033 457.126 210.992 455.118 208.951 453.111L207.823 452.002C207.518 451.701 207.212 451.401 206.907 451.1C206.606 450.802 206.305 450.505 206.004 450.207L206.003 450.206C204.031 448.259 202.061 446.313 200.139 444.311C202.02 444.808 203.881 445.375 205.747 445.95C207.287 446.42 208.817 446.88 210.367 447.31C211.052 447.502 211.748 447.664 212.444 447.825C213.233 448.008 214.022 448.191 214.797 448.42C215.087 448.61 215.417 448.73 215.787 448.73C216.747 448.73 217.557 447.93 217.557 446.96C217.557 446.4 217.287 445.86 216.847 445.52C216.315 445.108 215.606 444.946 214.941 444.795C214.831 444.77 214.723 444.745 214.617 444.72L214.149 444.607C213.891 444.544 213.632 444.482 213.373 444.419C213.144 444.363 212.914 444.307 212.685 444.251C212.375 444.175 212.066 444.098 211.757 444.02C210.334 443.676 208.931 443.237 207.531 442.798C207.18 442.688 206.828 442.578 206.477 442.47L206.02 442.329C204.252 441.785 202.483 441.241 200.697 440.79C199.657 440.52 198.627 440.27 197.577 440.09C196.537 439.91 195.437 439.96 194.577 440.62C193.637 441.35 193.467 442.57 193.467 443.68C193.467 444.703 193.684 445.735 193.893 446.729L193.897 446.75C194.007 447.29 194.137 447.84 194.277 448.37C194.497 449.21 194.717 450.06 194.937 450.9C195.147 451.72 195.367 452.54 195.587 453.36C195.675 453.7 195.754 454.04 195.83 454.38C195.858 454.506 195.886 454.631 195.914 454.756C195.948 454.91 195.982 455.065 196.017 455.22C196.087 455.58 196.137 455.94 196.167 456.31V456.62C196.157 456.76 196.137 456.91 196.117 457.05C196.007 458.01 196.657 458.91 197.627 459.05C197.707 459.06 197.777 459.07 197.857 459.07C198.717 459.06 199.517 458.42 199.617 457.53ZM225.057 506.01C225.587 506.32 225.957 506.9 225.957 507.55C225.957 508.52 225.147 509.32 224.187 509.31C223.707 509.31 223.297 509.11 222.917 508.83C222.815 508.751 222.708 508.674 222.601 508.597L222.599 508.596C222.476 508.507 222.353 508.418 222.235 508.326C222.195 508.294 222.156 508.262 222.117 508.23C222.041 508.164 221.963 508.099 221.886 508.034C221.771 507.937 221.656 507.842 221.54 507.746C221.154 507.426 220.767 507.106 220.407 506.76L218.477 504.89C218.089 504.515 217.724 504.119 217.36 503.724C217.18 503.528 217 503.332 216.817 503.14C215.091 501.329 213.431 499.465 211.771 497.603L211.765 497.595C211.273 497.043 210.781 496.49 210.287 495.94C209.292 494.832 208.3 493.723 207.308 492.613C205.668 490.779 204.029 488.946 202.377 487.12C201.505 486.151 200.604 485.206 199.704 484.262C199.488 484.036 199.273 483.81 199.058 483.584C198.864 483.38 198.67 483.175 198.477 482.97C197.237 481.66 195.987 480.35 194.727 479.06C191.977 476.24 189.247 473.4 186.517 470.56C186.194 470.221 185.87 469.884 185.546 469.546C184.577 468.536 183.609 467.526 182.657 466.5C181.987 465.78 181.337 465.05 180.707 464.3C180.202 463.697 179.791 463.023 179.383 462.355L179.382 462.354L179.379 462.349L179.377 462.344C179.327 462.263 179.277 462.181 179.227 462.1C179.042 461.796 178.969 461.452 178.993 461.114C178.854 461.079 178.716 461.044 178.577 461.01C178.557 461.01 178.537 461 178.517 461V461.03C178.517 461.34 178.517 461.65 178.537 461.96C178.597 462.48 178.687 463 178.787 463.52C178.905 464.067 179.027 464.614 179.149 465.16L179.153 465.175L179.153 465.177C179.422 466.381 179.691 467.583 179.917 468.79L180.002 469.248L180.002 469.249C180.256 470.624 180.51 471.996 180.537 473.4C180.553 474.266 180.51 475.133 180.466 475.999L180.466 476.002C180.459 476.127 180.453 476.252 180.447 476.377L180.437 476.58C180.377 477.54 179.667 478.35 178.697 478.35C177.777 478.35 176.877 477.54 176.927 476.58L176.949 476.137V476.136C177.004 475.056 177.059 473.982 176.997 472.9C176.887 471.665 176.661 470.464 176.432 469.251L176.367 468.91C176.207 468.21 176.057 467.52 175.907 466.82C175.85 466.56 175.791 466.3 175.733 466.041C175.586 465.39 175.439 464.74 175.317 464.09L175.288 463.933C175.157 463.235 175.026 462.536 175.007 461.82C174.997 461.25 174.977 460.65 175.117 460.09C175.367 459.14 175.877 458.24 176.777 457.78C177.247 457.54 177.827 457.4 178.367 457.43C178.937 457.46 179.467 457.56 180.017 457.7C180.747 457.88 181.467 458.11 182.186 458.339C182.662 458.495 183.136 458.648 183.609 458.8C184.081 458.953 184.553 459.105 185.027 459.26C186.917 459.88 188.807 460.51 190.687 461.19C192.061 461.691 193.429 462.211 194.796 462.73C195.2 462.884 195.603 463.037 196.007 463.19C196.077 463.22 196.147 463.24 196.217 463.27C196.337 463.3 196.457 463.34 196.577 463.39C196.607 463.4 196.637 463.41 196.657 463.42C196.727 463.45 196.787 463.47 196.847 463.49L196.841 463.484L196.827 463.48C196.83 463.48 196.832 463.48 196.834 463.48C196.836 463.48 196.838 463.481 196.841 463.484C196.966 463.523 197.082 463.561 197.217 463.6C197.192 463.595 197.17 463.59 197.147 463.585C197.125 463.58 197.102 463.575 197.077 463.57C197.987 463.79 198.637 464.59 198.507 465.55C198.377 466.46 197.457 467.24 196.507 467.06C196.257 467.012 196.025 466.945 195.785 466.86C195.773 466.859 195.765 466.857 195.757 466.85L195.517 466.76C195.431 466.74 195.353 466.711 195.275 466.682C195.236 466.668 195.197 466.653 195.157 466.64C195.107 466.63 195.057 466.61 195.007 466.59H194.987C194.985 466.59 194.983 466.589 194.981 466.589C194.979 466.588 194.976 466.587 194.974 466.585C194.968 466.583 194.963 466.58 194.957 466.58L194.867 466.55C194.877 466.56 194.877 466.56 194.887 466.56C194.071 466.274 193.259 465.961 192.449 465.648L192.44 465.644C192.062 465.498 191.685 465.352 191.307 465.21C190.227 464.8 189.127 464.4 188.037 464.01C186.667 463.543 185.297 463.087 183.927 462.64C186.197 465.16 188.547 467.59 190.907 470.02C193.727 472.93 196.547 475.84 199.347 478.77C200.382 479.85 201.406 480.935 202.431 482.022L202.441 482.032C202.695 482.3 202.948 482.569 203.202 482.838L203.487 483.14C204.575 484.291 205.637 485.468 206.699 486.646L206.927 486.899C207.117 487.109 207.307 487.32 207.497 487.53C209.112 489.311 210.708 491.104 212.303 492.896L212.32 492.915C213.308 494.025 214.295 495.134 215.287 496.24L215.603 496.595C216.618 497.738 217.637 498.885 218.697 500C218.974 500.287 219.245 500.58 219.516 500.873C219.99 501.384 220.465 501.896 220.967 502.38C221.168 502.575 221.37 502.771 221.571 502.968L221.642 503.037C221.84 503.229 222.037 503.422 222.235 503.614C222.485 503.857 222.735 504.099 222.987 504.34L223.174 504.496C223.79 505.014 224.402 505.527 225.047 506L225.057 506.01Z" fill="white"/>
<path d="M278.294 491.567C278.006 491.567 277.772 491.468 277.592 491.27C277.412 491.072 277.322 490.721 277.322 490.217C277.322 489.839 277.439 489.227 277.673 488.381C277.925 487.517 278.258 486.509 278.672 485.357C279.104 484.205 279.581 482.99 280.103 481.712C280.643 480.416 281.201 479.129 281.777 477.851C282.353 476.573 282.92 475.394 283.478 474.314C284.036 473.216 284.549 472.289 285.017 471.533C285.485 470.777 285.881 470.282 286.205 470.048C286.583 469.778 286.934 469.643 287.258 469.643C287.438 469.643 287.618 469.661 287.798 469.697C287.978 469.733 288.131 469.796 288.257 469.886C288.581 470.084 288.86 470.525 289.094 471.209C289.346 471.875 289.562 472.694 289.742 473.666C289.922 474.62 290.066 475.646 290.174 476.744C290.3 477.824 290.408 478.895 290.498 479.957C291.038 479.885 291.488 479.831 291.848 479.795C292.208 479.759 292.469 479.741 292.631 479.741C293.243 479.741 293.63 479.822 293.792 479.984C293.954 480.146 294.044 480.335 294.062 480.551C294.098 480.875 294.008 481.163 293.792 481.415C293.576 481.667 293.27 481.856 292.874 481.982C292.748 482.018 292.478 482.081 292.064 482.171C291.668 482.243 291.191 482.333 290.633 482.441C290.651 482.981 290.66 483.485 290.66 483.953C290.678 484.403 290.687 484.79 290.687 485.114C290.687 486.752 290.588 487.985 290.39 488.813C290.192 489.623 289.949 490.172 289.661 490.46C289.373 490.748 289.094 490.892 288.824 490.892C288.5 490.892 288.275 490.802 288.149 490.622C288.023 490.424 287.96 490.145 287.96 489.785V487.868C287.96 487.202 287.951 486.446 287.933 485.6C287.933 484.736 287.924 483.827 287.906 482.873C286.844 483.053 285.764 483.224 284.666 483.386C283.586 483.548 282.65 483.692 281.858 483.818C281.462 484.844 281.12 485.771 280.832 486.599C280.544 487.409 280.346 488.03 280.238 488.462C279.968 489.362 279.725 490.037 279.509 490.487C279.293 490.919 279.086 491.207 278.888 491.351C278.708 491.495 278.51 491.567 278.294 491.567ZM282.776 481.415C283.712 481.199 284.603 481.001 285.449 480.821C286.313 480.641 287.105 480.488 287.825 480.362C287.771 478.742 287.672 477.194 287.528 475.718C287.402 474.224 287.213 473.045 286.961 472.181C286.619 472.775 286.214 473.567 285.746 474.557C285.278 475.547 284.783 476.645 284.261 477.851C283.757 479.039 283.262 480.227 282.776 481.415ZM306.63 491.648C306.324 491.648 306.063 491.513 305.847 491.243C305.631 490.973 305.523 490.577 305.523 490.055C305.523 489.443 305.613 488.57 305.793 487.436C305.991 486.302 306.279 484.799 306.657 482.927C306.171 484.079 305.631 485.168 305.037 486.194C304.461 487.22 303.849 488.057 303.201 488.705C302.553 489.353 301.887 489.677 301.203 489.677C300.537 489.677 299.943 489.416 299.421 488.894C298.917 488.372 298.665 487.454 298.665 486.14C298.665 485.402 298.728 484.574 298.854 483.656C298.98 482.72 299.142 481.793 299.34 480.875C299.538 479.957 299.736 479.138 299.934 478.418C300.132 477.68 300.312 477.14 300.474 476.798C300.6 476.51 300.726 476.321 300.852 476.231C300.978 476.123 301.149 476.069 301.365 476.069C301.617 476.069 301.887 476.177 302.175 476.393C302.463 476.609 302.607 476.969 302.607 477.473C302.607 477.599 302.544 477.896 302.418 478.364C302.31 478.814 302.166 479.372 301.986 480.038C301.824 480.686 301.653 481.388 301.473 482.144C301.293 482.9 301.14 483.656 301.014 484.412C300.906 485.168 300.852 485.861 300.852 486.491C300.852 486.833 300.888 487.112 300.96 487.328C301.032 487.544 301.212 487.652 301.5 487.652C301.752 487.652 302.067 487.4 302.445 486.896C302.841 486.392 303.264 485.726 303.714 484.898C304.182 484.052 304.659 483.116 305.145 482.09C305.649 481.064 306.135 480.011 306.603 478.931C307.089 477.851 307.53 476.825 307.926 475.853C308.07 475.529 308.223 475.331 308.385 475.259C308.547 475.169 308.727 475.124 308.925 475.124C309.249 475.124 309.537 475.259 309.789 475.529C310.059 475.781 310.194 476.114 310.194 476.528C310.194 476.798 310.14 477.266 310.032 477.932C309.942 478.598 309.807 479.381 309.627 480.281C309.465 481.163 309.276 482.099 309.06 483.089C308.862 484.079 308.664 485.06 308.466 486.032C308.268 486.986 308.079 487.859 307.899 488.651C307.737 489.443 307.602 490.082 307.494 490.568C307.404 491.018 307.278 491.306 307.116 491.432C306.972 491.576 306.81 491.648 306.63 491.648ZM314.962 498.128C313.576 498.128 312.559 497.993 311.911 497.723C311.263 497.453 310.939 497.093 310.939 496.643C310.939 496.355 311.029 496.121 311.209 495.941C311.407 495.761 311.65 495.671 311.938 495.671C312.244 495.671 312.685 495.716 313.261 495.806C313.837 495.914 314.404 495.968 314.962 495.968C316.816 495.968 318.337 495.419 319.525 494.321C320.713 493.223 321.622 491.54 322.252 489.272C322.882 486.986 323.305 484.07 323.521 480.524C322.981 481.622 322.369 482.72 321.685 483.818C321.019 484.898 320.299 485.888 319.525 486.788C318.769 487.67 317.986 488.381 317.176 488.921C316.366 489.461 315.565 489.731 314.773 489.731C314.017 489.731 313.459 489.542 313.099 489.164C312.757 488.786 312.586 488.165 312.586 487.301C312.586 486.527 312.802 485.708 313.234 484.844C313.666 483.962 314.242 483.08 314.962 482.198C315.682 481.316 316.474 480.479 317.338 479.687C318.202 478.877 319.066 478.166 319.93 477.554C320.812 476.924 321.631 476.429 322.387 476.069C323.143 475.709 323.755 475.529 324.223 475.529C324.691 475.529 325.051 475.691 325.303 476.015C325.555 476.339 325.681 476.951 325.681 477.851C325.681 479.957 325.609 482.009 325.465 484.007C325.339 485.987 325.078 487.832 324.682 489.542C324.286 491.252 323.692 492.746 322.9 494.024C322.126 495.32 321.091 496.328 319.795 497.048C318.499 497.768 316.888 498.128 314.962 498.128ZM323.035 477.878C322.135 478.454 321.208 479.102 320.254 479.822C319.3 480.542 318.409 481.307 317.581 482.117C316.771 482.927 316.114 483.764 315.61 484.628C315.106 485.492 314.854 486.356 314.854 487.22C314.854 487.49 315.025 487.625 315.367 487.625C315.637 487.625 316.006 487.418 316.474 487.004C316.96 486.572 317.5 486.005 318.094 485.303C318.688 484.583 319.291 483.8 319.903 482.954C320.533 482.09 321.118 481.217 321.658 480.335C322.198 479.453 322.657 478.634 323.035 477.878ZM338.719 491.648C338.413 491.648 338.152 491.513 337.936 491.243C337.72 490.973 337.612 490.577 337.612 490.055C337.612 489.443 337.702 488.57 337.882 487.436C338.08 486.302 338.368 484.799 338.746 482.927C338.26 484.079 337.72 485.168 337.126 486.194C336.55 487.22 335.938 488.057 335.29 488.705C334.642 489.353 333.976 489.677 333.292 489.677C332.626 489.677 332.032 489.416 331.51 488.894C331.006 488.372 330.754 487.454 330.754 486.14C330.754 485.402 330.817 484.574 330.943 483.656C331.069 482.72 331.231 481.793 331.429 480.875C331.627 479.957 331.825 479.138 332.023 478.418C332.221 477.68 332.401 477.14 332.563 476.798C332.689 476.51 332.815 476.321 332.941 476.231C333.067 476.123 333.238 476.069 333.454 476.069C333.706 476.069 333.976 476.177 334.264 476.393C334.552 476.609 334.696 476.969 334.696 477.473C334.696 477.599 334.633 477.896 334.507 478.364C334.399 478.814 334.255 479.372 334.075 480.038C333.913 480.686 333.742 481.388 333.562 482.144C333.382 482.9 333.229 483.656 333.103 484.412C332.995 485.168 332.941 485.861 332.941 486.491C332.941 486.833 332.977 487.112 333.049 487.328C333.121 487.544 333.301 487.652 333.589 487.652C333.841 487.652 334.156 487.4 334.534 486.896C334.93 486.392 335.353 485.726 335.803 484.898C336.271 484.052 336.748 483.116 337.234 482.09C337.738 481.064 338.224 480.011 338.692 478.931C339.178 477.851 339.619 476.825 340.015 475.853C340.159 475.529 340.312 475.331 340.474 475.259C340.636 475.169 340.816 475.124 341.014 475.124C341.338 475.124 341.626 475.259 341.878 475.529C342.148 475.781 342.283 476.114 342.283 476.528C342.283 476.798 342.229 477.266 342.121 477.932C342.031 478.598 341.896 479.381 341.716 480.281C341.554 481.163 341.365 482.099 341.149 483.089C340.951 484.079 340.753 485.06 340.555 486.032C340.357 486.986 340.168 487.859 339.988 488.651C339.826 489.443 339.691 490.082 339.583 490.568C339.493 491.018 339.367 491.306 339.205 491.432C339.061 491.576 338.899 491.648 338.719 491.648ZM356.42 479.363C356.42 479.939 356.24 480.506 355.88 481.064C355.52 481.604 355.043 482.126 354.449 482.63C353.855 483.116 353.198 483.575 352.478 484.007C351.758 484.439 351.038 484.817 350.318 485.141C349.598 485.465 348.941 485.726 348.347 485.924C348.203 486.626 348.131 487.247 348.131 487.787C348.131 488.129 348.212 488.372 348.374 488.516C348.536 488.66 348.788 488.732 349.13 488.732C349.886 488.732 350.687 488.597 351.533 488.327C352.379 488.057 353.243 487.706 354.125 487.274C355.007 486.842 355.853 486.383 356.663 485.897C357.473 485.411 358.211 484.952 358.877 484.52C359.561 484.088 360.128 483.737 360.578 483.467C361.028 483.197 361.325 483.062 361.469 483.062C361.685 483.062 361.847 483.134 361.955 483.278C362.081 483.404 362.144 483.557 362.144 483.737C362.144 483.881 361.919 484.16 361.469 484.574C361.037 484.988 360.452 485.474 359.714 486.032C358.976 486.572 358.148 487.13 357.23 487.706C356.312 488.282 355.358 488.822 354.368 489.326C353.396 489.83 352.451 490.235 351.533 490.541C350.633 490.847 349.823 491 349.103 491C348.167 491 347.438 490.649 346.916 489.947C346.394 489.245 346.133 488.156 346.133 486.68C346.133 485.69 346.259 484.691 346.511 483.683C346.781 482.675 347.141 481.712 347.591 480.794C348.059 479.858 348.572 479.03 349.13 478.31C349.706 477.572 350.309 476.996 350.939 476.582C351.569 476.15 352.181 475.934 352.775 475.934C353.909 475.934 354.8 476.249 355.448 476.879C356.096 477.509 356.42 478.337 356.42 479.363ZM348.914 483.845C349.472 483.503 350.048 483.143 350.642 482.765C351.236 482.387 351.785 482 352.289 481.604C352.793 481.208 353.198 480.794 353.504 480.362C353.828 479.912 353.99 479.453 353.99 478.985C353.99 478.319 353.63 477.986 352.91 477.986C352.46 477.986 351.983 478.274 351.479 478.85C350.993 479.408 350.525 480.137 350.075 481.037C349.625 481.937 349.238 482.873 348.914 483.845ZM375.955 491.27C374.893 491.27 374.056 490.865 373.444 490.055C372.832 489.245 372.526 488.192 372.526 486.896C372.526 486.428 372.589 485.933 372.715 485.411C372.859 484.871 373.039 484.385 373.255 483.953C373.129 483.827 373.03 483.656 372.958 483.44C372.886 483.206 372.85 482.918 372.85 482.576C372.85 481.514 373.03 480.542 373.39 479.66C373.75 478.778 374.227 478.013 374.821 477.365C375.415 476.699 376.072 476.186 376.792 475.826C377.53 475.466 378.277 475.286 379.033 475.286C380.275 475.286 381.283 475.736 382.057 476.636C382.831 477.518 383.218 478.868 383.218 480.686C383.218 481.64 383.074 482.612 382.786 483.602C382.516 484.592 382.138 485.546 381.652 486.464C381.184 487.382 380.635 488.201 380.005 488.921C379.393 489.641 378.736 490.217 378.034 490.649C377.35 491.063 376.657 491.27 375.955 491.27ZM375.037 483.035C375.145 483.179 375.199 483.368 375.199 483.602C375.199 483.872 375.145 484.142 375.037 484.412C374.947 484.682 374.848 485.051 374.74 485.519C374.632 485.987 374.578 486.653 374.578 487.517C374.578 488.381 374.92 488.813 375.604 488.813C376.36 488.813 377.062 488.516 377.71 487.922C378.358 487.31 378.934 486.527 379.438 485.573C379.942 484.619 380.329 483.602 380.599 482.522C380.887 481.424 381.031 480.389 381.031 479.417C381.031 478.787 380.914 478.346 380.68 478.094C380.446 477.824 380.023 477.689 379.411 477.689C378.781 477.689 378.124 477.905 377.44 478.337C376.774 478.751 376.216 479.318 375.766 480.038C375.316 480.758 375.091 481.568 375.091 482.468C375.091 482.666 375.073 482.855 375.037 483.035ZM396.716 477.419C397.202 476.249 397.661 475.043 398.093 473.801C398.543 472.559 398.948 471.29 399.308 469.994C399.416 469.634 399.578 469.346 399.794 469.13C400.028 468.896 400.298 468.779 400.604 468.779C400.82 468.779 401 468.86 401.144 469.022C401.306 469.184 401.387 469.4 401.387 469.67C401.387 470.012 401.252 470.606 400.982 471.452C400.73 472.298 400.406 473.369 400.01 474.665C399.632 475.961 399.245 477.455 398.849 479.147C398.471 480.821 398.147 482.675 397.877 484.709C397.625 486.743 397.499 488.912 397.499 491.216C397.499 491.72 397.391 492.134 397.175 492.458C396.959 492.8 396.698 492.971 396.392 492.971C396.212 492.971 396.041 492.926 395.879 492.836C395.717 492.746 395.573 492.53 395.447 492.188C395.339 491.864 395.249 491.351 395.177 490.649C395.105 489.929 395.069 488.957 395.069 487.733C395.069 486.797 395.123 485.78 395.231 484.682C394.403 486.176 393.503 487.481 392.531 488.597C391.577 489.695 390.65 490.541 389.75 491.135C388.868 491.729 388.112 492.026 387.482 492.026C386.708 492.026 386.078 491.765 385.592 491.243C385.124 490.739 384.89 489.983 384.89 488.975C384.89 488.093 385.097 487.184 385.511 486.248C385.925 485.312 386.474 484.394 387.158 483.494C387.842 482.576 388.598 481.712 389.426 480.902C390.254 480.092 391.082 479.381 391.91 478.769C392.756 478.139 393.539 477.653 394.259 477.311C394.979 476.951 395.564 476.771 396.014 476.771C396.194 476.771 396.356 476.834 396.5 476.96C396.644 477.086 396.716 477.239 396.716 477.419ZM396.365 478.256C396.239 478.382 396.086 478.508 395.906 478.634C395.726 478.76 395.528 478.895 395.312 479.039C394.52 479.597 393.647 480.245 392.693 480.983C391.757 481.703 390.857 482.495 389.993 483.359C389.147 484.205 388.454 485.096 387.914 486.032C387.374 486.968 387.104 487.931 387.104 488.921C387.104 489.353 387.32 489.569 387.752 489.569C388.346 489.569 388.994 489.29 389.696 488.732C390.416 488.156 391.154 487.364 391.91 486.356C392.666 485.33 393.422 484.133 394.178 482.765C394.934 481.379 395.663 479.876 396.365 478.256ZM404.183 491.135C403.841 491.135 403.535 491.009 403.265 490.757C402.995 490.487 402.86 490.073 402.86 489.515C402.86 489.119 402.914 488.57 403.022 487.868C403.13 487.148 403.274 486.365 403.454 485.519C403.634 484.673 403.823 483.836 404.021 483.008C404.237 482.162 404.453 481.406 404.669 480.74C404.885 480.074 405.074 479.579 405.236 479.255C405.38 479.003 405.515 478.841 405.641 478.769C405.785 478.697 405.92 478.661 406.046 478.661C406.298 478.661 406.514 478.742 406.694 478.904C406.892 479.066 406.991 479.381 406.991 479.849C406.991 480.119 406.937 480.569 406.829 481.199C406.739 481.811 406.613 482.531 406.451 483.359C406.307 484.169 406.145 485.006 405.965 485.87C405.803 486.716 405.641 487.526 405.479 488.3C405.317 489.074 405.191 489.722 405.101 490.244C405.029 490.532 404.903 490.757 404.723 490.919C404.561 491.063 404.381 491.135 404.183 491.135ZM406.829 476.204C406.415 476.204 406.019 476.078 405.641 475.826C405.281 475.574 405.101 475.169 405.101 474.611C405.101 474.143 405.209 473.765 405.425 473.477C405.659 473.189 405.929 472.982 406.235 472.856C406.559 472.712 406.838 472.64 407.072 472.64C407.306 472.64 407.567 472.694 407.855 472.802C408.161 472.892 408.422 473.072 408.638 473.342C408.854 473.594 408.962 473.972 408.962 474.476C408.962 474.818 408.845 475.124 408.611 475.394C408.377 475.646 408.089 475.844 407.747 475.988C407.423 476.132 407.117 476.204 406.829 476.204ZM414.583 491.27C413.521 491.27 412.684 490.865 412.072 490.055C411.46 489.245 411.154 488.192 411.154 486.896C411.154 486.428 411.217 485.933 411.343 485.411C411.487 484.871 411.667 484.385 411.883 483.953C411.757 483.827 411.658 483.656 411.586 483.44C411.514 483.206 411.478 482.918 411.478 482.576C411.478 481.514 411.658 480.542 412.018 479.66C412.378 478.778 412.855 478.013 413.449 477.365C414.043 476.699 414.7 476.186 415.42 475.826C416.158 475.466 416.905 475.286 417.661 475.286C418.903 475.286 419.911 475.736 420.685 476.636C421.459 477.518 421.846 478.868 421.846 480.686C421.846 481.64 421.702 482.612 421.414 483.602C421.144 484.592 420.766 485.546 420.28 486.464C419.812 487.382 419.263 488.201 418.633 488.921C418.021 489.641 417.364 490.217 416.662 490.649C415.978 491.063 415.285 491.27 414.583 491.27ZM413.665 483.035C413.773 483.179 413.827 483.368 413.827 483.602C413.827 483.872 413.773 484.142 413.665 484.412C413.575 484.682 413.476 485.051 413.368 485.519C413.26 485.987 413.206 486.653 413.206 487.517C413.206 488.381 413.548 488.813 414.232 488.813C414.988 488.813 415.69 488.516 416.338 487.922C416.986 487.31 417.562 486.527 418.066 485.573C418.57 484.619 418.957 483.602 419.227 482.522C419.515 481.424 419.659 480.389 419.659 479.417C419.659 478.787 419.542 478.346 419.308 478.094C419.074 477.824 418.651 477.689 418.039 477.689C417.409 477.689 416.752 477.905 416.068 478.337C415.402 478.751 414.844 479.318 414.394 480.038C413.944 480.758 413.719 481.568 413.719 482.468C413.719 482.666 413.701 482.855 413.665 483.035Z" fill="white"/>
</g>
<defs>
<filter id="filter0_d_136_705" x="216.614" y="167.11" width="304.833" height="180.004" filterUnits="userSpaceOnUse" color-interpolation-filters="sRGB">
<feFlood flood-opacity="0" result="BackgroundImageFix"/>
<feColorMatrix in="SourceAlpha" type="matrix" values="0 0 0 0 0 0 0 0 0 0 0 0 0 0 0 0 0 0 127 0" result="hardAlpha"/>
<feOffset dx="-7.15151" dy="7.15151"/>
<feComposite in2="hardAlpha" operator="out"/>
<feColorMatrix type="matrix" values="0 0 0 0 0.0862745 0 0 0 0 0.0862745 0 0 0 0 0.0862745 0 0 0 0.5 0"/>
<feBlend mode="normal" in2="BackgroundImageFix" result="effect1_dropShadow_136_705"/>
<feBlend mode="normal" in="SourceGraphic" in2="effect1_dropShadow_136_705" result="shape"/>
</filter>
<filter id="filter1_d_136_705" x="377.523" y="304.503" width="19.4123" height="31.1128" filterUnits="userSpaceOnUse" color-interpolation-filters="sRGB">
<feFlood flood-opacity="0" result="BackgroundImageFix"/>
<feColorMatrix in="SourceAlpha" type="matrix" values="0 0 0 0 0 0 0 0 0 0 0 0 0 0 0 0 0 0 127 0" result="hardAlpha"/>
<feOffset dx="-1.78788" dy="2.68182"/>
<feComposite in2="hardAlpha" operator="out"/>
<feColorMatrix type="matrix" values="0 0 0 0 0 0 0 0 0 0 0 0 0 0 0 0 0 0 0.25 0"/>
<feBlend mode="normal" in2="BackgroundImageFix" result="effect1_dropShadow_136_705"/>
<feBlend mode="normal" in="SourceGraphic" in2="effect1_dropShadow_136_705" result="shape"/>
</filter>
<radialGradient id="paint0_radial_136_705" cx="0" cy="0" r="1" gradientUnits="userSpaceOnUse" gradientTransform="translate(77 -89) rotate(72.2337) scale(682.185 693.946)">
<stop stop-color="#B5C2FB"/>
<stop offset="1" stop-color="#0C31A1"/>
</radialGradient>
<clipPath id="clip0_136_705">
<rect width="570.317" height="560.651" rx="28.9992" fill="white"/>
</clipPath>
</defs>
</svg>
