<svg width="71" height="71" viewBox="0 0 71 71" fill="none" xmlns="http://www.w3.org/2000/svg">
<g clip-path="url(#clip0_187_1346)">
<path d="M54.2127 0H16.5957C7.43016 0 0 7.43016 0 16.5957V54.2127C0 63.3783 7.43016 70.8084 16.5957 70.8084H54.2127C63.3783 70.8084 70.8084 63.3783 70.8084 54.2127V16.5957C70.8084 7.43016 63.3783 0 54.2127 0Z" fill="url(#paint0_radial_187_1346)"/>
<path d="M54.2127 0H16.5957C7.43016 0 0 7.43016 0 16.5957V54.2127C0 63.3783 7.43016 70.8084 16.5957 70.8084H54.2127C63.3783 70.8084 70.8084 63.3783 70.8084 54.2127V16.5957C70.8084 7.43016 63.3783 0 54.2127 0Z" fill="url(#paint1_radial_187_1346)"/>
<path d="M35.4067 7.74463C27.8949 7.74463 26.952 7.77754 24.0019 7.91169C21.0572 8.04667 19.0472 8.51273 17.2886 9.19676C15.4692 9.90318 13.926 10.8483 12.3887 12.3862C10.85 13.9238 9.90489 15.4669 9.19625 17.2855C8.51029 19.0447 8.04367 21.0555 7.91118 23.9988C7.77925 26.9492 7.74467 27.8924 7.74467 35.4045C7.74467 42.9165 7.77787 43.8564 7.91174 46.8066C8.04727 49.7512 8.51333 51.7612 9.1968 53.5198C9.90378 55.3392 10.8489 56.8824 12.3868 58.4197C13.9238 59.9584 15.4669 60.9057 17.285 61.6122C19.045 62.2962 21.0553 62.7622 23.9994 62.8972C26.9498 63.0314 27.8919 63.0643 35.4034 63.0643C42.916 63.0643 43.8559 63.0314 46.806 62.8972C49.7507 62.7622 51.7629 62.2962 53.5229 61.6122C55.3415 60.9057 56.8824 59.9584 58.4192 58.4197C59.9579 56.8824 60.9027 55.3392 61.6116 53.5206C62.2915 51.7612 62.7584 49.7506 62.8967 46.8071C63.0292 43.8569 63.0638 42.9165 63.0638 35.4045C63.0638 27.8924 63.0292 26.9498 62.8967 23.9993C62.7584 21.0547 62.2915 19.0449 61.6116 17.2863C60.9027 15.4669 59.9579 13.9238 58.4192 12.3862C56.8808 10.8478 55.3421 9.90263 53.5212 9.19703C51.7579 8.51273 49.7468 8.04639 46.8022 7.91169C43.8517 7.77754 42.9124 7.74463 35.3981 7.74463H35.4067ZM32.9254 12.7292C33.662 12.7281 34.4837 12.7292 35.4067 12.7292C42.7921 12.7292 43.6672 12.7557 46.5837 12.8882C49.2805 13.0116 50.7442 13.4621 51.7192 13.8408C53.0101 14.342 53.9303 14.9414 54.8978 15.9097C55.8659 16.8778 56.465 17.7997 56.9676 19.0906C57.3463 20.0642 57.7974 21.5279 57.9202 24.2247C58.0527 27.1406 58.0815 28.0163 58.0815 35.3981C58.0815 42.7799 58.0527 43.6558 57.9202 46.5714C57.7968 49.2682 57.3463 50.732 56.9676 51.7059C56.4664 52.9968 55.8659 53.9159 54.8978 54.8834C53.9298 55.8515 53.0106 56.4506 51.7192 56.9521C50.7453 57.3324 49.2805 57.7819 46.5837 57.9052C43.6678 58.0377 42.7921 58.0665 35.4067 58.0665C28.0211 58.0665 27.1456 58.0377 24.23 57.9052C21.5332 57.7808 20.0695 57.3302 19.0937 56.9515C17.8031 56.4501 16.8809 55.8509 15.9128 54.8829C14.9447 53.9148 14.3456 52.9951 13.8431 51.7037C13.4644 50.7298 13.0133 49.266 12.8905 46.5692C12.758 43.6534 12.7314 42.7777 12.7314 35.3912C12.7314 28.0047 12.758 27.1337 12.8905 24.2178C13.0138 21.521 13.4644 20.0573 13.8431 19.0823C14.3445 17.7914 14.9447 16.8695 15.9131 15.9014C16.8815 14.9333 17.8031 14.334 19.0939 13.8317C20.0689 13.4513 21.5332 13.0019 24.23 12.878C26.7816 12.7626 27.7705 12.728 32.9254 12.7222V12.7292ZM50.1714 17.3217C48.3389 17.3217 46.8522 18.8071 46.8522 20.6398C46.8522 22.4722 48.3389 23.9589 50.1714 23.9589C52.0038 23.9589 53.4905 22.4722 53.4905 20.6398C53.4905 18.8073 52.0038 17.3206 50.1714 17.3206V17.3217ZM35.4067 21.1999C27.5625 21.1999 21.2024 27.5599 21.2024 35.4045C21.2024 43.249 27.5625 49.606 35.4067 49.606C43.2512 49.606 49.6091 43.249 49.6091 35.4045C49.6091 27.5602 43.2507 21.1999 35.4062 21.1999H35.4067ZM35.4067 26.1844C40.4986 26.1844 44.6268 30.3121 44.6268 35.4045C44.6268 40.4963 40.4986 44.6245 35.4067 44.6245C30.3149 44.6245 26.187 40.4963 26.187 35.4045C26.187 30.3121 30.3146 26.1844 35.4067 26.1844Z" fill="white"/>
</g>
<defs>
<radialGradient id="paint0_radial_187_1346" cx="0" cy="0" r="1" gradientUnits="userSpaceOnUse" gradientTransform="translate(18.8085 76.2621) rotate(-90) scale(70.1764 65.2696)">
<stop stop-color="#FFDD55"/>
<stop offset="0.1" stop-color="#FFDD55"/>
<stop offset="0.5" stop-color="#FF543E"/>
<stop offset="1" stop-color="#C837AB"/>
</radialGradient>
<radialGradient id="paint1_radial_187_1346" cx="0" cy="0" r="1" gradientUnits="userSpaceOnUse" gradientTransform="translate(-11.8607 5.1007) rotate(78.681) scale(31.3692 129.305)">
<stop stop-color="#3771C8"/>
<stop offset="0.128" stop-color="#3771C8"/>
<stop offset="1" stop-color="#6600FF" stop-opacity="0"/>
</radialGradient>
<clipPath id="clip0_187_1346">
<rect width="70.8084" height="70.8084" fill="white"/>
</clipPath>
</defs>
</svg>
