<svg width="140" height="66" viewBox="0 0 140 66" fill="none" xmlns="http://www.w3.org/2000/svg">
<g clip-path="url(#clip0_900_6800)">
<path d="M18.8612 38.5331C18.8612 38.5331 17.2059 39.2481 15.6491 40.2636C15.6439 39.647 15.675 39.0461 15.7294 38.4684C16.5609 38.313 17.6178 38.2715 18.8612 38.5331Z" fill="#233E97"/>
<path d="M19.9804 42.7533C19.9804 42.7533 17.9857 43.6159 16.3174 44.7894C16.1283 44.1702 15.9858 43.5537 15.8796 42.9449C16.7863 42.6315 18.1877 42.3776 19.9804 42.7558" fill="#233E97"/>
<path d="M59.0109 43.2092C59.0109 43.2092 60.4589 44.2843 61.7386 45.6313C61.8863 45.0329 61.9925 44.4423 62.0728 43.8672C61.2982 43.5253 60.2802 43.2429 59.0109 43.2092Z" fill="#233E97"/>
<path d="M56.9515 47.061C56.9515 47.061 58.6949 48.3589 60.0471 49.8846C60.3735 49.3277 60.6559 48.7578 60.8968 48.1905C60.086 47.6776 58.7804 47.1077 56.9489 47.0636" fill="#233E97"/>
<path d="M56.1432 55.8948C56.0396 55.8948 55.9412 55.8327 55.9049 55.729C55.8608 55.6021 55.9282 55.4622 56.0577 55.4182C57.3063 54.9882 63.64 52.693 65.8367 49.8046C67.8003 47.2193 67.1605 44.1937 67.1553 44.1626C67.1268 44.0305 67.2097 43.8984 67.3418 43.8699C67.4739 43.8414 67.606 43.9243 67.6345 44.0564C67.663 44.1885 68.3288 47.3385 66.2279 50.1025C63.9457 53.1049 57.4903 55.4441 56.2183 55.8845C56.1924 55.8922 56.1691 55.8974 56.1432 55.8974V55.8948Z" fill="#D8E6EA"/>
<path d="M67.4143 43.8616C67.5179 43.8694 67.6112 43.9445 67.6345 44.0533C67.663 44.1854 68.3287 47.3354 66.2279 50.0995C63.9457 53.1018 57.4902 55.441 56.2183 55.8814C56.1924 55.8892 56.1691 55.8944 56.1432 55.8944C56.1354 55.8944 56.125 55.8944 56.1173 55.8944C56.024 55.8866 55.9385 55.8244 55.9048 55.7312C55.8608 55.6042 55.9282 55.4643 56.0577 55.4203C57.3063 54.9903 63.64 52.6951 65.8367 49.8068C67.8003 47.2215 67.1604 44.1958 67.1552 44.1647C67.1268 44.0326 67.2096 43.9005 67.3418 43.872C67.3651 43.8668 67.391 43.8642 67.4143 43.8668M67.492 42.8902C67.3703 42.8798 67.2511 42.8902 67.1319 42.9161C66.4765 43.0612 66.0621 43.7088 66.2045 44.3616C66.2175 44.4238 66.7175 47.035 65.0647 49.2109C63.4923 51.2781 59.06 53.3505 55.7416 54.4955C55.4334 54.6017 55.1873 54.8219 55.0448 55.1146C54.9023 55.4073 54.8816 55.7389 54.9878 56.0446C55.1458 56.5031 55.5603 56.8243 56.0421 56.8606C56.0836 56.8632 56.1276 56.8658 56.1691 56.8632C56.2934 56.8606 56.4152 56.8373 56.5343 56.7984C58.3891 56.1586 64.614 53.8298 67.0024 50.6849C67.979 49.4026 68.5645 47.838 68.6992 46.1646C68.8028 44.8823 68.6059 43.9419 68.5826 43.8409C68.466 43.315 68.0282 42.9316 67.4894 42.8902H67.492Z" fill="#010101"/>
<path d="M55.7008 53.8941L51.0824 55.4718C50.8726 55.5435 50.7606 55.7717 50.8322 55.9815L51.6881 58.4869C51.7597 58.6967 51.988 58.8087 52.1978 58.737L56.8162 57.1594C57.0261 57.0877 57.1381 56.8595 57.0664 56.6496L56.2106 54.1443C56.1389 53.9345 55.9107 53.8224 55.7008 53.8941Z" fill="#6D768C"/>
<g opacity="0.5">
<path d="M56.5732 55.2054L56.7027 55.5862C56.7208 55.6406 56.7364 55.695 56.7467 55.7494C56.4204 55.0551 55.6173 54.7028 54.8764 54.9567L52.3844 55.809C51.6409 56.0628 51.2213 56.8322 51.3897 57.5808C51.3663 57.5316 51.343 57.4772 51.3249 57.4254L51.1954 57.0446C50.9234 56.2493 51.3482 55.3815 52.1461 55.1095L54.6381 54.2573C55.4334 53.9853 56.3012 54.4101 56.5732 55.208V55.2054Z" fill="white"/>
</g>
<path d="M56.5732 55.2054L56.7027 55.5862C56.9747 56.3815 56.5499 57.2467 55.752 57.5187L53.26 58.3709C52.4647 58.6429 51.5969 58.2207 51.3249 57.4228L51.1954 57.042C51.1436 56.8944 51.1203 56.7441 51.1125 56.5965C51.4959 57.1223 52.1901 57.3632 52.8403 57.1431L55.3324 56.2908C55.98 56.0706 56.3815 55.4541 56.3634 54.8013C56.4489 54.923 56.5214 55.0577 56.5732 55.2054Z" fill="#4F5A75"/>
<path d="M52.6513 58.9616C51.8249 58.8943 51.0763 58.3503 50.7913 57.5187L50.7136 57.2934C50.3328 56.1769 50.9312 54.9568 52.0477 54.5734L54.3869 53.7755C54.9283 53.5916 55.5086 53.6279 56.0241 53.8791C56.537 54.1304 56.9229 54.5682 57.1069 55.1096L57.1846 55.335C57.3685 55.8764 57.3322 56.4566 57.081 56.9722C56.8297 57.4851 56.3919 57.871 55.8505 58.055L53.5113 58.8528C53.2263 58.9513 52.9336 58.985 52.6513 58.9616ZM55.1666 54.7366C55.0215 54.7262 54.8765 54.7443 54.734 54.791L52.3948 55.5888C51.8353 55.7805 51.5374 56.3893 51.7291 56.9463L51.8068 57.1716C51.9985 57.7312 52.6072 58.0291 53.1642 57.8374L55.5034 57.0395C55.7728 56.9463 55.993 56.7546 56.1173 56.4981C56.2442 56.2416 56.2624 55.9515 56.1691 55.6795L56.0914 55.4541C55.9981 55.1847 55.8065 54.9645 55.55 54.8402C55.4282 54.7806 55.2961 54.7443 55.164 54.734L55.1666 54.7366Z" fill="#010101"/>
<path d="M64.3628 39.7821C64.539 38.7433 64.6478 37.6813 64.6892 36.6217C65.1995 23.2135 54.7055 11.8879 41.2973 11.3776C27.889 10.8673 16.5635 21.3613 16.0531 34.7696C16.0117 35.8291 16.0402 36.8963 16.1386 37.9455L13.7891 37.8548C13.7036 36.8057 13.6829 35.7384 13.7217 34.6789C14.2813 19.9858 26.6896 8.48665 41.3853 9.0462C56.0785 9.60574 67.575 22.0141 67.0155 36.7098C66.974 37.7693 66.873 38.8314 66.7072 39.8702L64.3602 39.7795L64.3628 39.7821Z" fill="#D8E6EA"/>
<path d="M67.0181 36.7124C66.9766 37.7719 66.873 38.8314 66.7098 39.8728L64.3629 39.7821C64.539 38.7408 64.6478 37.6813 64.6893 36.6218C65.1996 23.2135 54.7082 11.8879 41.2999 11.3776C27.8916 10.8673 16.5661 21.3587 16.0558 34.7696C16.0143 35.8291 16.0454 36.8938 16.1412 37.9455L13.7917 37.8548C13.7062 36.8057 13.6855 35.7384 13.7243 34.6789C14.2839 19.9832 26.6922 8.48666 41.388 9.0462C56.0811 9.60574 67.5802 22.0141 67.0207 36.7098L67.0181 36.7124Z" fill="#D8E6EA"/>
<path d="M65.8653 36.6681C65.8394 37.339 65.7876 38.0126 65.7099 38.6809H65.6866C65.7643 38.01 65.8161 37.339 65.842 36.6681L64.6893 36.6241C65.1996 23.2158 54.7082 11.8903 41.2999 11.3799C27.8916 10.8696 16.5661 21.361 16.0558 34.7719L14.903 34.7278C14.8771 35.3988 14.8771 36.0723 14.9056 36.7458H14.8797C14.8538 36.0723 14.8538 35.3988 14.8797 34.7278C15.4159 20.6694 27.2881 9.66763 41.3466 10.2039C55.4024 10.7401 66.4042 22.6122 65.8679 36.6707L65.8653 36.6681Z" fill="#A2BECE"/>
<path d="M67.1372 40.3927L63.767 40.2632L63.8629 39.6959C64.0364 38.6778 64.1426 37.6365 64.1815 36.6003C64.4224 30.251 62.1713 24.179 57.84 19.5058C53.5087 14.8326 47.6258 12.1229 41.2765 11.882C34.9273 11.6411 28.8552 13.8922 24.182 18.2235C19.5088 22.5548 16.7992 28.4377 16.5583 34.787C16.5194 35.8231 16.5453 36.8697 16.6412 37.8981L16.693 38.4706L13.3202 38.3411L13.2839 37.8929C13.1984 36.8257 13.1751 35.7377 13.2166 34.6574C13.4912 27.4171 16.579 20.7078 21.9102 15.7703C27.2388 10.8329 34.1631 8.26313 41.4035 8.54032C48.6438 8.8149 55.3506 11.9027 60.2906 17.2339C65.228 22.5625 67.7978 29.4869 67.5206 36.7272C67.4791 37.8049 67.3729 38.8903 67.2071 39.9472L67.1372 40.3901V40.3927ZM64.9483 39.2996L66.2746 39.3514C66.3963 38.4732 66.4766 37.5821 66.5103 36.6935C66.7745 29.7226 64.3032 23.0573 59.5497 17.9256C54.7936 12.7939 48.3382 9.8226 41.3646 9.55578C34.3937 9.28896 27.7284 11.7629 22.5967 16.519C17.4649 21.2751 14.4937 27.7331 14.2269 34.7041C14.1932 35.5926 14.2035 36.4889 14.2605 37.3722L15.5894 37.4241C15.5299 36.5381 15.5143 35.6444 15.548 34.7559C15.7993 28.1372 18.6229 22.003 23.4956 17.4904C28.3682 12.9752 34.6968 10.6282 41.3154 10.8795C47.9341 11.1308 54.0683 13.9544 58.5809 18.8271C63.0961 23.6997 65.443 30.0283 65.1918 36.6469C65.1581 37.5354 65.0752 38.4266 64.9483 39.3047V39.2996Z" fill="#010101"/>
<path d="M60.7051 20.3064C64.7954 25.5237 66.6994 32.3547 65.9352 38.9397C65.7979 38.9345 65.5389 38.9242 65.4016 38.919C65.4949 38.1677 65.5596 37.4113 65.5881 36.6549C65.6088 36.3207 66.0984 36.3415 66.0933 36.673C66.0674 37.3517 66.0155 38.0304 65.9352 38.704L65.6943 38.4216H65.7176L65.456 38.6444C66.316 32.2148 64.5727 25.5133 60.7051 20.3013V20.3064Z" fill="#512819"/>
<path d="M15.1516 34.7357C15.1206 35.4921 15.1309 36.2511 15.1646 37.0075L14.8926 36.9972H14.8667L14.6284 36.9868L14.6232 36.7563C14.4885 31.8499 15.7734 26.8995 18.3431 22.7159C19.1928 21.3248 20.1694 20.014 21.2626 18.8069C20.2031 20.0399 19.2601 21.3715 18.4519 22.7781C16.0195 26.9798 14.8719 31.8913 15.1283 36.7329L14.8848 36.4894H14.9107L14.6491 36.7537C14.6206 36.075 14.6206 35.3937 14.6491 34.715C14.6543 34.5751 14.7708 34.4663 14.9107 34.4715C15.0506 34.4766 15.1594 34.5932 15.1542 34.7331L15.1516 34.7357Z" fill="#010101"/>
<path d="M41.4369 7.66036C36.0824 7.45571 30.6657 8.86234 25.4926 11.8932C24.6118 12.4087 24.1403 13.4501 24.3709 14.3774C24.4823 14.823 26.0754 16.7555 28.0027 16.4395C30.2098 16.0768 31.4118 14.8075 31.9506 13.9345C34.5255 14.0329 36.2534 13.3568 37.8802 12.3569C38.818 12.7714 40.0018 13.0408 41.2323 13.0874C42.4627 13.134 43.6647 12.9553 44.6284 12.6133C46.1723 13.735 47.8457 14.5381 50.4207 14.6365C50.8921 15.5483 51.9931 16.9057 54.1665 17.4342C56.0627 17.8979 57.7983 16.0923 57.9434 15.6546C58.2439 14.7453 57.8527 13.6728 57.0134 13.0926C52.0863 9.67834 46.794 7.86501 41.4369 7.66036Z" fill="#618096"/>
<path d="M57.9436 15.6545C57.7986 16.0923 56.063 17.8979 54.1667 17.4342C51.9933 16.9057 50.8898 15.5483 50.4209 14.6365C47.846 14.538 46.1725 13.7324 44.6286 12.6133C43.6624 12.9553 42.4604 13.134 41.2325 13.0874C40.002 13.0407 38.8182 12.7713 37.8804 12.3569C36.2536 13.3568 34.5258 14.0303 31.9509 13.9344C31.412 14.8074 30.2101 16.0768 28.0004 16.4394C26.0757 16.7555 24.4825 14.823 24.3711 14.3774C24.3142 14.1469 24.2986 13.9085 24.3245 13.6728C24.3996 12.963 24.8323 12.2817 25.4928 11.8932C30.666 8.8649 36.0827 7.45568 41.4372 7.66033C46.7943 7.86498 52.0866 9.6809 57.0137 13.0925C57.6457 13.5303 58.0239 14.2427 58.0447 14.9551C58.0499 15.1934 58.0188 15.4292 57.9436 15.6545Z" fill="#618096"/>
<g opacity="0.5">
<path d="M31.4095 10.1363C34.6916 8.97579 38.0333 8.45251 41.4009 8.58203C44.7685 8.71156 48.0636 9.48352 51.2473 10.8927C53.0321 11.6802 46.3591 9.15712 41.388 8.96801C36.4169 8.77891 29.5702 10.7865 31.4095 10.1363Z" fill="white"/>
</g>
<path d="M57.9436 15.654C57.7986 16.0918 56.063 17.8974 54.1667 17.4337C51.9933 16.9052 50.8898 15.5478 50.4209 14.636C47.846 14.5375 46.1725 13.7319 44.6286 12.6128C43.6624 12.9547 42.4604 13.1335 41.2325 13.0869C40.002 13.0402 38.8182 12.7708 37.8804 12.3563C36.2536 13.3563 34.5258 14.0298 31.9509 13.9339C31.412 14.8069 30.2101 16.0763 28.0004 16.4389C26.0757 16.755 24.4825 14.8225 24.3711 14.3769C24.3142 14.1464 24.2986 13.908 24.3245 13.6723C24.682 14.0194 25.4203 14.4676 26.8839 14.5867C29.262 14.7836 29.8189 13.0765 28.6661 12.2942C28.6661 12.2942 32.7539 13.0635 34.746 12.1491C36.2329 11.4678 35.9557 9.91094 35.9454 9.85913C36.0127 9.89281 38.1524 11.0326 41.305 11.1544C44.4577 11.2735 46.6777 10.2995 46.7476 10.271C46.7347 10.3228 46.3383 11.8538 47.7709 12.6465C49.6904 13.7086 53.8222 13.2526 53.8222 13.2526C52.6125 13.9469 53.0373 15.6903 55.4231 15.6747C56.8919 15.667 57.6613 15.2758 58.0447 14.9572C58.0499 15.1929 58.0188 15.4286 57.9436 15.6566V15.654Z" fill="#41667B"/>
<path d="M55.0345 18.0061C54.7133 18.0295 54.3817 18.0061 54.0475 17.9258C51.742 17.3637 50.5944 15.9338 50.1152 15.1281C47.5014 14.9727 45.8306 14.079 44.5431 13.1749C43.5458 13.4884 42.3723 13.636 41.2118 13.592H41.2066C40.046 13.5479 38.8907 13.3096 37.9219 12.9211C36.5722 13.7241 34.834 14.4883 32.2176 14.4443C31.6788 15.211 30.425 16.5503 28.0833 16.9363C25.8917 17.2964 24.0603 15.224 23.8789 14.4987C23.5966 13.3614 24.1665 12.0817 25.2363 11.4548C30.4691 8.39032 35.9246 6.94225 41.4553 7.15467H41.4578C46.9885 7.3645 52.3171 9.22445 57.3012 12.6776C58.3192 13.3822 58.7907 14.7033 58.4228 15.8146C58.2234 16.413 56.7779 17.8818 55.0345 18.0061ZM44.5923 12.1076C44.7089 12.0999 44.828 12.131 44.9239 12.2035C46.2217 13.1438 47.789 14.0298 50.439 14.1308C50.6203 14.1386 50.7861 14.2422 50.869 14.4054C51.1721 14.9908 52.1099 16.413 54.2859 16.9441C55.8764 17.3326 57.3322 15.7758 57.467 15.4882C57.6923 14.794 57.3841 13.9624 56.7261 13.5065C51.9052 10.1648 46.758 8.36701 41.4242 8.16495C41.419 8.16495 41.4138 8.16495 41.4086 8.16495C36.0774 7.9629 30.8058 9.36434 25.7441 12.3278C25.055 12.732 24.682 13.5376 24.8555 14.2474C24.9669 14.5427 26.301 16.2058 27.9149 15.939C30.1271 15.5763 31.1685 14.2292 31.5156 13.6671C31.6115 13.5117 31.7824 13.421 31.9664 13.4262C34.6164 13.5272 36.2458 12.763 37.611 11.9237C37.7535 11.8356 37.927 11.8253 38.0799 11.8926C38.9839 12.2942 40.1082 12.5377 41.2454 12.5817H41.2506C42.3852 12.6232 43.5225 12.4651 44.455 12.1361C44.4991 12.1206 44.5431 12.1128 44.5871 12.1076H44.5923Z" fill="#010101"/>
<path d="M30.0831 13.0872C30.723 13.2892 31.4224 13.4498 32.0752 13.4421L31.8265 14.4212C31.1504 14.0715 30.6038 13.6078 30.0831 13.0872Z" fill="#512819"/>
<path d="M36.4221 10.8564C36.9609 11.2968 37.5645 11.6828 38.1913 11.9574L37.5696 12.7553C37.093 12.1698 36.72 11.5351 36.4221 10.8564Z" fill="#010101"/>
<path d="M46.1958 11.2271C45.8461 11.8798 45.4265 12.486 44.9058 13.0326L44.3488 12.1907C44.9938 11.9653 45.6259 11.626 46.1958 11.2271Z" fill="#010101"/>
<path d="M52.3482 13.9341C51.7886 14.4159 51.211 14.8356 50.5089 15.1335L50.3354 14.1387C50.9856 14.1957 51.698 14.0895 52.3482 13.9341Z" fill="#010101"/>
<path d="M61.9019 36.6734C61.9019 36.6734 66.5518 55.6771 44.911 57.9437C39.6264 58.4981 34.2745 57.8738 29.2594 56.12C21.2134 53.3068 17.6851 48.9211 16.3666 44.6261C16.1775 44.007 16.035 43.3905 15.9288 42.7817C15.7734 41.8673 15.7034 40.9684 15.6983 40.1006C15.6931 39.484 15.7242 38.883 15.7786 38.3054C16.1412 34.3989 17.6126 31.5132 17.6126 31.5132C16.1438 19.8431 20.3041 13.6052 22.2392 11.3956C22.8764 10.6676 23.7831 10.2247 24.7494 10.1962C30.438 10.0304 35.3081 17.9236 35.3081 17.9236C38.212 17.4754 41.6496 17.8484 41.6496 17.8484C41.6496 17.8484 45.0794 18.2784 47.802 19.3794C47.802 19.3794 54.3558 12.8151 59.8528 14.2865C60.788 14.5378 61.5651 15.1777 62.021 16.0325C63.3966 18.6282 66.013 25.6561 61.8993 36.676" fill="#2BAAE2"/>
<path d="M47.833 19.5427L47.6543 19.6023C47.6543 19.6023 45.0664 18.4107 41.6029 18.0065C38.1369 17.6024 35.3469 18.1672 35.3469 18.1672L35.1863 18.0661C35.1863 18.0661 32.4689 20.2551 32.8316 24.519C32.8601 24.8661 33.2513 24.993 33.4585 24.7262C34.3522 23.5786 36.2458 21.2887 37.7069 20.4986C38.1861 20.2395 38.7431 20.5426 38.8544 21.1177C38.9322 21.5218 38.9866 22.1098 38.9736 22.9569C38.9399 25.1381 38.6394 27.7985 39.7015 28.9772C40.0279 29.3398 40.5331 29.3994 40.9346 29.1222C42.2376 28.2182 42.5588 25.5604 43.0277 23.431C43.209 22.602 43.3981 22.0425 43.5665 21.6669C43.8074 21.1332 44.4188 20.9674 44.8255 21.3301C46.0637 22.4362 47.3823 25.0992 47.9884 26.423C48.1283 26.7312 48.5376 26.6976 48.6438 26.366C49.9753 22.3015 47.8356 19.5453 47.8356 19.5453" fill="#233E97"/>
<path d="M30.3526 19.8558C28.534 20.9308 24.5965 23.1949 21.3299 27.2023C21.0761 27.5132 20.5735 27.3345 20.5761 26.9329C20.5943 24.1378 20.9725 17.2782 24.0914 14.0583C24.4618 13.6749 25.0265 13.5532 25.5265 13.7423C26.6067 14.1541 28.933 15.0401 30.7463 18.431C31.0157 18.9362 30.8499 19.5656 30.3551 19.8584" fill="#F79B2A"/>
<path d="M52.1202 22.3918C53.6408 23.8554 56.954 26.964 59.2129 31.6165C59.3891 31.9792 59.9201 31.9196 60.0108 31.5258C60.6351 28.8032 61.8449 22.0395 59.5497 18.1875C59.2777 17.729 58.7544 17.4803 58.226 17.5502C57.0784 17.7031 54.6123 18.0295 52.0684 20.9127C51.6876 21.3427 51.7083 21.9929 52.1202 22.3918Z" fill="#F79B2A"/>
<path d="M21.0035 27.7903C20.9051 27.7903 20.8066 27.7722 20.7082 27.7385C20.3636 27.6142 20.1409 27.2955 20.1435 26.9277C20.1616 24.0756 20.5527 17.0865 23.7805 13.7551C24.2701 13.25 25.0135 13.0842 25.6767 13.3355C26.7414 13.7396 29.2334 14.6877 31.1245 18.2237C31.5053 18.9361 31.2643 19.8143 30.5727 20.2235L30.4121 20.3194C28.5884 21.397 24.7908 23.6404 21.6641 27.4717C21.4957 27.6763 21.2548 27.7877 21.0061 27.7877L21.0035 27.7903ZM25.0446 14.0815C24.8037 14.0815 24.5706 14.1774 24.3996 14.3535C21.3895 17.4621 21.0242 24.187 21.0061 26.9329C24.2209 22.9772 28.1066 20.6821 29.9743 19.5785L30.1349 19.4827C30.4276 19.3091 30.5286 18.9335 30.3654 18.6278C28.6272 15.3768 26.4279 14.5401 25.371 14.1385C25.2648 14.0971 25.1534 14.079 25.0446 14.079V14.0815Z" fill="#233E97"/>
<path d="M59.5912 32.2872C59.2648 32.2872 58.972 32.1059 58.8244 31.8054C56.6639 27.3549 53.4828 24.3008 51.9544 22.832L51.8197 22.7025C51.2421 22.1455 51.2084 21.2363 51.742 20.6301C54.3947 17.6251 57.0369 17.2754 58.1664 17.1252C58.8658 17.0319 59.5549 17.3635 59.915 17.9697C62.2878 21.9538 61.0625 28.8471 60.4253 31.624C60.3424 31.9815 60.0548 32.2406 59.6896 32.282C59.6559 32.2846 59.6222 32.2872 59.5886 32.2872H59.5912ZM58.4047 17.9697C58.3659 17.9697 58.3244 17.9697 58.283 17.9774C57.1613 18.1251 54.8299 18.4334 52.3896 21.2C52.1617 21.459 52.172 21.8476 52.4181 22.0833L52.5528 22.2129C54.1175 23.7153 57.3711 26.842 59.5989 31.4298C60.2051 28.7538 61.3941 22.1274 59.1793 18.4101C59.0161 18.1355 58.7208 17.9723 58.4021 17.9723L58.4047 17.9697Z" fill="#233E97"/>
<g opacity="0.25">
<path d="M45.1751 55.5862C39.8906 56.1406 34.5386 55.5163 29.5235 53.7625C21.4775 50.9493 17.9493 46.5636 16.6333 42.2686C16.4442 41.6495 16.3017 41.0329 16.1955 40.4242C16.0401 39.5098 15.9702 38.6109 15.965 37.743C15.9624 37.3493 15.9753 36.9607 15.9961 36.5825C15.8847 37.1757 15.7888 37.8078 15.7292 38.4684C15.6748 39.0461 15.6438 39.647 15.6489 40.2636C15.6515 41.1314 15.7215 42.0303 15.8795 42.9447C15.9857 43.5535 16.1282 44.1726 16.3173 44.7891C17.6332 49.0841 21.1615 53.4672 29.21 56.2805C34.2252 58.0342 39.5771 58.6585 44.8617 58.1041C58.9176 56.6328 61.8811 48.0972 62.2334 42.2971C61.1739 47.7889 57.3011 54.3117 45.1777 55.5836" fill="white"/>
</g>
<g opacity="0.6">
<path d="M61.9718 16.193C61.5184 15.3381 60.7387 14.6983 59.8035 14.447C54.304 12.9756 47.7527 19.5399 47.7527 19.5399C45.0301 18.4363 41.6003 18.0089 41.6003 18.0089C41.6003 18.0089 38.1627 17.6385 35.2588 18.084C35.2588 18.084 30.3913 10.1883 24.7001 10.3567C23.7338 10.3852 22.8272 10.8281 22.1899 11.556C22.1018 11.6571 22.0086 11.7685 21.9127 11.885C22.3686 11.6648 22.8686 11.5379 23.3841 11.5224C28.249 11.3799 32.5518 16.7629 34.0698 18.9052C34.4351 19.4233 35.0516 19.7031 35.6837 19.6435C38.5073 19.3741 41.419 19.6901 41.419 19.6901C41.419 19.6901 41.6676 19.7212 42.0847 19.7886C42.1262 20.4543 43.1131 21.1278 44.4161 21.3454C45.4834 21.5242 46.4522 21.3403 46.9056 20.9284C46.9418 20.9413 46.9755 20.9517 47.0118 20.9646C47.6128 21.1693 48.2759 21.0372 48.75 20.6175C50.7188 18.8793 56.1458 14.6309 60.8475 15.8899C61.3267 16.0194 61.7697 16.2448 62.1531 16.5453C62.0909 16.4209 62.0313 16.3018 61.9718 16.193Z" fill="white"/>
</g>
<path d="M41.1444 58.8659C37.0282 58.8659 32.8964 58.1717 29.021 56.8168C22.4257 54.5113 18.1074 50.9157 16.1904 46.1311C13.5015 39.4244 16.4365 32.7177 16.9805 31.5779C15.5376 19.7446 19.8404 13.3798 21.7625 11.1831C22.5086 10.3308 23.5732 9.82312 24.6846 9.78944C30.0365 9.63401 34.5335 15.9496 35.5386 17.4702C38.3907 17.0972 41.5226 17.4287 41.6599 17.4417C41.805 17.4598 44.9317 17.8588 47.6206 18.8768C48.9495 17.6282 54.7832 12.5146 59.9512 13.8979C61.0237 14.1855 61.9433 14.9238 62.4743 15.9237C63.8421 18.5012 66.5647 25.6872 62.4407 36.8702C62.7075 38.1059 64.0209 45.3074 59.8631 51.2162C56.8971 55.4309 51.869 57.9359 44.9187 58.6664C43.6675 58.7985 42.406 58.8633 41.1444 58.8633V58.8659ZM24.8814 10.9241C24.827 10.9241 24.7752 10.9241 24.7208 10.9241C23.9256 10.9474 23.1588 11.3152 22.62 11.9292C20.7885 14.0197 16.6826 20.1176 18.1307 31.6012C18.1436 31.7152 18.1255 31.8292 18.0737 31.9302C18.0374 32.0001 14.5506 38.9944 17.2499 45.7167C19.0425 50.1775 23.1277 53.5503 29.3966 55.7444C34.303 57.4593 39.6316 58.081 44.8022 57.5396C51.4104 56.8479 56.1665 54.501 58.9358 50.566C63.109 44.6339 61.3164 37.0438 61.2983 36.9687C61.2724 36.8573 61.2775 36.7407 61.319 36.6345C65.3679 25.7908 62.7748 18.9105 61.4718 16.4573C61.0884 15.7346 60.4279 15.2009 59.6585 14.9963C54.5449 13.6285 48.219 19.8793 48.1568 19.9415C47.9962 20.1021 47.7527 20.1513 47.5429 20.0658C44.9239 19.0037 41.5667 18.5763 41.533 18.5711C41.5097 18.5711 38.1421 18.2137 35.3495 18.6463C35.1242 18.6799 34.8988 18.5763 34.7796 18.3846C34.733 18.3095 30.109 10.9241 24.884 10.9241H24.8814Z" fill="#233E97"/>
<path d="M13.5973 41.7323L18.1876 27.1169C18.1876 27.1169 16.9623 26.2465 16.3484 25.8113C14.4962 24.4953 11.9005 25.1248 10.8669 27.148C9.19609 30.4197 8.10809 33.8806 7.61072 37.5202C7.30246 39.7713 9.07175 41.7712 11.3436 41.7504C12.0948 41.7427 13.5973 41.7297 13.5973 41.7297V41.7323Z" fill="#D8E6EA"/>
<path d="M7.61072 37.5202C7.30246 39.7713 9.07175 41.7712 11.3436 41.7504C12.0948 41.7453 13.5973 41.7323 13.5973 41.7323L15.105 36.9296L18.1876 27.1169C18.1876 27.1169 16.9623 26.2465 16.3484 25.8113C14.4936 24.4953 11.9005 25.1248 10.8669 27.148C9.67274 29.4871 8.77643 31.9248 8.18063 34.4505C7.9423 35.4582 7.7532 36.4814 7.61072 37.5176V37.5202Z" fill="#D8E6EA"/>
<path d="M7.61072 37.5204C7.30246 39.7715 9.07175 41.7713 11.3436 41.7506C12.0948 41.7454 13.5973 41.7325 13.5973 41.7325L15.105 36.9298C13.144 36.2381 10.3333 35.2745 9.94474 35.2745C9.45514 35.2745 8.51739 35.5439 8.17803 34.4507C7.93971 35.4584 7.75061 36.4816 7.60813 37.5178L7.61072 37.5204Z" fill="#B1BFC5"/>
<path d="M13.9548 42.2146L11.3462 42.2379C10.1183 42.2483 8.95002 41.725 8.13661 40.8028C7.32839 39.8832 6.96054 38.6631 7.12633 37.4533C7.63147 33.7749 8.74278 30.2337 10.4318 26.9257C10.9861 25.8377 11.9886 25.0476 13.1751 24.7549C14.3667 24.4621 15.6257 24.703 16.6282 25.4128L18.7549 26.9231L13.9522 42.2146H13.9548ZM13.9548 25.6175C13.7735 25.6304 13.5921 25.6589 13.4108 25.703C12.4964 25.9283 11.7296 26.5345 11.3022 27.3712C9.6624 30.5808 8.58217 34.0184 8.09257 37.588C7.96564 38.518 8.248 39.4558 8.86972 40.163C9.49402 40.8728 10.3955 41.2743 11.3384 41.2665L13.2372 41.251L17.6151 27.3117L16.066 26.2107C15.4469 25.7703 14.6983 25.5657 13.9522 25.6201L13.9548 25.6175Z" fill="#010101"/>
<path d="M16.5116 34.6189C18.6669 27.7568 20.0217 25.3554 19.2757 24.8244C17.0194 23.2234 13.859 23.9876 12.6 26.4538C10.5639 30.4379 9.24017 34.65 8.634 39.0849C8.25838 41.8256 10.4137 44.2607 13.1803 44.2373C14.0947 44.2296 14.3563 41.4837 16.5116 34.6215V34.6189Z" fill="#B5D43F"/>
<path d="M8.634 39.0823C8.25838 41.823 10.4137 44.2581 13.1803 44.2347C14.017 44.227 14.3071 41.9266 16.0065 36.2716C16.1619 35.751 16.3303 35.1992 16.5142 34.6189C18.6695 27.7568 20.0243 25.3528 19.2782 24.8244C17.0219 23.2234 13.8616 23.9876 12.6052 26.4538C11.3074 28.995 10.2971 31.6269 9.58211 34.3521C9.17282 35.9012 8.85678 37.4788 8.63918 39.0849L8.634 39.0823Z" fill="#B5D43F"/>
<path d="M8.634 39.0823C8.25838 41.823 10.4137 44.2581 13.1803 44.2347C14.017 44.227 14.3071 41.9266 16.0065 36.2716C16.0894 35.9996 16.1749 35.7173 16.2629 35.4271C16.3432 35.1629 16.4261 34.8935 16.5142 34.6189C17.0608 32.8755 17.5582 31.4197 17.9804 30.2099C19.2213 26.6558 19.8326 25.2181 19.2757 24.8244C17.0194 23.2234 13.859 23.9876 12.6026 26.4538C12.1544 27.3293 11.7426 28.2179 11.3644 29.1142C10.8022 30.4483 10.3152 31.8083 9.90592 33.189C9.78935 33.575 9.68314 33.9609 9.57952 34.3495C9.17023 35.8986 8.85419 37.4762 8.63659 39.0823H8.634Z" fill="#FED93B"/>
<g opacity="0.5">
<path d="M9.90332 33.1886C10.5069 34.0072 12.2062 35.5926 16.2603 35.4268C16.3406 35.1626 16.4235 34.8932 16.5116 34.6186C17.0582 32.8752 17.5556 31.4194 17.9778 30.2096C16.2008 28.8651 13.4186 28.0466 11.3618 29.1138C10.7996 30.4479 10.3126 31.8079 9.90332 33.1886Z" fill="white"/>
</g>
<g opacity="0.5">
<path d="M12.2426 27.1739C13.7632 25.7155 16.1878 25.459 18.0167 26.7568C18.1773 26.8708 18.5089 27.135 18.913 27.5495C19.4829 25.8864 19.6643 25.0989 19.2757 24.8244C17.0194 23.2234 13.859 23.9876 12.6026 26.4538C12.4809 26.6947 12.3591 26.9356 12.2426 27.1765V27.1739Z" fill="white"/>
</g>
<path d="M8.634 39.0824C8.25838 41.8231 10.4137 44.2582 13.1803 44.2348C14.017 44.2271 14.3071 41.9267 16.0065 36.2717C15.5972 35.7821 15.0739 36.8106 14.131 37.839C12.6311 39.4762 8.84383 37.7483 9.57952 34.3496C9.17023 35.8987 8.85419 37.4763 8.63659 39.0824H8.634Z" fill="#FBBB27"/>
<path d="M13.2476 44.7194C13.2269 44.7194 13.2062 44.7194 13.1854 44.7194C11.7218 44.7323 10.3256 44.108 9.35932 43.0096C8.39567 41.9139 7.95529 40.458 8.15475 39.0151C8.7661 34.5466 10.1183 30.2464 12.17 26.2286C12.8331 24.9308 14.0248 23.9878 15.4417 23.6407C16.8639 23.291 18.3638 23.5785 19.558 24.4256C20.089 24.8038 20.0062 25.4981 19.8559 26.1301C19.6953 26.8088 19.3559 27.7647 18.8871 29.0885C18.3975 30.4692 17.7291 32.3602 16.9753 34.7616C16.2215 37.163 15.6904 39.0954 15.3019 40.5098C14.9288 41.8621 14.6594 42.8413 14.4056 43.4915C14.175 44.0769 13.859 44.6727 13.2476 44.7168V44.7194ZM16.3536 24.4826C16.1256 24.4981 15.8977 24.5344 15.6749 24.5888C14.5325 24.8686 13.5714 25.6302 13.0378 26.6741C11.0354 30.5935 9.71681 34.7901 9.121 39.1498C8.96039 40.313 9.31528 41.4865 10.0924 42.3672C10.8696 43.2506 11.9912 43.7531 13.1673 43.7479C13.4549 43.5666 13.8797 42.0304 14.3667 40.2534C14.7579 38.8338 15.2915 36.8884 16.0505 34.4715C16.8095 32.0546 17.483 30.1531 17.9726 28.7647C18.5866 27.0264 19.1202 25.524 18.9855 25.2105C18.2135 24.6665 17.2836 24.4127 16.3536 24.4774V24.4826Z" fill="#010101"/>
<path d="M15.6335 34.3415C15.6335 34.3415 13.5948 42.4574 13.5481 44.5816C13.5222 45.7033 15.763 46.6307 16.8251 45.8742C18.0271 45.0194 19.1021 40.5586 20.5683 35.8906C22.0345 31.2225 23.7002 26.9483 23.2028 25.5598C22.7624 24.3319 20.3973 23.8112 19.7756 24.7464C18.5996 26.5157 15.6335 34.3415 15.6335 34.3415Z" fill="#D8E6EA"/>
<path d="M13.5481 44.5848C13.5248 45.7064 15.763 46.6312 16.8251 45.8748C18.027 45.02 19.1021 40.5592 20.5683 35.8937C21.7133 32.2515 22.9774 28.8503 23.2417 26.8711C23.3168 26.3116 23.3116 25.8686 23.2028 25.5629C22.7624 24.3351 20.3973 23.8144 19.7756 24.7495C19.5554 25.0837 19.2679 25.6329 18.9518 26.3012C17.5867 29.1896 15.6309 34.3446 15.6309 34.3446C15.6309 34.3446 13.5948 42.4606 13.5455 44.5848H13.5481Z" fill="#D8E6EA"/>
<path d="M13.5481 44.5848C13.5248 45.7064 15.763 46.6312 16.8251 45.8748C17.7006 45.2505 18.5115 42.7093 19.4544 39.5696C19.8041 38.4039 20.172 37.1579 20.5683 35.8937C21.7133 32.2515 22.9774 28.8503 23.2417 26.8711C23.3168 26.3116 23.3116 25.8686 23.2028 25.5629C22.7624 24.3351 20.3973 23.8144 19.7756 24.7495C19.5554 25.0837 19.2679 25.6329 18.9518 26.3012C17.5867 29.1896 15.6309 34.3446 15.6309 34.3446C15.6309 34.3446 15.2164 36 14.7579 38.0076C14.1983 40.4504 13.574 43.4191 13.5455 44.5848H13.5481Z" fill="#D8E6EA"/>
<g opacity="0.5">
<path d="M20.3429 27.2048C20.0864 27.1712 18.6772 30.689 17.913 33.1914C17.0219 36.1031 16.1878 39.4966 16.4598 39.608C16.7732 39.7375 20.5968 27.2385 20.3429 27.2048Z" fill="white"/>
</g>
<path d="M13.5481 44.5845C13.5248 45.7062 15.7629 46.631 16.825 45.8746C17.7006 45.2503 18.5114 42.709 19.4544 39.5694C18.9155 40.3051 18.0995 40.9061 16.9416 40.5848C15.307 40.1341 14.8537 38.9321 14.7604 38.0073C14.2009 40.4501 13.5766 43.4188 13.5481 44.5845Z" fill="#B0C3D1"/>
<path d="M18.9518 26.2981C20.3506 25.8965 22.1795 26.4535 23.2416 26.868C23.3167 26.3084 23.3115 25.8654 23.2027 25.5598C22.7624 24.3319 20.3973 23.8112 19.7755 24.7464C19.5554 25.0805 19.2678 25.6297 18.9518 26.2981Z" fill="#B0C3D1"/>
<path d="M16.0453 46.6307C15.4288 46.6747 14.776 46.5012 14.2656 46.2317C13.4963 45.825 13.0481 45.2059 13.0611 44.5738C13.1077 42.4212 15.0765 34.5643 15.1593 34.2301L15.1775 34.1757C15.2992 33.8545 18.1772 26.2825 19.3689 24.4899C19.7186 23.9641 20.4413 23.7128 21.3065 23.8164C22.2365 23.9304 23.3245 24.4666 23.6613 25.407C24.0861 26.5986 23.3375 28.9973 21.9749 33.1369C21.6666 34.0773 21.3454 35.0487 21.0345 36.0434C20.7237 37.0382 20.4284 38.0174 20.146 38.9655C18.8974 43.1387 18.141 45.5375 17.11 46.2706C16.7991 46.4934 16.4313 46.6022 16.0479 46.6307H16.0453ZM16.0971 34.4943C15.9676 35.015 14.0791 42.6103 14.0351 44.5946C14.0299 44.8432 14.2993 45.1489 14.7216 45.3717C15.3666 45.7136 16.1489 45.7603 16.5427 45.4779C17.3509 44.9028 18.255 41.8823 19.2108 38.6883C19.4958 37.7376 19.7885 36.7532 20.1046 35.7533C20.418 34.7534 20.7392 33.7768 21.0501 32.8338C22.094 29.6657 23.0784 26.6711 22.7442 25.7385C22.581 25.2826 21.9127 24.8733 21.19 24.7852C20.7159 24.7282 20.3196 24.8241 20.1823 25.0313C19.0839 26.6841 16.2914 33.997 16.0997 34.4969L16.0971 34.4943Z" fill="#010101"/>
<path d="M21.848 26.4304C21.0941 26.2905 20.1512 26.0445 19.5114 26.5677C19.3378 26.7128 19.2083 26.9071 19.1047 27.1195L18.3042 26.5651C18.5373 26.3087 18.8197 26.0755 19.1513 25.9331C20.0916 25.5238 21.032 26.003 21.848 26.4304Z" fill="#010101"/>
<path d="M20.69 26.8374C20.2237 26.7985 19.7056 26.8089 19.3352 27.099C18.9829 27.3659 18.7886 27.7751 18.6384 28.187L17.7887 27.7104C18.5684 26.7027 19.4829 26.2649 20.69 26.8374Z" fill="#010101"/>
<path d="M20.2497 31.3602C19.4777 31.2799 18.4959 30.9095 17.8483 31.469C17.6825 31.6193 17.5711 31.8265 17.4805 32.0519L16.6308 31.5752C17.0582 30.9665 17.7706 30.565 18.5141 30.6997C19.1591 30.7929 19.6694 31.1245 20.2471 31.3602H20.2497Z" fill="#010101"/>
<path d="M17.1825 42.3539C15.9935 42.2425 14.2864 41.942 14.2112 40.4421L15.1827 40.4991C15.1335 40.6779 15.1386 40.8514 15.2293 41.0431C15.6101 41.7218 16.4857 42.0508 17.1825 42.3539Z" fill="#010101"/>
<path d="M15.206 34.2067C14.074 37.8101 12.4601 43.7448 12.7425 44.2811C12.9445 44.6644 13.3435 44.6489 13.5481 44.5816C14.0714 44.4132 14.3589 41.4782 16.5142 34.616C18.6695 27.7539 20.1098 25.1841 19.7782 24.7463C19.6461 24.5728 19.3326 24.3318 18.9441 24.5313C18.4053 24.8085 16.3381 30.6034 15.206 34.2067Z" fill="#82C341"/>
<path d="M12.743 44.2842C12.945 44.6702 13.3414 44.6521 13.5486 44.5847C13.976 44.4448 14.2454 42.4683 15.5018 38.0127C15.7842 37.0102 16.1184 35.8807 16.5147 34.6218C18.67 27.7596 20.1103 25.1899 19.7787 24.7495C19.6466 24.5759 19.3331 24.335 18.9471 24.5345C18.4083 24.8117 16.3385 30.6065 15.2091 34.2099C14.8853 35.2409 14.5226 36.4636 14.1755 37.6941C13.3103 40.7664 12.5435 43.9034 12.7456 44.2868L12.743 44.2842Z" fill="#FED93B"/>
<path d="M12.7425 44.2838C12.9446 44.6697 13.3409 44.6516 13.5481 44.5843C13.9756 44.4444 14.245 42.4678 15.5014 38.0122C15.0532 38.1443 14.5299 38.191 14.1724 37.6936C13.3072 40.7659 12.5405 43.903 12.7425 44.2864V44.2838Z" fill="#FBBB27"/>
<path d="M13.3953 45.1055C12.9912 45.134 12.556 44.9734 12.3125 44.5097C12.2011 44.2972 12.0301 43.9734 12.9731 40.2742C13.4549 38.3858 14.1336 36.0052 14.7423 34.0597C15.3537 32.1169 16.1567 29.7751 16.8432 27.9514C18.1851 24.3765 18.5089 24.2107 18.7239 24.0994C19.3068 23.7989 19.8689 24.0605 20.1668 24.4517C20.501 24.892 20.2652 25.5163 19.4803 27.5861C18.8975 29.1249 18.0193 31.4459 16.9779 34.7617C15.9365 38.0749 15.3304 40.4841 14.9289 42.0798C14.3874 44.2273 14.2242 44.8749 13.6984 45.0433C13.6025 45.0744 13.4989 45.0951 13.3953 45.1029V45.1055ZM13.1932 44.09C13.2243 44.1263 13.2658 44.1418 13.3202 44.1366C13.4704 43.8698 13.7087 42.9243 13.9807 41.8441C14.3849 40.238 14.9962 37.8133 16.0453 34.4742C17.0945 31.1325 17.9804 28.7933 18.5659 27.2468C18.9596 26.2054 19.3042 25.2936 19.3327 24.9879C19.2912 24.9542 19.2472 24.9413 19.2005 24.9542C18.7187 25.5474 16.9935 30.13 15.6671 34.3576C14.3408 38.5853 13.1363 43.331 13.1907 44.0926L13.1932 44.09Z" fill="#010101"/>
<path d="M66.606 43.7505L63.1426 28.8294C63.1426 28.8294 64.43 28.0549 65.0751 27.6689C67.0231 26.498 69.5618 27.3218 70.4399 29.42C71.8569 32.811 72.6781 36.3418 72.8983 40.0099C73.0356 42.2791 71.1186 44.1365 68.8546 43.9448C68.1059 43.88 66.6086 43.7531 66.6086 43.7531L66.606 43.7505Z" fill="#D8E6EA"/>
<path d="M72.8957 40.007C73.0304 42.2763 71.116 44.1336 68.852 43.9419C68.1033 43.8798 66.606 43.7528 66.606 43.7528L65.4688 38.8491L63.1426 28.8291C63.1426 28.8291 64.4326 28.0546 65.0751 27.6686C67.0231 26.4977 69.5618 27.3241 70.4399 29.4198C71.4528 31.8444 72.1626 34.3417 72.5641 36.9062C72.7247 37.9295 72.8361 38.963 72.9009 40.0096L72.8957 40.007Z" fill="#D8E6EA"/>
<path d="M72.8957 40.007C73.0304 42.2763 71.116 44.1337 68.852 43.942C68.1033 43.8798 66.606 43.7529 66.606 43.7529L65.4688 38.8491C67.4764 38.3103 70.3544 37.5616 70.7378 37.5927C71.2248 37.6316 72.1419 37.9709 72.5615 36.9062C72.7221 37.9295 72.8335 38.9631 72.8983 40.0096L72.8957 40.007Z" fill="#B1BFC5"/>
<path d="M69.4711 44.4318C69.2535 44.4474 69.0333 44.4474 68.8105 44.4266L66.2123 44.2065L62.5882 28.5937L64.8238 27.2492C65.8755 26.6172 67.15 26.4747 68.3157 26.8555C69.4788 27.2363 70.4166 28.1015 70.8881 29.2284C72.3206 32.653 73.1599 36.2693 73.3827 39.9762C73.4552 41.1963 72.9967 42.3854 72.1211 43.2376C71.401 43.9396 70.4606 44.3567 69.4737 44.4292L69.4711 44.4318ZM66.9998 43.2946L68.8934 43.4552C69.8363 43.5355 70.7637 43.2014 71.4398 42.5434C72.1134 41.8854 72.4657 40.9735 72.4113 40.0358C72.1937 36.4376 71.3802 32.9301 69.9892 29.604C69.6265 28.7388 68.9063 28.073 68.0126 27.7803C67.1137 27.485 66.1345 27.5964 65.3237 28.0834L63.6943 29.0626L66.9998 43.2946Z" fill="#010101"/>
<path d="M64.2415 36.438C62.6146 29.4308 61.4463 26.9336 62.2312 26.4621C64.6041 25.0374 67.6946 26.0399 68.7618 28.5941C70.4897 32.7233 71.487 37.0235 71.7564 41.4894C71.9222 44.2509 69.5882 46.5149 66.8319 46.2792C65.9201 46.2015 65.8683 43.4452 64.2415 36.438Z" fill="#B5D43F"/>
<path d="M71.7559 41.4863C71.9217 44.2477 69.5877 46.5118 66.8315 46.276C65.9973 46.2061 65.8833 43.8902 64.6192 38.1212C64.5026 37.5902 64.3783 37.0255 64.2384 36.4348C62.6116 29.4276 61.4433 26.9304 62.2282 26.459C64.6011 25.0342 67.6915 26.0367 68.7588 28.5909C69.8597 31.2228 70.6654 33.9247 71.1731 36.6965C71.4632 38.2715 71.6575 39.8698 71.7534 41.4889L71.7559 41.4863Z" fill="#B5D43F"/>
<path d="M71.756 41.4863C71.9218 44.2477 69.5878 46.5118 66.8315 46.276C65.9974 46.2061 65.8834 43.8902 64.6193 38.1212C64.5571 37.8441 64.4949 37.5539 64.4276 37.2612C64.368 36.9918 64.3032 36.7172 64.2385 36.4348C63.824 34.6552 63.4432 33.1657 63.1116 31.9274C62.1454 28.2904 61.6428 26.8087 62.2283 26.459C64.6011 25.0342 67.6916 26.0367 68.7588 28.5909C69.1396 29.4976 69.4842 30.4146 69.7898 31.3394C70.2483 32.7123 70.6317 34.1034 70.9348 35.5152C71.0203 35.9064 71.098 36.3027 71.1706 36.6965C71.4607 38.2715 71.655 39.8698 71.7508 41.4889L71.756 41.4863Z" fill="#FED93B"/>
<g opacity="0.5">
<path d="M70.9373 35.5123C70.2742 36.2817 68.4582 37.7349 64.4275 37.2609C64.3679 36.9915 64.3031 36.7169 64.2384 36.4345C63.8239 34.6548 63.4431 33.1653 63.1115 31.9271C64.987 30.7199 67.821 30.1189 69.7923 31.3365C70.2508 32.7094 70.6342 34.1005 70.9373 35.5123Z" fill="white"/>
</g>
<g opacity="0.5">
<path d="M69.0646 29.3396C67.6579 27.7697 65.2618 27.3293 63.337 28.4847C63.1687 28.5857 62.8164 28.824 62.3837 29.2048C61.9434 27.5029 61.8216 26.705 62.2283 26.459C64.6012 25.0342 67.6916 26.0367 68.7589 28.5909C68.8625 28.8396 68.9635 29.0883 69.062 29.3396H69.0646Z" fill="white"/>
</g>
<path d="M71.7559 41.4862C71.9217 44.2477 69.5877 46.5117 66.8314 46.276C65.9973 46.2061 65.8833 43.8902 64.6191 38.1212C65.0647 37.6653 65.5077 38.73 66.3703 39.8283C67.7407 41.5743 71.6497 40.1392 71.173 36.6938C71.4632 38.2689 71.6574 39.8672 71.7533 41.4862H71.7559Z" fill="#FBBB27"/>
<path d="M67.5774 46.7681C67.3158 46.7862 67.0542 46.7862 66.7899 46.7629C66.1397 46.7085 65.8574 46.0661 65.6657 45.4444C65.461 44.776 65.2668 43.7813 64.9973 42.4032C64.7176 40.9654 64.3342 38.9967 63.7643 36.5461C63.1944 34.0955 62.6711 32.1578 62.2903 30.7434C61.925 29.3886 61.6608 28.4094 61.5494 27.7204C61.4484 27.0779 61.4199 26.3785 61.9769 26.0417C63.2306 25.2879 64.7512 25.1169 66.1423 25.5729C67.5282 26.0262 68.6473 27.0598 69.2095 28.4017C70.9502 32.562 71.9683 36.9554 72.2403 41.455C72.3284 42.9083 71.7792 44.3279 70.7352 45.3459C69.8752 46.1826 68.7561 46.68 67.5774 46.7655V46.7681ZM66.8858 45.7941C68.0593 45.8899 69.212 45.4729 70.0565 44.6517C70.8984 43.8305 71.3414 42.6881 71.2715 41.5172C71.0072 37.1238 70.0125 32.8391 68.3131 28.7799C67.8598 27.6971 66.9583 26.8655 65.8418 26.5003C64.7228 26.1324 63.5026 26.2697 62.4924 26.8707C62.3343 27.1738 62.7514 28.7125 63.2306 30.4896C63.614 31.9117 64.1399 33.8572 64.715 36.3259C65.2875 38.7946 65.6735 40.7737 65.9558 42.2192C66.3081 44.0274 66.6138 45.592 66.8858 45.7941Z" fill="#010101"/>
<path d="M65.1373 36.2273C65.1373 36.2273 66.5517 44.4754 66.4377 46.597C66.3781 47.7187 64.0726 48.4699 63.0727 47.6358C61.9407 46.6902 61.205 42.1647 60.0988 37.3982C58.9927 32.6318 57.656 28.2435 58.257 26.8965C58.7881 25.7048 61.1868 25.3655 61.736 26.3447C62.7722 28.1995 65.1373 36.2273 65.1373 36.2273Z" fill="#D8E6EA"/>
<path d="M66.4403 46.597C66.3782 47.7161 64.0752 48.4699 63.0727 47.6358C61.9407 46.6902 61.2076 42.1621 60.0989 37.3982C59.2336 33.6783 58.2311 30.1915 58.1197 28.1969C58.0887 27.6347 58.1249 27.1918 58.257 26.8965C58.7881 25.7048 61.1895 25.3655 61.736 26.3447C61.9303 26.6944 62.1738 27.2617 62.4381 27.9534C63.5779 30.9376 65.1373 36.2247 65.1373 36.2247C65.1373 36.2247 66.5517 44.4728 66.4377 46.5944L66.4403 46.597Z" fill="#D8E6EA"/>
<path d="M66.4402 46.5974C66.378 47.7165 64.0751 48.4703 63.0726 47.6361C62.2462 46.9471 61.6323 44.3514 60.9329 41.147C60.6712 39.958 60.3992 38.6861 60.1013 37.396C59.2361 33.6761 58.2336 30.1893 58.1222 28.1947C58.0911 27.6325 58.1274 27.1896 58.2595 26.8943C58.7905 25.7026 61.1919 25.3633 61.7385 26.3425C61.9328 26.6922 62.1763 27.2595 62.4405 27.9512C63.5803 30.9354 65.1398 36.2225 65.1398 36.2225C65.1398 36.2225 65.4273 37.9038 65.733 39.9425C66.106 42.4215 66.5024 45.4291 66.4402 46.5922V46.5974Z" fill="#D8E6EA"/>
<g opacity="0.5">
<path d="M60.9847 28.7515C61.2412 28.7385 62.381 32.3523 62.9535 34.9065C63.6192 37.8777 64.1943 41.3231 63.9145 41.4163C63.5933 41.5225 60.7283 28.767 60.9873 28.7541L60.9847 28.7515Z" fill="white"/>
</g>
<path d="M66.4403 46.5976C66.3781 47.7167 64.0752 48.4706 63.0726 47.6364C62.2463 46.9474 61.6323 44.3517 60.9329 41.1473C61.4147 41.9218 62.1815 42.5824 63.3602 42.3493C65.0259 42.0229 65.5699 40.8597 65.7331 39.9453C66.1061 42.4244 66.5024 45.4319 66.4403 46.595V46.5976Z" fill="#B0C3D1"/>
<path d="M62.4407 27.956C61.0755 27.4483 59.2103 27.8654 58.1197 28.1996C58.0887 27.6374 58.1249 27.1945 58.257 26.8991C58.7881 25.7075 61.1895 25.3682 61.736 26.3474C61.9303 26.6971 62.1738 27.2644 62.4381 27.956H62.4407Z" fill="#B0C3D1"/>
<path d="M64.4404 48.473C63.8368 48.517 63.2203 48.3953 62.7618 48.0119C61.7904 47.2011 61.2179 44.7531 60.2905 40.4969C60.0807 39.5307 59.8631 38.5308 59.6273 37.5153C59.3916 36.4999 59.1455 35.5077 58.9098 34.5466C57.8658 30.3164 57.3011 27.8684 57.8166 26.7131C58.2233 25.7986 59.3502 25.3453 60.2853 25.3038C61.1531 25.265 61.8551 25.5707 62.166 26.1224C63.2177 28.0005 65.5103 35.7693 65.6087 36.0983L65.6217 36.1527C65.6787 36.4921 67.0438 44.4759 66.9273 46.626C66.8936 47.2581 66.3962 47.8409 65.601 48.1881C65.2538 48.3383 64.8523 48.4445 64.443 48.473H64.4404ZM60.2646 26.2779C59.56 26.3271 58.8968 26.6768 58.7051 27.1068C58.301 28.0135 59.0548 31.0728 59.8553 34.3109C60.0936 35.2746 60.3397 36.2719 60.5754 37.2925C60.8138 38.3132 61.0314 39.3157 61.2412 40.2871C61.951 43.5459 62.6219 46.626 63.3835 47.2607C63.754 47.5715 64.5389 47.5845 65.2072 47.2917C65.645 47.1001 65.9377 46.8177 65.9507 46.569C66.0569 44.5873 64.7539 36.8703 64.6632 36.3418C64.5104 35.8263 62.2826 28.3243 61.3137 26.5939C61.192 26.3763 60.806 26.252 60.3268 26.2727C60.306 26.2727 60.2827 26.2727 60.262 26.2753L60.2646 26.2779Z" fill="#010101"/>
<path d="M59.5444 27.8655C60.3915 27.5029 61.3655 27.0961 62.2696 27.5754C62.5882 27.7412 62.8524 27.995 63.0648 28.2696L62.2255 28.7618C62.0494 28.3007 61.7333 27.9614 61.2308 27.8448C60.6972 27.7127 60.0962 27.8033 59.5418 27.8655H59.5444Z" fill="#010101"/>
<path d="M60.6661 28.3602C61.9147 27.881 62.7929 28.3887 63.4923 29.4508L62.609 29.8627C62.4898 29.4405 62.3266 29.0182 61.9976 28.7255C61.6479 28.4069 61.135 28.3576 60.6661 28.3602Z" fill="#010101"/>
<path d="M60.762 32.9014C61.6583 32.5957 62.6401 32.0543 63.5805 32.6035C63.912 32.7952 64.1607 33.0879 64.355 33.391L63.4717 33.8029C63.3991 33.5723 63.3033 33.3573 63.1504 33.1941C62.5469 32.588 61.5418 32.8807 60.7646 32.904L60.762 32.9014Z" fill="#010101"/>
<path d="M62.982 44.1C63.697 43.8487 64.5984 43.5871 65.0285 42.9395C65.1347 42.7555 65.1528 42.582 65.1165 42.4006L66.0906 42.4188C65.9015 43.9109 64.1762 44.0767 62.982 44.1Z" fill="#010101"/>
<path d="M65.575 36.1264C66.4298 39.8048 67.5878 45.8458 67.264 46.3587C67.0308 46.7266 66.6371 46.6799 66.4376 46.597C65.9299 46.3872 65.8651 43.4418 64.2383 36.4346C62.6115 29.4274 61.3707 26.7566 61.7333 26.3447C61.8758 26.1815 62.21 25.9665 62.5804 26.1945C63.0959 26.5131 64.7175 32.4453 65.5724 36.1264H65.575Z" fill="#82C341"/>
<path d="M67.2643 46.3593C67.0338 46.7271 66.6374 46.6805 66.438 46.5976C66.0209 46.4267 65.9043 44.432 64.9899 39.8961C64.7827 38.8754 64.5366 37.7227 64.2387 36.4378C62.6119 29.4306 61.371 26.7572 61.7363 26.3479C61.8813 26.1847 62.2129 25.9697 62.5834 26.1977C63.1015 26.5163 64.7205 32.4511 65.5754 36.1295C65.8189 37.1813 66.0883 38.4273 66.3421 39.6811C66.9716 42.8104 67.4975 45.9966 67.2643 46.3619V46.3593Z" fill="#FED93B"/>
<path d="M67.2641 46.359C67.0336 46.7269 66.6372 46.6803 66.4378 46.5974C66.0207 46.4264 65.9041 44.4317 64.9897 39.8958C65.4249 40.0616 65.9456 40.1497 66.3393 39.6782C66.9688 42.8075 67.4947 45.9938 67.2615 46.359H67.2641Z" fill="#FBBB27"/>
<path d="M66.8211 47.1411C66.6242 47.154 66.4273 47.1203 66.2538 47.0478C65.7434 46.838 65.6295 46.18 65.2538 43.9988C64.9741 42.3798 64.5518 39.9318 63.7669 36.546C62.982 33.1629 62.2826 30.7796 61.8189 29.2021C61.1946 27.0779 61.0081 26.438 61.3733 26.0235C61.6997 25.6557 62.28 25.4355 62.8395 25.7826C63.0442 25.9096 63.355 26.1013 64.4197 29.7668C64.9637 31.6371 65.588 34.0333 66.0491 36.0176C66.5102 38.0019 67.005 40.4266 67.3418 42.3487C67.9997 46.1101 67.8055 46.4183 67.6785 46.623C67.4609 46.9675 67.1423 47.1203 66.8211 47.1437V47.1411ZM66.6967 46.1696C66.7511 46.1774 66.7952 46.1644 66.8289 46.1334C66.9428 45.3769 66.1035 40.5535 65.101 36.2378C64.0985 31.922 62.7281 27.2203 62.2929 26.5934C62.2489 26.5779 62.2023 26.5857 62.1582 26.6168C62.1634 26.925 62.438 27.8576 62.7515 28.9275C63.2177 30.5154 63.9223 32.9142 64.715 36.3258C65.5077 39.7375 65.9326 42.201 66.2123 43.833C66.4014 44.9314 66.5672 45.8899 66.6967 46.1696Z" fill="#010101"/>
<path d="M28.2775 37.8857C28.3233 37.8857 28.3604 37.8289 28.3604 37.7588C28.3604 37.6887 28.3233 37.6318 28.2775 37.6318C28.2317 37.6318 28.1946 37.6887 28.1946 37.7588C28.1946 37.8289 28.2317 37.8857 28.2775 37.8857Z" fill="#233E97"/>
<g style="mix-blend-mode:screen" opacity="0.6">
<path d="M31.583 27.0034C31.583 27.2935 30.9975 27.5293 30.2774 27.5293C29.5572 27.5293 28.9718 27.2935 28.9718 27.0034C28.9718 26.7133 29.5572 26.4775 30.2774 26.4775C30.9975 26.4775 31.583 26.7133 31.583 27.0034Z" fill="white"/>
</g>
<g style="mix-blend-mode:screen" opacity="0.6">
<path d="M49.3226 28.6013C49.3226 28.8914 48.7371 29.1272 48.017 29.1272C47.2968 29.1272 46.7114 28.8914 46.7114 28.6013C46.7114 28.3112 47.2968 28.0754 48.017 28.0754C48.7371 28.0754 49.3226 28.3112 49.3226 28.6013Z" fill="white"/>
</g>
<path d="M36.3261 37.5409C36.3261 37.5409 35.6914 37.8828 36.6681 38.3957C37.6447 38.9087 38.1343 39.2506 38.1343 40.621C38.1343 41.9913 37.2742 43.3928 35.2614 43.5637C33.2486 43.7347 31.4508 43.0923 30.8499 42.3229C31.2773 44.2502 34.0802 46.3433 37.3752 44.5118C38.9762 43.6415 39.388 44.0093 40.7144 44.6958C42.0407 45.3822 45.4264 45.6102 46.6155 43.3228C44.6933 43.7813 40.0279 44.1932 39.4321 41.4007C39.1575 39.5718 39.4787 38.8853 40.5771 38.5641C41.6754 38.2429 41.8127 37.3285 40.3491 37.1446C38.8855 36.9606 36.3261 37.5383 36.3261 37.5383V37.5409Z" fill="#010101"/>
<path d="M38.4995 36.7665C38.4995 36.7665 36.3132 36.8002 36.1422 37.5514C36.0386 38.269 37.6809 37.826 38.1576 39.1912C38.5332 40.388 39.0124 39.9424 39.1834 39.2948C39.3544 38.6446 39.5927 38.3389 40.4139 38.168C41.2351 37.997 42.4655 36.7329 38.4995 36.7665Z" fill="#F79421"/>
<g style="mix-blend-mode:multiply">
<path d="M40.8206 37.7896C40.4838 37.8932 39.9424 37.8155 39.6212 37.9554C39.344 38.0772 39.0694 38.5305 38.7715 38.5901C38.4866 38.6471 38.4503 38.3518 38.2249 38.1963C38.0877 38.1005 37.9504 37.9994 37.7923 37.9451C37.6058 37.8803 37.4064 37.8725 37.2095 37.8673C36.8934 37.8596 36.5334 37.8622 36.2484 37.7015C36.2044 37.6756 36.1707 37.6471 36.1422 37.6187C36.1552 38.2378 37.6965 37.8725 38.1576 39.1911C38.5332 40.3879 39.0125 39.9423 39.1834 39.2947C39.3544 38.6445 39.5927 38.3388 40.4139 38.1678C40.7273 38.1031 41.0978 37.8777 41.2195 37.6264C41.0952 37.6964 40.9553 37.7456 40.8232 37.787L40.8206 37.7896Z" fill="#F79421"/>
</g>
<g style="mix-blend-mode:screen">
<path d="M36.8105 37.1939C36.8105 37.1939 37.5721 37.1939 38.1913 37.4477C38.8104 37.7016 39.0358 37.4477 39.6549 37.2509C40.274 37.054 40.9216 37.3078 40.9216 37.3078C40.9216 37.3078 40.1341 37.5902 39.5124 37.8441C38.8933 38.0979 38.8648 38.9424 38.3571 38.2378C37.8493 37.5332 36.0205 37.2793 36.808 37.1965L36.8105 37.1939Z" fill="#F5877B"/>
</g>
<g style="mix-blend-mode:multiply">
<path d="M42.323 41.209C42.3179 41.2997 42.2401 41.3696 42.1495 41.3644C42.0588 41.3592 41.9889 41.2815 41.994 41.1909C41.9992 41.1002 42.0769 41.0302 42.1676 41.0354C42.2583 41.0406 42.3282 41.1183 42.323 41.209Z" fill="#010101"/>
</g>
<g style="mix-blend-mode:multiply">
<path d="M43.0536 40.6389C43.0484 40.7296 42.9707 40.7995 42.8801 40.7943C42.7894 40.7892 42.7195 40.7115 42.7246 40.6208C42.7298 40.5301 42.8075 40.4602 42.8982 40.4654C42.9889 40.4705 43.0588 40.5483 43.0536 40.6389Z" fill="#010101"/>
</g>
<g style="mix-blend-mode:multiply">
<path d="M42.5459 39.8389C42.5408 39.9295 42.463 39.9995 42.3724 39.9943C42.2817 39.9891 42.2118 39.9114 42.2169 39.8207C42.2221 39.7301 42.2998 39.6601 42.3905 39.6653C42.4812 39.6705 42.5511 39.7482 42.5459 39.8389Z" fill="#010101"/>
</g>
<path d="M42.178 41.1829C42.6935 41.2399 43.2039 41.3176 43.7064 41.4108C44.2116 41.5015 44.7115 41.6077 45.2063 41.7295C46.1959 41.9781 47.1699 42.2683 48.1024 42.6646C49.0428 43.0428 49.9443 43.5169 50.781 44.1101C51.6177 44.7007 52.3819 45.4338 53.0036 46.356C52.7213 45.8638 52.3897 45.4286 52.0322 45.0271C51.6721 44.6308 51.2732 44.2888 50.8613 43.9702C50.0323 43.3433 49.1231 42.8667 48.1853 42.4703C47.2398 42.0895 46.2606 41.7942 45.2581 41.5766C44.253 41.3668 43.2298 41.2165 42.1806 41.1829H42.178Z" fill="#010101"/>
<path d="M42.8878 40.6314C43.4318 40.4967 43.9732 40.3905 44.5146 40.3076C45.056 40.2195 45.5923 40.1522 46.1285 40.1081C47.1984 40.0226 48.2579 40.0019 49.2915 40.1185C50.3276 40.2169 51.3353 40.4501 52.2886 40.8542C53.2393 41.2583 54.1279 41.8645 54.8739 42.7374C54.5216 42.266 54.1227 41.8722 53.7004 41.5277C53.273 41.1909 52.8119 40.9293 52.3404 40.7013C51.3897 40.261 50.3717 40.0278 49.3355 39.9138C48.2941 39.8128 47.2269 39.8309 46.1492 39.9501C45.0716 40.077 43.9836 40.2843 42.8904 40.6314H42.8878Z" fill="#010101"/>
<path d="M42.3179 39.8824C42.8955 39.6907 43.4758 39.5094 44.0535 39.3436C44.6312 39.1726 45.2114 39.0146 45.7917 38.8695C46.9496 38.5768 48.1076 38.3229 49.2629 38.1494C49.8406 38.0587 50.4183 37.9862 50.9934 37.9369C51.5684 37.8903 52.1409 37.8774 52.7082 37.8825C53.2781 37.8929 53.8403 37.9473 54.3921 38.0535C54.9438 38.1545 55.4852 38.3177 55.9956 38.5794C55.0008 37.9836 53.8662 37.7919 52.7316 37.7245C51.5918 37.6701 50.4312 37.7737 49.2733 37.9421C48.1128 38.1338 46.9496 38.3851 45.7891 38.7115C44.6286 39.0379 43.4706 39.4161 42.3179 39.8824Z" fill="#010101"/>
<g style="mix-blend-mode:multiply">
<path d="M35.1319 40.7171C35.1268 40.8077 35.1941 40.8881 35.2848 40.8932C35.3754 40.8984 35.4557 40.8311 35.4609 40.7404C35.4661 40.6497 35.3988 40.5694 35.3081 40.5642C35.2174 40.5591 35.1371 40.6264 35.1319 40.7171Z" fill="#010101"/>
</g>
<g style="mix-blend-mode:multiply">
<path d="M34.4765 40.0616C34.4714 40.1522 34.5387 40.2325 34.6294 40.2377C34.72 40.2455 34.8003 40.1755 34.8055 40.0849C34.8107 39.9942 34.7434 39.9139 34.6527 39.9087C34.562 39.9035 34.4817 39.9709 34.4765 40.0616Z" fill="#010101"/>
</g>
<g style="mix-blend-mode:multiply">
<path d="M35.0801 39.3284C35.0749 39.4191 35.1423 39.4994 35.233 39.5046C35.3236 39.5097 35.4039 39.4424 35.4091 39.3517C35.4143 39.2611 35.3469 39.1808 35.2563 39.1756C35.1656 39.1704 35.0853 39.2377 35.0801 39.3284Z" fill="#010101"/>
</g>
<path d="M35.2796 40.7093C34.7615 40.7041 34.246 40.7171 33.7357 40.7482C33.2228 40.7741 32.7124 40.8207 32.2073 40.8803C31.197 41.0046 30.1919 41.1756 29.2179 41.4528C28.2387 41.7118 27.288 42.0719 26.3839 42.5589C25.4799 43.0433 24.6328 43.678 23.9048 44.5147C24.2442 44.0614 24.6302 43.6676 25.0343 43.3153C25.441 42.9656 25.8788 42.6755 26.3243 42.4087C27.2232 41.888 28.1843 41.5253 29.1635 41.2481C30.1479 40.9865 31.1556 40.8129 32.1788 40.7197C33.202 40.6342 34.2356 40.6109 35.2822 40.7067L35.2796 40.7093Z" fill="#010101"/>
<path d="M34.6423 40.0748C34.119 39.8753 33.5932 39.7018 33.0673 39.5541C32.5414 39.3987 32.0156 39.2666 31.4923 39.1578C30.4432 38.9428 29.3914 38.7899 28.3527 38.7822C27.3113 38.7537 26.2829 38.8599 25.2881 39.1448C24.2934 39.4298 23.3401 39.9246 22.4904 40.6965C22.8971 40.2717 23.3427 39.9297 23.8038 39.6396C24.2701 39.3572 24.7571 39.1552 25.2544 38.9868C26.2518 38.6656 27.2906 38.5594 28.3345 38.5723C29.3811 38.5982 30.438 38.7485 31.4923 38.9998C32.5466 39.2588 33.6009 39.5956 34.6423 40.0748Z" fill="#010101"/>
<path d="M35.3003 39.4011C34.7485 39.1394 34.1967 38.8882 33.6424 38.6524C33.088 38.4115 32.5336 38.1836 31.9767 37.9686C30.8628 37.5359 29.7437 37.1422 28.6194 36.8287C28.0573 36.6681 27.4926 36.5257 26.9279 36.4065C26.3631 36.2899 25.7984 36.207 25.2311 36.1423C24.6664 36.0827 24.0991 36.0671 23.5395 36.106C22.9774 36.1397 22.423 36.2355 21.8842 36.4298C22.9437 35.9583 24.0939 35.9091 25.2285 35.9817C26.3683 36.0671 27.5055 36.3132 28.635 36.6215C29.7644 36.9531 30.8861 37.3442 31.9974 37.8131C33.1087 38.2794 34.2123 38.7949 35.2977 39.3985L35.3003 39.4011Z" fill="#010101"/>
<path d="M24.2105 29.8939C24.3893 29.0313 24.8996 28.2515 25.5394 27.6324C25.8606 27.319 26.2233 27.0522 26.6067 26.8216C26.9927 26.5962 27.3994 26.4071 27.8216 26.2569C28.2439 26.1118 28.6687 25.9926 29.1143 25.9175C29.5676 25.8398 30.0339 25.8579 30.4769 25.9771C31.3654 26.2102 32.1063 26.8294 32.5311 27.591C31.9767 26.92 31.2281 26.4253 30.4095 26.2672C30.0028 26.1921 29.5806 26.1921 29.179 26.2776C28.7671 26.3683 28.3501 26.4797 27.9537 26.6273C27.5548 26.7698 27.1636 26.9408 26.7958 27.148C26.4228 27.3475 26.0756 27.5936 25.7493 27.863C25.1068 28.4096 24.5499 29.0857 24.2105 29.8913V29.8939Z" fill="#010101"/>
<path d="M34.0543 33.3753C34.0543 33.3753 33.5232 33.4167 32.4197 34.4788C31.3162 35.5409 28.6221 36.5615 25.6819 33.6628C24.8244 32.8468 23.8841 32.9686 23.8841 32.9686C23.8841 32.9686 24.8244 28.8445 29.0702 27.9456C32.0104 27.456 33.9714 30.3133 34.0517 33.3779L34.0543 33.3753Z" fill="white"/>
<path d="M29.6505 35.6654C28.4718 35.6654 27.0782 35.1732 25.6145 33.7303C24.8037 32.9584 23.9074 33.062 23.8997 33.0646C23.8686 33.0698 23.8349 33.0568 23.8142 33.0335C23.7934 33.0102 23.7831 32.9765 23.7908 32.9454C23.8012 32.904 24.7934 28.7489 29.0521 27.8474C30.1764 27.6609 31.2333 27.9432 32.1114 28.666C33.3393 29.6788 34.1035 31.4378 34.1553 33.3728C34.1553 33.4247 34.1165 33.4687 34.0647 33.4739C34.0543 33.4739 33.5336 33.5438 32.4922 34.5489C31.9068 35.1111 30.9017 35.6654 29.6531 35.6654H29.6505ZM24.0318 32.8599C24.3452 32.8599 25.0705 32.9376 25.7544 33.5879C28.6609 36.4529 31.2721 35.4504 32.3549 34.4039C33.2228 33.5671 33.7538 33.3495 33.9559 33.2925C33.8859 31.4714 33.1373 29.7617 31.9871 28.8136C31.1556 28.1297 30.1556 27.8603 29.091 28.0365C25.3762 28.8214 24.2209 32.1579 24.0188 32.8548C24.024 32.8548 24.0266 32.8548 24.0318 32.8548V32.8599Z" fill="#010101"/>
<path d="M33.1979 32.6535C33.6656 30.6721 32.4385 28.6867 30.457 28.219C28.4756 27.7514 26.4903 28.9785 26.0226 30.9599C25.555 32.9414 26.7821 34.9267 28.7635 35.3944C30.7449 35.862 32.7303 34.6349 33.1979 32.6535Z" fill="#7C4C4C"/>
<path d="M29.6117 35.0101C31.3943 35.0101 32.8394 33.565 32.8394 31.7824C32.8394 29.9998 31.3943 28.5547 29.6117 28.5547C27.8291 28.5547 26.384 29.9998 26.384 31.7824C26.384 33.565 27.8291 35.0101 29.6117 35.0101Z" fill="#2D1014"/>
<path d="M31.4383 33.6093C32.4479 32.5997 32.4479 30.9628 31.4383 29.9532C30.4287 28.9436 28.7918 28.9436 27.7822 29.9532C26.7726 30.9628 26.7726 32.5997 27.7822 33.6093C28.7918 34.6189 30.4287 34.6189 31.4383 33.6093Z" fill="#010101"/>
<path d="M32.1685 31.0078C32.1685 31.0078 32.5933 33.7433 29.6765 34.1086C31.6219 34.8391 33.0208 32.4662 32.1685 31.0078Z" fill="#7C4C4C"/>
<path d="M28.1429 31.4559C28.7982 31.4559 29.3294 30.9247 29.3294 30.2694C29.3294 29.6142 28.7982 29.083 28.1429 29.083C27.4877 29.083 26.9565 29.6142 26.9565 30.2694C26.9565 30.9247 27.4877 31.4559 28.1429 31.4559Z" fill="#F9F3E2"/>
<path d="M32.8265 33.7201C32.8265 34.0387 32.5675 34.2952 32.2514 34.2952C31.9354 34.2952 31.6763 34.0361 31.6763 33.7201C31.6763 33.4041 31.9354 33.145 32.2514 33.145C32.5675 33.145 32.8265 33.4041 32.8265 33.7201Z" fill="#F9F3E2"/>
<path d="M43.4189 33.9661C43.4189 33.9661 44.1908 34.391 45.5405 35.3935C46.8901 36.396 49.7811 36.8986 51.439 34.6992C52.4415 33.505 53.1746 33.1942 53.5994 33.1942C53.4077 31.4974 51.1307 28.5287 47.8149 28.7982C44.4991 29.0676 43.5743 32.3834 43.4189 33.9661Z" fill="white"/>
<path d="M48.2579 36.3389C47.2036 36.3389 46.1829 35.984 45.4861 35.4659C44.1572 34.4789 43.3826 34.0515 43.3748 34.0463C43.3412 34.0282 43.323 33.9919 43.3256 33.9557C43.5484 31.6838 44.854 28.9457 47.8071 28.7048C51.2551 28.425 53.501 31.5155 53.6927 33.1837C53.6953 33.2096 53.6875 33.2355 53.6694 33.2562C53.6512 33.277 53.6253 33.2873 53.5994 33.2873C53.2808 33.2873 52.584 33.479 51.5115 34.7587C50.6489 35.9011 49.4314 36.3415 48.2579 36.3415V36.3389ZM43.5173 33.9142C43.7168 34.0282 44.4551 34.4712 45.5949 35.3157C47.0093 36.3648 49.7992 36.7145 51.3639 34.6396C52.3871 33.4194 53.1046 33.1449 53.4906 33.1034C53.2342 31.4766 51.0815 28.6219 47.8201 28.8887C46.4031 29.0053 45.2892 29.6943 44.5069 30.9378C43.7841 32.0905 43.5743 33.3599 43.5147 33.9116L43.5173 33.9142Z" fill="#010101"/>
<path d="M44.7011 29.1454C44.8773 28.7413 45.1363 28.3761 45.442 28.0522C45.7503 27.7284 46.1285 27.459 46.5559 27.2906C46.9833 27.1145 47.4652 27.0782 47.9133 27.1223C48.3667 27.1689 48.8044 27.2751 49.2293 27.4228C50.0686 27.731 50.8639 28.1662 51.5348 28.7569C51.8793 29.0418 52.1772 29.3786 52.4415 29.7335C52.7031 30.0935 52.9026 30.4951 53.0373 30.9121C52.628 30.135 52.0348 29.4951 51.3509 28.9822C51.1851 28.8475 51.0012 28.7361 50.8276 28.6144C50.6437 28.5056 50.4649 28.389 50.2732 28.2932C49.9002 28.0833 49.5039 27.9201 49.1049 27.7751C48.706 27.63 48.2915 27.529 47.8771 27.4746C47.4626 27.415 47.0481 27.4409 46.6544 27.5652C46.2632 27.6948 45.8902 27.9072 45.5664 28.1869C45.24 28.4615 44.9472 28.7853 44.6985 29.148L44.7011 29.1454Z" fill="#010101"/>
<path d="M48.2967 29.1404C51.0892 29.174 52.817 31.6557 53.5838 33.0831C53.3066 31.3707 51.0607 28.5368 47.8174 28.7984C44.5016 29.0678 43.5768 32.3836 43.4214 33.9664C43.4214 33.9664 44.3747 29.0937 48.2992 29.1404H48.2967Z" fill="#301115"/>
<path d="M48.2164 36.1005C50.2007 36.1005 51.8094 34.4919 51.8094 32.5075C51.8094 30.5232 50.2007 28.9146 48.2164 28.9146C46.232 28.9146 44.6234 30.5232 44.6234 32.5075C44.6234 34.4919 46.232 36.1005 48.2164 36.1005Z" fill="#7C4C4C"/>
<path d="M48.2165 35.6707C49.9762 35.6707 51.4028 34.2441 51.4028 32.4844C51.4028 30.7246 49.9762 29.2981 48.2165 29.2981C46.4568 29.2981 45.0302 30.7246 45.0302 32.4844C45.0302 34.2441 46.4568 35.6707 48.2165 35.6707Z" fill="#2D1014"/>
<path d="M50.6499 33.0574C50.9674 31.7124 50.1344 30.3646 48.7893 30.0471C47.4442 29.7297 46.0965 30.5627 45.779 31.9078C45.4615 33.2529 46.2946 34.6006 47.6396 34.9181C48.9847 35.2356 50.3325 34.4025 50.6499 33.0574Z" fill="#010101"/>
<path d="M50.496 32.2485C50.496 32.2485 50.8898 34.7794 48.1905 35.1162C49.9909 35.7923 51.2835 33.5982 50.496 32.2485Z" fill="#7C4C4C"/>
<path d="M46.2503 32.124C46.8569 32.124 47.3486 31.6322 47.3486 31.0256C47.3486 30.419 46.8569 29.9272 46.2503 29.9272C45.6437 29.9272 45.1519 30.419 45.1519 31.0256C45.1519 31.6322 45.6437 32.124 46.2503 32.124Z" fill="#F9F3E2"/>
<path d="M50.9494 34.5439C50.9494 34.8392 50.7111 35.0775 50.4158 35.0775C50.1205 35.0775 49.8821 34.8392 49.8821 34.5439C49.8821 34.2486 50.1205 34.0103 50.4158 34.0103C50.7111 34.0103 50.9494 34.2486 50.9494 34.5439Z" fill="#F9F3E2"/>
<path opacity="0.33" d="M46.3642 43.9212C44.2659 44.7786 39.0357 45.4677 38.9451 40.2686C38.9451 40.2686 38.9606 39.4345 38.6575 39.3386C38.6575 39.3386 39.3855 43.6647 35.7459 44.3486C33.3471 44.7346 31.5493 43.2787 31.0364 42.6363C31.64 44.1439 33.6864 45.2604 35.8417 44.8719L35.5179 45.0118C35.7873 45.7915 36.15 46.351 36.4116 46.6981C36.7017 47.0841 37.0022 47.4753 37.541 47.8043C38.085 48.1384 38.6109 48.2472 38.9295 48.2861C39.2767 48.2757 39.9657 48.2032 40.66 47.7577C41.1962 47.4131 41.4915 47.0012 41.6728 46.7448C42.1314 46.0946 42.3153 45.4444 42.393 45.0118C42.007 44.8615 41.621 44.7113 41.2351 44.561C42.7531 44.9729 45.0819 44.9962 46.3694 43.9186L46.3642 43.9212ZM38.8881 43.6543C39.2637 43.6388 39.6005 43.8331 40.2636 44.188C39.8051 44.0092 39.3466 43.8305 38.8881 43.6543Z" fill="#010101"/>
<path d="M97.9249 27.8268C95.2386 27.1403 93.2051 28.8889 91.1923 32.6218C91.0291 32.9249 91.0628 33.2953 91.283 33.5595L100.316 44.5561C100.769 45.1078 100.376 45.9368 99.6631 45.9368H95.5028C95.1661 45.9368 94.863 45.7373 94.7283 45.429L90.5861 35.8728C90.3141 35.2459 89.4489 35.1863 89.0914 35.7692C87.4491 38.4451 86.5295 41.5641 86.5295 44.6856V45.2114C86.5295 45.6777 86.1512 46.0559 85.685 46.0559H81.8122C81.3459 46.0559 80.9677 45.6777 80.9677 45.2114V22.5422C80.9677 22.076 81.3459 21.6978 81.8122 21.6978H85.685C86.1512 21.6978 86.5295 22.076 86.5295 22.5422V30.8784C86.5295 31.7565 87.7029 32.0519 88.1174 31.2773C90.6328 26.5886 93.1585 22.3428 97.9249 21.7651C98.4249 21.7029 99.1658 22.4075 99.1658 22.9127V27.7646" fill="#010101"/>
<path d="M102.777 45.2551V32.2328C102.777 31.808 103.023 31.4661 103.329 31.4661H105.862C106.168 31.4661 106.414 31.8106 106.414 32.2328V45.2551C106.414 45.68 106.168 46.0219 105.862 46.0219H103.329C103.023 46.0219 102.777 45.6774 102.777 45.2551Z" fill="#010101"/>
<path d="M129.298 45.2551V32.2328C129.298 31.808 129.544 31.4661 129.85 31.4661H132.383C132.689 31.4661 132.935 31.8106 132.935 32.2328V45.2551C132.935 45.68 132.689 46.0219 132.383 46.0219H129.85C129.544 46.0219 129.298 45.6774 129.298 45.2551Z" fill="#010101"/>
<path d="M104.52 30.4121C105.569 30.4121 106.419 29.562 106.419 28.5133C106.419 27.4646 105.569 26.6145 104.52 26.6145C103.472 26.6145 102.621 27.4646 102.621 28.5133C102.621 29.562 103.472 30.4121 104.52 30.4121Z" fill="#233E97"/>
<path d="M131.005 30.4121C132.054 30.4121 132.904 29.562 132.904 28.5133C132.904 27.4646 132.054 26.6145 131.005 26.6145C129.957 26.6145 129.107 27.4646 129.107 28.5133C129.107 29.562 129.957 30.4121 131.005 30.4121Z" fill="#233E97"/>
<path d="M117.877 22.6356C112.294 22.6356 107.704 27.1612 107.704 32.8084V33.0053C107.704 38.5541 112.097 42.9786 117.579 43.1781C118.537 45.1935 120.651 47.2063 124.581 47.2063V42.5823C123.822 43.077 122.006 43.2765 120.452 42.7791C124.778 41.6238 127.949 37.6941 127.949 33.0027V32.8058C128.047 27.1586 123.423 22.6331 117.877 22.6331V22.6356ZM123.327 33.0053C123.327 35.9766 120.949 38.4867 117.877 38.4867C114.805 38.4867 112.395 36.075 112.395 33.0053V32.8084C112.395 29.8372 114.807 27.3581 117.877 27.3581C120.947 27.3581 123.327 29.7361 123.327 32.8084V33.0053Z" fill="#231F20"/>
</g>
<defs>
<clipPath id="clip0_900_6800">
<rect width="139.95" height="66" fill="white"/>
</clipPath>
</defs>
</svg>
