<svg width="509" height="255" viewBox="0 0 509 255" fill="none" xmlns="http://www.w3.org/2000/svg">
<path d="M72.81 148.75C72.81 148.75 66.42 151.51 60.41 155.43C60.39 153.05 60.51 150.73 60.72 148.5C63.93 147.9 68.01 147.74 72.81 148.75Z" fill="#233E97"/>
<path d="M77.13 165.04C77.13 165.04 69.43 168.37 62.99 172.9C62.26 170.51 61.71 168.13 61.3 165.78C64.8 164.57 70.21 163.59 77.13 165.05" fill="#233E97"/>
<path d="M227.8 166.8C227.8 166.8 233.39 170.95 238.33 176.15C238.9 173.84 239.31 171.56 239.62 169.34C236.63 168.02 232.7 166.93 227.8 166.8Z" fill="#233E97"/>
<path d="M219.85 181.67C219.85 181.67 226.58 186.68 231.8 192.57C233.06 190.42 234.15 188.22 235.08 186.03C231.95 184.05 226.91 181.85 219.84 181.68" fill="#233E97"/>
<path d="M216.73 215.77C216.33 215.77 215.95 215.53 215.81 215.13C215.64 214.64 215.9 214.1 216.4 213.93C221.22 212.27 245.67 203.41 254.15 192.26C261.73 182.28 259.26 170.6 259.24 170.48C259.13 169.97 259.45 169.46 259.96 169.35C260.47 169.24 260.98 169.56 261.09 170.07C261.2 170.58 263.77 182.74 255.66 193.41C246.85 205 221.93 214.03 217.02 215.73C216.92 215.76 216.83 215.78 216.73 215.78V215.77Z" fill="#D8E6EA"/>
<path d="M260.24 169.32C260.64 169.35 261 169.64 261.09 170.06C261.2 170.57 263.77 182.73 255.66 193.4C246.85 204.99 221.93 214.02 217.02 215.72C216.92 215.75 216.83 215.77 216.73 215.77C216.7 215.77 216.66 215.77 216.63 215.77C216.27 215.74 215.94 215.5 215.81 215.14C215.64 214.65 215.9 214.11 216.4 213.94C221.22 212.28 245.67 203.42 254.15 192.27C261.73 182.29 259.26 170.61 259.24 170.49C259.13 169.98 259.45 169.47 259.96 169.36C260.05 169.34 260.15 169.33 260.24 169.34M260.54 165.57C260.07 165.53 259.61 165.57 259.15 165.67C256.62 166.23 255.02 168.73 255.57 171.25C255.62 171.49 257.55 181.57 251.17 189.97C245.1 197.95 227.99 205.95 215.18 210.37C213.99 210.78 213.04 211.63 212.49 212.76C211.94 213.89 211.86 215.17 212.27 216.35C212.88 218.12 214.48 219.36 216.34 219.5C216.5 219.51 216.67 219.52 216.83 219.51C217.31 219.5 217.78 219.41 218.24 219.26C225.4 216.79 249.43 207.8 258.65 195.66C262.42 190.71 264.68 184.67 265.2 178.21C265.6 173.26 264.84 169.63 264.75 169.24C264.3 167.21 262.61 165.73 260.53 165.57H260.54Z" fill="#010101"/>
<path d="M215.022 208.046L197.194 214.137C196.384 214.413 195.951 215.294 196.228 216.104L199.532 225.776C199.809 226.586 200.69 227.018 201.5 226.741L219.328 220.651C220.138 220.375 220.571 219.493 220.294 218.683L216.99 209.012C216.714 208.202 215.832 207.77 215.022 208.046Z" fill="#6D768C"/>
<g opacity="0.5">
<path d="M218.39 213.11L218.89 214.58C218.96 214.79 219.02 215 219.06 215.21C217.8 212.53 214.7 211.17 211.84 212.15L202.22 215.44C199.35 216.42 197.73 219.39 198.38 222.28C198.29 222.09 198.2 221.88 198.13 221.68L197.63 220.21C196.58 217.14 198.22 213.79 201.3 212.74L210.92 209.45C213.99 208.4 217.34 210.04 218.39 213.12V213.11Z" fill="white"/>
</g>
<path d="M218.39 213.11L218.89 214.58C219.94 217.65 218.3 220.99 215.22 222.04L205.6 225.33C202.53 226.38 199.18 224.75 198.13 221.67L197.63 220.2C197.43 219.63 197.34 219.05 197.31 218.48C198.79 220.51 201.47 221.44 203.98 220.59L213.6 217.3C216.1 216.45 217.65 214.07 217.58 211.55C217.91 212.02 218.19 212.54 218.39 213.11Z" fill="#4F5A75"/>
<path d="M203.25 227.61C200.06 227.35 197.17 225.25 196.07 222.04L195.77 221.17C194.3 216.86 196.61 212.15 200.92 210.67L209.95 207.59C212.04 206.88 214.28 207.02 216.27 207.99C218.25 208.96 219.74 210.65 220.45 212.74L220.75 213.61C221.46 215.7 221.32 217.94 220.35 219.93C219.38 221.91 217.69 223.4 215.6 224.11L206.57 227.19C205.47 227.57 204.34 227.7 203.25 227.61ZM212.96 211.3C212.4 211.26 211.84 211.33 211.29 211.51L202.26 214.59C200.1 215.33 198.95 217.68 199.69 219.83L199.99 220.7C200.73 222.86 203.08 224.01 205.23 223.27L214.26 220.19C215.3 219.83 216.15 219.09 216.63 218.1C217.12 217.11 217.19 215.99 216.83 214.94L216.53 214.07C216.17 213.03 215.43 212.18 214.44 211.7C213.97 211.47 213.46 211.33 212.95 211.29L212.96 211.3Z" fill="#010101"/>
<path d="M248.46 153.57C249.14 149.56 249.56 145.46 249.72 141.37C251.69 89.61 211.18 45.89 159.42 43.92C107.66 41.95 63.94 82.46 61.97 134.22C61.81 138.31 61.92 142.43 62.3 146.48L53.23 146.13C52.9 142.08 52.82 137.96 52.97 133.87C55.13 77.15 103.03 32.76 159.76 34.92C216.48 37.08 260.86 84.98 258.7 141.71C258.54 145.8 258.15 149.9 257.51 153.91L248.45 153.56L248.46 153.57Z" fill="#D8E6EA"/>
<path d="M258.71 141.72C258.55 145.81 258.15 149.9 257.52 153.92L248.46 153.57C249.14 149.55 249.56 145.46 249.72 141.37C251.69 89.61 211.19 45.89 159.43 43.92C107.67 41.95 63.95 82.45 61.98 134.22C61.82 138.31 61.94 142.42 62.31 146.48L53.24 146.13C52.91 142.08 52.83 137.96 52.98 133.87C55.14 77.14 103.04 32.76 159.77 34.92C216.49 37.08 260.88 84.98 258.72 141.71L258.71 141.72Z" fill="#D8E6EA"/>
<path d="M254.26 141.55C254.16 144.14 253.96 146.74 253.66 149.32H253.57C253.87 146.73 254.07 144.14 254.17 141.55L249.72 141.38C251.69 89.62 211.19 45.9 159.43 43.93C107.67 41.96 63.95 82.4599 61.98 134.23L57.53 134.06C57.43 136.65 57.43 139.25 57.54 141.85H57.44C57.34 139.25 57.34 136.65 57.44 134.06C59.51 79.79 105.34 37.32 159.61 39.39C213.87 41.46 256.34 87.29 254.27 141.56L254.26 141.55Z" fill="#A2BECE"/>
<path d="M259.17 155.93L246.16 155.43L246.53 153.24C247.2 149.31 247.61 145.29 247.76 141.29C248.69 116.78 240 93.34 223.28 75.2999C206.56 57.2599 183.85 46.7999 159.34 45.8699C134.83 44.9399 111.39 53.6299 93.35 70.3499C75.31 87.0699 64.85 109.78 63.92 134.29C63.77 138.29 63.87 142.33 64.24 146.3L64.44 148.51L51.42 148.01L51.28 146.28C50.95 142.16 50.86 137.96 51.02 133.79C52.08 105.84 64 79.9399 84.58 60.8799C105.15 41.8199 131.88 31.8999 159.83 32.9699C187.78 34.0299 213.67 45.9499 232.74 66.5299C251.8 87.0999 261.72 113.83 260.65 141.78C260.49 145.94 260.08 150.13 259.44 154.21L259.17 155.92V155.93ZM250.72 151.71L255.84 151.91C256.31 148.52 256.62 145.08 256.75 141.65C257.77 114.74 248.23 89.0099 229.88 69.1999C211.52 49.3899 186.6 37.9199 159.68 36.8899C132.77 35.8599 107.04 45.4099 87.23 63.7699C67.42 82.1299 55.95 107.06 54.92 133.97C54.79 137.4 54.83 140.86 55.05 144.27L60.18 144.47C59.95 141.05 59.89 137.6 60.02 134.17C60.99 108.62 71.89 84.9399 90.7 67.5199C109.51 50.0899 133.94 41.0299 159.49 41.9999C185.04 42.9699 208.72 53.8699 226.14 72.6799C243.57 91.4899 252.63 115.92 251.66 141.47C251.53 144.9 251.21 148.34 250.72 151.73V151.71Z" fill="#010101"/>
<path d="M234.34 78.39C250.13 98.53 257.48 124.9 254.53 150.32C254 150.3 253 150.26 252.47 150.24C252.83 147.34 253.08 144.42 253.19 141.5C253.27 140.21 255.16 140.29 255.14 141.57C255.04 144.19 254.84 146.81 254.53 149.41L253.6 148.32H253.69L252.68 149.18C256 124.36 249.27 98.49 234.34 78.37V78.39Z" fill="#512819"/>
<path d="M58.49 134.09C58.37 137.01 58.41 139.94 58.54 142.86L57.49 142.82H57.39L56.47 142.78L56.45 141.89C55.93 122.95 60.89 103.84 70.81 87.69C74.09 82.32 77.86 77.26 82.08 72.6C77.99 77.36 74.35 82.5 71.23 87.93C61.84 104.15 57.41 123.11 58.4 141.8L57.46 140.86H57.56L56.55 141.88C56.44 139.26 56.44 136.63 56.55 134.01C56.57 133.47 57.02 133.05 57.56 133.07C58.1 133.09 58.52 133.54 58.5 134.08L58.49 134.09Z" fill="#010101"/>
<path d="M159.96 29.57C139.29 28.78 118.38 34.21 98.41 45.91C95.01 47.9 93.19 51.92 94.08 55.5C94.51 57.22 100.66 64.68 108.1 63.46C116.62 62.06 121.26 57.16 123.34 53.79C133.28 54.17 139.95 51.56 146.23 47.7C149.85 49.3 154.42 50.34 159.17 50.52C163.92 50.7 168.56 50.01 172.28 48.69C178.24 53.02 184.7 56.12 194.64 56.5C196.46 60.02 200.71 65.26 209.1 67.3C216.42 69.09 223.12 62.12 223.68 60.43C224.84 56.92 223.33 52.78 220.09 50.54C201.07 37.36 180.64 30.36 159.96 29.57Z" fill="#618096"/>
<path d="M223.68 60.43C223.12 62.12 216.42 69.09 209.1 67.3C200.71 65.26 196.45 60.02 194.64 56.5C184.7 56.12 178.24 53.01 172.28 48.69C168.55 50.01 163.91 50.7 159.17 50.52C154.42 50.34 149.85 49.3 146.23 47.7C139.95 51.56 133.28 54.16 123.34 53.79C121.26 57.16 116.62 62.06 108.09 63.46C100.66 64.68 94.51 57.22 94.08 55.5C93.86 54.61 93.8 53.69 93.9 52.78C94.19 50.04 95.86 47.41 98.41 45.91C118.38 34.22 139.29 28.78 159.96 29.57C180.64 30.36 201.07 37.37 220.09 50.54C222.53 52.23 223.99 54.98 224.07 57.73C224.09 58.65 223.97 59.56 223.68 60.43Z" fill="#618096"/>
<g opacity="0.5">
<path d="M121.25 39.13C133.92 34.65 146.82 32.63 159.82 33.13C172.82 33.63 185.54 36.61 197.83 42.05C204.72 45.09 178.96 35.35 159.77 34.62C140.58 33.89 114.15 41.64 121.25 39.13Z" fill="white"/>
</g>
<path d="M223.68 60.43C223.12 62.12 216.42 69.09 209.1 67.3C200.71 65.26 196.45 60.02 194.64 56.5C184.7 56.12 178.24 53.01 172.28 48.69C168.55 50.01 163.91 50.7 159.17 50.52C154.42 50.34 149.85 49.3 146.23 47.7C139.95 51.56 133.28 54.16 123.34 53.79C121.26 57.16 116.62 62.06 108.09 63.46C100.66 64.68 94.51 57.22 94.08 55.5C93.86 54.61 93.8 53.69 93.9 52.78C95.28 54.12 98.13 55.85 103.78 56.31C112.96 57.07 115.11 50.48 110.66 47.46C110.66 47.46 126.44 50.43 134.13 46.9C139.87 44.27 138.8 38.26 138.76 38.06C139.02 38.19 147.28 42.59 159.45 43.06C171.62 43.52 180.19 39.76 180.46 39.65C180.41 39.85 178.88 45.76 184.41 48.82C191.82 52.92 207.77 51.16 207.77 51.16C203.1 53.84 204.74 60.57 213.95 60.51C219.62 60.48 222.59 58.97 224.07 57.74C224.09 58.65 223.97 59.56 223.68 60.44V60.43Z" fill="#41667B"/>
<path d="M212.45 69.51C211.21 69.6 209.93 69.51 208.64 69.2C199.74 67.03 195.31 61.51 193.46 58.4C183.37 57.8 176.92 54.35 171.95 50.86C168.1 52.07 163.57 52.64 159.09 52.47H159.07C154.59 52.3 150.13 51.38 146.39 49.88C141.18 52.98 134.47 55.93 124.37 55.76C122.29 58.72 117.45 63.89 108.41 65.38C99.95 66.77 92.88 58.77 92.18 55.97C91.09 51.58 93.29 46.64 97.42 44.22C117.62 32.39 138.68 26.8 160.03 27.62H160.04C181.39 28.43 201.96 35.61 221.2 48.94C225.13 51.66 226.95 56.76 225.53 61.05C224.76 63.36 219.18 69.03 212.45 69.51ZM172.14 46.74C172.59 46.71 173.05 46.83 173.42 47.11C178.43 50.74 184.48 54.16 194.71 54.55C195.41 54.58 196.05 54.98 196.37 55.61C197.54 57.87 201.16 63.36 209.56 65.41C215.7 66.91 221.32 60.9 221.84 59.79C222.71 57.11 221.52 53.9 218.98 52.14C200.37 39.24 180.5 32.3 159.91 31.52C159.89 31.52 159.87 31.52 159.85 31.52C139.27 30.74 118.92 36.15 99.38 47.59C96.72 49.15 95.28 52.26 95.95 55C96.38 56.14 101.53 62.56 107.76 61.53C116.3 60.13 120.32 54.93 121.66 52.76C122.03 52.16 122.69 51.81 123.4 51.83C133.63 52.22 139.92 49.27 145.19 46.03C145.74 45.69 146.41 45.65 147 45.91C150.49 47.46 154.83 48.4 159.22 48.57H159.24C163.62 48.73 168.01 48.12 171.61 46.85C171.78 46.79 171.95 46.76 172.12 46.74H172.14Z" fill="#010101"/>
<path d="M116.13 50.52C118.6 51.3 121.3 51.92 123.82 51.89L122.86 55.67C120.25 54.32 118.14 52.53 116.13 50.52Z" fill="#512819"/>
<path d="M140.6 41.91C142.68 43.61 145.01 45.1 147.43 46.16L145.03 49.24C143.19 46.98 141.75 44.53 140.6 41.91Z" fill="#010101"/>
<path d="M178.33 43.34C176.98 45.86 175.36 48.2 173.35 50.31L171.2 47.06C173.69 46.19 176.13 44.88 178.33 43.34Z" fill="#010101"/>
<path d="M202.08 53.79C199.92 55.65 197.69 57.27 194.98 58.42L194.31 54.58C196.82 54.8 199.57 54.39 202.08 53.79Z" fill="#010101"/>
<path d="M238.96 141.57C238.96 141.57 256.91 214.93 173.37 223.68C152.97 225.82 132.31 223.41 112.95 216.64C81.89 205.78 68.27 188.85 63.18 172.27C62.45 169.88 61.9 167.5 61.49 165.15C60.89 161.62 60.62 158.15 60.6 154.8C60.58 152.42 60.7 150.1 60.91 147.87C62.31 132.79 67.99 121.65 67.99 121.65C62.32 76.6 78.38 52.52 85.85 43.99C88.31 41.18 91.81 39.47 95.54 39.36C117.5 38.72 136.3 69.19 136.3 69.19C147.51 67.46 160.78 68.9 160.78 68.9C160.78 68.9 174.02 70.56 184.53 74.81C184.53 74.81 209.83 49.47 231.05 55.15C234.66 56.12 237.66 58.59 239.42 61.89C244.73 71.91 254.83 99.04 238.95 141.58" fill="#2BAAE2"/>
<path d="M184.65 75.44L183.96 75.67C183.96 75.67 173.97 71.07 160.6 69.51C147.22 67.95 136.45 70.13 136.45 70.13L135.83 69.74C135.83 69.74 125.34 78.19 126.74 94.65C126.85 95.99 128.36 96.48 129.16 95.45C132.61 91.02 139.92 82.18 145.56 79.13C147.41 78.13 149.56 79.3 149.99 81.52C150.29 83.08 150.5 85.35 150.45 88.62C150.32 97.04 149.16 107.31 153.26 111.86C154.52 113.26 156.47 113.49 158.02 112.42C163.05 108.93 164.29 98.67 166.1 90.45C166.8 87.25 167.53 85.09 168.18 83.64C169.11 81.58 171.47 80.94 173.04 82.34C177.82 86.61 182.91 96.89 185.25 102C185.79 103.19 187.37 103.06 187.78 101.78C192.92 86.09 184.66 75.45 184.66 75.45" fill="#233E97"/>
<path d="M117.17 76.65C110.15 80.8 94.95 89.54 82.34 105.01C81.36 106.21 79.42 105.52 79.43 103.97C79.5 93.18 80.96 66.7 93 54.27C94.43 52.79 96.61 52.32 98.54 53.05C102.71 54.64 111.69 58.06 118.69 71.15C119.73 73.1 119.09 75.53 117.18 76.66" fill="#F79B2A"/>
<path d="M201.2 86.44C207.07 92.09 219.86 104.09 228.58 122.05C229.26 123.45 231.31 123.22 231.66 121.7C234.07 111.19 238.74 85.08 229.88 70.21C228.83 68.44 226.81 67.48 224.77 67.75C220.34 68.34 210.82 69.6 201 80.73C199.53 82.39 199.61 84.9 201.2 86.44Z" fill="#F79B2A"/>
<path d="M81.08 107.28C80.7 107.28 80.32 107.21 79.94 107.08C78.61 106.6 77.75 105.37 77.76 103.95C77.83 92.94 79.34 65.96 91.8 53.1C93.69 51.15 96.56 50.51 99.12 51.48C103.23 53.04 112.85 56.7 120.15 70.35C121.62 73.1 120.69 76.49 118.02 78.07L117.4 78.44C110.36 82.6 95.7 91.26 83.63 106.05C82.98 106.84 82.05 107.27 81.09 107.27L81.08 107.28ZM96.68 54.36C95.75 54.36 94.85 54.73 94.19 55.41C82.57 67.41 81.16 93.37 81.09 103.97C93.5 88.7 108.5 79.84 115.71 75.58L116.33 75.21C117.46 74.54 117.85 73.09 117.22 71.91C110.51 59.36 102.02 56.13 97.94 54.58C97.53 54.42 97.1 54.35 96.68 54.35V54.36Z" fill="#233E97"/>
<path d="M230.04 124.64C228.78 124.64 227.65 123.94 227.08 122.78C218.74 105.6 206.46 93.81 200.56 88.14L200.04 87.64C197.81 85.49 197.68 81.98 199.74 79.64C209.98 68.04 220.18 66.69 224.54 66.11C227.24 65.75 229.9 67.03 231.29 69.37C240.45 84.75 235.72 111.36 233.26 122.08C232.94 123.46 231.83 124.46 230.42 124.62C230.29 124.63 230.16 124.64 230.03 124.64H230.04ZM225.46 69.37C225.31 69.37 225.15 69.37 224.99 69.4C220.66 69.97 211.66 71.16 202.24 81.84C201.36 82.84 201.4 84.34 202.35 85.25L202.87 85.75C208.91 91.55 221.47 103.62 230.07 121.33C232.41 111 237 85.42 228.45 71.07C227.82 70.01 226.68 69.38 225.45 69.38L225.46 69.37Z" fill="#233E97"/>
<g opacity="0.25">
<path d="M174.39 214.58C153.99 216.72 133.33 214.31 113.97 207.54C82.91 196.68 69.29 179.75 64.21 163.17C63.48 160.78 62.93 158.4 62.52 156.05C61.92 152.52 61.65 149.05 61.63 145.7C61.62 144.18 61.67 142.68 61.75 141.22C61.32 143.51 60.95 145.95 60.72 148.5C60.51 150.73 60.39 153.05 60.41 155.43C60.42 158.78 60.69 162.25 61.3 165.78C61.71 168.13 62.26 170.52 62.99 172.9C68.07 189.48 81.69 206.4 112.76 217.26C132.12 224.03 152.78 226.44 173.18 224.3C227.44 218.62 238.88 185.67 240.24 163.28C236.15 184.48 221.2 209.66 174.4 214.57" fill="white"/>
</g>
<g opacity="0.6">
<path d="M239.23 62.51C237.48 59.21 234.47 56.74 230.86 55.77C209.63 50.09 184.34 75.43 184.34 75.43C173.83 71.17 160.59 69.52 160.59 69.52C160.59 69.52 147.32 68.09 136.11 69.81C136.11 69.81 117.32 39.33 95.35 39.98C91.62 40.09 88.12 41.8 85.66 44.61C85.32 45 84.96 45.43 84.59 45.88C86.35 45.03 88.28 44.54 90.27 44.48C109.05 43.93 125.66 64.71 131.52 72.98C132.93 74.98 135.31 76.06 137.75 75.83C148.65 74.79 159.89 76.01 159.89 76.01C159.89 76.01 160.85 76.13 162.46 76.39C162.62 78.96 166.43 81.56 171.46 82.4C175.58 83.09 179.32 82.38 181.07 80.79C181.21 80.84 181.34 80.88 181.48 80.93C183.8 81.72 186.36 81.21 188.19 79.59C195.79 72.88 216.74 56.48 234.89 61.34C236.74 61.84 238.45 62.71 239.93 63.87C239.69 63.39 239.46 62.93 239.23 62.51Z" fill="white"/>
</g>
<path d="M158.83 227.24C142.94 227.24 126.99 224.56 112.03 219.33C86.57 210.43 69.9 196.55 62.5 178.08C52.12 152.19 63.45 126.3 65.55 121.9C59.98 76.22 76.59 51.65 84.01 43.17C86.89 39.88 91 37.92 95.29 37.79C115.95 37.19 133.31 61.57 137.19 67.44C148.2 66 160.29 67.28 160.82 67.33C161.38 67.4 173.45 68.94 183.83 72.87C188.96 68.05 211.48 48.31 231.43 53.65C235.57 54.76 239.12 57.61 241.17 61.47C246.45 71.42 256.96 99.16 241.04 142.33C242.07 147.1 247.14 174.9 231.09 197.71C219.64 213.98 200.23 223.65 173.4 226.47C168.57 226.98 163.7 227.23 158.83 227.23V227.24ZM96.05 42.17C95.84 42.17 95.64 42.17 95.43 42.17C92.36 42.26 89.4 43.68 87.32 46.05C80.25 54.12 64.4 77.66 69.99 121.99C70.04 122.43 69.97 122.87 69.77 123.26C69.63 123.53 56.17 150.53 66.59 176.48C73.51 193.7 89.28 206.72 113.48 215.19C132.42 221.81 152.99 224.21 172.95 222.12C198.46 219.45 216.82 210.39 227.51 195.2C243.62 172.3 236.7 143 236.63 142.71C236.53 142.28 236.55 141.83 236.71 141.42C252.34 99.56 242.33 73 237.3 63.53C235.82 60.74 233.27 58.68 230.3 57.89C210.56 52.61 186.14 76.74 185.9 76.98C185.28 77.6 184.34 77.79 183.53 77.46C173.42 73.36 160.46 71.71 160.33 71.69C160.24 71.69 147.24 70.31 136.46 71.98C135.59 72.11 134.72 71.71 134.26 70.97C134.08 70.68 116.23 42.17 96.06 42.17H96.05Z" fill="#233E97"/>
<path d="M52.49 161.1L70.21 104.68C70.21 104.68 65.48 101.32 63.11 99.64C55.96 94.56 45.94 96.99 41.95 104.8C35.5 117.43 31.3 130.79 29.38 144.84C28.19 153.53 35.02 161.25 43.79 161.17C46.69 161.14 52.49 161.09 52.49 161.09V161.1Z" fill="#D8E6EA"/>
<path d="M29.38 144.84C28.19 153.53 35.02 161.25 43.79 161.17C46.69 161.15 52.49 161.1 52.49 161.1L58.31 142.56L70.21 104.68C70.21 104.68 65.48 101.32 63.11 99.64C55.95 94.56 45.94 96.99 41.95 104.8C37.34 113.83 33.88 123.24 31.58 132.99C30.66 136.88 29.93 140.83 29.38 144.83V144.84Z" fill="#D8E6EA"/>
<path d="M29.38 144.84C28.19 153.53 35.02 161.25 43.79 161.17C46.69 161.15 52.49 161.1 52.49 161.1L58.31 142.56C50.74 139.89 39.89 136.17 38.39 136.17C36.5 136.17 32.88 137.21 31.57 132.99C30.65 136.88 29.92 140.83 29.37 144.83L29.38 144.84Z" fill="#B1BFC5"/>
<path d="M53.87 162.96L43.8 163.05C39.06 163.09 34.55 161.07 31.41 157.51C28.29 153.96 26.87 149.25 27.51 144.58C29.46 130.38 33.75 116.71 40.27 103.94C42.41 99.74 46.28 96.69 50.86 95.56C55.46 94.43 60.32 95.36 64.19 98.1L72.4 103.93L53.86 162.96H53.87ZM53.87 98.89C53.17 98.94 52.47 99.05 51.77 99.22C48.24 100.09 45.28 102.43 43.63 105.66C37.3 118.05 33.13 131.32 31.24 145.1C30.75 148.69 31.84 152.31 34.24 155.04C36.65 157.78 40.13 159.33 43.77 159.3L51.1 159.24L68 105.43L62.02 101.18C59.63 99.48 56.74 98.69 53.86 98.9L53.87 98.89Z" fill="#010101"/>
<path d="M63.74 133.64C72.06 107.15 77.29 97.88 74.41 95.83C65.7 89.65 53.5 92.6 48.64 102.12C40.78 117.5 35.67 133.76 33.33 150.88C31.88 161.46 40.2 170.86 50.88 170.77C54.41 170.74 55.42 160.14 63.74 133.65V133.64Z" fill="#B5D43F"/>
<path d="M33.33 150.87C31.88 161.45 40.2 170.85 50.88 170.76C54.11 170.73 55.23 161.85 61.79 140.02C62.39 138.01 63.04 135.88 63.75 133.64C72.07 107.15 77.3 97.87 74.42 95.83C65.71 89.65 53.51 92.6 48.66 102.12C43.65 111.93 39.75 122.09 36.99 132.61C35.41 138.59 34.19 144.68 33.35 150.88L33.33 150.87Z" fill="#B5D43F"/>
<path d="M33.33 150.87C31.88 161.45 40.2 170.85 50.88 170.76C54.11 170.73 55.23 161.85 61.79 140.02C62.11 138.97 62.44 137.88 62.78 136.76C63.09 135.74 63.41 134.7 63.75 133.64C65.86 126.91 67.78 121.29 69.41 116.62C74.2 102.9 76.56 97.35 74.41 95.83C65.7 89.65 53.5 92.6 48.65 102.12C46.92 105.5 45.33 108.93 43.87 112.39C41.7 117.54 39.82 122.79 38.24 128.12C37.79 129.61 37.38 131.1 36.98 132.6C35.4 138.58 34.18 144.67 33.34 150.87H33.33Z" fill="#FED93B"/>
<g opacity="0.5">
<path d="M38.23 128.12C40.56 131.28 47.12 137.4 62.77 136.76C63.08 135.74 63.4 134.7 63.74 133.64C65.85 126.91 67.77 121.29 69.4 116.62C62.54 111.43 51.8 108.27 43.86 112.39C41.69 117.54 39.81 122.79 38.23 128.12Z" fill="white"/>
</g>
<g opacity="0.5">
<path d="M47.26 104.9C53.13 99.27 62.49 98.28 69.55 103.29C70.17 103.73 71.45 104.75 73.01 106.35C75.21 99.93 75.91 96.89 74.41 95.83C65.7 89.65 53.5 92.6 48.65 102.12C48.18 103.05 47.71 103.98 47.26 104.91V104.9Z" fill="white"/>
</g>
<path d="M33.33 150.87C31.88 161.45 40.2 170.85 50.88 170.76C54.11 170.73 55.23 161.85 61.79 140.02C60.21 138.13 58.19 142.1 54.55 146.07C48.76 152.39 34.14 145.72 36.98 132.6C35.4 138.58 34.18 144.67 33.34 150.87H33.33Z" fill="#FBBB27"/>
<path d="M51.14 172.63C51.06 172.63 50.98 172.63 50.9 172.63C45.25 172.68 39.86 170.27 36.13 166.03C32.41 161.8 30.71 156.18 31.48 150.61C33.84 133.36 39.06 116.76 46.98 101.25C49.54 96.24 54.14 92.6 59.61 91.26C65.1 89.91 70.89 91.02 75.5 94.29C77.55 95.75 77.23 98.43 76.65 100.87C76.03 103.49 74.72 107.18 72.91 112.29C71.02 117.62 68.44 124.92 65.53 134.19C62.62 143.46 60.57 150.92 59.07 156.38C57.63 161.6 56.59 165.38 55.61 167.89C54.72 170.15 53.5 172.45 51.14 172.62V172.63ZM63.13 94.51C62.25 94.57 61.37 94.71 60.51 94.92C56.1 96 52.39 98.94 50.33 102.97C42.6 118.1 37.51 134.3 35.21 151.13C34.59 155.62 35.96 160.15 38.96 163.55C41.96 166.96 46.29 168.9 50.83 168.88C51.94 168.18 53.58 162.25 55.46 155.39C56.97 149.91 59.03 142.4 61.96 133.07C64.89 123.74 67.49 116.4 69.38 111.04C71.75 104.33 73.81 98.53 73.29 97.32C70.31 95.22 66.72 94.24 63.13 94.49V94.51Z" fill="#010101"/>
<path d="M60.35 132.57C60.35 132.57 52.48 163.9 52.3 172.1C52.2 176.43 60.85 180.01 64.95 177.09C69.59 173.79 73.74 156.57 79.4 138.55C85.06 120.53 91.49 104.03 89.57 98.67C87.87 93.93 78.74 91.92 76.34 95.53C71.8 102.36 60.35 132.57 60.35 132.57Z" fill="#D8E6EA"/>
<path d="M52.3 172.11C52.21 176.44 60.85 180.01 64.95 177.09C69.59 173.79 73.74 156.57 79.4 138.56C83.82 124.5 88.7 111.37 89.72 103.73C90.01 101.57 89.99 99.86 89.57 98.68C87.87 93.94 78.74 91.93 76.34 95.54C75.49 96.83 74.38 98.95 73.16 101.53C67.89 112.68 60.34 132.58 60.34 132.58C60.34 132.58 52.48 163.91 52.29 172.11H52.3Z" fill="#D8E6EA"/>
<path d="M52.3 172.11C52.21 176.44 60.85 180.01 64.95 177.09C68.33 174.68 71.46 164.87 75.1 152.75C76.45 148.25 77.87 143.44 79.4 138.56C83.82 124.5 88.7 111.37 89.72 103.73C90.01 101.57 89.99 99.86 89.57 98.68C87.87 93.94 78.74 91.93 76.34 95.54C75.49 96.83 74.38 98.95 73.16 101.53C67.89 112.68 60.34 132.58 60.34 132.58C60.34 132.58 58.74 138.97 56.97 146.72C54.81 156.15 52.4 167.61 52.29 172.11H52.3Z" fill="#D8E6EA"/>
<g opacity="0.5">
<path d="M78.53 105.02C77.54 104.89 72.1 118.47 69.15 128.13C65.71 139.37 62.49 152.47 63.54 152.9C64.75 153.4 79.51 105.15 78.53 105.02Z" fill="white"/>
</g>
<path d="M52.3 172.11C52.21 176.44 60.85 180.01 64.95 177.09C68.33 174.68 71.46 164.87 75.1 152.75C73.02 155.59 69.87 157.91 65.4 156.67C59.09 154.93 57.34 150.29 56.98 146.72C54.82 156.15 52.41 167.61 52.3 172.11Z" fill="#B0C3D1"/>
<path d="M73.16 101.52C78.56 99.97 85.62 102.12 89.72 103.72C90.01 101.56 89.99 99.85 89.57 98.67C87.87 93.93 78.74 91.92 76.34 95.53C75.49 96.82 74.38 98.94 73.16 101.52Z" fill="#B0C3D1"/>
<path d="M61.94 180.01C59.56 180.18 57.04 179.51 55.07 178.47C52.1 176.9 50.37 174.51 50.42 172.07C50.6 163.76 58.2 133.43 58.52 132.14L58.59 131.93C59.06 130.69 70.17 101.46 74.77 94.54C76.12 92.51 78.91 91.54 82.25 91.94C85.84 92.38 90.04 94.45 91.34 98.08C92.98 102.68 90.09 111.94 84.83 127.92C83.64 131.55 82.4 135.3 81.2 139.14C80 142.98 78.86 146.76 77.77 150.42C72.95 166.53 70.03 175.79 66.05 178.62C64.85 179.48 63.43 179.9 61.95 180.01H61.94ZM62.14 133.16C61.64 135.17 54.35 164.49 54.18 172.15C54.16 173.11 55.2 174.29 56.83 175.15C59.32 176.47 62.34 176.65 63.86 175.56C66.98 173.34 70.47 161.68 74.16 149.35C75.26 145.68 76.39 141.88 77.61 138.02C78.82 134.16 80.06 130.39 81.26 126.75C85.29 114.52 89.09 102.96 87.8 99.36C87.17 97.6 84.59 96.02 81.8 95.68C79.97 95.46 78.44 95.83 77.91 96.63C73.67 103.01 62.89 131.24 62.15 133.17L62.14 133.16Z" fill="#010101"/>
<path d="M84.34 102.03C81.43 101.49 77.79 100.54 75.32 102.56C74.65 103.12 74.15 103.87 73.75 104.69L70.66 102.55C71.56 101.56 72.65 100.66 73.93 100.11C77.56 98.53 81.19 100.38 84.34 102.03Z" fill="#010101"/>
<path d="M79.87 103.6C78.07 103.45 76.07 103.49 74.64 104.61C73.28 105.64 72.53 107.22 71.95 108.81L68.67 106.97C71.68 103.08 75.21 101.39 79.87 103.6Z" fill="#010101"/>
<path d="M78.17 121.06C75.19 120.75 71.4 119.32 68.9 121.48C68.26 122.06 67.83 122.86 67.48 123.73L64.2 121.89C65.85 119.54 68.6 117.99 71.47 118.51C73.96 118.87 75.93 120.15 78.16 121.06H78.17Z" fill="#010101"/>
<path d="M66.33 163.5C61.74 163.07 55.15 161.91 54.86 156.12L58.61 156.34C58.42 157.03 58.44 157.7 58.79 158.44C60.26 161.06 63.64 162.33 66.33 163.5Z" fill="#010101"/>
<path d="M58.7 132.05C54.33 145.96 48.1 168.87 49.19 170.94C49.97 172.42 51.51 172.36 52.3 172.1C54.32 171.45 55.43 160.12 63.75 133.63C72.07 107.14 77.63 97.22 76.35 95.53C75.84 94.86 74.63 93.93 73.13 94.7C71.05 95.77 63.07 118.14 58.7 132.05Z" fill="#82C341"/>
<path d="M49.19 170.95C49.97 172.44 51.5 172.37 52.3 172.11C53.95 171.57 54.99 163.94 59.84 146.74C60.93 142.87 62.22 138.51 63.75 133.65C72.07 107.16 77.63 97.24 76.35 95.54C75.84 94.87 74.63 93.94 73.14 94.71C71.06 95.78 63.07 118.15 58.71 132.06C57.46 136.04 56.06 140.76 54.72 145.51C51.38 157.37 48.42 169.48 49.2 170.96L49.19 170.95Z" fill="#FED93B"/>
<path d="M49.19 170.95C49.97 172.44 51.5 172.37 52.3 172.11C53.95 171.57 54.99 163.94 59.84 146.74C58.11 147.25 56.09 147.43 54.71 145.51C51.37 157.37 48.41 169.48 49.19 170.96V170.95Z" fill="#FBBB27"/>
<path d="M51.71 174.12C50.15 174.23 48.47 173.61 47.53 171.82C47.1 171 46.44 169.75 50.08 155.47C51.94 148.18 54.56 138.99 56.91 131.48C59.27 123.98 62.37 114.94 65.02 107.9C70.2 94.1 71.45 93.46 72.28 93.03C74.53 91.87 76.7 92.88 77.85 94.39C79.14 96.09 78.23 98.5 75.2 106.49C72.95 112.43 69.56 121.39 65.54 134.19C61.52 146.98 59.18 156.28 57.63 162.44C55.54 170.73 54.91 173.23 52.88 173.88C52.51 174 52.11 174.08 51.71 174.11V174.12ZM50.93 170.2C51.05 170.34 51.21 170.4 51.42 170.38C52 169.35 52.92 165.7 53.97 161.53C55.53 155.33 57.89 145.97 61.94 133.08C65.99 120.18 69.41 111.15 71.67 105.18C73.19 101.16 74.52 97.64 74.63 96.46C74.47 96.33 74.3 96.28 74.12 96.33C72.26 98.62 65.6 116.31 60.48 132.63C55.36 148.95 50.71 167.27 50.92 170.21L50.93 170.2Z" fill="#010101"/>
<path d="M257.12 168.89L243.75 111.29C243.75 111.29 248.72 108.3 251.21 106.81C258.73 102.29 268.53 105.47 271.92 113.57C277.39 126.66 280.56 140.29 281.41 154.45C281.94 163.21 274.54 170.38 265.8 169.64C262.91 169.39 257.13 168.9 257.13 168.9L257.12 168.89Z" fill="#D8E6EA"/>
<path d="M281.4 154.44C281.92 163.2 274.53 170.37 265.79 169.63C262.9 169.39 257.12 168.9 257.12 168.9L252.73 149.97L243.75 111.29C243.75 111.29 248.73 108.3 251.21 106.81C258.73 102.29 268.53 105.48 271.92 113.57C275.83 122.93 278.57 132.57 280.12 142.47C280.74 146.42 281.17 150.41 281.42 154.45L281.4 154.44Z" fill="#D8E6EA"/>
<path d="M281.4 154.44C281.92 163.2 274.53 170.37 265.79 169.63C262.9 169.39 257.12 168.9 257.12 168.9L252.73 149.97C260.48 147.89 271.59 145 273.07 145.12C274.95 145.27 278.49 146.58 280.11 142.47C280.73 146.42 281.16 150.41 281.41 154.45L281.4 154.44Z" fill="#B1BFC5"/>
<path d="M268.18 171.52C267.34 171.58 266.49 171.58 265.63 171.5L255.6 170.65L241.61 110.38L250.24 105.19C254.3 102.75 259.22 102.2 263.72 103.67C268.21 105.14 271.83 108.48 273.65 112.83C279.18 126.05 282.42 140.01 283.28 154.32C283.56 159.03 281.79 163.62 278.41 166.91C275.63 169.62 272 171.23 268.19 171.51L268.18 171.52ZM258.64 167.13L265.95 167.75C269.59 168.06 273.17 166.77 275.78 164.23C278.38 161.69 279.74 158.17 279.53 154.55C278.69 140.66 275.55 127.12 270.18 114.28C268.78 110.94 266 108.37 262.55 107.24C259.08 106.1 255.3 106.53 252.17 108.41L245.88 112.19L258.64 167.13Z" fill="#010101"/>
<path d="M247.99 140.66C241.71 113.61 237.2 103.97 240.23 102.15C249.39 96.65 261.32 100.52 265.44 110.38C272.11 126.32 275.96 142.92 277 160.16C277.64 170.82 268.63 179.56 257.99 178.65C254.47 178.35 254.27 167.71 247.99 140.66Z" fill="#B5D43F"/>
<path d="M277 160.15C277.64 170.81 268.63 179.55 257.99 178.64C254.77 178.37 254.33 169.43 249.45 147.16C249 145.11 248.52 142.93 247.98 140.65C241.7 113.6 237.19 103.96 240.22 102.14C249.38 96.64 261.31 100.51 265.43 110.37C269.68 120.53 272.79 130.96 274.75 141.66C275.87 147.74 276.62 153.91 276.99 160.16L277 160.15Z" fill="#B5D43F"/>
<path d="M277 160.15C277.64 170.81 268.63 179.55 257.99 178.64C254.77 178.37 254.33 169.43 249.45 147.16C249.21 146.09 248.97 144.97 248.71 143.84C248.48 142.8 248.23 141.74 247.98 140.65C246.38 133.78 244.91 128.03 243.63 123.25C239.9 109.21 237.96 103.49 240.22 102.14C249.38 96.64 261.31 100.51 265.43 110.37C266.9 113.87 268.23 117.41 269.41 120.98C271.18 126.28 272.66 131.65 273.83 137.1C274.16 138.61 274.46 140.14 274.74 141.66C275.86 147.74 276.61 153.91 276.98 160.16L277 160.15Z" fill="#FED93B"/>
<g opacity="0.5">
<path d="M273.84 137.09C271.28 140.06 264.27 145.67 248.71 143.84C248.48 142.8 248.23 141.74 247.98 140.65C246.38 133.78 244.91 128.03 243.63 123.25C250.87 118.59 261.81 116.27 269.42 120.97C271.19 126.27 272.67 131.64 273.84 137.09Z" fill="white"/>
</g>
<g opacity="0.5">
<path d="M266.61 113.26C261.18 107.2 251.93 105.5 244.5 109.96C243.85 110.35 242.49 111.27 240.82 112.74C239.12 106.17 238.65 103.09 240.22 102.14C249.38 96.64 261.31 100.51 265.43 110.37C265.83 111.33 266.22 112.29 266.6 113.26H266.61Z" fill="white"/>
</g>
<path d="M277 160.15C277.64 170.81 268.63 179.55 257.99 178.64C254.77 178.37 254.33 169.43 249.45 147.16C251.17 145.4 252.88 149.51 256.21 153.75C261.5 160.49 276.59 154.95 274.75 141.65C275.87 147.73 276.62 153.9 276.99 160.15H277Z" fill="#FBBB27"/>
<path d="M260.87 180.54C259.86 180.61 258.85 180.61 257.83 180.52C255.32 180.31 254.23 177.83 253.49 175.43C252.7 172.85 251.95 169.01 250.91 163.69C249.83 158.14 248.35 150.54 246.15 141.08C243.95 131.62 241.93 124.14 240.46 118.68C239.05 113.45 238.03 109.67 237.6 107.01C237.21 104.53 237.1 101.83 239.25 100.53C244.09 97.62 249.96 96.96 255.33 98.72C260.68 100.47 265 104.46 267.17 109.64C273.89 125.7 277.82 142.66 278.87 160.03C279.21 165.64 277.09 171.12 273.06 175.05C269.74 178.28 265.42 180.2 260.87 180.53V180.54ZM258.2 176.78C262.73 177.15 267.18 175.54 270.44 172.37C273.69 169.2 275.4 164.79 275.13 160.27C274.11 143.31 270.27 126.77 263.71 111.1C261.96 106.92 258.48 103.71 254.17 102.3C249.85 100.88 245.14 101.41 241.24 103.73C240.63 104.9 242.24 110.84 244.09 117.7C245.57 123.19 247.6 130.7 249.82 140.23C252.03 149.76 253.52 157.4 254.61 162.98C255.97 169.96 257.15 176 258.2 176.78Z" fill="#010101"/>
<path d="M251.45 139.85C251.45 139.85 256.91 171.69 256.47 179.88C256.24 184.21 247.34 187.11 243.48 183.89C239.11 180.24 236.27 162.77 232 144.37C227.73 125.97 222.57 109.03 224.89 103.83C226.94 99.23 236.2 97.92 238.32 101.7C242.32 108.86 251.45 139.85 251.45 139.85Z" fill="#D8E6EA"/>
<path d="M256.48 179.88C256.24 184.2 247.35 187.11 243.48 183.89C239.11 180.24 236.28 162.76 232 144.37C228.66 130.01 224.79 116.55 224.36 108.85C224.24 106.68 224.38 104.97 224.89 103.83C226.94 99.23 236.21 97.92 238.32 101.7C239.07 103.05 240.01 105.24 241.03 107.91C245.43 119.43 251.45 139.84 251.45 139.84C251.45 139.84 256.91 171.68 256.47 179.87L256.48 179.88Z" fill="#D8E6EA"/>
<path d="M256.48 179.88C256.24 184.2 247.35 187.11 243.48 183.89C240.29 181.23 237.92 171.21 235.22 158.84C234.21 154.25 233.16 149.34 232.01 144.36C228.67 130 224.8 116.54 224.37 108.84C224.25 106.67 224.39 104.96 224.9 103.82C226.95 99.22 236.22 97.91 238.33 101.69C239.08 103.04 240.02 105.23 241.04 107.9C245.44 119.42 251.46 139.83 251.46 139.83C251.46 139.83 252.57 146.32 253.75 154.19C255.19 163.76 256.72 175.37 256.48 179.86V179.88Z" fill="#D8E6EA"/>
<g opacity="0.5">
<path d="M235.42 110.99C236.41 110.94 240.81 124.89 243.02 134.75C245.59 146.22 247.81 159.52 246.73 159.88C245.49 160.29 234.43 111.05 235.43 111L235.42 110.99Z" fill="white"/>
</g>
<path d="M256.48 179.88C256.24 184.2 247.35 187.11 243.48 183.89C240.29 181.23 237.92 171.21 235.22 158.84C237.08 161.83 240.04 164.38 244.59 163.48C251.02 162.22 253.12 157.73 253.75 154.2C255.19 163.77 256.72 175.38 256.48 179.87V179.88Z" fill="#B0C3D1"/>
<path d="M241.04 107.92C235.77 105.96 228.57 107.57 224.36 108.86C224.24 106.69 224.38 104.98 224.89 103.84C226.94 99.24 236.21 97.93 238.32 101.71C239.07 103.06 240.01 105.25 241.03 107.92H241.04Z" fill="#B0C3D1"/>
<path d="M248.76 187.12C246.43 187.29 244.05 186.82 242.28 185.34C238.53 182.21 236.32 172.76 232.74 156.33C231.93 152.6 231.09 148.74 230.18 144.82C229.27 140.9 228.32 137.07 227.41 133.36C223.38 117.03 221.2 107.58 223.19 103.12C224.76 99.59 229.11 97.84 232.72 97.68C236.07 97.53 238.78 98.71 239.98 100.84C244.04 108.09 252.89 138.08 253.27 139.35L253.32 139.56C253.54 140.87 258.81 171.69 258.36 179.99C258.23 182.43 256.31 184.68 253.24 186.02C251.9 186.6 250.35 187.01 248.77 187.12H248.76ZM232.64 101.44C229.92 101.63 227.36 102.98 226.62 104.64C225.06 108.14 227.97 119.95 231.06 132.45C231.98 136.17 232.93 140.02 233.84 143.96C234.76 147.9 235.6 151.77 236.41 155.52C239.15 168.1 241.74 179.99 244.68 182.44C246.11 183.64 249.14 183.69 251.72 182.56C253.41 181.82 254.54 180.73 254.59 179.77C255 172.12 249.97 142.33 249.62 140.29C249.03 138.3 240.43 109.34 236.69 102.66C236.22 101.82 234.73 101.34 232.88 101.42C232.8 101.42 232.71 101.42 232.63 101.43L232.64 101.44Z" fill="#010101"/>
<path d="M229.86 107.57C233.13 106.17 236.89 104.6 240.38 106.45C241.61 107.09 242.63 108.07 243.45 109.13L240.21 111.03C239.53 109.25 238.31 107.94 236.37 107.49C234.31 106.98 231.99 107.33 229.85 107.57H229.86Z" fill="#010101"/>
<path d="M234.19 109.48C239.01 107.63 242.4 109.59 245.1 113.69L241.69 115.28C241.23 113.65 240.6 112.02 239.33 110.89C237.98 109.66 236 109.47 234.19 109.48Z" fill="#010101"/>
<path d="M234.56 127.01C238.02 125.83 241.81 123.74 245.44 125.86C246.72 126.6 247.68 127.73 248.43 128.9L245.02 130.49C244.74 129.6 244.37 128.77 243.78 128.14C241.45 125.8 237.57 126.93 234.57 127.02L234.56 127.01Z" fill="#010101"/>
<path d="M243.13 170.24C245.89 169.27 249.37 168.26 251.03 165.76C251.44 165.05 251.51 164.38 251.37 163.68L255.13 163.75C254.4 169.51 247.74 170.15 243.13 170.24Z" fill="#010101"/>
<path d="M253.14 139.46C256.44 153.66 260.91 176.98 259.66 178.96C258.76 180.38 257.24 180.2 256.47 179.88C254.51 179.07 254.26 167.7 247.98 140.65C241.7 113.6 236.91 103.29 238.31 101.7C238.86 101.07 240.15 100.24 241.58 101.12C243.57 102.35 249.83 125.25 253.13 139.46H253.14Z" fill="#82C341"/>
<path d="M259.66 178.96C258.77 180.38 257.24 180.2 256.47 179.88C254.86 179.22 254.41 171.52 250.88 154.01C250.08 150.07 249.13 145.62 247.98 140.66C241.7 113.61 236.91 103.29 238.32 101.71C238.88 101.08 240.16 100.25 241.59 101.13C243.59 102.36 249.84 125.27 253.14 139.47C254.08 143.53 255.12 148.34 256.1 153.18C258.53 165.26 260.56 177.56 259.66 178.97V178.96Z" fill="#FED93B"/>
<path d="M259.66 178.96C258.77 180.38 257.24 180.2 256.47 179.88C254.86 179.22 254.41 171.52 250.88 154.01C252.56 154.65 254.57 154.99 256.09 153.17C258.52 165.25 260.55 177.55 259.65 178.96H259.66Z" fill="#FBBB27"/>
<path d="M257.95 181.98C257.19 182.03 256.43 181.9 255.76 181.62C253.79 180.81 253.35 178.27 251.9 169.85C250.82 163.6 249.19 154.15 246.16 141.08C243.13 128.02 240.43 118.82 238.64 112.73C236.23 104.53 235.51 102.06 236.92 100.46C238.18 99.04 240.42 98.19 242.58 99.53C243.37 100.02 244.57 100.76 248.68 114.91C250.78 122.13 253.19 131.38 254.97 139.04C256.75 146.7 258.66 156.06 259.96 163.48C262.5 178 261.75 179.19 261.26 179.98C260.42 181.31 259.19 181.9 257.95 181.99V181.98ZM257.47 178.23C257.68 178.26 257.85 178.21 257.98 178.09C258.42 175.17 255.18 156.55 251.31 139.89C247.44 123.23 242.15 105.08 240.47 102.66C240.3 102.6 240.12 102.63 239.95 102.75C239.97 103.94 241.03 107.54 242.24 111.67C244.04 117.8 246.76 127.06 249.82 140.23C252.88 153.4 254.52 162.91 255.6 169.21C256.33 173.45 256.97 177.15 257.47 178.23Z" fill="#010101"/>
<path d="M109.16 146.25C109.337 146.25 109.48 146.031 109.48 145.76C109.48 145.489 109.337 145.27 109.16 145.27C108.983 145.27 108.84 145.489 108.84 145.76C108.84 146.031 108.983 146.25 109.16 146.25Z" fill="#233E97"/>
<g style="mix-blend-mode:screen" opacity="0.6">
<path d="M121.92 104.24C121.92 105.36 119.66 106.27 116.88 106.27C114.1 106.27 111.84 105.36 111.84 104.24C111.84 103.12 114.1 102.21 116.88 102.21C119.66 102.21 121.92 103.12 121.92 104.24Z" fill="white"/>
</g>
<g style="mix-blend-mode:screen" opacity="0.6">
<path d="M190.4 110.41C190.4 111.53 188.14 112.44 185.36 112.44C182.58 112.44 180.32 111.53 180.32 110.41C180.32 109.29 182.58 108.38 185.36 108.38C188.14 108.38 190.4 109.29 190.4 110.41Z" fill="white"/>
</g>
<path d="M140.23 144.92C140.23 144.92 137.78 146.24 141.55 148.22C145.32 150.2 147.21 151.52 147.21 156.81C147.21 162.1 143.89 167.51 136.12 168.17C128.35 168.83 121.41 166.35 119.09 163.38C120.74 170.82 131.56 178.9 144.28 171.83C150.46 168.47 152.05 169.89 157.17 172.54C162.29 175.19 175.36 176.07 179.95 167.24C172.53 169.01 154.52 170.6 152.22 159.82C151.16 152.76 152.4 150.11 156.64 148.87C160.88 147.63 161.41 144.1 155.76 143.39C150.11 142.68 140.23 144.91 140.23 144.91V144.92Z" fill="#010101"/>
<path d="M148.62 141.93C148.62 141.93 140.18 142.06 139.52 144.96C139.12 147.73 145.46 146.02 147.3 151.29C148.75 155.91 150.6 154.19 151.26 151.69C151.92 149.18 152.84 148 156.01 147.34C159.18 146.68 163.93 141.8 148.62 141.93Z" fill="#F79421"/>
<g style="mix-blend-mode:multiply">
<path d="M157.58 145.88C156.28 146.28 154.19 145.98 152.95 146.52C151.88 146.99 150.82 148.74 149.67 148.97C148.57 149.19 148.43 148.05 147.56 147.45C147.03 147.08 146.5 146.69 145.89 146.48C145.17 146.23 144.4 146.2 143.64 146.18C142.42 146.15 141.03 146.16 139.93 145.54C139.76 145.44 139.63 145.33 139.52 145.22C139.57 147.61 145.52 146.2 147.3 151.29C148.75 155.91 150.6 154.19 151.26 151.69C151.92 149.18 152.84 148 156.01 147.34C157.22 147.09 158.65 146.22 159.12 145.25C158.64 145.52 158.1 145.71 157.59 145.87L157.58 145.88Z" fill="#F79421"/>
</g>
<g style="mix-blend-mode:screen">
<path d="M142.1 143.58C142.1 143.58 145.04 143.58 147.43 144.56C149.82 145.54 150.69 144.56 153.08 143.8C155.47 143.04 157.97 144.02 157.97 144.02C157.97 144.02 154.93 145.11 152.53 146.09C150.14 147.07 150.03 150.33 148.07 147.61C146.11 144.89 139.05 143.91 142.09 143.59L142.1 143.58Z" fill="#F5877B"/>
</g>
<g style="mix-blend-mode:multiply">
<path d="M163.38 159.08C163.36 159.43 163.06 159.7 162.71 159.68C162.36 159.66 162.09 159.36 162.11 159.01C162.13 158.66 162.43 158.39 162.78 158.41C163.13 158.43 163.4 158.73 163.38 159.08Z" fill="#010101"/>
</g>
<g style="mix-blend-mode:multiply">
<path d="M166.2 156.88C166.18 157.23 165.88 157.5 165.53 157.48C165.18 157.46 164.91 157.16 164.93 156.81C164.95 156.46 165.25 156.19 165.6 156.21C165.95 156.23 166.22 156.53 166.2 156.88Z" fill="#010101"/>
</g>
<g style="mix-blend-mode:multiply">
<path d="M164.24 153.79C164.22 154.14 163.92 154.41 163.57 154.39C163.22 154.37 162.95 154.07 162.97 153.72C162.99 153.37 163.29 153.1 163.64 153.12C163.99 153.14 164.26 153.44 164.24 153.79Z" fill="#010101"/>
</g>
<path d="M162.82 158.98C164.81 159.2 166.78 159.5 168.72 159.86C170.67 160.21 172.6 160.62 174.51 161.09C178.33 162.05 182.09 163.17 185.69 164.7C189.32 166.16 192.8 167.99 196.03 170.28C199.26 172.56 202.21 175.39 204.61 178.95C203.52 177.05 202.24 175.37 200.86 173.82C199.47 172.29 197.93 170.97 196.34 169.74C193.14 167.32 189.63 165.48 186.01 163.95C182.36 162.48 178.58 161.34 174.71 160.5C170.83 159.69 166.88 159.11 162.83 158.98H162.82Z" fill="#010101"/>
<path d="M165.56 156.85C167.66 156.33 169.75 155.92 171.84 155.6C173.93 155.26 176 155 178.07 154.83C182.2 154.5 186.29 154.42 190.28 154.87C194.28 155.25 198.17 156.15 201.85 157.71C205.52 159.27 208.95 161.61 211.83 164.98C210.47 163.16 208.93 161.64 207.3 160.31C205.65 159.01 203.87 158 202.05 157.12C198.38 155.42 194.45 154.52 190.45 154.08C186.43 153.69 182.31 153.76 178.15 154.22C173.99 154.71 169.79 155.51 165.57 156.85H165.56Z" fill="#010101"/>
<path d="M163.36 153.96C165.59 153.22 167.83 152.52 170.06 151.88C172.29 151.22 174.53 150.61 176.77 150.05C181.24 148.92 185.71 147.94 190.17 147.27C192.4 146.92 194.63 146.64 196.85 146.45C199.07 146.27 201.28 146.22 203.47 146.24C205.67 146.28 207.84 146.49 209.97 146.9C212.1 147.29 214.19 147.92 216.16 148.93C212.32 146.63 207.94 145.89 203.56 145.63C199.16 145.42 194.68 145.82 190.21 146.47C185.73 147.21 181.24 148.18 176.76 149.44C172.28 150.7 167.81 152.16 163.36 153.96Z" fill="#010101"/>
<g style="mix-blend-mode:multiply">
<path d="M135.62 157.18C135.6 157.53 135.86 157.84 136.21 157.86C136.56 157.88 136.87 157.62 136.89 157.27C136.91 156.92 136.65 156.61 136.3 156.59C135.95 156.57 135.64 156.83 135.62 157.18Z" fill="#010101"/>
</g>
<g style="mix-blend-mode:multiply">
<path d="M133.09 154.65C133.07 155 133.33 155.31 133.68 155.33C134.03 155.36 134.34 155.09 134.36 154.74C134.38 154.39 134.12 154.08 133.77 154.06C133.42 154.04 133.11 154.3 133.09 154.65Z" fill="#010101"/>
</g>
<g style="mix-blend-mode:multiply">
<path d="M135.42 151.82C135.4 152.17 135.66 152.48 136.01 152.5C136.36 152.52 136.67 152.26 136.69 151.91C136.71 151.56 136.45 151.25 136.1 151.23C135.75 151.21 135.44 151.47 135.42 151.82Z" fill="#010101"/>
</g>
<path d="M136.19 157.15C134.19 157.13 132.2 157.18 130.23 157.3C128.25 157.4 126.28 157.58 124.33 157.81C120.43 158.29 116.55 158.95 112.79 160.02C109.01 161.02 105.34 162.41 101.85 164.29C98.36 166.16 95.09 168.61 92.28 171.84C93.59 170.09 95.08 168.57 96.64 167.21C98.21 165.86 99.9 164.74 101.62 163.71C105.09 161.7 108.8 160.3 112.58 159.23C116.38 158.22 120.27 157.55 124.22 157.19C128.17 156.86 132.16 156.77 136.2 157.14L136.19 157.15Z" fill="#010101"/>
<path d="M133.73 154.7C131.71 153.93 129.68 153.26 127.65 152.69C125.62 152.09 123.59 151.58 121.57 151.16C117.52 150.33 113.46 149.74 109.45 149.71C105.43 149.6 101.46 150.01 97.62 151.11C93.78 152.21 90.1 154.12 86.82 157.1C88.39 155.46 90.11 154.14 91.89 153.02C93.69 151.93 95.57 151.15 97.49 150.5C101.34 149.26 105.35 148.85 109.38 148.9C113.42 149 117.5 149.58 121.57 150.55C125.64 151.55 129.71 152.85 133.73 154.7Z" fill="#010101"/>
<path d="M136.27 152.1C134.14 151.09 132.01 150.12 129.87 149.21C127.73 148.28 125.59 147.4 123.44 146.57C119.14 144.9 114.82 143.38 110.48 142.17C108.31 141.55 106.13 141 103.95 140.54C101.77 140.09 99.59 139.77 97.4 139.52C95.22 139.29 93.03 139.23 90.87 139.38C88.7 139.51 86.56 139.88 84.48 140.63C88.57 138.81 93.01 138.62 97.39 138.9C101.79 139.23 106.18 140.18 110.54 141.37C114.9 142.65 119.23 144.16 123.52 145.97C127.81 147.77 132.07 149.76 136.26 152.09L136.27 152.1Z" fill="#010101"/>
<path d="M93.46 115.4C94.15 112.07 96.12 109.06 98.59 106.67C99.83 105.46 101.23 104.43 102.71 103.54C104.2 102.67 105.77 101.94 107.4 101.36C109.03 100.8 110.67 100.34 112.39 100.05C114.14 99.75 115.94 99.82 117.65 100.28C121.08 101.18 123.94 103.57 125.58 106.51C123.44 103.92 120.55 102.01 117.39 101.4C115.82 101.11 114.19 101.11 112.64 101.44C111.05 101.79 109.44 102.22 107.91 102.79C106.37 103.34 104.86 104 103.44 104.8C102 105.57 100.66 106.52 99.4 107.56C96.92 109.67 94.77 112.28 93.46 115.39V115.4Z" fill="#010101"/>
<path d="M131.46 128.84C131.46 128.84 129.41 129 125.15 133.1C120.89 137.2 110.49 141.14 99.14 129.95C95.83 126.8 92.2 127.27 92.2 127.27C92.2 127.27 95.83 111.35 112.22 107.88C123.57 105.99 131.14 117.02 131.45 128.85L131.46 128.84Z" fill="white"/>
<path d="M114.46 137.68C109.91 137.68 104.53 135.78 98.88 130.21C95.75 127.23 92.29 127.63 92.26 127.64C92.14 127.66 92.01 127.61 91.93 127.52C91.85 127.43 91.81 127.3 91.84 127.18C91.88 127.02 95.71 110.98 112.15 107.5C116.49 106.78 120.57 107.87 123.96 110.66C128.7 114.57 131.65 121.36 131.85 128.83C131.85 129.03 131.7 129.2 131.5 129.22C131.46 129.22 129.45 129.49 125.43 133.37C123.17 135.54 119.29 137.68 114.47 137.68H114.46ZM92.77 126.85C93.98 126.85 96.78 127.15 99.42 129.66C110.64 140.72 120.72 136.85 124.9 132.81C128.25 129.58 130.3 128.74 131.08 128.52C130.81 121.49 127.92 114.89 123.48 111.23C120.27 108.59 116.41 107.55 112.3 108.23C97.96 111.26 93.5 124.14 92.72 126.83C92.74 126.83 92.75 126.83 92.77 126.83V126.85Z" fill="#010101"/>
<path d="M128.154 126.052C129.959 118.403 125.222 110.739 117.573 108.933C109.925 107.128 102.26 111.865 100.455 119.514C98.6499 127.163 103.387 134.827 111.036 136.632C118.685 138.438 126.349 133.7 128.154 126.052Z" fill="#7C4C4C"/>
<path d="M114.31 135.15C121.191 135.15 126.77 129.571 126.77 122.69C126.77 115.809 121.191 110.23 114.31 110.23C107.429 110.23 101.85 115.809 101.85 122.69C101.85 129.571 107.429 135.15 114.31 135.15Z" fill="#2D1014"/>
<path d="M121.361 129.742C125.259 125.845 125.259 119.526 121.361 115.629C117.464 111.731 111.145 111.731 107.247 115.629C103.35 119.526 103.35 125.845 107.247 129.742C111.145 133.64 117.464 133.64 121.361 129.742Z" fill="#010101"/>
<path d="M124.18 119.7C124.18 119.7 125.82 130.26 114.56 131.67C122.07 134.49 127.47 125.33 124.18 119.7Z" fill="#7C4C4C"/>
<path d="M108.64 121.43C111.169 121.43 113.22 119.379 113.22 116.85C113.22 114.32 111.169 112.27 108.64 112.27C106.111 112.27 104.06 114.32 104.06 116.85C104.06 119.379 106.111 121.43 108.64 121.43Z" fill="#F9F3E2"/>
<path d="M126.72 130.17C126.72 131.4 125.72 132.39 124.5 132.39C123.28 132.39 122.28 131.39 122.28 130.17C122.28 128.95 123.28 127.95 124.5 127.95C125.72 127.95 126.72 128.95 126.72 130.17Z" fill="#F9F3E2"/>
<path d="M167.61 131.12C167.61 131.12 170.59 132.76 175.8 136.63C181.01 140.5 192.17 142.44 198.57 133.95C202.44 129.34 205.27 128.14 206.91 128.14C206.17 121.59 197.38 110.13 184.58 111.17C171.78 112.21 168.21 125.01 167.61 131.12Z" fill="white"/>
<path d="M186.29 140.28C182.22 140.28 178.28 138.91 175.59 136.91C170.46 133.1 167.47 131.45 167.44 131.43C167.31 131.36 167.24 131.22 167.25 131.08C168.11 122.31 173.15 111.74 184.55 110.81C197.86 109.73 206.53 121.66 207.27 128.1C207.28 128.2 207.25 128.3 207.18 128.38C207.11 128.46 207.01 128.5 206.91 128.5C205.68 128.5 202.99 129.24 198.85 134.18C195.52 138.59 190.82 140.29 186.29 140.29V140.28ZM167.99 130.92C168.76 131.36 171.61 133.07 176.01 136.33C181.47 140.38 192.24 141.73 198.28 133.72C202.23 129.01 205 127.95 206.49 127.79C205.5 121.51 197.19 110.49 184.6 111.52C179.13 111.97 174.83 114.63 171.81 119.43C169.02 123.88 168.21 128.78 167.98 130.91L167.99 130.92Z" fill="#010101"/>
<path d="M172.56 112.51C173.24 110.95 174.24 109.54 175.42 108.29C176.61 107.04 178.07 106 179.72 105.35C181.37 104.67 183.23 104.53 184.96 104.7C186.71 104.88 188.4 105.29 190.04 105.86C193.28 107.05 196.35 108.73 198.94 111.01C200.27 112.11 201.42 113.41 202.44 114.78C203.45 116.17 204.22 117.72 204.74 119.33C203.16 116.33 200.87 113.86 198.23 111.88C197.59 111.36 196.88 110.93 196.21 110.46C195.5 110.04 194.81 109.59 194.07 109.22C192.63 108.41 191.1 107.78 189.56 107.22C188.02 106.66 186.42 106.27 184.82 106.06C183.22 105.83 181.62 105.93 180.1 106.41C178.59 106.91 177.15 107.73 175.9 108.81C174.64 109.87 173.51 111.12 172.55 112.52L172.56 112.51Z" fill="#010101"/>
<path d="M186.44 112.49C197.22 112.62 203.89 122.2 206.85 127.71C205.78 121.1 197.11 110.16 184.59 111.17C171.79 112.21 168.22 125.01 167.62 131.12C167.62 131.12 171.3 112.31 186.45 112.49H186.44Z" fill="#301115"/>
<path d="M186.13 139.36C193.79 139.36 200 133.15 200 125.49C200 117.83 193.79 111.62 186.13 111.62C178.47 111.62 172.26 117.83 172.26 125.49C172.26 133.15 178.47 139.36 186.13 139.36Z" fill="#7C4C4C"/>
<path d="M186.13 137.7C192.923 137.7 198.43 132.193 198.43 125.4C198.43 118.607 192.923 113.1 186.13 113.1C179.337 113.1 173.83 118.607 173.83 125.4C173.83 132.193 179.337 137.7 186.13 137.7Z" fill="#2D1014"/>
<path d="M195.524 127.612C196.75 122.42 193.534 117.217 188.342 115.991C183.149 114.766 177.946 117.982 176.721 123.174C175.495 128.366 178.711 133.569 183.904 134.795C189.096 136.02 194.299 132.804 195.524 127.612Z" fill="#010101"/>
<path d="M194.93 124.49C194.93 124.49 196.45 134.26 186.03 135.56C192.98 138.17 197.97 129.7 194.93 124.49Z" fill="#7C4C4C"/>
<path d="M178.54 124.01C180.882 124.01 182.78 122.112 182.78 119.77C182.78 117.428 180.882 115.53 178.54 115.53C176.198 115.53 174.3 117.428 174.3 119.77C174.3 122.112 176.198 124.01 178.54 124.01Z" fill="#F9F3E2"/>
<path d="M196.68 133.35C196.68 134.49 195.76 135.41 194.62 135.41C193.48 135.41 192.56 134.49 192.56 133.35C192.56 132.21 193.48 131.29 194.62 131.29C195.76 131.29 196.68 132.21 196.68 133.35Z" fill="#F9F3E2"/>
<path opacity="0.33" d="M178.98 169.55C170.88 172.86 150.69 175.52 150.34 155.45C150.34 155.45 150.4 152.23 149.23 151.86C149.23 151.86 152.04 168.56 137.99 171.2C128.73 172.69 121.79 167.07 119.81 164.59C122.14 170.41 130.04 174.72 138.36 173.22L137.11 173.76C138.15 176.77 139.55 178.93 140.56 180.27C141.68 181.76 142.84 183.27 144.92 184.54C147.02 185.83 149.05 186.25 150.28 186.4C151.62 186.36 154.28 186.08 156.96 184.36C159.03 183.03 160.17 181.44 160.87 180.45C162.64 177.94 163.35 175.43 163.65 173.76C162.16 173.18 160.67 172.6 159.18 172.02C165.04 173.61 174.03 173.7 179 169.54L178.98 169.55ZM150.12 168.52C151.57 168.46 152.87 169.21 155.43 170.58C153.66 169.89 151.89 169.2 150.12 168.52Z" fill="#010101"/>
<path d="M378.02 107.42C367.65 104.77 359.8 111.52 352.03 125.93C351.4 127.1 351.53 128.53 352.38 129.55L387.25 172C389 174.13 387.48 177.33 384.73 177.33H368.67C367.37 177.33 366.2 176.56 365.68 175.37L349.69 138.48C348.64 136.06 345.3 135.83 343.92 138.08C337.58 148.41 334.03 160.45 334.03 172.5V174.53C334.03 176.33 332.57 177.79 330.77 177.79H315.82C314.02 177.79 312.56 176.33 312.56 174.53V87.02C312.56 85.22 314.02 83.76 315.82 83.76H330.77C332.57 83.76 334.03 85.22 334.03 87.02V119.2C334.03 122.59 338.56 123.73 340.16 120.74C349.87 102.64 359.62 86.25 378.02 84.02C379.95 83.78 382.81 86.5 382.81 88.45V107.18" fill="#010101"/>
<path d="M396.75 174.7V124.43C396.75 122.79 397.7 121.47 398.88 121.47H408.66C409.84 121.47 410.79 122.8 410.79 124.43V174.7C410.79 176.34 409.84 177.66 408.66 177.66H398.88C397.7 177.66 396.75 176.33 396.75 174.7Z" fill="#010101"/>
<path d="M499.13 174.7V124.43C499.13 122.79 500.08 121.47 501.26 121.47H511.04C512.22 121.47 513.17 122.8 513.17 124.43V174.7C513.17 176.34 512.22 177.66 511.04 177.66H501.26C500.08 177.66 499.13 176.33 499.13 174.7Z" fill="#010101"/>
<path d="M403.48 117.4C407.528 117.4 410.81 114.118 410.81 110.07C410.81 106.022 407.528 102.74 403.48 102.74C399.432 102.74 396.15 106.022 396.15 110.07C396.15 114.118 399.432 117.4 403.48 117.4Z" fill="#233E97"/>
<path d="M505.72 117.4C509.768 117.4 513.05 114.118 513.05 110.07C513.05 106.022 509.768 102.74 505.72 102.74C501.672 102.74 498.39 106.022 498.39 110.07C498.39 114.118 501.672 117.4 505.72 117.4Z" fill="#233E97"/>
<path d="M455.04 87.38C433.49 87.38 415.77 104.85 415.77 126.65V127.41C415.77 148.83 432.73 165.91 453.89 166.68C457.59 174.46 465.75 182.23 480.92 182.23V164.38C477.99 166.29 470.98 167.06 464.98 165.14C481.68 160.68 493.92 145.51 493.92 127.4V126.64C494.3 104.84 476.45 87.37 455.04 87.37V87.38ZM476.08 127.41C476.08 138.88 466.9 148.57 455.04 148.57C443.18 148.57 433.88 139.26 433.88 127.41V126.65C433.88 115.18 443.19 105.61 455.04 105.61C466.89 105.61 476.08 114.79 476.08 126.65V127.41Z" fill="#231F20"/>
</svg>
