<svg width="541" height="255" viewBox="0 0 541 255" fill="none" xmlns="http://www.w3.org/2000/svg">
<path d="M246.46 152.61C247.14 148.61 247.56 144.53 247.71 140.46C249.67 88.89 209.32 45.34 157.75 43.37C106.18 41.41 62.63 81.76 60.66 133.33C60.5 137.41 60.61 141.51 60.98 145.55L51.95 145.21C51.62 141.17 51.54 137.07 51.69 133C53.84 76.49 101.57 32.26 158.08 34.41C214.59 36.56 258.81 84.29 256.66 140.8C256.5 144.87 256.11 148.96 255.48 152.96L246.45 152.62L246.46 152.61Z" fill="#D8E6EA"/>
<path d="M256.67 140.8C256.51 144.87 256.12 148.95 255.48 152.96L246.45 152.62C247.13 148.62 247.55 144.54 247.7 140.47C249.66 88.9 209.31 45.34 157.74 43.38C106.17 41.42 62.61 81.77 60.65 133.35C60.49 137.42 60.61 141.52 60.98 145.56L51.95 145.22C51.62 141.18 51.54 137.08 51.7 133.01C53.85 76.49 101.58 32.27 158.09 34.42C214.6 36.57 258.82 84.3 256.67 140.82V140.8Z" fill="#D8E6EA"/>
<path d="M252.24 140.63C252.14 143.21 251.94 145.8 251.64 148.37H251.55C251.85 145.79 252.05 143.21 252.15 140.63L247.72 140.46C249.68 88.89 209.33 45.33 157.76 43.37C106.19 41.41 62.63 81.76 60.67 133.34L56.24 133.17C56.14 135.75 56.15 138.34 56.25 140.93H56.15C56.05 138.34 56.05 135.74 56.15 133.16C58.21 79.09 103.87 36.78 157.94 38.83C212 40.89 254.32 86.55 252.26 140.62L252.24 140.63Z" fill="#A2BECE"/>
<path d="M257.13 154.96L244.17 154.47L244.54 152.29C245.2 148.38 245.62 144.37 245.77 140.39C246.7 115.97 238.04 92.62 221.38 74.64C204.72 56.66 182.1 46.25 157.67 45.32C133.25 44.39 109.9 53.05 91.92 69.71C73.94 86.37 63.53 108.99 62.6 133.42C62.45 137.4 62.56 141.43 62.92 145.38L63.12 147.58L50.15 147.09L50.01 145.37C49.68 141.26 49.59 137.08 49.75 132.93C50.81 105.08 62.68 79.28 83.18 60.29C103.68 41.3 130.31 31.42 158.16 32.48C186.01 33.54 211.81 45.41 230.8 65.91C249.79 86.41 259.67 113.04 258.61 140.89C258.45 145.04 258.05 149.21 257.4 153.28L257.13 154.98V154.96ZM248.72 150.75L253.82 150.94C254.29 147.57 254.6 144.13 254.73 140.72C255.75 113.91 246.24 88.27 227.95 68.53C209.66 48.79 184.82 37.36 158.01 36.34C131.2 35.32 105.56 44.83 85.82 63.12C66.08 81.41 54.65 106.25 53.63 133.06C53.5 136.48 53.54 139.92 53.76 143.32L58.87 143.51C58.64 140.1 58.58 136.66 58.71 133.25C59.68 107.79 70.53 84.2 89.27 66.84C108.01 49.48 132.35 40.45 157.81 41.42C183.27 42.39 206.86 53.24 224.22 71.98C241.58 90.72 250.61 115.06 249.64 140.52C249.51 143.94 249.2 147.36 248.7 150.74L248.72 150.75Z" fill="#010101"/>
<path d="M232.4 77.7C248.13 97.77 255.46 124.04 252.51 149.37C251.98 149.35 250.99 149.31 250.46 149.29C250.81 146.4 251.07 143.49 251.18 140.58C251.26 139.3 253.14 139.38 253.12 140.65C253.02 143.26 252.82 145.87 252.51 148.47L251.58 147.39H251.67L250.67 148.25C253.98 123.52 247.27 97.74 232.4 77.7Z" fill="#512819"/>
<path d="M57.19 133.2C57.08 136.11 57.11 139.03 57.24 141.94L56.19 141.9H56.09L55.18 141.86L55.16 140.97C54.64 122.1 59.58 103.06 69.47 86.97C72.73 81.62 76.5 76.58 80.69 71.94C76.62 76.69 72.99 81.81 69.88 87.22C60.52 103.38 56.11 122.27 57.1 140.89C57.1 140.89 56.16 139.96 56.17 139.96H56.27L55.26 140.97C55.15 138.36 55.15 135.74 55.26 133.13C55.28 132.59 55.73 132.18 56.27 132.2C56.81 132.22 57.22 132.67 57.2 133.21L57.19 133.2Z" fill="#010101"/>
<path d="M158.29 29.06C137.69 28.28 116.86 33.69 96.9699 45.34C93.5799 47.32 91.7699 51.33 92.6599 54.9C93.0899 56.62 99.2199 64.05 106.62 62.83C115.11 61.43 119.74 56.56 121.81 53.2C131.71 53.58 138.36 50.98 144.61 47.14C148.21 48.73 152.77 49.77 157.5 49.95C162.23 50.13 166.85 49.44 170.57 48.13C176.51 52.44 182.94 55.53 192.85 55.91C194.66 59.42 198.9 64.63 207.26 66.67C214.55 68.45 221.23 61.51 221.79 59.83C222.95 56.34 221.44 52.21 218.22 49.97C199.27 36.84 178.91 29.86 158.31 29.08L158.29 29.06Z" fill="#618096"/>
<path d="M221.77 59.81C221.21 61.49 214.54 68.43 207.24 66.65C198.88 64.61 194.64 59.4 192.83 55.89C182.92 55.51 176.49 52.42 170.55 48.11C166.84 49.43 162.21 50.11 157.49 49.93C152.76 49.75 148.2 48.71 144.6 47.12C138.35 50.96 131.7 53.56 121.8 53.18C119.73 56.54 115.1 61.42 106.61 62.81C99.21 64.03 93.08 56.6 92.65 54.88C92.43 53.99 92.37 53.08 92.47 52.17C92.76 49.44 94.42 46.82 96.96 45.33C116.85 33.68 137.69 28.27 158.28 29.05C178.88 29.83 199.24 36.82 218.19 49.95C220.62 51.63 222.07 54.37 222.15 57.12C222.17 58.04 222.05 58.94 221.76 59.81H221.77Z" fill="white"/>
<g opacity="0.5">
<path d="M119.72 38.5801C132.34 34.1101 145.2 32.11 158.15 32.6C171.1 33.09 183.77 36.07 196.02 41.48C202.88 44.51 177.22 34.8101 158.1 34.0801C138.98 33.3501 112.65 41.0801 119.72 38.5801Z" fill="white"/>
</g>
<path d="M221.77 59.81C221.21 61.49 214.54 68.43 207.24 66.65C198.88 64.61 194.64 59.4 192.83 55.89C182.92 55.51 176.49 52.42 170.55 48.11C166.84 49.43 162.21 50.11 157.49 49.93C152.76 49.75 148.2 48.71 144.6 47.12C138.35 50.96 131.7 53.56 121.8 53.18C119.73 56.54 115.1 61.42 106.61 62.81C99.21 64.03 93.08 56.6 92.65 54.88C92.43 53.99 92.37 53.08 92.47 52.17C93.84 53.5 96.68 55.23 102.31 55.69C111.46 56.45 113.6 49.89 109.16 46.87C109.16 46.87 124.88 49.83 132.55 46.31C138.27 43.69 137.2 37.7 137.17 37.5C137.43 37.63 145.66 42.02 157.78 42.48C169.9 42.94 178.44 39.2 178.71 39.08C178.66 39.28 177.14 45.17 182.64 48.22C190.02 52.31 205.92 50.55 205.92 50.55C201.27 53.22 202.9 59.92 212.08 59.87C217.73 59.84 220.69 58.34 222.16 57.11C222.18 58.02 222.06 58.93 221.77 59.8V59.81Z" fill="#BCBEC0"/>
<path d="M210.58 68.85C209.35 68.94 208.07 68.85 206.78 68.54C197.91 66.38 193.5 60.87 191.66 57.78C181.61 57.18 175.18 53.74 170.23 50.27C166.39 51.48 161.88 52.05 157.41 51.88H157.39C152.93 51.71 148.49 50.8 144.76 49.3C139.57 52.39 132.89 55.33 122.82 55.16C120.75 58.11 115.93 63.26 106.92 64.74C98.49 66.12 91.45 58.15 90.75 55.36C89.66 50.99 91.86 46.06 95.97 43.66C116.09 31.87 137.08 26.31 158.35 27.12H158.36C179.63 27.93 200.13 35.08 219.3 48.36C223.22 51.07 225.03 56.15 223.61 60.43C222.85 62.73 217.28 68.38 210.57 68.86L210.58 68.85ZM170.42 46.17C170.87 46.14 171.33 46.26 171.7 46.54C176.69 50.16 182.71 53.57 192.91 53.95C193.61 53.98 194.24 54.38 194.56 55C195.72 57.26 199.33 62.72 207.7 64.76C213.82 66.25 219.42 60.26 219.93 59.16C220.8 56.49 219.61 53.29 217.08 51.54C198.54 38.69 178.74 31.78 158.23 30.99C158.21 30.99 158.19 30.99 158.17 30.99C137.66 30.21 117.39 35.6 97.93 47C95.28 48.55 93.85 51.65 94.51 54.38C94.94 55.52 100.07 61.91 106.28 60.89C114.79 59.49 118.8 54.31 120.13 52.15C120.5 51.55 121.16 51.2 121.86 51.23C132.05 51.62 138.32 48.68 143.57 45.45C144.11 45.11 144.79 45.07 145.37 45.33C148.85 46.87 153.17 47.81 157.55 47.98H157.57C161.93 48.14 166.31 47.53 169.89 46.27C170.06 46.21 170.23 46.18 170.4 46.16L170.42 46.17Z" fill="#010101"/>
<path d="M114.62 49.93C117.08 50.71 119.77 51.33 122.28 51.3L121.32 55.07C118.72 53.72 116.62 51.94 114.62 49.93Z" fill="#512819"/>
<path d="M138.99 41.35C141.06 43.05 143.38 44.53 145.79 45.59L143.4 48.66C141.57 46.41 140.13 43.97 138.98 41.36L138.99 41.35Z" fill="#010101"/>
<path d="M176.59 42.78C175.25 45.29 173.63 47.62 171.63 49.73L169.48 46.49C171.96 45.62 174.39 44.32 176.58 42.78H176.59Z" fill="#010101"/>
<path d="M200.25 53.19C198.1 55.04 195.87 56.65 193.17 57.8L192.5 53.97C195 54.19 197.74 53.78 200.25 53.19Z" fill="#010101"/>
<path d="M236.99 140.65C236.99 140.65 254.87 213.74 171.64 222.46C151.32 224.59 130.74 222.19 111.44 215.45C80.49 204.63 66.92 187.76 61.86 171.25C61.13 168.87 60.58 166.5 60.18 164.15C59.58 160.63 59.31 157.17 59.3 153.84C59.28 151.47 59.4 149.16 59.61 146.94C61 131.91 66.67 120.82 66.67 120.82C61.02 75.93 77.02 51.94 84.46 43.44C86.92 40.64 90.4 38.94 94.12 38.83C116 38.19 134.73 68.55 134.73 68.55C145.89 66.83 159.12 68.26 159.12 68.26C159.12 68.26 172.32 69.91 182.79 74.15C182.79 74.15 207.99 48.9 229.14 54.56C232.73 55.52 235.73 57.98 237.48 61.27C242.77 71.25 252.83 98.28 237.01 140.66" fill="white"/>
<path d="M182.88 74.76L182.19 74.99C182.19 74.99 172.24 70.41 158.91 68.86C145.58 67.31 134.84 69.48 134.84 69.48L134.22 69.09C134.22 69.09 123.77 77.51 125.16 93.91C125.27 95.24 126.77 95.73 127.57 94.7C131.01 90.28 138.29 81.48 143.91 78.44C145.75 77.44 147.9 78.61 148.33 80.82C148.63 82.38 148.84 84.63 148.79 87.9C148.66 96.29 147.51 106.52 151.59 111.06C152.85 112.46 154.79 112.68 156.34 111.61C161.35 108.14 162.59 97.91 164.39 89.72C165.09 86.53 165.81 84.38 166.46 82.94C167.38 80.89 169.74 80.25 171.3 81.64C176.06 85.89 181.13 96.14 183.46 101.23C184 102.41 185.57 102.28 185.99 101.01C191.12 85.38 182.88 74.77 182.88 74.77" fill="#231F20"/>
<path d="M115.66 75.97C108.67 80.1 93.53 88.81 80.95 104.23C79.97 105.43 78.04 104.73 78.05 103.19C78.12 92.44 79.57 66.06 91.57 53.67C93 52.2 95.17 51.73 97.08 52.46C101.24 54.04 110.18 57.45 117.16 70.49C118.2 72.44 117.56 74.85 115.66 75.98" fill="#231F20"/>
<path d="M199.38 85.72C205.23 91.35 217.97 103.31 226.66 121.2C227.33 122.59 229.38 122.36 229.73 120.86C232.13 110.39 236.79 84.38 227.96 69.56C226.91 67.8 224.9 66.84 222.87 67.11C218.46 67.69 208.97 68.95 199.18 80.05C197.72 81.7 197.79 84.21 199.38 85.74" fill="#231F20"/>
<path d="M79.7 106.49C79.32 106.49 78.94 106.42 78.57 106.29C77.24 105.81 76.39 104.59 76.4 103.18C76.47 92.22 77.98 65.33 90.39 52.52C92.27 50.57 95.14 49.94 97.68 50.91C101.77 52.47 111.36 56.11 118.63 69.71C120.1 72.45 119.16 75.83 116.51 77.4L115.89 77.77C108.87 81.91 94.27 90.54 82.25 105.28C81.61 106.07 80.68 106.5 79.72 106.5L79.7 106.49ZM95.24 53.76C94.32 53.76 93.42 54.13 92.76 54.81C81.18 66.76 79.77 92.63 79.7 103.19C92.07 87.97 107.01 79.15 114.19 74.91L114.81 74.54C115.94 73.87 116.32 72.43 115.7 71.26C109.02 58.76 100.56 55.54 96.49 53.99C96.08 53.83 95.66 53.76 95.24 53.76Z" fill="#231F20"/>
<path d="M228.11 123.78C226.85 123.78 225.72 123.08 225.16 121.92C216.85 104.81 204.62 93.06 198.74 87.41L198.22 86.91C196 84.77 195.87 81.27 197.92 78.94C208.12 67.38 218.29 66.03 222.63 65.46C225.32 65.1 227.97 66.38 229.36 68.7C238.49 84.02 233.77 110.53 231.32 121.22C231 122.6 229.89 123.59 228.49 123.75C228.36 123.76 228.23 123.77 228.1 123.77L228.11 123.78ZM223.54 68.71C223.39 68.71 223.23 68.71 223.08 68.74C218.77 69.31 209.8 70.5 200.42 81.13C199.54 82.13 199.59 83.62 200.53 84.53L201.05 85.03C207.06 90.81 219.58 102.84 228.15 120.48C230.48 110.19 235.05 84.7 226.53 70.4C225.9 69.34 224.76 68.71 223.55 68.71H223.54Z" fill="#231F20"/>
<path d="M71.46 147.8C71.46 147.8 65.09 150.55 59.1 154.45C59.08 152.08 59.2 149.77 59.41 147.55C62.61 146.96 66.67 146.79 71.46 147.8Z" fill="#233E97"/>
<path d="M75.76 164.03C75.76 164.03 68.09 167.34 61.67 171.86C60.94 169.48 60.39 167.11 59.99 164.76C63.48 163.56 68.87 162.58 75.76 164.03Z" fill="#231F20"/>
<path d="M225.88 165.79C225.88 165.79 231.45 169.93 236.37 175.11C236.93 172.81 237.35 170.53 237.66 168.32C234.68 167.01 230.77 165.92 225.88 165.79Z" fill="#231F20"/>
<path d="M217.96 180.6C217.96 180.6 224.66 185.59 229.87 191.46C231.12 189.31 232.21 187.13 233.14 184.94C230.02 182.97 225 180.78 217.96 180.6Z" fill="#231F20"/>
<g opacity="0.25">
<path d="M172.66 213.38C152.34 215.51 131.76 213.11 112.46 206.37C81.51 195.55 67.94 178.68 62.88 162.17C62.15 159.79 61.6 157.42 61.19 155.07C60.59 151.55 60.32 148.09 60.31 144.76C60.3 143.24 60.35 141.76 60.43 140.29C60 142.57 59.64 145 59.4 147.55C59.19 149.77 59.07 152.08 59.09 154.45C59.1 157.79 59.37 161.25 59.97 164.76C60.38 167.11 60.93 169.48 61.65 171.86C66.72 188.37 80.29 205.24 111.23 216.06C130.52 222.8 151.1 225.2 171.43 223.07C225.49 217.41 236.89 184.59 238.24 162.28C234.16 183.4 219.27 208.49 172.64 213.38" fill="white"/>
</g>
<g opacity="0.6">
<path d="M237.27 61.88C235.52 58.59 232.53 56.13 228.93 55.17C207.78 49.52 182.58 74.76 182.58 74.76C172.11 70.52 158.91 68.87 158.91 68.87C158.91 68.87 145.69 67.44 134.52 69.16C134.52 69.16 115.8 38.8 93.91 39.44C90.19 39.55 86.71 41.26 84.25 44.05C83.91 44.44 83.55 44.86 83.18 45.31C84.93 44.47 86.86 43.98 88.84 43.92C107.55 43.37 124.1 64.07 129.94 72.32C131.35 74.31 133.71 75.39 136.14 75.15C147 74.12 158.2 75.33 158.2 75.33C158.2 75.33 159.15 75.45 160.76 75.71C160.91 78.27 164.72 80.87 169.73 81.7C173.84 82.38 177.56 81.68 179.3 80.1C179.44 80.15 179.57 80.19 179.71 80.24C182.02 81.02 184.57 80.52 186.4 78.91C193.98 72.23 214.84 55.89 232.93 60.72C234.78 61.22 236.48 62.09 237.95 63.24C237.71 62.76 237.48 62.3 237.26 61.88" fill="white"/>
</g>
<path d="M157.16 226C141.32 226 125.44 223.33 110.53 218.12C85.16 209.25 68.56 195.42 61.18 177.02C50.84 151.23 62.13 125.43 64.22 121.04C58.67 75.53 75.22 51.04 82.62 42.6C85.49 39.32 89.59 37.37 93.86 37.24C114.45 36.64 131.74 60.93 135.61 66.78C146.58 65.35 158.63 66.62 159.15 66.68C159.71 66.75 171.73 68.28 182.07 72.2C187.18 67.4 209.62 47.73 229.49 53.05C233.61 54.15 237.15 56.99 239.19 60.85C244.45 70.77 254.92 98.4 239.06 141.41C240.09 146.16 245.14 173.86 229.15 196.59C217.74 212.8 198.41 222.44 171.67 225.24C166.86 225.74 162.01 225.99 157.15 225.99L157.16 226ZM94.61 41.61C94.4 41.61 94.2 41.61 93.99 41.61C90.93 41.7 87.98 43.11 85.91 45.48C78.86 53.52 63.08 76.98 68.64 121.14C68.69 121.57 68.62 122.02 68.42 122.41C68.28 122.68 54.87 149.58 65.26 175.43C72.15 192.59 87.87 205.56 111.98 213.99C130.85 220.59 151.34 222.98 171.23 220.89C196.65 218.23 214.94 209.2 225.59 194.07C241.64 171.26 234.75 142.07 234.68 141.77C234.58 141.34 234.6 140.9 234.76 140.49C250.33 98.79 240.36 72.33 235.35 62.89C233.87 60.11 231.33 58.06 228.37 57.27C208.7 52.01 184.37 76.05 184.13 76.29C183.51 76.91 182.58 77.1 181.77 76.77C171.69 72.69 158.78 71.04 158.65 71.02C158.56 71.02 145.61 69.65 134.86 71.3C133.99 71.43 133.13 71.03 132.67 70.29C132.49 70 114.71 41.6 94.61 41.6V41.61Z" fill="#231F20"/>
<path d="M51.21 160.1L68.86 103.89C68.86 103.89 64.15 100.54 61.79 98.87C54.66 93.81 44.68 96.23 40.71 104.01C34.28 116.6 30.1 129.9 28.18 143.9C26.99 152.56 33.8 160.25 42.54 160.17C45.43 160.14 51.21 160.1 51.21 160.1Z" fill="#D8E6EA"/>
<path d="M28.18 143.9C27 152.56 33.8 160.25 42.54 160.17C45.43 160.15 51.21 160.1 51.21 160.1L57.01 141.63L68.86 103.89C68.86 103.89 64.14 100.55 61.79 98.87C54.66 93.81 44.68 96.23 40.71 104.01C36.11 113.01 32.67 122.38 30.38 132.1C29.46 135.97 28.73 139.91 28.19 143.9H28.18Z" fill="#D8E6EA"/>
<path d="M28.18 143.9C27 152.56 33.8 160.25 42.54 160.17C45.43 160.15 51.21 160.1 51.21 160.1L57.01 141.63C49.47 138.97 38.65 135.26 37.17 135.27C35.29 135.27 31.68 136.31 30.38 132.11C29.46 135.98 28.73 139.92 28.19 143.91L28.18 143.9Z" fill="#B1BFC5"/>
<path d="M52.59 161.96L42.56 162.05C37.84 162.09 33.34 160.08 30.22 156.53C27.11 153 25.69 148.3 26.33 143.65C28.27 129.5 32.55 115.88 39.04 103.16C41.18 98.98 45.02 95.93 49.59 94.81C54.18 93.68 59.02 94.61 62.87 97.34L71.05 103.15L52.58 161.96H52.59ZM52.58 98.12C51.88 98.17 51.18 98.28 50.49 98.45C46.98 99.31 44.02 101.65 42.38 104.86C36.07 117.2 31.92 130.42 30.04 144.15C29.55 147.73 30.64 151.33 33.03 154.05C35.43 156.78 38.89 158.33 42.53 158.3L49.84 158.24L66.68 104.63L60.72 100.4C58.34 98.71 55.46 97.92 52.59 98.12H52.58Z" fill="#010101"/>
<path d="M62.42 132.74C70.71 106.35 75.92 97.11 73.05 95.07C64.37 88.91 52.22 91.85 47.38 101.33C39.55 116.66 34.46 132.86 32.13 149.91C30.68 160.45 38.97 169.82 49.61 169.72C53.13 169.69 54.14 159.13 62.42 132.74Z" fill="#B5D43F" stroke="#231F20" stroke-width="0.85" stroke-miterlimit="10"/>
<path d="M32.13 149.92C30.68 160.46 38.97 169.83 49.61 169.73C52.83 169.7 53.95 160.85 60.48 139.11C61.08 137.1 61.73 134.98 62.43 132.75C70.72 106.36 75.93 97.12 73.06 95.08C64.38 88.92 52.23 91.86 47.39 101.34C42.4 111.11 38.52 121.24 35.76 131.71C34.18 137.66 32.98 143.73 32.13 149.92Z" fill="#B5D43F" stroke="#231F20" stroke-width="0.85" stroke-miterlimit="10"/>
<path d="M32.13 149.92C30.68 160.46 38.97 169.83 49.61 169.73C52.83 169.7 53.95 160.85 60.48 139.11C60.8 138.06 61.12 136.98 61.47 135.86C61.78 134.85 62.1 133.81 62.43 132.75C64.54 126.05 66.44 120.45 68.07 115.79C72.84 102.12 75.2 96.59 73.06 95.07C64.38 88.91 52.23 91.85 47.39 101.33C45.67 104.7 44.08 108.11 42.63 111.57C40.47 116.7 38.59 121.93 37.02 127.24C36.58 128.72 36.16 130.21 35.77 131.7C34.19 137.65 32.99 143.72 32.14 149.91L32.13 149.92Z" fill="white" stroke="#231F20" stroke-width="0.85" stroke-miterlimit="10"/>
<g opacity="0.5">
<path d="M37.01 127.25C39.33 130.4 45.87 136.5 61.46 135.86C61.77 134.85 62.09 133.81 62.42 132.75C64.53 126.05 66.43 120.45 68.06 115.79C61.22 110.62 50.53 107.48 42.61 111.57C40.45 116.7 38.57 121.93 37 127.24L37.01 127.25Z" fill="white" stroke="#231F20" stroke-width="0.85" stroke-miterlimit="10"/>
</g>
<g opacity="0.5">
<path d="M46 104.12C51.85 98.51 61.18 97.52 68.21 102.52C68.82 102.96 70.11 103.97 71.66 105.57C73.85 99.17 74.55 96.15 73.06 95.08C64.38 88.92 52.23 91.86 47.39 101.34C46.92 102.26 46.46 103.19 46.01 104.12H46Z" fill="white" stroke="#231F20" stroke-width="0.85" stroke-miterlimit="10"/>
</g>
<path d="M32.13 149.92C30.68 160.46 38.97 169.83 49.61 169.73C52.83 169.7 53.95 160.85 60.48 139.11C58.91 137.23 56.89 141.18 53.26 145.14C47.49 151.43 32.92 144.79 35.76 131.72C34.18 137.67 32.98 143.74 32.13 149.93V149.92Z" fill="#E6E7E8" stroke="#231F20" stroke-width="0.85" stroke-miterlimit="10"/>
<path d="M49.87 171.59C49.79 171.59 49.71 171.59 49.63 171.59C44 171.64 38.63 169.24 34.91 165.01C31.2 160.8 29.51 155.2 30.27 149.65C32.63 132.47 37.82 115.92 45.71 100.47C48.26 95.48 52.85 91.85 58.3 90.52C63.77 89.18 69.54 90.28 74.14 93.54C76.18 94.99 75.87 97.67 75.29 100.1C74.67 102.71 73.37 106.39 71.57 111.48C69.69 116.79 67.12 124.07 64.22 133.3C61.32 142.53 59.27 149.97 57.78 155.4C56.35 160.6 55.31 164.37 54.33 166.87C53.45 169.12 52.23 171.42 49.88 171.58L49.87 171.59ZM61.81 93.76C60.93 93.82 60.06 93.96 59.19 94.17C54.8 95.25 51.1 98.17 49.05 102.19C41.35 117.26 36.28 133.4 33.98 150.17C33.37 154.64 34.73 159.15 37.72 162.55C40.71 165.95 45.02 167.88 49.54 167.86C50.65 167.17 52.28 161.25 54.16 154.42C55.66 148.96 57.72 141.48 60.64 132.19C63.56 122.89 66.15 115.58 68.04 110.24C70.4 103.56 72.45 97.78 71.93 96.57C68.96 94.48 65.38 93.5 61.81 93.75V93.76Z" fill="#010101"/>
<path d="M59.04 131.68C59.04 131.68 51.2 162.9 51.02 171.07C50.92 175.39 59.54 178.95 63.62 176.04C68.24 172.75 72.38 155.6 78.02 137.65C83.66 119.7 90.06 103.26 88.15 97.92C86.46 93.2 77.36 91.19 74.97 94.79C70.45 101.6 59.03 131.69 59.03 131.69L59.04 131.68Z" fill="#D8E6EA"/>
<path d="M51.02 171.07C50.93 175.38 59.54 178.95 63.63 176.03C68.25 172.74 72.39 155.59 78.03 137.64C82.43 123.63 87.3 110.55 88.32 102.94C88.61 100.79 88.59 99.08 88.17 97.91C86.48 93.18 77.38 91.18 74.99 94.78C74.14 96.06 73.04 98.17 71.82 100.75C66.57 111.86 59.05 131.69 59.05 131.69C59.05 131.69 51.21 162.91 51.03 171.08L51.02 171.07Z" fill="#D8E6EA"/>
<path d="M51.02 171.07C50.93 175.38 59.54 178.95 63.63 176.03C67 173.63 70.11 163.86 73.74 151.78C75.09 147.3 76.5 142.5 78.03 137.64C82.43 123.63 87.3 110.55 88.32 102.94C88.61 100.79 88.59 99.08 88.17 97.91C86.48 93.18 77.38 91.18 74.99 94.78C74.14 96.06 73.04 98.17 71.82 100.75C66.57 111.86 59.05 131.69 59.05 131.69C59.05 131.69 57.46 138.05 55.69 145.78C53.54 155.18 51.13 166.59 51.03 171.08L51.02 171.07Z" fill="#D8E6EA"/>
<g opacity="0.5">
<path d="M77.16 104.23C76.18 104.1 70.75 117.64 67.81 127.25C64.39 138.45 61.18 151.5 62.22 151.93C63.42 152.43 78.14 104.35 77.15 104.23H77.16Z" fill="white"/>
</g>
<path d="M51.02 171.07C50.93 175.38 59.54 178.95 63.63 176.03C67 173.63 70.11 163.86 73.74 151.78C71.67 154.61 68.53 156.92 64.08 155.68C57.79 153.94 56.05 149.32 55.69 145.77C53.54 155.17 51.13 166.58 51.03 171.07H51.02Z" fill="#B0C3D1"/>
<path d="M71.81 100.75C77.19 99.21 84.22 101.34 88.31 102.94C88.6 100.79 88.58 99.08 88.16 97.91C86.47 93.18 77.37 91.18 74.98 94.78C74.13 96.06 73.03 98.17 71.81 100.75Z" fill="#B0C3D1"/>
<path d="M60.63 178.95C58.26 179.12 55.75 178.45 53.78 177.41C50.83 175.84 49.09 173.46 49.15 171.03C49.33 162.75 56.9 132.53 57.22 131.25L57.29 131.04C57.76 129.8 68.83 100.69 73.41 93.79C74.75 91.77 77.54 90.8 80.86 91.2C84.43 91.64 88.62 93.7 89.91 97.32C91.55 101.9 88.66 111.13 83.43 127.05C82.24 130.67 81.01 134.41 79.81 138.23C78.61 142.05 77.48 145.82 76.39 149.47C71.59 165.52 68.68 174.74 64.72 177.57C63.52 178.42 62.11 178.85 60.64 178.95H60.63ZM60.82 132.27C60.32 134.28 53.06 163.49 52.89 171.12C52.87 172.07 53.91 173.25 55.53 174.11C58.01 175.42 61.02 175.6 62.54 174.52C65.65 172.31 69.12 160.7 72.8 148.4C73.89 144.74 75.03 140.96 76.23 137.11C77.44 133.26 78.67 129.51 79.87 125.88C83.88 113.69 87.67 102.18 86.38 98.59C85.75 96.84 83.18 95.26 80.4 94.92C78.57 94.7 77.05 95.07 76.52 95.86C72.3 102.22 61.56 130.34 60.82 132.27Z" fill="#010101"/>
<path d="M82.94 101.25C80.04 100.71 76.41 99.77 73.96 101.78C73.29 102.34 72.79 103.08 72.39 103.9L69.31 101.76C70.21 100.77 71.29 99.88 72.57 99.33C76.18 97.76 79.8 99.6 82.94 101.24V101.25Z" fill="#010101"/>
<path d="M78.49 102.82C76.69 102.67 74.7 102.71 73.27 103.83C71.92 104.86 71.16 106.43 70.59 108.01L67.33 106.17C70.33 102.29 73.84 100.61 78.49 102.81V102.82Z" fill="#010101"/>
<path d="M76.8 120.21C73.83 119.9 70.05 118.48 67.56 120.63C66.92 121.21 66.49 122.01 66.15 122.87L62.89 121.03C64.54 118.69 67.28 117.15 70.14 117.66C72.62 118.02 74.58 119.3 76.81 120.2L76.8 120.21Z" fill="#010101"/>
<path d="M65 162.5C60.43 162.07 53.86 160.92 53.57 155.15L57.31 155.37C57.12 156.06 57.14 156.73 57.49 157.46C58.95 160.07 62.32 161.33 65 162.51V162.5Z" fill="#010101"/>
<path d="M57.3999 131.17C53.0499 145.03 46.8299 167.86 47.9199 169.92C48.6999 171.4 50.2299 171.33 51.0199 171.07C53.0299 170.42 54.1299 159.14 62.4199 132.74C70.7099 106.35 76.2499 96.46 74.9699 94.78C74.4699 94.12 73.2499 93.19 71.7699 93.95C69.6999 95.02 61.7399 117.3 57.3899 131.16L57.3999 131.17Z" fill="white"/>
<path d="M47.92 169.91C48.7 171.39 50.23 171.32 51.02 171.07C52.66 170.54 53.7 162.93 58.53 145.79C59.62 141.93 60.9 137.59 62.42 132.74C70.71 106.35 76.25 96.46 74.97 94.77C74.47 94.11 73.25 93.18 71.77 93.95C69.69 95.02 61.74 117.3 57.39 131.16C56.14 135.13 54.75 139.82 53.41 144.56C50.08 156.38 47.13 168.44 47.91 169.91H47.92Z" fill="white"/>
<path d="M47.92 169.91C48.7 171.39 50.23 171.32 51.02 171.07C52.66 170.54 53.7 162.93 58.53 145.79C56.81 146.3 54.79 146.48 53.42 144.56C50.09 156.38 47.14 168.44 47.92 169.91Z" fill="white"/>
<path d="M50.43 173.08C48.88 173.19 47.2 172.57 46.27 170.79C45.84 169.97 45.18 168.73 48.81 154.5C50.66 147.24 53.27 138.08 55.62 130.6C57.97 123.12 61.06 114.12 63.7 107.1C68.86 93.35 70.11 92.71 70.93 92.28C73.18 91.12 75.34 92.13 76.48 93.64C77.76 95.33 76.85 97.74 73.84 105.7C71.6 111.61 68.22 120.55 64.22 133.3C60.22 146.05 57.88 155.31 56.34 161.44C54.26 169.7 53.63 172.19 51.61 172.84C51.24 172.96 50.84 173.04 50.44 173.07L50.43 173.08ZM49.66 169.17C49.78 169.31 49.94 169.37 50.15 169.35C50.73 168.32 51.65 164.69 52.69 160.53C54.25 154.36 56.6 145.03 60.63 132.18C64.67 119.33 68.07 110.33 70.32 104.38C71.84 100.37 73.16 96.87 73.27 95.69C73.11 95.56 72.94 95.51 72.76 95.56C70.91 97.84 64.27 115.46 59.17 131.72C54.06 147.98 49.43 166.23 49.65 169.16L49.66 169.17Z" fill="#010101"/>
<path d="M214.85 214.57C214.45 214.57 214.07 214.33 213.94 213.93C213.77 213.44 214.03 212.9 214.52 212.73C219.32 211.07 243.68 202.25 252.13 191.14C259.69 181.2 257.22 169.56 257.2 169.44C257.09 168.93 257.41 168.43 257.92 168.32C258.43 168.21 258.93 168.53 259.04 169.04C259.15 169.55 261.71 181.66 253.63 192.29C244.85 203.84 220.02 212.84 215.13 214.53C215.04 214.56 214.94 214.58 214.84 214.58L214.85 214.57Z" fill="#D8E6EA"/>
<path d="M258.2 168.3C258.6 168.33 258.95 168.62 259.05 169.04C259.16 169.55 261.72 181.66 253.64 192.29C244.86 203.84 220.03 212.84 215.14 214.53C215.05 214.56 214.95 214.58 214.85 214.58C214.82 214.58 214.79 214.58 214.75 214.58C214.39 214.55 214.06 214.31 213.93 213.95C213.76 213.46 214.02 212.92 214.51 212.75C219.31 211.09 243.67 202.27 252.12 191.16C259.68 181.22 257.21 169.58 257.19 169.46C257.08 168.95 257.4 168.45 257.91 168.34C258 168.32 258.1 168.31 258.19 168.32M258.5 164.56C258.04 164.52 257.57 164.56 257.11 164.66C254.59 165.22 253 167.71 253.54 170.22C253.59 170.46 255.51 180.51 249.15 188.87C243.1 196.82 226.06 204.79 213.3 209.19C212.12 209.6 211.16 210.44 210.62 211.57C210.07 212.7 210 213.97 210.4 215.15C211.01 216.91 212.6 218.14 214.46 218.29C214.62 218.3 214.78 218.31 214.95 218.3C215.42 218.29 215.9 218.2 216.36 218.05C223.49 215.59 247.43 206.63 256.63 194.54C260.38 189.6 262.64 183.59 263.16 177.16C263.56 172.23 262.8 168.62 262.72 168.22C262.27 166.2 260.58 164.72 258.52 164.56H258.5Z" fill="#010101"/>
<path d="M213.146 206.89L195.374 212.961C194.569 213.236 194.14 214.111 194.414 214.916L197.708 224.559C197.983 225.364 198.859 225.793 199.664 225.518L217.435 219.448C218.24 219.173 218.67 218.297 218.395 217.493L215.101 207.85C214.826 207.045 213.951 206.615 213.146 206.89Z" fill="#6D768C"/>
<g opacity="0.5">
<path d="M216.51 211.93L217.01 213.39C217.08 213.6 217.14 213.81 217.18 214.02C215.93 211.35 212.84 209.99 209.98 210.97L200.39 214.25C197.53 215.23 195.92 218.19 196.56 221.07C196.47 220.88 196.38 220.68 196.31 220.47L195.81 219.01C194.76 215.95 196.4 212.61 199.46 211.57L209.05 208.29C212.11 207.24 215.45 208.88 216.49 211.94L216.51 211.93Z" fill="white"/>
</g>
<path d="M216.51 211.93L217.01 213.39C218.06 216.45 216.42 219.78 213.35 220.83L203.76 224.11C200.7 225.16 197.36 223.53 196.32 220.46L195.82 219C195.63 218.43 195.53 217.85 195.51 217.28C196.99 219.3 199.66 220.23 202.15 219.38L211.74 216.1C214.23 215.25 215.78 212.88 215.71 210.37C216.04 210.83 216.32 211.35 216.51 211.92V211.93Z" fill="#4F5A75"/>
<path d="M201.42 226.37C198.24 226.12 195.36 224.02 194.27 220.82L193.97 219.95C192.5 215.65 194.8 210.96 199.1 209.49L208.09 206.42C210.17 205.71 212.41 205.85 214.38 206.82C216.36 207.79 217.84 209.47 218.55 211.55L218.85 212.42C219.56 214.5 219.42 216.74 218.45 218.71C217.48 220.69 215.8 222.17 213.72 222.88L204.73 225.95C203.63 226.32 202.51 226.45 201.42 226.37ZM211.09 210.12C210.54 210.08 209.97 210.15 209.43 210.33L200.44 213.4C198.29 214.13 197.14 216.48 197.88 218.63L198.18 219.5C198.91 221.65 201.26 222.8 203.41 222.06L212.4 218.99C213.44 218.63 214.28 217.9 214.76 216.91C215.24 215.92 215.32 214.81 214.96 213.77L214.66 212.9C214.3 211.86 213.57 211.02 212.58 210.54C212.11 210.31 211.6 210.17 211.1 210.13L211.09 210.12Z" fill="#010101"/>
<g opacity="0.5">
<path d="M264.54 112.44C259.13 106.41 249.91 104.71 242.52 109.15C241.87 109.54 240.52 110.46 238.85 111.92C237.15 105.37 236.68 102.31 238.26 101.36C247.38 95.88 259.27 99.74 263.38 109.56C263.78 110.52 264.17 111.48 264.55 112.44H264.54Z" fill="white" stroke="#231F20" stroke-width="0.85" stroke-miterlimit="10"/>
</g>
<path d="M255.09 167.87L241.76 110.48C241.76 110.48 246.71 107.5 249.19 106.01C256.68 101.51 266.45 104.68 269.82 112.74C275.27 125.78 278.43 139.36 279.28 153.47C279.8 162.19 272.44 169.34 263.73 168.6C260.85 168.36 255.09 167.87 255.09 167.87Z" fill="#D8E6EA"/>
<path d="M279.28 153.47C279.8 162.2 272.44 169.34 263.72 168.6C260.84 168.36 255.08 167.87 255.08 167.87L250.7 149.01L241.75 110.48C241.75 110.48 246.71 107.51 249.18 106.01C256.68 101.51 266.44 104.68 269.81 112.74C273.71 122.06 276.43 131.67 277.98 141.54C278.6 145.47 279.03 149.45 279.27 153.47H279.28Z" fill="#D8E6EA"/>
<path d="M279.28 153.47C279.8 162.2 272.44 169.34 263.72 168.6C260.84 168.36 255.08 167.87 255.08 167.87L250.7 149.01C258.42 146.93 269.49 144.05 270.97 144.18C272.85 144.33 276.37 145.64 277.98 141.54C278.6 145.47 279.03 149.45 279.27 153.47H279.28Z" fill="#B1BFC5"/>
<path d="M266.11 170.48C265.27 170.54 264.42 170.54 263.57 170.46L253.57 169.61L239.63 109.56L248.23 104.39C252.28 101.96 257.17 101.41 261.66 102.88C266.13 104.35 269.74 107.67 271.55 112.01C277.06 125.19 280.29 139.09 281.15 153.35C281.43 158.04 279.66 162.61 276.29 165.9C273.52 168.6 269.91 170.21 266.1 170.48H266.11ZM256.61 166.12L263.89 166.74C267.51 167.05 271.08 165.77 273.68 163.23C276.27 160.7 277.63 157.19 277.41 153.59C276.58 139.76 273.44 126.26 268.09 113.47C266.7 110.14 263.93 107.58 260.49 106.46C257.04 105.33 253.27 105.75 250.15 107.62L243.89 111.38L256.6 166.12H256.61Z" fill="#010101"/>
<path d="M245.99 139.74C239.73 112.79 235.24 103.18 238.26 101.37C247.38 95.8901 259.27 99.75 263.38 109.57C270.02 125.45 273.86 141.99 274.9 159.17C275.54 169.79 266.56 178.5 255.96 177.6C252.45 177.3 252.25 166.7 246 139.75L245.99 139.74Z" fill="#B5D43F" stroke="#231F20" stroke-width="0.85" stroke-miterlimit="10"/>
<path d="M274.89 159.16C275.53 169.78 266.55 178.49 255.95 177.59C252.74 177.32 252.3 168.41 247.44 146.23C246.99 144.18 246.51 142.02 245.98 139.74C239.72 112.79 235.23 103.18 238.25 101.37C247.37 95.8901 259.26 99.75 263.37 109.57C267.6 119.69 270.7 130.09 272.66 140.74C273.78 146.8 274.52 152.94 274.89 159.17V159.16Z" fill="#B5D43F" stroke="#231F20" stroke-width="0.85" stroke-miterlimit="10"/>
<path d="M274.89 159.16C275.53 169.78 266.55 178.49 255.95 177.59C252.74 177.32 252.3 168.41 247.44 146.23C247.2 145.16 246.96 144.05 246.7 142.92C246.47 141.89 246.23 140.83 245.97 139.74C244.38 132.89 242.91 127.17 241.63 122.4C237.92 108.41 235.98 102.72 238.23 101.37C247.35 95.8901 259.24 99.75 263.35 109.57C264.81 113.06 266.13 116.58 267.32 120.14C269.09 125.42 270.56 130.77 271.72 136.2C272.05 137.71 272.35 139.22 272.63 140.75C273.75 146.81 274.49 152.95 274.86 159.18L274.89 159.16Z" fill="white" stroke="#231F20" stroke-width="0.85" stroke-miterlimit="10"/>
<g opacity="0.5">
<path d="M271.75 136.19C269.2 139.15 262.21 144.74 246.71 142.92C246.48 141.89 246.24 140.83 245.98 139.74C244.39 132.89 242.92 127.17 241.64 122.4C248.85 117.76 259.76 115.44 267.33 120.13C269.1 125.41 270.57 130.76 271.73 136.19H271.75Z" fill="white" stroke="#231F20" stroke-width="0.85" stroke-miterlimit="10"/>
</g>
<path d="M274.89 159.16C275.53 169.78 266.55 178.49 255.95 177.59C252.74 177.32 252.3 168.41 247.44 146.23C249.15 144.48 250.86 148.57 254.18 152.79C259.45 159.5 274.49 153.98 272.65 140.74C273.77 146.8 274.51 152.94 274.88 159.17L274.89 159.16Z" fill="#E6E7E8" stroke="#231F20" stroke-width="0.85" stroke-miterlimit="10"/>
<path d="M258.82 179.47C257.82 179.54 256.81 179.54 255.79 179.45C253.29 179.24 252.2 176.77 251.47 174.38C250.68 171.81 249.93 167.98 248.9 162.68C247.82 157.15 246.35 149.57 244.16 140.15C241.97 130.72 239.96 123.27 238.49 117.83C237.08 112.62 236.06 108.85 235.64 106.2C235.25 103.73 235.14 101.04 237.29 99.75C242.12 96.85 247.96 96.19 253.31 97.95C258.64 99.7 262.94 103.66 265.1 108.83C271.79 124.83 275.72 141.72 276.76 159.04C277.1 164.63 274.99 170.09 270.97 174C267.67 177.22 263.36 179.14 258.82 179.46V179.47ZM256.16 175.73C260.67 176.1 265.11 174.5 268.35 171.34C271.59 168.18 273.29 163.79 273.02 159.28C272 142.39 268.18 125.91 261.65 110.29C259.91 106.13 256.44 102.93 252.14 101.52C247.84 100.11 243.15 100.63 239.26 102.95C238.66 104.11 240.25 110.03 242.1 116.87C243.58 122.34 245.6 129.82 247.8 139.32C250 148.81 251.49 156.42 252.57 161.98C253.92 168.94 255.1 174.95 256.15 175.73H256.16Z" fill="#010101"/>
<path d="M249.44 138.93C249.44 138.93 254.88 170.65 254.44 178.81C254.21 183.12 245.35 186.02 241.49 182.8C237.13 179.17 234.31 161.75 230.05 143.42C225.79 125.09 220.66 108.21 222.97 103.03C225.01 98.45 234.24 97.14 236.35 100.91C240.34 108.04 249.43 138.92 249.43 138.92L249.44 138.93Z" fill="#D8E6EA"/>
<path d="M254.45 178.82C254.21 183.13 245.36 186.03 241.5 182.81C237.14 179.18 234.32 161.76 230.07 143.43C226.75 129.13 222.89 115.71 222.45 108.05C222.33 105.89 222.47 104.18 222.98 103.04C225.03 98.46 234.26 97.15 236.36 100.92C237.11 102.27 238.04 104.45 239.06 107.11C243.45 118.59 249.44 138.93 249.44 138.93C249.44 138.93 254.88 170.65 254.44 178.82H254.45Z" fill="#D8E6EA"/>
<path d="M254.45 178.82C254.21 183.13 245.36 186.03 241.5 182.81C238.32 180.16 235.96 170.18 233.27 157.86C232.27 153.29 231.22 148.4 230.07 143.44C226.75 129.14 222.89 115.72 222.45 108.06C222.33 105.9 222.47 104.19 222.98 103.05C225.03 98.47 234.26 97.16 236.36 100.93C237.11 102.28 238.04 104.46 239.06 107.12C243.45 118.6 249.44 138.94 249.44 138.94C249.44 138.94 250.55 145.4 251.72 153.25C253.15 162.78 254.68 174.35 254.44 178.83L254.45 178.82Z" fill="#D8E6EA"/>
<g opacity="0.5">
<path d="M233.47 110.18C234.46 110.13 238.84 124.03 241.04 133.85C243.6 145.28 245.81 158.53 244.73 158.88C243.49 159.28 232.48 110.23 233.47 110.18Z" fill="white"/>
</g>
<path d="M254.45 178.82C254.21 183.13 245.36 186.03 241.5 182.81C238.32 180.16 235.96 170.18 233.27 157.86C235.12 160.83 238.07 163.38 242.61 162.49C249.01 161.24 251.1 156.76 251.73 153.25C253.16 162.78 254.69 174.35 254.45 178.83V178.82Z" fill="#B0C3D1"/>
<path d="M239.07 107.12C233.82 105.17 226.65 106.77 222.45 108.05C222.33 105.89 222.47 104.18 222.98 103.04C225.03 98.46 234.26 97.15 236.36 100.92C237.11 102.27 238.04 104.45 239.06 107.11L239.07 107.12Z" fill="#B0C3D1"/>
<path d="M246.76 186.03C244.44 186.2 242.07 185.73 240.3 184.26C236.56 181.15 234.36 171.73 230.8 155.36C229.99 151.64 229.15 147.79 228.25 143.89C227.34 139.99 226.4 136.17 225.49 132.47C221.48 116.2 219.3 106.78 221.29 102.34C222.86 98.82 227.19 97.08 230.78 96.92C234.12 96.77 236.82 97.94 238.01 100.07C242.05 107.3 250.88 137.17 251.25 138.44L251.3 138.65C251.52 139.95 256.77 170.66 256.32 178.93C256.19 181.36 254.28 183.6 251.22 184.94C249.89 185.52 248.34 185.92 246.77 186.04L246.76 186.03ZM230.7 100.67C227.99 100.86 225.44 102.21 224.7 103.86C223.14 107.34 226.05 119.11 229.12 131.57C230.03 135.28 230.98 139.11 231.89 143.04C232.8 146.97 233.64 150.83 234.46 154.56C237.19 167.1 239.77 178.94 242.7 181.38C244.13 182.57 247.15 182.62 249.72 181.5C251.41 180.76 252.53 179.67 252.58 178.72C252.99 171.1 247.97 141.42 247.63 139.38C247.04 137.4 238.47 108.54 234.74 101.88C234.27 101.05 232.79 100.56 230.95 100.65C230.87 100.65 230.78 100.65 230.7 100.66V100.67Z" fill="#010101"/>
<path d="M227.93 106.77C231.18 105.38 234.93 103.81 238.42 105.66C239.65 106.3 240.67 107.27 241.48 108.33L238.25 110.22C237.57 108.45 236.35 107.14 234.42 106.69C232.36 106.19 230.06 106.53 227.93 106.77Z" fill="#010101"/>
<path d="M232.24 108.67C237.05 106.82 240.42 108.77 243.11 112.86L239.72 114.44C239.27 112.82 238.64 111.19 237.36 110.07C236.02 108.85 234.04 108.66 232.24 108.67Z" fill="#010101"/>
<path d="M232.61 126.14C236.06 124.97 239.83 122.88 243.45 124.99C244.72 125.73 245.68 126.85 246.42 128.02L243.03 129.6C242.75 128.71 242.38 127.89 241.79 127.26C239.47 124.92 235.6 126.06 232.61 126.14Z" fill="#010101"/>
<path d="M241.15 169.21C243.9 168.24 247.37 167.24 249.02 164.75C249.43 164.04 249.5 163.38 249.36 162.68L253.1 162.75C252.37 168.49 245.73 169.13 241.14 169.21H241.15Z" fill="#010101"/>
<path d="M251.12 138.54C254.41 152.69 258.86 175.92 257.62 177.9C256.73 179.32 255.21 179.13 254.44 178.82C252.48 178.02 252.24 166.69 245.99 139.74C239.73 112.79 234.96 102.51 236.36 100.93C236.91 100.31 238.19 99.47 239.62 100.35C241.61 101.57 247.84 124.4 251.13 138.55L251.12 138.54Z" fill="white"/>
<path d="M257.62 177.9C256.73 179.32 255.21 179.13 254.44 178.82C252.84 178.16 252.39 170.5 248.87 153.04C248.08 149.11 247.13 144.69 245.98 139.74C239.72 112.79 234.95 102.51 236.35 100.93C236.9 100.31 238.18 99.47 239.6 100.35C241.59 101.57 247.82 124.4 251.11 138.55C252.05 142.6 253.08 147.39 254.06 152.21C256.48 164.25 258.5 176.5 257.61 177.91L257.62 177.9Z" fill="white"/>
<path d="M257.62 177.9C256.73 179.32 255.21 179.13 254.44 178.82C252.84 178.16 252.39 170.5 248.87 153.04C250.55 153.68 252.54 154.01 254.06 152.2C256.48 164.24 258.5 176.49 257.61 177.9H257.62Z" fill="white"/>
<path d="M255.92 180.91C255.16 180.96 254.41 180.83 253.74 180.55C251.77 179.74 251.34 177.21 249.89 168.82C248.82 162.59 247.19 153.17 244.17 140.16C241.15 127.14 238.46 117.98 236.68 111.91C234.28 103.74 233.56 101.27 234.97 99.68C236.23 98.26 238.46 97.42 240.61 98.75C241.4 99.24 242.59 99.97 246.69 114.07C248.78 121.27 251.18 130.48 252.96 138.11C254.73 145.74 256.64 155.07 257.93 162.46C260.46 176.92 259.72 178.11 259.22 178.89C258.39 180.21 257.16 180.81 255.93 180.89L255.92 180.91ZM255.44 177.17C255.65 177.2 255.82 177.15 255.94 177.03C256.38 174.13 253.15 155.57 249.3 138.97C245.45 122.37 240.17 104.29 238.5 101.88C238.33 101.82 238.16 101.85 237.98 101.97C238 103.15 239.06 106.74 240.26 110.86C242.05 116.97 244.76 126.2 247.81 139.32C250.86 152.44 252.49 161.92 253.57 168.19C254.3 172.41 254.93 176.1 255.43 177.17H255.44Z" fill="#010101"/>
<path d="M107.67 145.31C107.847 145.31 107.99 145.091 107.99 144.82C107.99 144.549 107.847 144.33 107.67 144.33C107.493 144.33 107.35 144.549 107.35 144.82C107.35 145.091 107.493 145.31 107.67 145.31Z" fill="#233E97"/>
<g style="mix-blend-mode:screen" opacity="0.6">
<path d="M120.39 103.45C120.39 104.57 118.14 105.47 115.37 105.47C112.6 105.47 110.35 104.56 110.35 103.45C110.35 102.34 112.6 101.43 115.37 101.43C118.14 101.43 120.39 102.34 120.39 103.45Z" fill="white"/>
</g>
<g style="mix-blend-mode:screen" opacity="0.6">
<path d="M188.61 109.6C188.61 110.72 186.36 111.62 183.59 111.62C180.82 111.62 178.57 110.71 178.57 109.6C178.57 108.49 180.82 107.58 183.59 107.58C186.36 107.58 188.61 108.49 188.61 109.6Z" fill="white"/>
</g>
<path d="M138.63 143.99C138.63 143.99 136.19 145.31 139.95 147.28C143.71 149.25 145.59 150.57 145.59 155.84C145.59 161.11 142.28 166.5 134.54 167.16C126.8 167.82 119.88 165.35 117.58 162.38C119.23 169.79 130 177.84 142.67 170.8C148.83 167.46 150.41 168.86 155.52 171.5C160.62 174.14 173.64 175.02 178.22 166.22C170.83 167.98 152.88 169.56 150.59 158.83C149.53 151.79 150.77 149.15 154.99 147.92C159.21 146.69 159.74 143.17 154.11 142.47C148.48 141.77 138.64 143.99 138.64 143.99H138.63Z" fill="#010101"/>
<path d="M146.99 141.01C146.99 141.01 138.58 141.14 137.92 144.03C137.53 146.79 143.83 145.08 145.67 150.34C147.12 154.94 148.96 153.23 149.61 150.73C150.26 148.23 151.19 147.05 154.34 146.39C157.49 145.73 162.23 140.87 146.98 141L146.99 141.01Z" fill="#231F20"/>
<g style="mix-blend-mode:multiply">
<path d="M155.92 144.94C154.63 145.34 152.55 145.03 151.3 145.58C150.24 146.05 149.18 147.79 148.03 148.02C146.93 148.24 146.79 147.1 145.93 146.5C145.4 146.14 144.88 145.74 144.27 145.53C143.55 145.28 142.78 145.25 142.03 145.23C140.81 145.2 139.43 145.21 138.33 144.59C138.16 144.49 138.03 144.38 137.92 144.27C137.97 146.65 143.9 145.24 145.67 150.32C147.12 154.92 148.96 153.21 149.61 150.71C150.26 148.21 151.19 147.03 154.34 146.37C155.54 146.12 156.97 145.26 157.44 144.29C156.96 144.56 156.42 144.75 155.91 144.91L155.92 144.94Z" fill="white"/>
</g>
<g style="mix-blend-mode:screen">
<path d="M140.49 142.65C140.49 142.65 143.41 142.65 145.8 143.63C148.18 144.6 149.05 143.63 151.43 142.87C153.81 142.11 156.3 143.09 156.3 143.09C156.3 143.09 153.27 144.17 150.88 145.15C148.49 146.13 148.39 149.37 146.44 146.67C144.49 143.96 137.45 142.99 140.48 142.66L140.49 142.65Z" fill="white"/>
</g>
<g style="mix-blend-mode:multiply">
<path d="M161.69 158.09C161.67 158.44 161.37 158.71 161.02 158.69C160.67 158.67 160.4 158.37 160.42 158.02C160.44 157.67 160.74 157.4 161.09 157.42C161.44 157.44 161.71 157.74 161.69 158.09Z" fill="#010101"/>
</g>
<g style="mix-blend-mode:multiply">
<path d="M164.5 155.91C164.48 156.26 164.18 156.53 163.83 156.51C163.48 156.49 163.21 156.19 163.23 155.84C163.25 155.49 163.55 155.22 163.9 155.24C164.25 155.26 164.52 155.56 164.5 155.91Z" fill="#010101"/>
</g>
<g style="mix-blend-mode:multiply">
<path d="M162.55 152.82C162.53 153.17 162.23 153.44 161.88 153.42C161.53 153.4 161.26 153.1 161.28 152.75C161.3 152.4 161.6 152.13 161.95 152.15C162.3 152.17 162.57 152.47 162.55 152.82Z" fill="#010101"/>
</g>
<path d="M161.14 158C163.12 158.22 165.08 158.51 167.02 158.88C168.96 159.22 170.89 159.63 172.79 160.11C176.59 161.06 180.34 162.19 183.93 163.7C187.54 165.15 191.01 166.98 194.23 169.26C197.45 171.54 200.39 174.36 202.77 177.9C201.69 176.01 200.4 174.33 199.03 172.79C197.64 171.26 196.11 169.95 194.53 168.72C191.34 166.31 187.85 164.47 184.24 162.96C180.6 161.5 176.84 160.36 172.98 159.53C169.12 158.72 165.18 158.14 161.14 158.01V158Z" fill="#010101"/>
<path d="M163.87 155.87C165.96 155.35 168.05 154.94 170.12 154.62C172.2 154.28 174.27 154.02 176.32 153.85C180.43 153.52 184.51 153.44 188.48 153.89C192.46 154.27 196.34 155.16 200.01 156.72C203.67 158.27 207.08 160.61 209.96 163.96C208.61 162.15 207.07 160.63 205.44 159.3C203.8 158.01 202.03 157 200.21 156.12C196.56 154.43 192.64 153.53 188.65 153.09C184.64 152.7 180.54 152.77 176.4 153.23C172.25 153.72 168.07 154.51 163.87 155.85V155.87Z" fill="#010101"/>
<path d="M161.67 152.99C163.89 152.25 166.12 151.55 168.35 150.92C170.58 150.26 172.8 149.65 175.03 149.09C179.48 147.96 183.94 146.99 188.38 146.32C190.6 145.97 192.82 145.7 195.03 145.51C197.24 145.33 199.44 145.28 201.63 145.3C203.82 145.34 205.98 145.55 208.1 145.95C210.23 146.34 212.31 146.97 214.27 147.97C210.45 145.68 206.08 144.94 201.72 144.68C197.33 144.47 192.87 144.87 188.41 145.52C183.95 146.25 179.47 147.22 175.01 148.48C170.55 149.74 166.09 151.19 161.66 152.98L161.67 152.99Z" fill="#010101"/>
<g style="mix-blend-mode:multiply">
<path d="M134.04 156.2C134.02 156.55 134.28 156.85 134.63 156.88C134.98 156.9 135.28 156.64 135.31 156.29C135.33 155.94 135.07 155.64 134.72 155.61C134.37 155.59 134.07 155.85 134.04 156.2Z" fill="#010101"/>
</g>
<g style="mix-blend-mode:multiply">
<path d="M131.52 153.68C131.5 154.03 131.76 154.33 132.11 154.36C132.46 154.38 132.76 154.12 132.79 153.77C132.81 153.42 132.55 153.12 132.2 153.09C131.85 153.07 131.55 153.33 131.52 153.68Z" fill="#010101"/>
</g>
<g style="mix-blend-mode:multiply">
<path d="M133.83 150.86C133.81 151.21 134.07 151.51 134.42 151.54C134.77 151.56 135.07 151.3 135.1 150.95C135.12 150.6 134.86 150.3 134.51 150.27C134.16 150.25 133.86 150.51 133.83 150.86Z" fill="#010101"/>
</g>
<path d="M134.6 156.17C132.61 156.15 130.63 156.2 128.66 156.32C126.69 156.42 124.73 156.59 122.78 156.83C118.89 157.31 115.03 157.96 111.28 159.03C107.51 160.03 103.85 161.41 100.38 163.28C96.91 165.14 93.64 167.58 90.84 170.81C92.15 169.06 93.63 167.56 95.18 166.19C96.75 164.84 98.43 163.73 100.15 162.71C103.61 160.71 107.3 159.31 111.07 158.25C114.86 157.24 118.74 156.57 122.67 156.22C126.6 155.89 130.58 155.8 134.61 156.17H134.6Z" fill="#010101"/>
<path d="M132.15 153.73C130.14 152.96 128.12 152.3 126.1 151.72C124.08 151.13 122.06 150.62 120.04 150.2C116 149.37 111.96 148.79 107.96 148.75C103.96 148.64 100 149.05 96.17 150.15C92.35 151.25 88.67 153.14 85.41 156.12C86.98 154.49 88.69 153.17 90.46 152.05C92.25 150.97 94.13 150.18 96.04 149.54C99.87 148.31 103.87 147.9 107.89 147.95C111.92 148.05 115.98 148.63 120.03 149.59C124.08 150.58 128.14 151.88 132.15 153.73Z" fill="#010101"/>
<path d="M134.69 151.13C132.57 150.12 130.45 149.16 128.32 148.25C126.19 147.33 124.06 146.45 121.91 145.62C117.63 143.96 113.32 142.44 108.99 141.24C106.83 140.62 104.66 140.08 102.49 139.62C100.32 139.17 98.14 138.86 95.97 138.61C93.79 138.38 91.62 138.32 89.46 138.47C87.3 138.6 85.16 138.97 83.09 139.72C87.17 137.91 91.59 137.72 95.95 137.99C100.33 138.32 104.71 139.26 109.05 140.45C113.39 141.73 117.71 143.23 121.99 145.03C126.26 146.83 130.51 148.81 134.68 151.13H134.69Z" fill="#010101"/>
<path d="M92.03 114.57C92.72 111.25 94.68 108.25 97.14 105.87C98.37 104.67 99.77 103.64 101.24 102.75C102.73 101.89 104.29 101.16 105.91 100.58C107.54 100.02 109.17 99.56 110.88 99.28C112.62 98.98 114.42 99.05 116.12 99.51C119.53 100.41 122.38 102.79 124.02 105.72C121.89 103.14 119 101.23 115.86 100.63C114.3 100.34 112.67 100.34 111.13 100.67C109.55 101.02 107.95 101.45 106.42 102.01C104.88 102.56 103.38 103.21 101.97 104.01C100.53 104.78 99.2 105.72 97.95 106.76C95.48 108.87 93.33 111.47 92.03 114.56V114.57Z" fill="#010101"/>
<path d="M129.9 127.96C129.9 127.96 127.86 128.12 123.62 132.2C119.38 136.28 109.01 140.21 97.7 129.06C94.4 125.92 90.79 126.39 90.79 126.39C90.79 126.39 94.4 110.53 110.74 107.07C122.05 105.19 129.59 116.18 129.9 127.96Z" fill="white"/>
<path d="M112.95 136.77C108.42 136.77 103.05 134.88 97.43 129.33C94.32 126.37 90.87 126.76 90.83 126.77C90.71 126.79 90.58 126.74 90.5 126.65C90.42 126.56 90.38 126.43 90.41 126.31C90.45 126.15 94.27 110.17 110.65 106.7C114.98 105.98 119.04 107.07 122.41 109.84C127.13 113.73 130.07 120.5 130.27 127.95C130.27 128.15 130.12 128.32 129.92 128.34C129.88 128.34 127.88 128.61 123.87 132.48C121.62 134.65 117.75 136.78 112.95 136.78V136.77ZM91.34 125.98C92.54 125.98 95.34 126.28 97.96 128.78C109.14 139.8 119.18 135.94 123.35 131.92C126.69 128.7 128.73 127.87 129.51 127.65C129.24 120.65 126.36 114.07 121.94 110.42C118.74 107.78 114.89 106.75 110.8 107.44C96.51 110.46 92.07 123.29 91.29 125.98C91.31 125.98 91.32 125.98 91.34 125.98Z" fill="#010101"/>
<path d="M126.601 125.194C128.4 117.572 123.68 109.935 116.058 108.136C108.436 106.337 100.799 111.058 98.9997 118.68C97.2007 126.302 101.921 133.939 109.543 135.738C117.165 137.537 124.802 132.816 126.601 125.194Z" fill="#7C4C4C"/>
<path d="M112.8 134.25C119.654 134.25 125.21 128.694 125.21 121.84C125.21 114.986 119.654 109.43 112.8 109.43C105.946 109.43 100.39 114.986 100.39 121.84C100.39 128.694 105.946 134.25 112.8 134.25Z" fill="#2D1014"/>
<path d="M119.834 128.871C123.716 124.989 123.716 118.695 119.834 114.814C115.952 110.932 109.659 110.932 105.777 114.814C101.895 118.695 101.895 124.989 105.777 128.871C109.659 132.753 115.952 132.753 119.834 128.871Z" fill="#010101"/>
<path d="M122.63 118.86C122.63 118.86 124.27 129.38 113.04 130.79C120.52 133.6 125.9 124.48 122.63 118.86Z" fill="#7C4C4C"/>
<path d="M107.15 120.59C109.674 120.59 111.72 118.544 111.72 116.02C111.72 113.496 109.674 111.45 107.15 111.45C104.626 111.45 102.58 113.496 102.58 116.02C102.58 118.544 104.626 120.59 107.15 120.59Z" fill="#F9F3E2"/>
<path d="M125.17 129.29C125.17 130.51 124.18 131.51 122.95 131.51C121.72 131.51 120.73 130.52 120.73 129.29C120.73 128.06 121.72 127.07 122.95 127.07C124.18 127.07 125.17 128.06 125.17 129.29Z" fill="#F9F3E2"/>
<path d="M165.91 130.23C165.91 130.23 168.88 131.86 174.07 135.72C179.26 139.58 190.38 141.5 196.76 133.05C200.62 128.45 203.43 127.27 205.06 127.27C204.32 120.74 195.57 109.33 182.81 110.36C170.06 111.4 166.5 124.15 165.9 130.23H165.91Z" fill="white"/>
<path d="M184.52 139.36C180.46 139.36 176.54 138 173.85 136C168.74 132.21 165.76 130.56 165.73 130.54C165.6 130.47 165.53 130.33 165.55 130.19C166.4 121.45 171.43 110.92 182.78 109.99C196.04 108.91 204.68 120.8 205.41 127.21C205.42 127.31 205.39 127.41 205.32 127.49C205.25 127.57 205.15 127.61 205.05 127.61C203.82 127.61 201.15 128.34 197.02 133.27C193.71 137.66 189.02 139.35 184.51 139.35L184.52 139.36ZM166.29 130.04C167.06 130.48 169.89 132.18 174.28 135.43C179.72 139.47 190.45 140.81 196.47 132.83C200.4 128.14 203.17 127.08 204.65 126.93C203.66 120.68 195.38 109.7 182.84 110.72C177.39 111.16 173.1 113.81 170.1 118.6C167.32 123.03 166.51 127.92 166.28 130.04H166.29Z" fill="#010101"/>
<path d="M170.84 111.7C171.52 110.15 172.52 108.74 173.69 107.49C174.88 106.25 176.33 105.21 177.98 104.56C179.62 103.88 181.47 103.74 183.2 103.91C184.94 104.09 186.63 104.5 188.26 105.06C191.49 106.24 194.54 107.92 197.13 110.19C198.45 111.28 199.6 112.58 200.62 113.95C201.62 115.34 202.39 116.88 202.91 118.48C201.34 115.49 199.06 113.03 196.43 111.06C195.79 110.54 195.08 110.12 194.41 109.64C193.7 109.22 193.02 108.77 192.28 108.41C190.85 107.6 189.33 106.98 187.79 106.42C186.25 105.86 184.66 105.47 183.07 105.26C181.47 105.03 179.88 105.13 178.37 105.61C176.86 106.1 175.43 106.93 174.19 108C172.93 109.06 171.81 110.3 170.86 111.7H170.84Z" fill="#010101"/>
<path d="M184.67 111.67C195.41 111.79 202.06 121.34 205 126.83C203.94 120.25 195.3 109.34 182.82 110.36C170.07 111.4 166.51 124.15 165.91 130.23C165.91 130.23 169.58 111.49 184.67 111.67Z" fill="#301115"/>
<path d="M184.36 138.45C191.993 138.45 198.18 132.263 198.18 124.63C198.18 116.997 191.993 110.81 184.36 110.81C176.727 110.81 170.54 116.997 170.54 124.63C170.54 132.263 176.727 138.45 184.36 138.45Z" fill="#7C4C4C"/>
<path d="M184.36 136.78C191.125 136.78 196.61 131.296 196.61 124.53C196.61 117.765 191.125 112.28 184.36 112.28C177.594 112.28 172.11 117.765 172.11 124.53C172.11 131.296 177.594 136.78 184.36 136.78Z" fill="#2D1014"/>
<path d="M193.722 126.738C194.944 121.562 191.738 116.375 186.561 115.153C181.385 113.932 176.199 117.137 174.977 122.314C173.755 127.49 176.961 132.677 182.137 133.898C187.313 135.12 192.5 131.914 193.722 126.738Z" fill="#010101"/>
<path d="M193.13 123.63C193.13 123.63 194.64 133.36 184.26 134.66C191.18 137.26 196.16 128.82 193.13 123.63Z" fill="#7C4C4C"/>
<path d="M176.8 123.14C179.131 123.14 181.02 121.251 181.02 118.92C181.02 116.589 179.131 114.7 176.8 114.7C174.469 114.7 172.58 116.589 172.58 118.92C172.58 121.251 174.469 123.14 176.8 123.14Z" fill="#F9F3E2"/>
<path d="M194.87 132.46C194.87 133.59 193.95 134.51 192.82 134.51C191.69 134.51 190.77 133.59 190.77 132.46C190.77 131.33 191.69 130.41 192.82 130.41C193.95 130.41 194.87 131.33 194.87 132.46Z" fill="#F9F3E2"/>
<path opacity="0.33" d="M177.23 168.52C169.16 171.81 149.04 174.47 148.69 154.47C148.69 154.47 148.75 151.27 147.58 150.89C147.58 150.89 150.38 167.52 136.38 170.16C127.16 171.64 120.24 166.04 118.26 163.57C120.58 169.37 128.45 173.66 136.74 172.17L135.5 172.71C136.54 175.71 137.93 177.86 138.94 179.2C140.06 180.68 141.22 182.19 143.28 183.45C145.38 184.73 147.39 185.15 148.62 185.3C149.95 185.26 152.6 184.98 155.27 183.26C157.34 181.93 158.47 180.35 159.16 179.37C160.92 176.86 161.63 174.37 161.93 172.7C160.45 172.12 158.96 171.55 157.48 170.97C163.32 172.56 172.28 172.64 177.22 168.5L177.23 168.52ZM148.48 167.49C149.93 167.43 151.22 168.18 153.77 169.55C152.01 168.86 150.24 168.18 148.48 167.49Z" fill="#010101"/>
<path d="M378.78 108.66C368.41 106.01 360.56 112.76 352.79 127.17C352.16 128.34 352.29 129.77 353.14 130.79L388.01 173.24C389.76 175.37 388.24 178.57 385.49 178.57H369.43C368.13 178.57 366.96 177.8 366.44 176.61L350.45 139.72C349.4 137.3 346.06 137.07 344.68 139.32C338.34 149.65 334.79 161.69 334.79 173.74V175.77C334.79 177.57 333.33 179.03 331.53 179.03H316.58C314.78 179.03 313.32 177.57 313.32 175.77V88.26C313.32 86.46 314.78 85 316.58 85H331.53C333.33 85 334.79 86.46 334.79 88.26V120.44C334.79 123.83 339.32 124.97 340.92 121.98C350.63 103.88 360.38 87.49 378.78 85.26C380.71 85.02 383.57 87.74 383.57 89.69V108.42" fill="#010101"/>
<path d="M397.51 175.95V125.68C397.51 124.04 398.46 122.72 399.64 122.72H409.42C410.6 122.72 411.55 124.05 411.55 125.68V175.95C411.55 177.59 410.6 178.91 409.42 178.91H399.64C398.46 178.91 397.51 177.58 397.51 175.95Z" fill="#010101"/>
<path d="M499.89 175.95V125.68C499.89 124.04 500.84 122.72 502.02 122.72H511.8C512.98 122.72 513.93 124.05 513.93 125.68V175.95C513.93 177.59 512.98 178.91 511.8 178.91H502.02C500.84 178.91 499.89 177.58 499.89 175.95Z" fill="#010101"/>
<path d="M404.23 118.64C408.278 118.64 411.56 115.358 411.56 111.31C411.56 107.262 408.278 103.98 404.23 103.98C400.182 103.98 396.9 107.262 396.9 111.31C396.9 115.358 400.182 118.64 404.23 118.64Z" fill="#233E97"/>
<path d="M506.48 118.64C510.528 118.64 513.81 115.358 513.81 111.31C513.81 107.262 510.528 103.98 506.48 103.98C502.432 103.98 499.15 107.262 499.15 111.31C499.15 115.358 502.432 118.64 506.48 118.64Z" fill="#233E97"/>
<path d="M455.8 88.62C434.25 88.62 416.53 106.09 416.53 127.89V128.65C416.53 150.07 433.49 167.15 454.65 167.92C458.35 175.7 466.51 183.47 481.68 183.47V165.62C478.75 167.53 471.74 168.3 465.74 166.38C482.44 161.92 494.68 146.75 494.68 128.64V127.88C495.06 106.08 477.21 88.61 455.8 88.61V88.62ZM476.84 128.65C476.84 140.12 467.66 149.81 455.8 149.81C443.94 149.81 434.64 140.5 434.64 128.65V127.89C434.64 116.42 443.95 106.85 455.8 106.85C467.65 106.85 476.84 116.03 476.84 127.89V128.65Z" fill="#231F20"/>
</svg>
