<svg width="106" height="53" viewBox="0 0 106 53" fill="none" xmlns="http://www.w3.org/2000/svg">
<g filter="url(#filter0_dd_1391_13741)">
<path d="M12 16.2332C12 8.37243 18.3724 2 26.2332 2H79.6508C87.5116 2 93.884 8.37243 93.884 16.2332C93.884 24.094 87.5116 30.4665 79.6508 30.4665H26.2332C18.3724 30.4665 12 24.094 12 16.2332Z" fill="url(#paint0_linear_1391_13741)" shape-rendering="crispEdges"/>
<g clip-path="url(#clip0_1391_13741)">
<path d="M30.414 10.8783C30.439 10.7445 30.51 10.6238 30.6146 10.5368C30.7193 10.4499 30.851 10.4023 30.9871 10.4023C31.1231 10.4023 31.2548 10.4499 31.3595 10.5368C31.4642 10.6238 31.5351 10.7445 31.5601 10.8783L32.1728 14.1182C32.2163 14.3486 32.3282 14.5605 32.494 14.7262C32.6597 14.892 32.8716 15.0039 33.102 15.0474L36.342 15.6601C36.4757 15.6851 36.5965 15.7561 36.6834 15.8607C36.7703 15.9654 36.8179 16.0971 36.8179 16.2332C36.8179 16.3692 36.7703 16.5009 36.6834 16.6056C36.5965 16.7102 36.4757 16.7812 36.342 16.8062L33.102 17.4189C32.8716 17.4624 32.6597 17.5743 32.494 17.7401C32.3282 17.9058 32.2163 18.1177 32.1728 18.3481L31.5601 21.5881C31.5351 21.7218 31.4642 21.8426 31.3595 21.9295C31.2548 22.0164 31.1231 22.064 30.9871 22.064C30.851 22.064 30.7193 22.0164 30.6146 21.9295C30.51 21.8426 30.439 21.7218 30.414 21.5881L29.8014 18.3481C29.7578 18.1177 29.6459 17.9058 29.4801 17.7401C29.3144 17.5743 29.1025 17.4624 28.8721 17.4189L25.6322 16.8062C25.4984 16.7812 25.3777 16.7102 25.2907 16.6056C25.2038 16.5009 25.1562 16.3692 25.1562 16.2332C25.1562 16.0971 25.2038 15.9654 25.2907 15.8607C25.3777 15.7561 25.4984 15.6851 25.6322 15.6601L28.8721 15.0474C29.1025 15.0039 29.3144 14.892 29.4801 14.7262C29.6459 14.5605 29.7578 14.3486 29.8014 14.1182L30.414 10.8783Z" stroke="white" stroke-width="1.16588" stroke-linecap="round" stroke-linejoin="round"/>
<path d="M35.6523 10.4038V12.7356" stroke="white" stroke-width="1.16588" stroke-linecap="round" stroke-linejoin="round"/>
<path d="M36.8161 11.5693H34.4844" stroke="white" stroke-width="1.16588" stroke-linecap="round" stroke-linejoin="round"/>
<path d="M26.3221 22.0627C26.966 22.0627 27.488 21.5407 27.488 20.8968C27.488 20.2529 26.966 19.731 26.3221 19.731C25.6782 19.731 25.1562 20.2529 25.1562 20.8968C25.1562 21.5407 25.6782 22.0627 26.3221 22.0627Z" stroke="white" stroke-width="1.16588" stroke-linecap="round" stroke-linejoin="round"/>
</g>
<path d="M45.1719 11.8721H48.6369C49.1943 11.8721 49.6489 11.9527 50.0009 12.1141C50.3529 12.2754 50.6243 12.4771 50.8149 12.7191C51.0056 12.9611 51.1339 13.2251 51.1999 13.5111C51.2733 13.7971 51.3099 14.0611 51.3099 14.3031C51.3099 14.5451 51.2733 14.8091 51.1999 15.0951C51.1339 15.3737 51.0056 15.6341 50.8149 15.8761C50.6243 16.1181 50.3529 16.3197 50.0009 16.4811C49.6489 16.6351 49.1943 16.7121 48.6369 16.7121H46.5469V19.7261H45.1719V11.8721ZM46.5469 15.5901H48.5599C48.7139 15.5901 48.8716 15.5681 49.0329 15.5241C49.1943 15.4801 49.3409 15.4104 49.4729 15.3151C49.6123 15.2124 49.7223 15.0804 49.8029 14.9191C49.8909 14.7504 49.9349 14.5414 49.9349 14.2921C49.9349 14.0354 49.8983 13.8227 49.8249 13.6541C49.7516 13.4854 49.6526 13.3534 49.5279 13.2581C49.4033 13.1554 49.2603 13.0857 49.0989 13.0491C48.9376 13.0124 48.7653 12.9941 48.5819 12.9941H46.5469V15.5901ZM54.9399 19.8801C54.4852 19.8801 54.0782 19.8067 53.7189 19.6601C53.3669 19.5061 53.0662 19.2971 52.8169 19.0331C52.5749 18.7691 52.3879 18.4537 52.2559 18.0871C52.1312 17.7204 52.0689 17.3171 52.0689 16.8771C52.0689 16.4444 52.1312 16.0447 52.2559 15.6781C52.3879 15.3114 52.5749 14.9961 52.8169 14.7321C53.0662 14.4681 53.3669 14.2627 53.7189 14.1161C54.0782 13.9621 54.4852 13.8851 54.9399 13.8851C55.3945 13.8851 55.7979 13.9621 56.1499 14.1161C56.5092 14.2627 56.8099 14.4681 57.0519 14.7321C57.3012 14.9961 57.4882 15.3114 57.6129 15.6781C57.7449 16.0447 57.8109 16.4444 57.8109 16.8771C57.8109 17.3171 57.7449 17.7204 57.6129 18.0871C57.4882 18.4537 57.3012 18.7691 57.0519 19.0331C56.8099 19.2971 56.5092 19.5061 56.1499 19.6601C55.7979 19.8067 55.3945 19.8801 54.9399 19.8801ZM54.9399 18.8901C55.2185 18.8901 55.4605 18.8314 55.6659 18.7141C55.8712 18.5967 56.0399 18.4427 56.1719 18.2521C56.3039 18.0614 56.3992 17.8487 56.4579 17.6141C56.5239 17.3721 56.5569 17.1264 56.5569 16.8771C56.5569 16.6351 56.5239 16.3931 56.4579 16.1511C56.3992 15.9091 56.3039 15.6964 56.1719 15.5131C56.0399 15.3224 55.8712 15.1684 55.6659 15.0511C55.4605 14.9337 55.2185 14.8751 54.9399 14.8751C54.6612 14.8751 54.4192 14.9337 54.2139 15.0511C54.0085 15.1684 53.8399 15.3224 53.7079 15.5131C53.5759 15.6964 53.4769 15.9091 53.4109 16.1511C53.3522 16.3931 53.3229 16.6351 53.3229 16.8771C53.3229 17.1264 53.3522 17.3721 53.4109 17.6141C53.4769 17.8487 53.5759 18.0614 53.7079 18.2521C53.8399 18.4427 54.0085 18.5967 54.2139 18.7141C54.4192 18.8314 54.6612 18.8901 54.9399 18.8901ZM58.8864 14.0391H60.0744V14.8091H60.0964C60.2724 14.4791 60.518 14.2444 60.8334 14.1051C61.1487 13.9584 61.4897 13.8851 61.8564 13.8851C62.3037 13.8851 62.6924 13.9657 63.0224 14.1271C63.3597 14.2811 63.6384 14.4974 63.8584 14.7761C64.0784 15.0474 64.2434 15.3664 64.3534 15.7331C64.4634 16.0997 64.5184 16.4921 64.5184 16.9101C64.5184 17.2914 64.467 17.6617 64.3644 18.0211C64.269 18.3804 64.1187 18.6994 63.9134 18.9781C63.7154 19.2494 63.4624 19.4694 63.1544 19.6381C62.8464 19.7994 62.4834 19.8801 62.0654 19.8801C61.882 19.8801 61.6987 19.8617 61.5154 19.8251C61.332 19.7957 61.156 19.7444 60.9874 19.6711C60.8187 19.5977 60.661 19.5061 60.5144 19.3961C60.375 19.2787 60.2577 19.1431 60.1624 18.9891H60.1404V21.8271H58.8864V14.0391ZM63.2644 16.8881C63.2644 16.6314 63.2314 16.3821 63.1654 16.1401C63.0994 15.8981 63.0004 15.6854 62.8684 15.5021C62.7364 15.3114 62.5714 15.1611 62.3734 15.0511C62.1754 14.9337 61.948 14.8751 61.6914 14.8751C61.1634 14.8751 60.7637 15.0584 60.4924 15.4251C60.2284 15.7917 60.0964 16.2794 60.0964 16.8881C60.0964 17.1741 60.1294 17.4417 60.1954 17.6911C60.2687 17.9331 60.375 18.1421 60.5144 18.3181C60.6537 18.4941 60.8187 18.6334 61.0094 18.7361C61.2074 18.8387 61.4347 18.8901 61.6914 18.8901C61.9774 18.8901 62.2194 18.8314 62.4174 18.7141C62.6154 18.5967 62.7767 18.4464 62.9014 18.2631C63.0334 18.0724 63.125 17.8597 63.1764 17.6251C63.235 17.3831 63.2644 17.1374 63.2644 16.8881ZM70.572 19.7261H69.34V18.9341H69.318C69.164 19.2201 68.933 19.4511 68.625 19.6271C68.3243 19.7957 68.0163 19.8801 67.701 19.8801C66.953 19.8801 66.4103 19.6967 66.073 19.3301C65.743 18.9561 65.578 18.3951 65.578 17.6471V14.0391H66.832V17.5261C66.832 18.0247 66.9273 18.3767 67.118 18.5821C67.3086 18.7874 67.5763 18.8901 67.921 18.8901C68.185 18.8901 68.405 18.8497 68.581 18.7691C68.757 18.6884 68.9 18.5821 69.01 18.4501C69.12 18.3107 69.197 18.1457 69.241 17.9551C69.2923 17.7644 69.318 17.5591 69.318 17.3391V14.0391H70.572V19.7261ZM71.9274 11.8721H73.1814V19.7261H71.9274V11.8721ZM79.3107 18.4611C79.3107 18.6151 79.329 18.7251 79.3657 18.7911C79.4097 18.8571 79.4904 18.8901 79.6077 18.8901C79.6444 18.8901 79.6884 18.8901 79.7397 18.8901C79.791 18.8901 79.8497 18.8827 79.9157 18.8681V19.7371C79.8717 19.7517 79.813 19.7664 79.7397 19.7811C79.6737 19.8031 79.604 19.8214 79.5307 19.8361C79.4574 19.8507 79.384 19.8617 79.3107 19.8691C79.2374 19.8764 79.175 19.8801 79.1237 19.8801C78.867 19.8801 78.6544 19.8287 78.4857 19.7261C78.317 19.6234 78.207 19.4437 78.1557 19.1871C77.9064 19.4291 77.5984 19.6051 77.2317 19.7151C76.8724 19.8251 76.524 19.8801 76.1867 19.8801C75.93 19.8801 75.6844 19.8434 75.4497 19.7701C75.215 19.7041 75.006 19.6051 74.8227 19.4731C74.6467 19.3337 74.5037 19.1614 74.3937 18.9561C74.291 18.7434 74.2397 18.4977 74.2397 18.2191C74.2397 17.8671 74.302 17.5811 74.4267 17.3611C74.5587 17.1411 74.7274 16.9687 74.9327 16.8441C75.1454 16.7194 75.38 16.6314 75.6367 16.5801C75.9007 16.5214 76.1647 16.4774 76.4287 16.4481C76.656 16.4041 76.8724 16.3747 77.0777 16.3601C77.283 16.3381 77.4627 16.3051 77.6167 16.2611C77.778 16.2171 77.9027 16.1511 77.9907 16.0631C78.086 15.9677 78.1337 15.8284 78.1337 15.6451C78.1337 15.4837 78.0934 15.3517 78.0127 15.2491C77.9394 15.1464 77.844 15.0694 77.7267 15.0181C77.6167 14.9594 77.492 14.9227 77.3527 14.9081C77.2134 14.8861 77.0814 14.8751 76.9567 14.8751C76.6047 14.8751 76.315 14.9484 76.0877 15.0951C75.8604 15.2417 75.732 15.4691 75.7027 15.7771H74.4487C74.4707 15.4104 74.5587 15.1061 74.7127 14.8641C74.8667 14.6221 75.061 14.4277 75.2957 14.2811C75.5377 14.1344 75.809 14.0317 76.1097 13.9731C76.4104 13.9144 76.7184 13.8851 77.0337 13.8851C77.3124 13.8851 77.5874 13.9144 77.8587 13.9731C78.13 14.0317 78.372 14.1271 78.5847 14.2591C78.8047 14.3911 78.9807 14.5634 79.1127 14.7761C79.2447 14.9814 79.3107 15.2344 79.3107 15.5351V18.4611ZM78.0567 16.8771C77.866 17.0017 77.6314 17.0787 77.3527 17.1081C77.074 17.1301 76.7954 17.1667 76.5167 17.2181C76.3847 17.2401 76.2564 17.2731 76.1317 17.3171C76.007 17.3537 75.897 17.4087 75.8017 17.4821C75.7064 17.5481 75.6294 17.6397 75.5707 17.7571C75.5194 17.8671 75.4937 18.0027 75.4937 18.1641C75.4937 18.3034 75.534 18.4207 75.6147 18.5161C75.6954 18.6114 75.7907 18.6884 75.9007 18.7471C76.018 18.7984 76.1427 18.8351 76.2747 18.8571C76.414 18.8791 76.5387 18.8901 76.6487 18.8901C76.788 18.8901 76.9384 18.8717 77.0997 18.8351C77.261 18.7984 77.4114 18.7361 77.5507 18.6481C77.6974 18.5601 77.8184 18.4501 77.9137 18.3181C78.009 18.1787 78.0567 18.0101 78.0567 17.8121V16.8771ZM80.66 14.0391H81.837V15.1391H81.859C81.8957 14.9851 81.9653 14.8347 82.068 14.6881C82.178 14.5414 82.3063 14.4094 82.453 14.2921C82.607 14.1674 82.7757 14.0684 82.959 13.9951C83.1423 13.9217 83.3293 13.8851 83.52 13.8851C83.6667 13.8851 83.7657 13.8887 83.817 13.8961C83.8757 13.9034 83.9343 13.9107 83.993 13.9181V15.1281C83.905 15.1134 83.8133 15.1024 83.718 15.0951C83.63 15.0804 83.542 15.0731 83.454 15.0731C83.2413 15.0731 83.0397 15.1171 82.849 15.2051C82.6657 15.2857 82.5043 15.4104 82.365 15.5791C82.2257 15.7404 82.1157 15.9421 82.035 16.1841C81.9543 16.4261 81.914 16.7047 81.914 17.0201V19.7261H80.66V14.0391Z" fill="white"/>
</g>
<defs>
<filter id="filter0_dd_1391_13741" x="0" y="0" width="105.883" height="52.4663" filterUnits="userSpaceOnUse" color-interpolation-filters="sRGB">
<feFlood flood-opacity="0" result="BackgroundImageFix"/>
<feColorMatrix in="SourceAlpha" type="matrix" values="0 0 0 0 0 0 0 0 0 0 0 0 0 0 0 0 0 0 127 0" result="hardAlpha"/>
<feMorphology radius="4" operator="erode" in="SourceAlpha" result="effect1_dropShadow_1391_13741"/>
<feOffset dy="4"/>
<feGaussianBlur stdDeviation="3"/>
<feComposite in2="hardAlpha" operator="out"/>
<feColorMatrix type="matrix" values="0 0 0 0 0 0 0 0 0 0 0 0 0 0 0 0 0 0 0.1 0"/>
<feBlend mode="normal" in2="BackgroundImageFix" result="effect1_dropShadow_1391_13741"/>
<feColorMatrix in="SourceAlpha" type="matrix" values="0 0 0 0 0 0 0 0 0 0 0 0 0 0 0 0 0 0 127 0" result="hardAlpha"/>
<feMorphology radius="3" operator="erode" in="SourceAlpha" result="effect2_dropShadow_1391_13741"/>
<feOffset dy="10"/>
<feGaussianBlur stdDeviation="7.5"/>
<feComposite in2="hardAlpha" operator="out"/>
<feColorMatrix type="matrix" values="0 0 0 0 0 0 0 0 0 0 0 0 0 0 0 0 0 0 0.1 0"/>
<feBlend mode="normal" in2="effect1_dropShadow_1391_13741" result="effect2_dropShadow_1391_13741"/>
<feBlend mode="normal" in="SourceGraphic" in2="effect2_dropShadow_1391_13741" result="shape"/>
</filter>
<linearGradient id="paint0_linear_1391_13741" x1="52.942" y1="2" x2="52.942" y2="30.4665" gradientUnits="userSpaceOnUse">
<stop stop-color="#233E97"/>
<stop offset="1" stop-color="#3B50C6"/>
</linearGradient>
<clipPath id="clip0_1391_13741">
<rect width="13.9906" height="13.9906" fill="white" transform="translate(23.9922 9.23779)"/>
</clipPath>
</defs>
</svg>
