<svg width="72" height="71" viewBox="0 0 72 71" fill="none" xmlns="http://www.w3.org/2000/svg">
<g clip-path="url(#clip0_187_1351)">
<path d="M2.13666 34.9815C2.13501 40.9309 3.70128 46.7401 6.67952 51.8604L1.85184 69.3548L19.8905 64.6605C24.8798 67.3562 30.4699 68.7687 36.1506 68.7691H36.1655C54.9185 68.7691 70.1838 53.6238 70.1919 35.0081C70.1955 25.9876 66.6592 17.5052 60.2342 11.1235C53.8104 4.74236 45.267 1.22628 36.1641 1.22217C17.4089 1.22217 2.14468 16.3667 2.13694 34.9815" fill="url(#paint0_linear_187_1351)"/>
<path d="M0.921819 34.9703C0.919884 41.1337 2.54229 47.1507 5.62672 52.4543L0.625931 70.5759L19.3114 65.7133C24.4599 68.4993 30.2565 69.9682 36.155 69.9704H36.1702C55.5959 69.9704 71.4097 54.2803 71.418 34.9982C71.4213 25.6535 67.7578 16.8662 61.1033 10.2559C54.4481 3.64644 45.5991 0.0038424 36.1702 0C16.7411 0 0.929562 15.688 0.921819 34.9703ZM12.0497 51.5409L11.352 50.4417C8.41914 45.8132 6.87111 40.4646 6.87333 34.9725C6.87941 18.9455 20.0213 5.90632 36.1812 5.90632C44.0071 5.90962 51.3617 8.93743 56.8934 14.431C62.4249 19.9251 65.4687 27.2284 65.4667 34.9961C65.4595 51.023 52.3174 64.0638 36.1702 64.0638H36.1586C30.9009 64.0611 25.7444 62.6597 21.2474 60.0115L20.1772 59.3816L9.0889 62.267L12.0497 51.5409Z" fill="url(#paint1_linear_187_1351)"/>
<path d="M27.3605 20.3507C26.7007 18.8953 26.0063 18.8659 25.3788 18.8404C24.865 18.8184 24.2777 18.8201 23.6909 18.8201C23.1035 18.8201 22.1492 19.0394 21.3426 19.9135C20.5351 20.7885 18.2598 22.9029 18.2598 27.2034C18.2598 31.5039 21.4159 35.6603 21.8558 36.244C22.2963 36.8267 27.9486 45.9343 36.9005 49.438C44.3403 52.3497 45.8543 51.7706 47.469 51.6246C49.0839 51.4791 52.68 49.5107 53.4136 47.4696C54.1478 45.4287 54.1478 43.6793 53.9277 43.3138C53.7075 42.9496 53.1202 42.7308 52.2394 42.2939C51.3587 41.8569 47.0285 39.742 46.2213 39.4502C45.4138 39.1588 44.8267 39.0133 44.2394 39.8885C43.652 40.7624 41.9655 42.7308 41.4514 43.3138C40.9379 43.8981 40.4238 43.9708 39.5433 43.5336C38.662 43.095 35.8256 42.1731 32.4605 39.1955C29.8423 36.8786 28.0747 34.0173 27.561 33.1421C27.0472 32.2682 27.5059 31.7945 27.9475 31.359C28.3433 30.9673 28.8286 30.3382 29.2694 29.828C29.7085 29.3175 29.8551 28.9533 30.1487 28.3704C30.4427 27.7869 30.2956 27.2764 30.0757 26.8392C29.8551 26.402 28.1436 22.079 27.3605 20.3507Z" fill="white"/>
</g>
<defs>
<linearGradient id="paint0_linear_187_1351" x1="3418.85" y1="6814.49" x2="3418.85" y2="1.22217" gradientUnits="userSpaceOnUse">
<stop stop-color="#1FAF38"/>
<stop offset="1" stop-color="#60D669"/>
</linearGradient>
<linearGradient id="paint1_linear_187_1351" x1="3540.23" y1="7057.59" x2="3540.23" y2="0" gradientUnits="userSpaceOnUse">
<stop stop-color="#F9F9F9"/>
<stop offset="1" stop-color="white"/>
</linearGradient>
<clipPath id="clip0_187_1351">
<rect width="70.81" height="70.81" fill="white" transform="translate(0.616882)"/>
</clipPath>
</defs>
</svg>
